G04 #@! TF.FileFunction,Legend,Top*
%FSLAX46Y46*%
G04 Gerber Fmt 4.6, Leading zero omitted, Abs format (unit mm)*
G04 Created by KiCad (PCBNEW 4.0.2-stable) date Tuesday, July 26, 2016 'PMt' 11:39:25 PM*
%MOMM*%
G01*
G04 APERTURE LIST*
%ADD10C,0.100000*%
%ADD11C,0.300000*%
%ADD12C,0.150000*%
%ADD13C,0.010000*%
G04 APERTURE END LIST*
D10*
D11*
X150146857Y-116466284D02*
X150146857Y-115966284D01*
X150932571Y-115751998D02*
X150932571Y-116466284D01*
X149432571Y-116466284D01*
X149432571Y-115751998D01*
X150861143Y-115180570D02*
X150932571Y-114966284D01*
X150932571Y-114609141D01*
X150861143Y-114466284D01*
X150789714Y-114394855D01*
X150646857Y-114323427D01*
X150504000Y-114323427D01*
X150361143Y-114394855D01*
X150289714Y-114466284D01*
X150218286Y-114609141D01*
X150146857Y-114894855D01*
X150075429Y-115037713D01*
X150004000Y-115109141D01*
X149861143Y-115180570D01*
X149718286Y-115180570D01*
X149575429Y-115109141D01*
X149504000Y-115037713D01*
X149432571Y-114894855D01*
X149432571Y-114537713D01*
X149504000Y-114323427D01*
X150932571Y-113680570D02*
X149432571Y-113680570D01*
X149432571Y-113109142D01*
X149504000Y-112966284D01*
X149575429Y-112894856D01*
X149718286Y-112823427D01*
X149932571Y-112823427D01*
X150075429Y-112894856D01*
X150146857Y-112966284D01*
X150218286Y-113109142D01*
X150218286Y-113680570D01*
X150075429Y-110823427D02*
X150004000Y-110966285D01*
X149932571Y-111037713D01*
X149789714Y-111109142D01*
X149718286Y-111109142D01*
X149575429Y-111037713D01*
X149504000Y-110966285D01*
X149432571Y-110823427D01*
X149432571Y-110537713D01*
X149504000Y-110394856D01*
X149575429Y-110323427D01*
X149718286Y-110251999D01*
X149789714Y-110251999D01*
X149932571Y-110323427D01*
X150004000Y-110394856D01*
X150075429Y-110537713D01*
X150075429Y-110823427D01*
X150146857Y-110966285D01*
X150218286Y-111037713D01*
X150361143Y-111109142D01*
X150646857Y-111109142D01*
X150789714Y-111037713D01*
X150861143Y-110966285D01*
X150932571Y-110823427D01*
X150932571Y-110537713D01*
X150861143Y-110394856D01*
X150789714Y-110323427D01*
X150646857Y-110251999D01*
X150361143Y-110251999D01*
X150218286Y-110323427D01*
X150146857Y-110394856D01*
X150075429Y-110537713D01*
X149575429Y-109680571D02*
X149504000Y-109609142D01*
X149432571Y-109466285D01*
X149432571Y-109109142D01*
X149504000Y-108966285D01*
X149575429Y-108894856D01*
X149718286Y-108823428D01*
X149861143Y-108823428D01*
X150075429Y-108894856D01*
X150932571Y-109751999D01*
X150932571Y-108823428D01*
X149432571Y-107537714D02*
X149432571Y-107823428D01*
X149504000Y-107966285D01*
X149575429Y-108037714D01*
X149789714Y-108180571D01*
X150075429Y-108252000D01*
X150646857Y-108252000D01*
X150789714Y-108180571D01*
X150861143Y-108109143D01*
X150932571Y-107966285D01*
X150932571Y-107680571D01*
X150861143Y-107537714D01*
X150789714Y-107466285D01*
X150646857Y-107394857D01*
X150289714Y-107394857D01*
X150146857Y-107466285D01*
X150075429Y-107537714D01*
X150004000Y-107680571D01*
X150004000Y-107966285D01*
X150075429Y-108109143D01*
X150146857Y-108180571D01*
X150289714Y-108252000D01*
X149432571Y-106109143D02*
X149432571Y-106394857D01*
X149504000Y-106537714D01*
X149575429Y-106609143D01*
X149789714Y-106752000D01*
X150075429Y-106823429D01*
X150646857Y-106823429D01*
X150789714Y-106752000D01*
X150861143Y-106680572D01*
X150932571Y-106537714D01*
X150932571Y-106252000D01*
X150861143Y-106109143D01*
X150789714Y-106037714D01*
X150646857Y-105966286D01*
X150289714Y-105966286D01*
X150146857Y-106037714D01*
X150075429Y-106109143D01*
X150004000Y-106252000D01*
X150004000Y-106537714D01*
X150075429Y-106680572D01*
X150146857Y-106752000D01*
X150289714Y-106823429D01*
X152546857Y-116109143D02*
X152618286Y-115894857D01*
X152689714Y-115823429D01*
X152832571Y-115752000D01*
X153046857Y-115752000D01*
X153189714Y-115823429D01*
X153261143Y-115894857D01*
X153332571Y-116037715D01*
X153332571Y-116609143D01*
X151832571Y-116609143D01*
X151832571Y-116109143D01*
X151904000Y-115966286D01*
X151975429Y-115894857D01*
X152118286Y-115823429D01*
X152261143Y-115823429D01*
X152404000Y-115894857D01*
X152475429Y-115966286D01*
X152546857Y-116109143D01*
X152546857Y-116609143D01*
X153332571Y-114252000D02*
X152618286Y-114752000D01*
X153332571Y-115109143D02*
X151832571Y-115109143D01*
X151832571Y-114537715D01*
X151904000Y-114394857D01*
X151975429Y-114323429D01*
X152118286Y-114252000D01*
X152332571Y-114252000D01*
X152475429Y-114323429D01*
X152546857Y-114394857D01*
X152618286Y-114537715D01*
X152618286Y-115109143D01*
X152546857Y-113609143D02*
X152546857Y-113109143D01*
X153332571Y-112894857D02*
X153332571Y-113609143D01*
X151832571Y-113609143D01*
X151832571Y-112894857D01*
X152904000Y-112323429D02*
X152904000Y-111609143D01*
X153332571Y-112466286D02*
X151832571Y-111966286D01*
X153332571Y-111466286D01*
X153332571Y-110966286D02*
X151832571Y-110966286D01*
X153332571Y-110109143D02*
X152475429Y-110752000D01*
X151832571Y-110109143D02*
X152689714Y-110966286D01*
X151832571Y-109180572D02*
X151832571Y-108894858D01*
X151904000Y-108752000D01*
X152046857Y-108609143D01*
X152332571Y-108537715D01*
X152832571Y-108537715D01*
X153118286Y-108609143D01*
X153261143Y-108752000D01*
X153332571Y-108894858D01*
X153332571Y-109180572D01*
X153261143Y-109323429D01*
X153118286Y-109466286D01*
X152832571Y-109537715D01*
X152332571Y-109537715D01*
X152046857Y-109466286D01*
X151904000Y-109323429D01*
X151832571Y-109180572D01*
X151832571Y-107894857D02*
X153046857Y-107894857D01*
X153189714Y-107823429D01*
X153261143Y-107752000D01*
X153332571Y-107609143D01*
X153332571Y-107323429D01*
X153261143Y-107180571D01*
X153189714Y-107109143D01*
X153046857Y-107037714D01*
X151832571Y-107037714D01*
X151832571Y-106537714D02*
X151832571Y-105680571D01*
X153332571Y-106109142D02*
X151832571Y-106109142D01*
X154946857Y-114073428D02*
X155018286Y-113859142D01*
X155089714Y-113787714D01*
X155232571Y-113716285D01*
X155446857Y-113716285D01*
X155589714Y-113787714D01*
X155661143Y-113859142D01*
X155732571Y-114002000D01*
X155732571Y-114573428D01*
X154232571Y-114573428D01*
X154232571Y-114073428D01*
X154304000Y-113930571D01*
X154375429Y-113859142D01*
X154518286Y-113787714D01*
X154661143Y-113787714D01*
X154804000Y-113859142D01*
X154875429Y-113930571D01*
X154946857Y-114073428D01*
X154946857Y-114573428D01*
X154232571Y-112787714D02*
X154232571Y-112502000D01*
X154304000Y-112359142D01*
X154446857Y-112216285D01*
X154732571Y-112144857D01*
X155232571Y-112144857D01*
X155518286Y-112216285D01*
X155661143Y-112359142D01*
X155732571Y-112502000D01*
X155732571Y-112787714D01*
X155661143Y-112930571D01*
X155518286Y-113073428D01*
X155232571Y-113144857D01*
X154732571Y-113144857D01*
X154446857Y-113073428D01*
X154304000Y-112930571D01*
X154232571Y-112787714D01*
X155304000Y-111573428D02*
X155304000Y-110859142D01*
X155732571Y-111716285D02*
X154232571Y-111216285D01*
X155732571Y-110716285D01*
X155732571Y-109359142D02*
X155018286Y-109859142D01*
X155732571Y-110216285D02*
X154232571Y-110216285D01*
X154232571Y-109644857D01*
X154304000Y-109501999D01*
X154375429Y-109430571D01*
X154518286Y-109359142D01*
X154732571Y-109359142D01*
X154875429Y-109430571D01*
X154946857Y-109501999D01*
X155018286Y-109644857D01*
X155018286Y-110216285D01*
X155732571Y-108716285D02*
X154232571Y-108716285D01*
X154232571Y-108359142D01*
X154304000Y-108144857D01*
X154446857Y-108001999D01*
X154589714Y-107930571D01*
X154875429Y-107859142D01*
X155089714Y-107859142D01*
X155375429Y-107930571D01*
X155518286Y-108001999D01*
X155661143Y-108144857D01*
X155732571Y-108359142D01*
X155732571Y-108716285D01*
D12*
X143510000Y-105410000D02*
X143510000Y-123190000D01*
X143510000Y-123190000D02*
X140970000Y-123190000D01*
X140970000Y-123190000D02*
X140970000Y-105410000D01*
X143790000Y-102590000D02*
X143790000Y-104140000D01*
X143510000Y-105410000D02*
X140970000Y-105410000D01*
X140690000Y-104140000D02*
X140690000Y-102590000D01*
X140690000Y-102590000D02*
X143790000Y-102590000D01*
X168910000Y-105410000D02*
X168910000Y-123190000D01*
X168910000Y-123190000D02*
X166370000Y-123190000D01*
X166370000Y-123190000D02*
X166370000Y-105410000D01*
X169190000Y-102590000D02*
X169190000Y-104140000D01*
X168910000Y-105410000D02*
X166370000Y-105410000D01*
X166090000Y-104140000D02*
X166090000Y-102590000D01*
X166090000Y-102590000D02*
X169190000Y-102590000D01*
D13*
G36*
X160756600Y-104952800D02*
X160756600Y-118008400D01*
X160508851Y-118008400D01*
X160508851Y-107645200D01*
X160524278Y-107639569D01*
X160524232Y-107621253D01*
X160522238Y-107617472D01*
X160522238Y-107398509D01*
X160527999Y-107391160D01*
X160528000Y-107390984D01*
X160524061Y-107379580D01*
X160524061Y-106917005D01*
X160528000Y-106908324D01*
X160520430Y-106885273D01*
X160519365Y-106883644D01*
X160519365Y-106690084D01*
X160527677Y-106683551D01*
X160528000Y-106679683D01*
X160520201Y-106655295D01*
X160513554Y-106645048D01*
X160513554Y-106461884D01*
X160526109Y-106459688D01*
X160528000Y-106451026D01*
X160521696Y-106430756D01*
X160521696Y-106220497D01*
X160527739Y-106208194D01*
X160528000Y-106202466D01*
X160522506Y-106178380D01*
X160522506Y-105984037D01*
X160527981Y-105969664D01*
X160528000Y-105968203D01*
X160521514Y-105946153D01*
X160521514Y-105759628D01*
X160527851Y-105744309D01*
X160528000Y-105739366D01*
X160516692Y-105700719D01*
X160509042Y-105689110D01*
X160509042Y-105513397D01*
X160524112Y-105510370D01*
X160527991Y-105486631D01*
X160528000Y-105484697D01*
X160528000Y-105317905D01*
X160528000Y-105248855D01*
X160515930Y-105193100D01*
X160491383Y-105165755D01*
X160433921Y-105157948D01*
X160413315Y-105160202D01*
X160394232Y-105172515D01*
X160408654Y-105200723D01*
X160449932Y-105243303D01*
X160528000Y-105317905D01*
X160528000Y-105484697D01*
X160508280Y-105425162D01*
X160447771Y-105344969D01*
X160391621Y-105286281D01*
X160305140Y-105207798D01*
X160241819Y-105167297D01*
X160200136Y-105160149D01*
X160179854Y-105168167D01*
X160180445Y-105187191D01*
X160206104Y-105223324D01*
X160261026Y-105282670D01*
X160336514Y-105358565D01*
X160421262Y-105441458D01*
X160476765Y-105491748D01*
X160509042Y-105513397D01*
X160509042Y-105689110D01*
X160480180Y-105645310D01*
X160414574Y-105568325D01*
X160315989Y-105464950D01*
X160264962Y-105413650D01*
X160152311Y-105303738D01*
X160068306Y-105227763D01*
X160007866Y-105181675D01*
X159965907Y-105161426D01*
X159946727Y-105160104D01*
X159931590Y-105168081D01*
X159934545Y-105187910D01*
X159959284Y-105224166D01*
X160009501Y-105281421D01*
X160088889Y-105364248D01*
X160201141Y-105477222D01*
X160209765Y-105485819D01*
X160324534Y-105599314D01*
X160408570Y-105679839D01*
X160466397Y-105730997D01*
X160502537Y-105756392D01*
X160521514Y-105759628D01*
X160521514Y-105946153D01*
X160518487Y-105935861D01*
X160487603Y-105887894D01*
X160431831Y-105820199D01*
X160347652Y-105728670D01*
X160231550Y-105609205D01*
X160150777Y-105528071D01*
X160015921Y-105394876D01*
X159911447Y-105295298D01*
X159833142Y-105225751D01*
X159776794Y-105182653D01*
X159738190Y-105162417D01*
X159718341Y-105160089D01*
X159705907Y-105167984D01*
X159710369Y-105188073D01*
X159735037Y-105224220D01*
X159783221Y-105280285D01*
X159858232Y-105360130D01*
X159963378Y-105467619D01*
X160095564Y-105600220D01*
X160232764Y-105736425D01*
X160338446Y-105839395D01*
X160416435Y-105912386D01*
X160470558Y-105958654D01*
X160504640Y-105981452D01*
X160522506Y-105984037D01*
X160522506Y-106178380D01*
X160521708Y-106174881D01*
X160500434Y-106136983D01*
X160460577Y-106084669D01*
X160398537Y-106013837D01*
X160310713Y-105920384D01*
X160193505Y-105800207D01*
X160043312Y-105649204D01*
X160036539Y-105642436D01*
X159879705Y-105486904D01*
X159754375Y-105365389D01*
X159657219Y-105274940D01*
X159584902Y-105212602D01*
X159534093Y-105175422D01*
X159501458Y-105160446D01*
X159492286Y-105160081D01*
X159483088Y-105168748D01*
X159491313Y-105191411D01*
X159519849Y-105231363D01*
X159571587Y-105291896D01*
X159649416Y-105376303D01*
X159756226Y-105487875D01*
X159894905Y-105629907D01*
X159983747Y-105720110D01*
X160138330Y-105876262D01*
X160261138Y-105998994D01*
X160355690Y-106091424D01*
X160425503Y-106156672D01*
X160474096Y-106197854D01*
X160504988Y-106218090D01*
X160521696Y-106220497D01*
X160521696Y-106430756D01*
X160519882Y-106424922D01*
X160493606Y-106384145D01*
X160446286Y-106325514D01*
X160375036Y-106245848D01*
X160276970Y-106141968D01*
X160149201Y-106010693D01*
X159988846Y-105848842D01*
X159909582Y-105769481D01*
X159735241Y-105596022D01*
X159592879Y-105456272D01*
X159479273Y-105347316D01*
X159391200Y-105266238D01*
X159325436Y-105210120D01*
X159278759Y-105176049D01*
X159247944Y-105161106D01*
X159235944Y-105160075D01*
X159226894Y-105167797D01*
X159233442Y-105188015D01*
X159258348Y-105223770D01*
X159304373Y-105278105D01*
X159374276Y-105354062D01*
X159470818Y-105454682D01*
X159596759Y-105583008D01*
X159754859Y-105742081D01*
X159854362Y-105841621D01*
X160030863Y-106017439D01*
X160174893Y-106159638D01*
X160289467Y-106270948D01*
X160377603Y-106354098D01*
X160442319Y-106411818D01*
X160486630Y-106446837D01*
X160513554Y-106461884D01*
X160513554Y-106645048D01*
X160495019Y-106616471D01*
X160449778Y-106560300D01*
X160381800Y-106483875D01*
X160288407Y-106384288D01*
X160166923Y-106258630D01*
X160014669Y-106103994D01*
X159828969Y-105917470D01*
X159795308Y-105883807D01*
X159604738Y-105693955D01*
X159446558Y-105537901D01*
X159317825Y-105412943D01*
X159215597Y-105316379D01*
X159136933Y-105245506D01*
X159078891Y-105197623D01*
X159038527Y-105170026D01*
X159012902Y-105160013D01*
X159007396Y-105160072D01*
X158999402Y-105167722D01*
X159006640Y-105187930D01*
X159031687Y-105223495D01*
X159077120Y-105277217D01*
X159145516Y-105351895D01*
X159239452Y-105450328D01*
X159361507Y-105575316D01*
X159514256Y-105729659D01*
X159700277Y-105916155D01*
X159740087Y-105955947D01*
X159932716Y-106147979D01*
X160092585Y-106306263D01*
X160222472Y-106433347D01*
X160325152Y-106531785D01*
X160403405Y-106604126D01*
X160460006Y-106652922D01*
X160497734Y-106680724D01*
X160519365Y-106690084D01*
X160519365Y-106883644D01*
X160496048Y-106847962D01*
X160452349Y-106793697D01*
X160386824Y-106719784D01*
X160296968Y-106623529D01*
X160180272Y-106502238D01*
X160034231Y-106353217D01*
X159856336Y-106173772D01*
X159681027Y-105998127D01*
X159475374Y-105793076D01*
X159302419Y-105621911D01*
X159159441Y-105482101D01*
X159043717Y-105371118D01*
X158952525Y-105286434D01*
X158883142Y-105225520D01*
X158832846Y-105185845D01*
X158798914Y-105164883D01*
X158778834Y-105160069D01*
X158771698Y-105167655D01*
X158779509Y-105187837D01*
X158804691Y-105223221D01*
X158849671Y-105276414D01*
X158916874Y-105350024D01*
X159008726Y-105446656D01*
X159127652Y-105568918D01*
X159276078Y-105719416D01*
X159456430Y-105900758D01*
X159625806Y-106070266D01*
X159833431Y-106277361D01*
X160008066Y-106450597D01*
X160152297Y-106592375D01*
X160268712Y-106705100D01*
X160359896Y-106791173D01*
X160428436Y-106852997D01*
X160476919Y-106892976D01*
X160507932Y-106913511D01*
X160524061Y-106917005D01*
X160524061Y-107379580D01*
X160520751Y-107369997D01*
X160515758Y-107362480D01*
X160515758Y-107166416D01*
X160522443Y-107160086D01*
X160522335Y-107158206D01*
X160511414Y-107132979D01*
X160480806Y-107090097D01*
X160428412Y-107027314D01*
X160352133Y-106942385D01*
X160249870Y-106833064D01*
X160119525Y-106697105D01*
X159958999Y-106532263D01*
X159766193Y-106336291D01*
X159553709Y-106121749D01*
X159332613Y-105899549D01*
X159144408Y-105711574D01*
X158986667Y-105555530D01*
X158856965Y-105429124D01*
X158752879Y-105330063D01*
X158671983Y-105256054D01*
X158611852Y-105204804D01*
X158570061Y-105174019D01*
X158544186Y-105161408D01*
X158537709Y-105160943D01*
X158532029Y-105168889D01*
X158542109Y-105190653D01*
X158570163Y-105228606D01*
X158618408Y-105285119D01*
X158689061Y-105362565D01*
X158784338Y-105463314D01*
X158906454Y-105589739D01*
X159057628Y-105744210D01*
X159240074Y-105929100D01*
X159456009Y-106146780D01*
X159506335Y-106197400D01*
X159730081Y-106422000D01*
X159920640Y-106612362D01*
X160080279Y-106770634D01*
X160211264Y-106898957D01*
X160315864Y-106999478D01*
X160396345Y-107074339D01*
X160454977Y-107125687D01*
X160494025Y-107155664D01*
X160515758Y-107166416D01*
X160515758Y-107362480D01*
X160497518Y-107335018D01*
X160456068Y-107283686D01*
X160394171Y-107213639D01*
X160309594Y-107122516D01*
X160200106Y-107007955D01*
X160063475Y-106867596D01*
X159897470Y-106699076D01*
X159699860Y-106500035D01*
X159468411Y-106268111D01*
X159439755Y-106239455D01*
X159205152Y-106005301D01*
X159003709Y-105805193D01*
X158833042Y-105636880D01*
X158690769Y-105498113D01*
X158574507Y-105386642D01*
X158481871Y-105300218D01*
X158410479Y-105236591D01*
X158357948Y-105193511D01*
X158321894Y-105168728D01*
X158299934Y-105159993D01*
X158296288Y-105160066D01*
X158290538Y-105167535D01*
X158299294Y-105187638D01*
X158324733Y-105222677D01*
X158369033Y-105274957D01*
X158434368Y-105346779D01*
X158522916Y-105440447D01*
X158636854Y-105558265D01*
X158778357Y-105702534D01*
X158949603Y-105875559D01*
X159152767Y-106079642D01*
X159384533Y-106311595D01*
X159620961Y-106547593D01*
X159824037Y-106749547D01*
X159996046Y-106919614D01*
X160139274Y-107059953D01*
X160256006Y-107172721D01*
X160348529Y-107260075D01*
X160419128Y-107324173D01*
X160470089Y-107367173D01*
X160503697Y-107391233D01*
X160522238Y-107398509D01*
X160522238Y-107617472D01*
X160506760Y-107588121D01*
X160469909Y-107538039D01*
X160411726Y-107468876D01*
X160330256Y-107378500D01*
X160223546Y-107264779D01*
X160089643Y-107125579D01*
X159926594Y-106958769D01*
X159732444Y-106762217D01*
X159505241Y-106533790D01*
X159327950Y-106356250D01*
X159076309Y-106105037D01*
X158858010Y-105888230D01*
X158670917Y-105703873D01*
X158512897Y-105550010D01*
X158381816Y-105424686D01*
X158275539Y-105325945D01*
X158191932Y-105251831D01*
X158128861Y-105200389D01*
X158084192Y-105169662D01*
X158055790Y-105157697D01*
X158041521Y-105162535D01*
X158038799Y-105174953D01*
X158056257Y-105195935D01*
X158106254Y-105249091D01*
X158185226Y-105330857D01*
X158289611Y-105437669D01*
X158415843Y-105565963D01*
X158560361Y-105712176D01*
X158719599Y-105872743D01*
X158889994Y-106044100D01*
X159067983Y-106222684D01*
X159250001Y-106404930D01*
X159432486Y-106587274D01*
X159611873Y-106766153D01*
X159784599Y-106938003D01*
X159947100Y-107099258D01*
X160095813Y-107246357D01*
X160227173Y-107375734D01*
X160337618Y-107483826D01*
X160423582Y-107567069D01*
X160481504Y-107621898D01*
X160507818Y-107644750D01*
X160508851Y-107645200D01*
X160508851Y-118008400D01*
X158064200Y-118008400D01*
X158064200Y-117754400D01*
X160502600Y-117754400D01*
X160502600Y-107924600D01*
X160294489Y-107924600D01*
X160294489Y-107645200D01*
X160303450Y-107640186D01*
X160298779Y-107623494D01*
X160278181Y-107592657D01*
X160239363Y-107545203D01*
X160180031Y-107478664D01*
X160097890Y-107390568D01*
X159990648Y-107278447D01*
X159856010Y-107139831D01*
X159691682Y-106972250D01*
X159495371Y-106773233D01*
X159321405Y-106597450D01*
X159127870Y-106402041D01*
X158941824Y-106214086D01*
X158766923Y-106037287D01*
X158606822Y-105875342D01*
X158465176Y-105731953D01*
X158345642Y-105610819D01*
X158251873Y-105515640D01*
X158187527Y-105450116D01*
X158161105Y-105423003D01*
X158097188Y-105357820D01*
X158060614Y-105325874D01*
X158043764Y-105323550D01*
X158039017Y-105347230D01*
X158038800Y-105364965D01*
X158044172Y-105384911D01*
X158061898Y-105415218D01*
X158094385Y-105458468D01*
X158144045Y-105517246D01*
X158213286Y-105594135D01*
X158304518Y-105691720D01*
X158420152Y-105812583D01*
X158562597Y-105959309D01*
X158734263Y-106134481D01*
X158937559Y-106340683D01*
X159134189Y-106539413D01*
X159368591Y-106775653D01*
X159570039Y-106977763D01*
X159740966Y-107148059D01*
X159883804Y-107288859D01*
X160000984Y-107402481D01*
X160094939Y-107491243D01*
X160168100Y-107557462D01*
X160222900Y-107603457D01*
X160261770Y-107631544D01*
X160287143Y-107644042D01*
X160294489Y-107645200D01*
X160294489Y-107924600D01*
X160070561Y-107924600D01*
X160070561Y-107645200D01*
X160078697Y-107639636D01*
X160072088Y-107621345D01*
X160048483Y-107587926D01*
X160005629Y-107536982D01*
X159941276Y-107466113D01*
X159853172Y-107372919D01*
X159739065Y-107255002D01*
X159596704Y-107109963D01*
X159423838Y-106935403D01*
X159218214Y-106728922D01*
X159092783Y-106603324D01*
X158867770Y-106378529D01*
X158675926Y-106187714D01*
X158514835Y-106028607D01*
X158382079Y-105898936D01*
X158275240Y-105796429D01*
X158191901Y-105718815D01*
X158129644Y-105663821D01*
X158086052Y-105629176D01*
X158058707Y-105612607D01*
X158045191Y-105611844D01*
X158042866Y-105616669D01*
X158058474Y-105647041D01*
X158106857Y-105708452D01*
X158184011Y-105796898D01*
X158285935Y-105908376D01*
X158408626Y-106038881D01*
X158548081Y-106184408D01*
X158700297Y-106340953D01*
X158861271Y-106504513D01*
X159027002Y-106671082D01*
X159193487Y-106836657D01*
X159356722Y-106997233D01*
X159512706Y-107148806D01*
X159657435Y-107287371D01*
X159786908Y-107408925D01*
X159897120Y-107509463D01*
X159984071Y-107584981D01*
X160043757Y-107631475D01*
X160070561Y-107645200D01*
X160070561Y-107924600D01*
X159841931Y-107924600D01*
X159841931Y-107645200D01*
X159850874Y-107639706D01*
X159844876Y-107621523D01*
X159821563Y-107588102D01*
X159778562Y-107536895D01*
X159713500Y-107465351D01*
X159624005Y-107370921D01*
X159507703Y-107251057D01*
X159362221Y-107103209D01*
X159185186Y-106924828D01*
X158978469Y-106717610D01*
X158767310Y-106506697D01*
X158589133Y-106329675D01*
X158441368Y-106184152D01*
X158321445Y-106067729D01*
X158226797Y-105978013D01*
X158154853Y-105912608D01*
X158103046Y-105869119D01*
X158068805Y-105845149D01*
X158049561Y-105838304D01*
X158042868Y-105845242D01*
X158058353Y-105876383D01*
X158106466Y-105938184D01*
X158182943Y-106026381D01*
X158283522Y-106136708D01*
X158403939Y-106264901D01*
X158539933Y-106406695D01*
X158687241Y-106557824D01*
X158841599Y-106714024D01*
X158998745Y-106871030D01*
X159154416Y-107024577D01*
X159304349Y-107170401D01*
X159444282Y-107304235D01*
X159569952Y-107421816D01*
X159677096Y-107518879D01*
X159761451Y-107591158D01*
X159818754Y-107634389D01*
X159841931Y-107645200D01*
X159841931Y-107924600D01*
X159600589Y-107924600D01*
X159600589Y-107645200D01*
X159616165Y-107642736D01*
X159621744Y-107633338D01*
X159614602Y-107613996D01*
X159592016Y-107581704D01*
X159551260Y-107533453D01*
X159489611Y-107466234D01*
X159404345Y-107377039D01*
X159292739Y-107262859D01*
X159152067Y-107120688D01*
X158979606Y-106947515D01*
X158864151Y-106831896D01*
X158671623Y-106639453D01*
X158511772Y-106480380D01*
X158381560Y-106351922D01*
X158277949Y-106251322D01*
X158197904Y-106175823D01*
X158138386Y-106122668D01*
X158096358Y-106089102D01*
X158068783Y-106072367D01*
X158052624Y-106069707D01*
X158044844Y-106078366D01*
X158043066Y-106086703D01*
X158044560Y-106107271D01*
X158055703Y-106134096D01*
X158079582Y-106170591D01*
X158119289Y-106220167D01*
X158177912Y-106286236D01*
X158258540Y-106372210D01*
X158364263Y-106481500D01*
X158498171Y-106617519D01*
X158663352Y-106783677D01*
X158779505Y-106900007D01*
X158965982Y-107086173D01*
X159120323Y-107239193D01*
X159245965Y-107362187D01*
X159346346Y-107458273D01*
X159424904Y-107530573D01*
X159485074Y-107582205D01*
X159530295Y-107616290D01*
X159564004Y-107635946D01*
X159589638Y-107644293D01*
X159600589Y-107645200D01*
X159600589Y-107924600D01*
X159359233Y-107924600D01*
X159359233Y-107645200D01*
X159370470Y-107639927D01*
X159366174Y-107622116D01*
X159343638Y-107588779D01*
X159300152Y-107536930D01*
X159233010Y-107463581D01*
X159139503Y-107365744D01*
X159016924Y-107240433D01*
X158862565Y-107084660D01*
X158737123Y-106958866D01*
X158558366Y-106780432D01*
X158412034Y-106635660D01*
X158295114Y-106521811D01*
X158204596Y-106436147D01*
X158137466Y-106375930D01*
X158090714Y-106338422D01*
X158061326Y-106320885D01*
X158046293Y-106320582D01*
X158042874Y-106327752D01*
X158058015Y-106361149D01*
X158105386Y-106424034D01*
X158179951Y-106511368D01*
X158276677Y-106618112D01*
X158390528Y-106739228D01*
X158516471Y-106869676D01*
X158649470Y-107004419D01*
X158784492Y-107138417D01*
X158916502Y-107266632D01*
X159040465Y-107384026D01*
X159151348Y-107485559D01*
X159244114Y-107566193D01*
X159313731Y-107620889D01*
X159355163Y-107644609D01*
X159359233Y-107645200D01*
X159359233Y-107924600D01*
X159130555Y-107924600D01*
X159130555Y-107645200D01*
X159143330Y-107640094D01*
X159140145Y-107622580D01*
X159118080Y-107589368D01*
X159074212Y-107537166D01*
X159005621Y-107462683D01*
X158909386Y-107362629D01*
X158782586Y-107233712D01*
X158622788Y-107073132D01*
X158461388Y-106912110D01*
X158332023Y-106784608D01*
X158231374Y-106687668D01*
X158156120Y-106618331D01*
X158102944Y-106573638D01*
X158068524Y-106550631D01*
X158049542Y-106546351D01*
X158042878Y-106556281D01*
X158057794Y-106591257D01*
X158104690Y-106654842D01*
X158177985Y-106741450D01*
X158272096Y-106845490D01*
X158381441Y-106961375D01*
X158500437Y-107083514D01*
X158623501Y-107206320D01*
X158745052Y-107324203D01*
X158859506Y-107431575D01*
X158961282Y-107522846D01*
X159044796Y-107592428D01*
X159104466Y-107634732D01*
X159130555Y-107645200D01*
X159130555Y-107924600D01*
X158901837Y-107924600D01*
X158901837Y-107645200D01*
X158916657Y-107640337D01*
X158914908Y-107623272D01*
X158893402Y-107590298D01*
X158848952Y-107537705D01*
X158778371Y-107461783D01*
X158678470Y-107358824D01*
X158546064Y-107225118D01*
X158508435Y-107187380D01*
X158366233Y-107045628D01*
X158255526Y-106937229D01*
X158172572Y-106858943D01*
X158113627Y-106807533D01*
X158074945Y-106779761D01*
X158052784Y-106772390D01*
X158043399Y-106782182D01*
X158042886Y-106784774D01*
X158057506Y-106821947D01*
X158103804Y-106886424D01*
X158175423Y-106971839D01*
X158266004Y-107071820D01*
X158369191Y-107180001D01*
X158478625Y-107290013D01*
X158587948Y-107395486D01*
X158690803Y-107490053D01*
X158780832Y-107567344D01*
X158851678Y-107620991D01*
X158896982Y-107644625D01*
X158901837Y-107645200D01*
X158901837Y-107924600D01*
X158647600Y-107924600D01*
X158647600Y-107645200D01*
X158665749Y-107640777D01*
X158666216Y-107624557D01*
X158645438Y-107592111D01*
X158599854Y-107539015D01*
X158525901Y-107460841D01*
X158420018Y-107353161D01*
X158381333Y-107314281D01*
X158263537Y-107197045D01*
X158176311Y-107112940D01*
X158115181Y-107058319D01*
X158075672Y-107029538D01*
X158053308Y-107022950D01*
X158043616Y-107034909D01*
X158042901Y-107038560D01*
X158057059Y-107079602D01*
X158102486Y-107145384D01*
X158171428Y-107228126D01*
X158256129Y-107320048D01*
X158348832Y-107413368D01*
X158441782Y-107500306D01*
X158527223Y-107573082D01*
X158597399Y-107623915D01*
X158644556Y-107645024D01*
X158647600Y-107645200D01*
X158647600Y-107924600D01*
X158418505Y-107924600D01*
X158418505Y-107645200D01*
X158441681Y-107641526D01*
X158445146Y-107626766D01*
X158424979Y-107595314D01*
X158377259Y-107541565D01*
X158298064Y-107459913D01*
X158266839Y-107428390D01*
X158175405Y-107337631D01*
X158113043Y-107279821D01*
X158074073Y-107250859D01*
X158052812Y-107246642D01*
X158043580Y-107263067D01*
X158042933Y-107266720D01*
X158056462Y-107314493D01*
X158100969Y-107381549D01*
X158166180Y-107457532D01*
X158241816Y-107532085D01*
X158317600Y-107594852D01*
X158383257Y-107635476D01*
X158418505Y-107645200D01*
X158418505Y-107924600D01*
X158187591Y-107924600D01*
X158187591Y-107645200D01*
X158222344Y-107643389D01*
X158230684Y-107632128D01*
X158209586Y-107602673D01*
X158156028Y-107546282D01*
X158151904Y-107542045D01*
X158095073Y-107485667D01*
X158063672Y-107462846D01*
X158048871Y-107469631D01*
X158043108Y-107493340D01*
X158055466Y-107560674D01*
X158103546Y-107616213D01*
X158172419Y-107644268D01*
X158187591Y-107645200D01*
X158187591Y-107924600D01*
X158064200Y-107924600D01*
X158064200Y-117754400D01*
X158064200Y-118008400D01*
X157810200Y-118008400D01*
X157810200Y-104952800D01*
X160756600Y-104952800D01*
X160756600Y-104952800D01*
G37*
X160756600Y-104952800D02*
X160756600Y-118008400D01*
X160508851Y-118008400D01*
X160508851Y-107645200D01*
X160524278Y-107639569D01*
X160524232Y-107621253D01*
X160522238Y-107617472D01*
X160522238Y-107398509D01*
X160527999Y-107391160D01*
X160528000Y-107390984D01*
X160524061Y-107379580D01*
X160524061Y-106917005D01*
X160528000Y-106908324D01*
X160520430Y-106885273D01*
X160519365Y-106883644D01*
X160519365Y-106690084D01*
X160527677Y-106683551D01*
X160528000Y-106679683D01*
X160520201Y-106655295D01*
X160513554Y-106645048D01*
X160513554Y-106461884D01*
X160526109Y-106459688D01*
X160528000Y-106451026D01*
X160521696Y-106430756D01*
X160521696Y-106220497D01*
X160527739Y-106208194D01*
X160528000Y-106202466D01*
X160522506Y-106178380D01*
X160522506Y-105984037D01*
X160527981Y-105969664D01*
X160528000Y-105968203D01*
X160521514Y-105946153D01*
X160521514Y-105759628D01*
X160527851Y-105744309D01*
X160528000Y-105739366D01*
X160516692Y-105700719D01*
X160509042Y-105689110D01*
X160509042Y-105513397D01*
X160524112Y-105510370D01*
X160527991Y-105486631D01*
X160528000Y-105484697D01*
X160528000Y-105317905D01*
X160528000Y-105248855D01*
X160515930Y-105193100D01*
X160491383Y-105165755D01*
X160433921Y-105157948D01*
X160413315Y-105160202D01*
X160394232Y-105172515D01*
X160408654Y-105200723D01*
X160449932Y-105243303D01*
X160528000Y-105317905D01*
X160528000Y-105484697D01*
X160508280Y-105425162D01*
X160447771Y-105344969D01*
X160391621Y-105286281D01*
X160305140Y-105207798D01*
X160241819Y-105167297D01*
X160200136Y-105160149D01*
X160179854Y-105168167D01*
X160180445Y-105187191D01*
X160206104Y-105223324D01*
X160261026Y-105282670D01*
X160336514Y-105358565D01*
X160421262Y-105441458D01*
X160476765Y-105491748D01*
X160509042Y-105513397D01*
X160509042Y-105689110D01*
X160480180Y-105645310D01*
X160414574Y-105568325D01*
X160315989Y-105464950D01*
X160264962Y-105413650D01*
X160152311Y-105303738D01*
X160068306Y-105227763D01*
X160007866Y-105181675D01*
X159965907Y-105161426D01*
X159946727Y-105160104D01*
X159931590Y-105168081D01*
X159934545Y-105187910D01*
X159959284Y-105224166D01*
X160009501Y-105281421D01*
X160088889Y-105364248D01*
X160201141Y-105477222D01*
X160209765Y-105485819D01*
X160324534Y-105599314D01*
X160408570Y-105679839D01*
X160466397Y-105730997D01*
X160502537Y-105756392D01*
X160521514Y-105759628D01*
X160521514Y-105946153D01*
X160518487Y-105935861D01*
X160487603Y-105887894D01*
X160431831Y-105820199D01*
X160347652Y-105728670D01*
X160231550Y-105609205D01*
X160150777Y-105528071D01*
X160015921Y-105394876D01*
X159911447Y-105295298D01*
X159833142Y-105225751D01*
X159776794Y-105182653D01*
X159738190Y-105162417D01*
X159718341Y-105160089D01*
X159705907Y-105167984D01*
X159710369Y-105188073D01*
X159735037Y-105224220D01*
X159783221Y-105280285D01*
X159858232Y-105360130D01*
X159963378Y-105467619D01*
X160095564Y-105600220D01*
X160232764Y-105736425D01*
X160338446Y-105839395D01*
X160416435Y-105912386D01*
X160470558Y-105958654D01*
X160504640Y-105981452D01*
X160522506Y-105984037D01*
X160522506Y-106178380D01*
X160521708Y-106174881D01*
X160500434Y-106136983D01*
X160460577Y-106084669D01*
X160398537Y-106013837D01*
X160310713Y-105920384D01*
X160193505Y-105800207D01*
X160043312Y-105649204D01*
X160036539Y-105642436D01*
X159879705Y-105486904D01*
X159754375Y-105365389D01*
X159657219Y-105274940D01*
X159584902Y-105212602D01*
X159534093Y-105175422D01*
X159501458Y-105160446D01*
X159492286Y-105160081D01*
X159483088Y-105168748D01*
X159491313Y-105191411D01*
X159519849Y-105231363D01*
X159571587Y-105291896D01*
X159649416Y-105376303D01*
X159756226Y-105487875D01*
X159894905Y-105629907D01*
X159983747Y-105720110D01*
X160138330Y-105876262D01*
X160261138Y-105998994D01*
X160355690Y-106091424D01*
X160425503Y-106156672D01*
X160474096Y-106197854D01*
X160504988Y-106218090D01*
X160521696Y-106220497D01*
X160521696Y-106430756D01*
X160519882Y-106424922D01*
X160493606Y-106384145D01*
X160446286Y-106325514D01*
X160375036Y-106245848D01*
X160276970Y-106141968D01*
X160149201Y-106010693D01*
X159988846Y-105848842D01*
X159909582Y-105769481D01*
X159735241Y-105596022D01*
X159592879Y-105456272D01*
X159479273Y-105347316D01*
X159391200Y-105266238D01*
X159325436Y-105210120D01*
X159278759Y-105176049D01*
X159247944Y-105161106D01*
X159235944Y-105160075D01*
X159226894Y-105167797D01*
X159233442Y-105188015D01*
X159258348Y-105223770D01*
X159304373Y-105278105D01*
X159374276Y-105354062D01*
X159470818Y-105454682D01*
X159596759Y-105583008D01*
X159754859Y-105742081D01*
X159854362Y-105841621D01*
X160030863Y-106017439D01*
X160174893Y-106159638D01*
X160289467Y-106270948D01*
X160377603Y-106354098D01*
X160442319Y-106411818D01*
X160486630Y-106446837D01*
X160513554Y-106461884D01*
X160513554Y-106645048D01*
X160495019Y-106616471D01*
X160449778Y-106560300D01*
X160381800Y-106483875D01*
X160288407Y-106384288D01*
X160166923Y-106258630D01*
X160014669Y-106103994D01*
X159828969Y-105917470D01*
X159795308Y-105883807D01*
X159604738Y-105693955D01*
X159446558Y-105537901D01*
X159317825Y-105412943D01*
X159215597Y-105316379D01*
X159136933Y-105245506D01*
X159078891Y-105197623D01*
X159038527Y-105170026D01*
X159012902Y-105160013D01*
X159007396Y-105160072D01*
X158999402Y-105167722D01*
X159006640Y-105187930D01*
X159031687Y-105223495D01*
X159077120Y-105277217D01*
X159145516Y-105351895D01*
X159239452Y-105450328D01*
X159361507Y-105575316D01*
X159514256Y-105729659D01*
X159700277Y-105916155D01*
X159740087Y-105955947D01*
X159932716Y-106147979D01*
X160092585Y-106306263D01*
X160222472Y-106433347D01*
X160325152Y-106531785D01*
X160403405Y-106604126D01*
X160460006Y-106652922D01*
X160497734Y-106680724D01*
X160519365Y-106690084D01*
X160519365Y-106883644D01*
X160496048Y-106847962D01*
X160452349Y-106793697D01*
X160386824Y-106719784D01*
X160296968Y-106623529D01*
X160180272Y-106502238D01*
X160034231Y-106353217D01*
X159856336Y-106173772D01*
X159681027Y-105998127D01*
X159475374Y-105793076D01*
X159302419Y-105621911D01*
X159159441Y-105482101D01*
X159043717Y-105371118D01*
X158952525Y-105286434D01*
X158883142Y-105225520D01*
X158832846Y-105185845D01*
X158798914Y-105164883D01*
X158778834Y-105160069D01*
X158771698Y-105167655D01*
X158779509Y-105187837D01*
X158804691Y-105223221D01*
X158849671Y-105276414D01*
X158916874Y-105350024D01*
X159008726Y-105446656D01*
X159127652Y-105568918D01*
X159276078Y-105719416D01*
X159456430Y-105900758D01*
X159625806Y-106070266D01*
X159833431Y-106277361D01*
X160008066Y-106450597D01*
X160152297Y-106592375D01*
X160268712Y-106705100D01*
X160359896Y-106791173D01*
X160428436Y-106852997D01*
X160476919Y-106892976D01*
X160507932Y-106913511D01*
X160524061Y-106917005D01*
X160524061Y-107379580D01*
X160520751Y-107369997D01*
X160515758Y-107362480D01*
X160515758Y-107166416D01*
X160522443Y-107160086D01*
X160522335Y-107158206D01*
X160511414Y-107132979D01*
X160480806Y-107090097D01*
X160428412Y-107027314D01*
X160352133Y-106942385D01*
X160249870Y-106833064D01*
X160119525Y-106697105D01*
X159958999Y-106532263D01*
X159766193Y-106336291D01*
X159553709Y-106121749D01*
X159332613Y-105899549D01*
X159144408Y-105711574D01*
X158986667Y-105555530D01*
X158856965Y-105429124D01*
X158752879Y-105330063D01*
X158671983Y-105256054D01*
X158611852Y-105204804D01*
X158570061Y-105174019D01*
X158544186Y-105161408D01*
X158537709Y-105160943D01*
X158532029Y-105168889D01*
X158542109Y-105190653D01*
X158570163Y-105228606D01*
X158618408Y-105285119D01*
X158689061Y-105362565D01*
X158784338Y-105463314D01*
X158906454Y-105589739D01*
X159057628Y-105744210D01*
X159240074Y-105929100D01*
X159456009Y-106146780D01*
X159506335Y-106197400D01*
X159730081Y-106422000D01*
X159920640Y-106612362D01*
X160080279Y-106770634D01*
X160211264Y-106898957D01*
X160315864Y-106999478D01*
X160396345Y-107074339D01*
X160454977Y-107125687D01*
X160494025Y-107155664D01*
X160515758Y-107166416D01*
X160515758Y-107362480D01*
X160497518Y-107335018D01*
X160456068Y-107283686D01*
X160394171Y-107213639D01*
X160309594Y-107122516D01*
X160200106Y-107007955D01*
X160063475Y-106867596D01*
X159897470Y-106699076D01*
X159699860Y-106500035D01*
X159468411Y-106268111D01*
X159439755Y-106239455D01*
X159205152Y-106005301D01*
X159003709Y-105805193D01*
X158833042Y-105636880D01*
X158690769Y-105498113D01*
X158574507Y-105386642D01*
X158481871Y-105300218D01*
X158410479Y-105236591D01*
X158357948Y-105193511D01*
X158321894Y-105168728D01*
X158299934Y-105159993D01*
X158296288Y-105160066D01*
X158290538Y-105167535D01*
X158299294Y-105187638D01*
X158324733Y-105222677D01*
X158369033Y-105274957D01*
X158434368Y-105346779D01*
X158522916Y-105440447D01*
X158636854Y-105558265D01*
X158778357Y-105702534D01*
X158949603Y-105875559D01*
X159152767Y-106079642D01*
X159384533Y-106311595D01*
X159620961Y-106547593D01*
X159824037Y-106749547D01*
X159996046Y-106919614D01*
X160139274Y-107059953D01*
X160256006Y-107172721D01*
X160348529Y-107260075D01*
X160419128Y-107324173D01*
X160470089Y-107367173D01*
X160503697Y-107391233D01*
X160522238Y-107398509D01*
X160522238Y-107617472D01*
X160506760Y-107588121D01*
X160469909Y-107538039D01*
X160411726Y-107468876D01*
X160330256Y-107378500D01*
X160223546Y-107264779D01*
X160089643Y-107125579D01*
X159926594Y-106958769D01*
X159732444Y-106762217D01*
X159505241Y-106533790D01*
X159327950Y-106356250D01*
X159076309Y-106105037D01*
X158858010Y-105888230D01*
X158670917Y-105703873D01*
X158512897Y-105550010D01*
X158381816Y-105424686D01*
X158275539Y-105325945D01*
X158191932Y-105251831D01*
X158128861Y-105200389D01*
X158084192Y-105169662D01*
X158055790Y-105157697D01*
X158041521Y-105162535D01*
X158038799Y-105174953D01*
X158056257Y-105195935D01*
X158106254Y-105249091D01*
X158185226Y-105330857D01*
X158289611Y-105437669D01*
X158415843Y-105565963D01*
X158560361Y-105712176D01*
X158719599Y-105872743D01*
X158889994Y-106044100D01*
X159067983Y-106222684D01*
X159250001Y-106404930D01*
X159432486Y-106587274D01*
X159611873Y-106766153D01*
X159784599Y-106938003D01*
X159947100Y-107099258D01*
X160095813Y-107246357D01*
X160227173Y-107375734D01*
X160337618Y-107483826D01*
X160423582Y-107567069D01*
X160481504Y-107621898D01*
X160507818Y-107644750D01*
X160508851Y-107645200D01*
X160508851Y-118008400D01*
X158064200Y-118008400D01*
X158064200Y-117754400D01*
X160502600Y-117754400D01*
X160502600Y-107924600D01*
X160294489Y-107924600D01*
X160294489Y-107645200D01*
X160303450Y-107640186D01*
X160298779Y-107623494D01*
X160278181Y-107592657D01*
X160239363Y-107545203D01*
X160180031Y-107478664D01*
X160097890Y-107390568D01*
X159990648Y-107278447D01*
X159856010Y-107139831D01*
X159691682Y-106972250D01*
X159495371Y-106773233D01*
X159321405Y-106597450D01*
X159127870Y-106402041D01*
X158941824Y-106214086D01*
X158766923Y-106037287D01*
X158606822Y-105875342D01*
X158465176Y-105731953D01*
X158345642Y-105610819D01*
X158251873Y-105515640D01*
X158187527Y-105450116D01*
X158161105Y-105423003D01*
X158097188Y-105357820D01*
X158060614Y-105325874D01*
X158043764Y-105323550D01*
X158039017Y-105347230D01*
X158038800Y-105364965D01*
X158044172Y-105384911D01*
X158061898Y-105415218D01*
X158094385Y-105458468D01*
X158144045Y-105517246D01*
X158213286Y-105594135D01*
X158304518Y-105691720D01*
X158420152Y-105812583D01*
X158562597Y-105959309D01*
X158734263Y-106134481D01*
X158937559Y-106340683D01*
X159134189Y-106539413D01*
X159368591Y-106775653D01*
X159570039Y-106977763D01*
X159740966Y-107148059D01*
X159883804Y-107288859D01*
X160000984Y-107402481D01*
X160094939Y-107491243D01*
X160168100Y-107557462D01*
X160222900Y-107603457D01*
X160261770Y-107631544D01*
X160287143Y-107644042D01*
X160294489Y-107645200D01*
X160294489Y-107924600D01*
X160070561Y-107924600D01*
X160070561Y-107645200D01*
X160078697Y-107639636D01*
X160072088Y-107621345D01*
X160048483Y-107587926D01*
X160005629Y-107536982D01*
X159941276Y-107466113D01*
X159853172Y-107372919D01*
X159739065Y-107255002D01*
X159596704Y-107109963D01*
X159423838Y-106935403D01*
X159218214Y-106728922D01*
X159092783Y-106603324D01*
X158867770Y-106378529D01*
X158675926Y-106187714D01*
X158514835Y-106028607D01*
X158382079Y-105898936D01*
X158275240Y-105796429D01*
X158191901Y-105718815D01*
X158129644Y-105663821D01*
X158086052Y-105629176D01*
X158058707Y-105612607D01*
X158045191Y-105611844D01*
X158042866Y-105616669D01*
X158058474Y-105647041D01*
X158106857Y-105708452D01*
X158184011Y-105796898D01*
X158285935Y-105908376D01*
X158408626Y-106038881D01*
X158548081Y-106184408D01*
X158700297Y-106340953D01*
X158861271Y-106504513D01*
X159027002Y-106671082D01*
X159193487Y-106836657D01*
X159356722Y-106997233D01*
X159512706Y-107148806D01*
X159657435Y-107287371D01*
X159786908Y-107408925D01*
X159897120Y-107509463D01*
X159984071Y-107584981D01*
X160043757Y-107631475D01*
X160070561Y-107645200D01*
X160070561Y-107924600D01*
X159841931Y-107924600D01*
X159841931Y-107645200D01*
X159850874Y-107639706D01*
X159844876Y-107621523D01*
X159821563Y-107588102D01*
X159778562Y-107536895D01*
X159713500Y-107465351D01*
X159624005Y-107370921D01*
X159507703Y-107251057D01*
X159362221Y-107103209D01*
X159185186Y-106924828D01*
X158978469Y-106717610D01*
X158767310Y-106506697D01*
X158589133Y-106329675D01*
X158441368Y-106184152D01*
X158321445Y-106067729D01*
X158226797Y-105978013D01*
X158154853Y-105912608D01*
X158103046Y-105869119D01*
X158068805Y-105845149D01*
X158049561Y-105838304D01*
X158042868Y-105845242D01*
X158058353Y-105876383D01*
X158106466Y-105938184D01*
X158182943Y-106026381D01*
X158283522Y-106136708D01*
X158403939Y-106264901D01*
X158539933Y-106406695D01*
X158687241Y-106557824D01*
X158841599Y-106714024D01*
X158998745Y-106871030D01*
X159154416Y-107024577D01*
X159304349Y-107170401D01*
X159444282Y-107304235D01*
X159569952Y-107421816D01*
X159677096Y-107518879D01*
X159761451Y-107591158D01*
X159818754Y-107634389D01*
X159841931Y-107645200D01*
X159841931Y-107924600D01*
X159600589Y-107924600D01*
X159600589Y-107645200D01*
X159616165Y-107642736D01*
X159621744Y-107633338D01*
X159614602Y-107613996D01*
X159592016Y-107581704D01*
X159551260Y-107533453D01*
X159489611Y-107466234D01*
X159404345Y-107377039D01*
X159292739Y-107262859D01*
X159152067Y-107120688D01*
X158979606Y-106947515D01*
X158864151Y-106831896D01*
X158671623Y-106639453D01*
X158511772Y-106480380D01*
X158381560Y-106351922D01*
X158277949Y-106251322D01*
X158197904Y-106175823D01*
X158138386Y-106122668D01*
X158096358Y-106089102D01*
X158068783Y-106072367D01*
X158052624Y-106069707D01*
X158044844Y-106078366D01*
X158043066Y-106086703D01*
X158044560Y-106107271D01*
X158055703Y-106134096D01*
X158079582Y-106170591D01*
X158119289Y-106220167D01*
X158177912Y-106286236D01*
X158258540Y-106372210D01*
X158364263Y-106481500D01*
X158498171Y-106617519D01*
X158663352Y-106783677D01*
X158779505Y-106900007D01*
X158965982Y-107086173D01*
X159120323Y-107239193D01*
X159245965Y-107362187D01*
X159346346Y-107458273D01*
X159424904Y-107530573D01*
X159485074Y-107582205D01*
X159530295Y-107616290D01*
X159564004Y-107635946D01*
X159589638Y-107644293D01*
X159600589Y-107645200D01*
X159600589Y-107924600D01*
X159359233Y-107924600D01*
X159359233Y-107645200D01*
X159370470Y-107639927D01*
X159366174Y-107622116D01*
X159343638Y-107588779D01*
X159300152Y-107536930D01*
X159233010Y-107463581D01*
X159139503Y-107365744D01*
X159016924Y-107240433D01*
X158862565Y-107084660D01*
X158737123Y-106958866D01*
X158558366Y-106780432D01*
X158412034Y-106635660D01*
X158295114Y-106521811D01*
X158204596Y-106436147D01*
X158137466Y-106375930D01*
X158090714Y-106338422D01*
X158061326Y-106320885D01*
X158046293Y-106320582D01*
X158042874Y-106327752D01*
X158058015Y-106361149D01*
X158105386Y-106424034D01*
X158179951Y-106511368D01*
X158276677Y-106618112D01*
X158390528Y-106739228D01*
X158516471Y-106869676D01*
X158649470Y-107004419D01*
X158784492Y-107138417D01*
X158916502Y-107266632D01*
X159040465Y-107384026D01*
X159151348Y-107485559D01*
X159244114Y-107566193D01*
X159313731Y-107620889D01*
X159355163Y-107644609D01*
X159359233Y-107645200D01*
X159359233Y-107924600D01*
X159130555Y-107924600D01*
X159130555Y-107645200D01*
X159143330Y-107640094D01*
X159140145Y-107622580D01*
X159118080Y-107589368D01*
X159074212Y-107537166D01*
X159005621Y-107462683D01*
X158909386Y-107362629D01*
X158782586Y-107233712D01*
X158622788Y-107073132D01*
X158461388Y-106912110D01*
X158332023Y-106784608D01*
X158231374Y-106687668D01*
X158156120Y-106618331D01*
X158102944Y-106573638D01*
X158068524Y-106550631D01*
X158049542Y-106546351D01*
X158042878Y-106556281D01*
X158057794Y-106591257D01*
X158104690Y-106654842D01*
X158177985Y-106741450D01*
X158272096Y-106845490D01*
X158381441Y-106961375D01*
X158500437Y-107083514D01*
X158623501Y-107206320D01*
X158745052Y-107324203D01*
X158859506Y-107431575D01*
X158961282Y-107522846D01*
X159044796Y-107592428D01*
X159104466Y-107634732D01*
X159130555Y-107645200D01*
X159130555Y-107924600D01*
X158901837Y-107924600D01*
X158901837Y-107645200D01*
X158916657Y-107640337D01*
X158914908Y-107623272D01*
X158893402Y-107590298D01*
X158848952Y-107537705D01*
X158778371Y-107461783D01*
X158678470Y-107358824D01*
X158546064Y-107225118D01*
X158508435Y-107187380D01*
X158366233Y-107045628D01*
X158255526Y-106937229D01*
X158172572Y-106858943D01*
X158113627Y-106807533D01*
X158074945Y-106779761D01*
X158052784Y-106772390D01*
X158043399Y-106782182D01*
X158042886Y-106784774D01*
X158057506Y-106821947D01*
X158103804Y-106886424D01*
X158175423Y-106971839D01*
X158266004Y-107071820D01*
X158369191Y-107180001D01*
X158478625Y-107290013D01*
X158587948Y-107395486D01*
X158690803Y-107490053D01*
X158780832Y-107567344D01*
X158851678Y-107620991D01*
X158896982Y-107644625D01*
X158901837Y-107645200D01*
X158901837Y-107924600D01*
X158647600Y-107924600D01*
X158647600Y-107645200D01*
X158665749Y-107640777D01*
X158666216Y-107624557D01*
X158645438Y-107592111D01*
X158599854Y-107539015D01*
X158525901Y-107460841D01*
X158420018Y-107353161D01*
X158381333Y-107314281D01*
X158263537Y-107197045D01*
X158176311Y-107112940D01*
X158115181Y-107058319D01*
X158075672Y-107029538D01*
X158053308Y-107022950D01*
X158043616Y-107034909D01*
X158042901Y-107038560D01*
X158057059Y-107079602D01*
X158102486Y-107145384D01*
X158171428Y-107228126D01*
X158256129Y-107320048D01*
X158348832Y-107413368D01*
X158441782Y-107500306D01*
X158527223Y-107573082D01*
X158597399Y-107623915D01*
X158644556Y-107645024D01*
X158647600Y-107645200D01*
X158647600Y-107924600D01*
X158418505Y-107924600D01*
X158418505Y-107645200D01*
X158441681Y-107641526D01*
X158445146Y-107626766D01*
X158424979Y-107595314D01*
X158377259Y-107541565D01*
X158298064Y-107459913D01*
X158266839Y-107428390D01*
X158175405Y-107337631D01*
X158113043Y-107279821D01*
X158074073Y-107250859D01*
X158052812Y-107246642D01*
X158043580Y-107263067D01*
X158042933Y-107266720D01*
X158056462Y-107314493D01*
X158100969Y-107381549D01*
X158166180Y-107457532D01*
X158241816Y-107532085D01*
X158317600Y-107594852D01*
X158383257Y-107635476D01*
X158418505Y-107645200D01*
X158418505Y-107924600D01*
X158187591Y-107924600D01*
X158187591Y-107645200D01*
X158222344Y-107643389D01*
X158230684Y-107632128D01*
X158209586Y-107602673D01*
X158156028Y-107546282D01*
X158151904Y-107542045D01*
X158095073Y-107485667D01*
X158063672Y-107462846D01*
X158048871Y-107469631D01*
X158043108Y-107493340D01*
X158055466Y-107560674D01*
X158103546Y-107616213D01*
X158172419Y-107644268D01*
X158187591Y-107645200D01*
X158187591Y-107924600D01*
X158064200Y-107924600D01*
X158064200Y-117754400D01*
X158064200Y-118008400D01*
X157810200Y-118008400D01*
X157810200Y-104952800D01*
X160756600Y-104952800D01*
G36*
X158756349Y-114685890D02*
X158826825Y-114695604D01*
X158860979Y-114716592D01*
X158872416Y-114750850D01*
X158877315Y-114773244D01*
X158889862Y-114788859D01*
X158917989Y-114798919D01*
X158969626Y-114804643D01*
X159052706Y-114807253D01*
X159175160Y-114807970D01*
X159243641Y-114808000D01*
X159388850Y-114807374D01*
X159492576Y-114804733D01*
X159564128Y-114798940D01*
X159612814Y-114788853D01*
X159647945Y-114773335D01*
X159673674Y-114755357D01*
X159718853Y-114708121D01*
X159737900Y-114647967D01*
X159740600Y-114592100D01*
X159733522Y-114511862D01*
X159706191Y-114458884D01*
X159673674Y-114428844D01*
X159642733Y-114407907D01*
X159606021Y-114393355D01*
X159554230Y-114384050D01*
X159478050Y-114378850D01*
X159368172Y-114376617D01*
X159243641Y-114376200D01*
X159101326Y-114376471D01*
X159001879Y-114378097D01*
X158937368Y-114382299D01*
X158899863Y-114390298D01*
X158881431Y-114403316D01*
X158874140Y-114422573D01*
X158872416Y-114433350D01*
X158858359Y-114470948D01*
X158820652Y-114490180D01*
X158756350Y-114498311D01*
X158648400Y-114506121D01*
X158648400Y-113995200D01*
X158762700Y-113995200D01*
X158833232Y-113997832D01*
X158866649Y-114010769D01*
X158876563Y-114041573D01*
X158877000Y-114058700D01*
X158877000Y-114122200D01*
X159251650Y-114122758D01*
X159451279Y-114127139D01*
X159607390Y-114141510D01*
X159726762Y-114168714D01*
X159816171Y-114211595D01*
X159882394Y-114272994D01*
X159932209Y-114355756D01*
X159957800Y-114418969D01*
X159990438Y-114575344D01*
X159973321Y-114724262D01*
X159946829Y-114795300D01*
X159898804Y-114883141D01*
X159841127Y-114949812D01*
X159766552Y-114998032D01*
X159667835Y-115030519D01*
X159537731Y-115049991D01*
X159368995Y-115059167D01*
X159238950Y-115060886D01*
X158877000Y-115062000D01*
X158877000Y-115125500D01*
X158872262Y-115164685D01*
X158848975Y-115183250D01*
X158793529Y-115188758D01*
X158762700Y-115189000D01*
X158648400Y-115189000D01*
X158648399Y-114933540D01*
X158648399Y-114678080D01*
X158756349Y-114685890D01*
X158756349Y-114685890D01*
G37*
X158756349Y-114685890D02*
X158826825Y-114695604D01*
X158860979Y-114716592D01*
X158872416Y-114750850D01*
X158877315Y-114773244D01*
X158889862Y-114788859D01*
X158917989Y-114798919D01*
X158969626Y-114804643D01*
X159052706Y-114807253D01*
X159175160Y-114807970D01*
X159243641Y-114808000D01*
X159388850Y-114807374D01*
X159492576Y-114804733D01*
X159564128Y-114798940D01*
X159612814Y-114788853D01*
X159647945Y-114773335D01*
X159673674Y-114755357D01*
X159718853Y-114708121D01*
X159737900Y-114647967D01*
X159740600Y-114592100D01*
X159733522Y-114511862D01*
X159706191Y-114458884D01*
X159673674Y-114428844D01*
X159642733Y-114407907D01*
X159606021Y-114393355D01*
X159554230Y-114384050D01*
X159478050Y-114378850D01*
X159368172Y-114376617D01*
X159243641Y-114376200D01*
X159101326Y-114376471D01*
X159001879Y-114378097D01*
X158937368Y-114382299D01*
X158899863Y-114390298D01*
X158881431Y-114403316D01*
X158874140Y-114422573D01*
X158872416Y-114433350D01*
X158858359Y-114470948D01*
X158820652Y-114490180D01*
X158756350Y-114498311D01*
X158648400Y-114506121D01*
X158648400Y-113995200D01*
X158762700Y-113995200D01*
X158833232Y-113997832D01*
X158866649Y-114010769D01*
X158876563Y-114041573D01*
X158877000Y-114058700D01*
X158877000Y-114122200D01*
X159251650Y-114122758D01*
X159451279Y-114127139D01*
X159607390Y-114141510D01*
X159726762Y-114168714D01*
X159816171Y-114211595D01*
X159882394Y-114272994D01*
X159932209Y-114355756D01*
X159957800Y-114418969D01*
X159990438Y-114575344D01*
X159973321Y-114724262D01*
X159946829Y-114795300D01*
X159898804Y-114883141D01*
X159841127Y-114949812D01*
X159766552Y-114998032D01*
X159667835Y-115030519D01*
X159537731Y-115049991D01*
X159368995Y-115059167D01*
X159238950Y-115060886D01*
X158877000Y-115062000D01*
X158877000Y-115125500D01*
X158872262Y-115164685D01*
X158848975Y-115183250D01*
X158793529Y-115188758D01*
X158762700Y-115189000D01*
X158648400Y-115189000D01*
X158648399Y-114933540D01*
X158648399Y-114678080D01*
X158756349Y-114685890D01*
G36*
X159083266Y-116459000D02*
X159075383Y-116554250D01*
X159066122Y-116617136D01*
X159041547Y-116645662D01*
X158985228Y-116656260D01*
X158972250Y-116657384D01*
X158909811Y-116666272D01*
X158883098Y-116688851D01*
X158877055Y-116740178D01*
X158877000Y-116752634D01*
X158877000Y-116840000D01*
X159737225Y-116840000D01*
X159745262Y-116770150D01*
X159755866Y-116725045D01*
X159784077Y-116705096D01*
X159845559Y-116700327D01*
X159854900Y-116700300D01*
X159956500Y-116700300D01*
X159963743Y-116961105D01*
X159965753Y-117083753D01*
X159963030Y-117164289D01*
X159954654Y-117211255D01*
X159939704Y-117233197D01*
X159934139Y-117236049D01*
X159882334Y-117243834D01*
X159825295Y-117241945D01*
X159770030Y-117224569D01*
X159747494Y-117179245D01*
X159745262Y-117163850D01*
X159737225Y-117094000D01*
X158877000Y-117094000D01*
X158877000Y-117181367D01*
X158881056Y-117238973D01*
X158903262Y-117265313D01*
X158958675Y-117275443D01*
X158972250Y-117276617D01*
X159035135Y-117285878D01*
X159063661Y-117310453D01*
X159074259Y-117366772D01*
X159075383Y-117379750D01*
X159083266Y-117475000D01*
X158648400Y-117475000D01*
X158648400Y-116459000D01*
X159083266Y-116459000D01*
X159083266Y-116459000D01*
G37*
X159083266Y-116459000D02*
X159075383Y-116554250D01*
X159066122Y-116617136D01*
X159041547Y-116645662D01*
X158985228Y-116656260D01*
X158972250Y-116657384D01*
X158909811Y-116666272D01*
X158883098Y-116688851D01*
X158877055Y-116740178D01*
X158877000Y-116752634D01*
X158877000Y-116840000D01*
X159737225Y-116840000D01*
X159745262Y-116770150D01*
X159755866Y-116725045D01*
X159784077Y-116705096D01*
X159845559Y-116700327D01*
X159854900Y-116700300D01*
X159956500Y-116700300D01*
X159963743Y-116961105D01*
X159965753Y-117083753D01*
X159963030Y-117164289D01*
X159954654Y-117211255D01*
X159939704Y-117233197D01*
X159934139Y-117236049D01*
X159882334Y-117243834D01*
X159825295Y-117241945D01*
X159770030Y-117224569D01*
X159747494Y-117179245D01*
X159745262Y-117163850D01*
X159737225Y-117094000D01*
X158877000Y-117094000D01*
X158877000Y-117181367D01*
X158881056Y-117238973D01*
X158903262Y-117265313D01*
X158958675Y-117275443D01*
X158972250Y-117276617D01*
X159035135Y-117285878D01*
X159063661Y-117310453D01*
X159074259Y-117366772D01*
X159075383Y-117379750D01*
X159083266Y-117475000D01*
X158648400Y-117475000D01*
X158648400Y-116459000D01*
X159083266Y-116459000D01*
G36*
X159193388Y-115504236D02*
X159367404Y-115431959D01*
X159500005Y-115375840D01*
X159596806Y-115332838D01*
X159663426Y-115299912D01*
X159705480Y-115274021D01*
X159728585Y-115252122D01*
X159738359Y-115231176D01*
X159740417Y-115208141D01*
X159740417Y-115208050D01*
X159744427Y-115165161D01*
X159765293Y-115144767D01*
X159816718Y-115138569D01*
X159855759Y-115138200D01*
X159970918Y-115138200D01*
X159956500Y-115684300D01*
X159867849Y-115684300D01*
X159805929Y-115678372D01*
X159776711Y-115652801D01*
X159766249Y-115616380D01*
X159754604Y-115572355D01*
X159732503Y-115561481D01*
X159683443Y-115578060D01*
X159670750Y-115583404D01*
X159588200Y-115618348D01*
X159588200Y-115848803D01*
X159588873Y-115957988D01*
X159592737Y-116027196D01*
X159602551Y-116067248D01*
X159621080Y-116088963D01*
X159651085Y-116103164D01*
X159653353Y-116104029D01*
X159719717Y-116125085D01*
X159753745Y-116119773D01*
X159768520Y-116084477D01*
X159770583Y-116071650D01*
X159786812Y-116031689D01*
X159830180Y-116012211D01*
X159873950Y-116006617D01*
X159969200Y-115998734D01*
X159969200Y-116535200D01*
X159854900Y-116535200D01*
X159784531Y-116532801D01*
X159751196Y-116520007D01*
X159741167Y-116488426D01*
X159740600Y-116465320D01*
X159738203Y-116439518D01*
X159726790Y-116416573D01*
X159700024Y-116392765D01*
X159651567Y-116364376D01*
X159575085Y-116327684D01*
X159464240Y-116278970D01*
X159374470Y-116240785D01*
X159374470Y-116001800D01*
X159380024Y-115978717D01*
X159383840Y-115918720D01*
X159385000Y-115849400D01*
X159380778Y-115755004D01*
X159367564Y-115706838D01*
X159353250Y-115698485D01*
X159315603Y-115707683D01*
X159244502Y-115730714D01*
X159153845Y-115763015D01*
X159132977Y-115770792D01*
X158944454Y-115841614D01*
X159154197Y-115921707D01*
X159248852Y-115957428D01*
X159323876Y-115984941D01*
X159367881Y-116000106D01*
X159374470Y-116001800D01*
X159374470Y-116240785D01*
X159315150Y-116215552D01*
X158889700Y-116035664D01*
X158876750Y-116101282D01*
X158861606Y-116144072D01*
X158828166Y-116162823D01*
X158762450Y-116166900D01*
X158661100Y-116166900D01*
X158653820Y-115948736D01*
X158646541Y-115730571D01*
X159193388Y-115504236D01*
X159193388Y-115504236D01*
G37*
X159193388Y-115504236D02*
X159367404Y-115431959D01*
X159500005Y-115375840D01*
X159596806Y-115332838D01*
X159663426Y-115299912D01*
X159705480Y-115274021D01*
X159728585Y-115252122D01*
X159738359Y-115231176D01*
X159740417Y-115208141D01*
X159740417Y-115208050D01*
X159744427Y-115165161D01*
X159765293Y-115144767D01*
X159816718Y-115138569D01*
X159855759Y-115138200D01*
X159970918Y-115138200D01*
X159956500Y-115684300D01*
X159867849Y-115684300D01*
X159805929Y-115678372D01*
X159776711Y-115652801D01*
X159766249Y-115616380D01*
X159754604Y-115572355D01*
X159732503Y-115561481D01*
X159683443Y-115578060D01*
X159670750Y-115583404D01*
X159588200Y-115618348D01*
X159588200Y-115848803D01*
X159588873Y-115957988D01*
X159592737Y-116027196D01*
X159602551Y-116067248D01*
X159621080Y-116088963D01*
X159651085Y-116103164D01*
X159653353Y-116104029D01*
X159719717Y-116125085D01*
X159753745Y-116119773D01*
X159768520Y-116084477D01*
X159770583Y-116071650D01*
X159786812Y-116031689D01*
X159830180Y-116012211D01*
X159873950Y-116006617D01*
X159969200Y-115998734D01*
X159969200Y-116535200D01*
X159854900Y-116535200D01*
X159784531Y-116532801D01*
X159751196Y-116520007D01*
X159741167Y-116488426D01*
X159740600Y-116465320D01*
X159738203Y-116439518D01*
X159726790Y-116416573D01*
X159700024Y-116392765D01*
X159651567Y-116364376D01*
X159575085Y-116327684D01*
X159464240Y-116278970D01*
X159374470Y-116240785D01*
X159374470Y-116001800D01*
X159380024Y-115978717D01*
X159383840Y-115918720D01*
X159385000Y-115849400D01*
X159380778Y-115755004D01*
X159367564Y-115706838D01*
X159353250Y-115698485D01*
X159315603Y-115707683D01*
X159244502Y-115730714D01*
X159153845Y-115763015D01*
X159132977Y-115770792D01*
X158944454Y-115841614D01*
X159154197Y-115921707D01*
X159248852Y-115957428D01*
X159323876Y-115984941D01*
X159367881Y-116000106D01*
X159374470Y-116001800D01*
X159374470Y-116240785D01*
X159315150Y-116215552D01*
X158889700Y-116035664D01*
X158876750Y-116101282D01*
X158861606Y-116144072D01*
X158828166Y-116162823D01*
X158762450Y-116166900D01*
X158661100Y-116166900D01*
X158653820Y-115948736D01*
X158646541Y-115730571D01*
X159193388Y-115504236D01*
G36*
X158648400Y-113576745D02*
X158650854Y-113404105D01*
X158659630Y-113273505D01*
X158676845Y-113176360D01*
X158704615Y-113104083D01*
X158745059Y-113048089D01*
X158788447Y-113008865D01*
X158888203Y-112960438D01*
X159002566Y-112951516D01*
X159115255Y-112981273D01*
X159189738Y-113029227D01*
X159275643Y-113104653D01*
X159306912Y-113046227D01*
X159374732Y-112969264D01*
X159473206Y-112918335D01*
X159587571Y-112896722D01*
X159703059Y-112907709D01*
X159783221Y-112940310D01*
X159843747Y-112981463D01*
X159888698Y-113028655D01*
X159920569Y-113090023D01*
X159941859Y-113173706D01*
X159955064Y-113287841D01*
X159962681Y-113440565D01*
X159965159Y-113533224D01*
X159973818Y-113922147D01*
X159863559Y-113914224D01*
X159793784Y-113905701D01*
X159759837Y-113886891D01*
X159746745Y-113847951D01*
X159745262Y-113836450D01*
X159737225Y-113766600D01*
X159385000Y-113766600D01*
X159385000Y-113512600D01*
X159740600Y-113512600D01*
X159740600Y-113374744D01*
X159736969Y-113289317D01*
X159721769Y-113236034D01*
X159688534Y-113196496D01*
X159673674Y-113184244D01*
X159592877Y-113139113D01*
X159520375Y-113142204D01*
X159447395Y-113193895D01*
X159447345Y-113193946D01*
X159406826Y-113247002D01*
X159388436Y-113312490D01*
X159385000Y-113384446D01*
X159385000Y-113512600D01*
X159385000Y-113766600D01*
X158880374Y-113766600D01*
X158877000Y-113795923D01*
X158877000Y-113512600D01*
X159181800Y-113512600D01*
X159181800Y-113403952D01*
X159172584Y-113321267D01*
X159149702Y-113251422D01*
X159142259Y-113238852D01*
X159081848Y-113192982D01*
X159000505Y-113184550D01*
X158926130Y-113208694D01*
X158896293Y-113235486D01*
X158881312Y-113283843D01*
X158877009Y-113367797D01*
X158877000Y-113373794D01*
X158877000Y-113512600D01*
X158877000Y-113795923D01*
X158872337Y-113836450D01*
X158861474Y-113881176D01*
X158832462Y-113903332D01*
X158770170Y-113913051D01*
X158756350Y-113914111D01*
X158648399Y-113921921D01*
X158648400Y-113576745D01*
X158648400Y-113576745D01*
G37*
X158648400Y-113576745D02*
X158650854Y-113404105D01*
X158659630Y-113273505D01*
X158676845Y-113176360D01*
X158704615Y-113104083D01*
X158745059Y-113048089D01*
X158788447Y-113008865D01*
X158888203Y-112960438D01*
X159002566Y-112951516D01*
X159115255Y-112981273D01*
X159189738Y-113029227D01*
X159275643Y-113104653D01*
X159306912Y-113046227D01*
X159374732Y-112969264D01*
X159473206Y-112918335D01*
X159587571Y-112896722D01*
X159703059Y-112907709D01*
X159783221Y-112940310D01*
X159843747Y-112981463D01*
X159888698Y-113028655D01*
X159920569Y-113090023D01*
X159941859Y-113173706D01*
X159955064Y-113287841D01*
X159962681Y-113440565D01*
X159965159Y-113533224D01*
X159973818Y-113922147D01*
X159863559Y-113914224D01*
X159793784Y-113905701D01*
X159759837Y-113886891D01*
X159746745Y-113847951D01*
X159745262Y-113836450D01*
X159737225Y-113766600D01*
X159385000Y-113766600D01*
X159385000Y-113512600D01*
X159740600Y-113512600D01*
X159740600Y-113374744D01*
X159736969Y-113289317D01*
X159721769Y-113236034D01*
X159688534Y-113196496D01*
X159673674Y-113184244D01*
X159592877Y-113139113D01*
X159520375Y-113142204D01*
X159447395Y-113193895D01*
X159447345Y-113193946D01*
X159406826Y-113247002D01*
X159388436Y-113312490D01*
X159385000Y-113384446D01*
X159385000Y-113512600D01*
X159385000Y-113766600D01*
X158880374Y-113766600D01*
X158877000Y-113795923D01*
X158877000Y-113512600D01*
X159181800Y-113512600D01*
X159181800Y-113403952D01*
X159172584Y-113321267D01*
X159149702Y-113251422D01*
X159142259Y-113238852D01*
X159081848Y-113192982D01*
X159000505Y-113184550D01*
X158926130Y-113208694D01*
X158896293Y-113235486D01*
X158881312Y-113283843D01*
X158877009Y-113367797D01*
X158877000Y-113373794D01*
X158877000Y-113512600D01*
X158877000Y-113795923D01*
X158872337Y-113836450D01*
X158861474Y-113881176D01*
X158832462Y-113903332D01*
X158770170Y-113913051D01*
X158756350Y-113914111D01*
X158648399Y-113921921D01*
X158648400Y-113576745D01*
G36*
X158661100Y-112333465D02*
X159102875Y-112161640D01*
X159242431Y-112107082D01*
X159364825Y-112058702D01*
X159462511Y-112019524D01*
X159527945Y-111992578D01*
X159553578Y-111980888D01*
X159553596Y-111980871D01*
X159533876Y-111969556D01*
X159473652Y-111943311D01*
X159379995Y-111905020D01*
X159259974Y-111857568D01*
X159120661Y-111803838D01*
X159104607Y-111797723D01*
X158646674Y-111623520D01*
X158661100Y-111137700D01*
X158762700Y-111137700D01*
X158828736Y-111141422D01*
X158859802Y-111159240D01*
X158871560Y-111201131D01*
X158872337Y-111207550D01*
X158880374Y-111277400D01*
X159737225Y-111277400D01*
X159745262Y-111207550D01*
X159755866Y-111162445D01*
X159784077Y-111142496D01*
X159845559Y-111137727D01*
X159854900Y-111137700D01*
X159956500Y-111137700D01*
X159963738Y-111398050D01*
X159970977Y-111658400D01*
X159855788Y-111658400D01*
X159784910Y-111655816D01*
X159751195Y-111643076D01*
X159741079Y-111612702D01*
X159740600Y-111594900D01*
X159740600Y-111531400D01*
X159393466Y-111531400D01*
X159268521Y-111532190D01*
X159165255Y-111534357D01*
X159092463Y-111537597D01*
X159058938Y-111541609D01*
X159057900Y-111542967D01*
X159084308Y-111554993D01*
X159150775Y-111581461D01*
X159249630Y-111619427D01*
X159373202Y-111665943D01*
X159512983Y-111717756D01*
X159956500Y-111880978D01*
X159964195Y-111969743D01*
X159971891Y-112058509D01*
X159735595Y-112149549D01*
X159597877Y-112202639D01*
X159443587Y-112262162D01*
X159301156Y-112317149D01*
X159270700Y-112328915D01*
X159042100Y-112417240D01*
X159389662Y-112418820D01*
X159737225Y-112420400D01*
X159745262Y-112350550D01*
X159755866Y-112305445D01*
X159784077Y-112285496D01*
X159845559Y-112280727D01*
X159854900Y-112280700D01*
X159956500Y-112280700D01*
X159963724Y-112555254D01*
X159970949Y-112829807D01*
X159862124Y-112821954D01*
X159792889Y-112813332D01*
X159759378Y-112794082D01*
X159746522Y-112754183D01*
X159745262Y-112744250D01*
X159737225Y-112674400D01*
X158880374Y-112674400D01*
X158872337Y-112744250D01*
X158861565Y-112788820D01*
X158832809Y-112810985D01*
X158771001Y-112820756D01*
X158755412Y-112821957D01*
X158646524Y-112829813D01*
X158661100Y-112333465D01*
X158661100Y-112333465D01*
G37*
X158661100Y-112333465D02*
X159102875Y-112161640D01*
X159242431Y-112107082D01*
X159364825Y-112058702D01*
X159462511Y-112019524D01*
X159527945Y-111992578D01*
X159553578Y-111980888D01*
X159553596Y-111980871D01*
X159533876Y-111969556D01*
X159473652Y-111943311D01*
X159379995Y-111905020D01*
X159259974Y-111857568D01*
X159120661Y-111803838D01*
X159104607Y-111797723D01*
X158646674Y-111623520D01*
X158661100Y-111137700D01*
X158762700Y-111137700D01*
X158828736Y-111141422D01*
X158859802Y-111159240D01*
X158871560Y-111201131D01*
X158872337Y-111207550D01*
X158880374Y-111277400D01*
X159737225Y-111277400D01*
X159745262Y-111207550D01*
X159755866Y-111162445D01*
X159784077Y-111142496D01*
X159845559Y-111137727D01*
X159854900Y-111137700D01*
X159956500Y-111137700D01*
X159963738Y-111398050D01*
X159970977Y-111658400D01*
X159855788Y-111658400D01*
X159784910Y-111655816D01*
X159751195Y-111643076D01*
X159741079Y-111612702D01*
X159740600Y-111594900D01*
X159740600Y-111531400D01*
X159393466Y-111531400D01*
X159268521Y-111532190D01*
X159165255Y-111534357D01*
X159092463Y-111537597D01*
X159058938Y-111541609D01*
X159057900Y-111542967D01*
X159084308Y-111554993D01*
X159150775Y-111581461D01*
X159249630Y-111619427D01*
X159373202Y-111665943D01*
X159512983Y-111717756D01*
X159956500Y-111880978D01*
X159964195Y-111969743D01*
X159971891Y-112058509D01*
X159735595Y-112149549D01*
X159597877Y-112202639D01*
X159443587Y-112262162D01*
X159301156Y-112317149D01*
X159270700Y-112328915D01*
X159042100Y-112417240D01*
X159389662Y-112418820D01*
X159737225Y-112420400D01*
X159745262Y-112350550D01*
X159755866Y-112305445D01*
X159784077Y-112285496D01*
X159845559Y-112280727D01*
X159854900Y-112280700D01*
X159956500Y-112280700D01*
X159963724Y-112555254D01*
X159970949Y-112829807D01*
X159862124Y-112821954D01*
X159792889Y-112813332D01*
X159759378Y-112794082D01*
X159746522Y-112754183D01*
X159745262Y-112744250D01*
X159737225Y-112674400D01*
X158880374Y-112674400D01*
X158872337Y-112744250D01*
X158861565Y-112788820D01*
X158832809Y-112810985D01*
X158771001Y-112820756D01*
X158755412Y-112821957D01*
X158646524Y-112829813D01*
X158661100Y-112333465D01*
G36*
X158653761Y-110497994D02*
X158661100Y-110277387D01*
X159194500Y-110055239D01*
X159366706Y-109983167D01*
X159497660Y-109927102D01*
X159593167Y-109883920D01*
X159659034Y-109850500D01*
X159701069Y-109823718D01*
X159725078Y-109800451D01*
X159736869Y-109777578D01*
X159740721Y-109761496D01*
X159754948Y-109715461D01*
X159786299Y-109692747D01*
X159850651Y-109682904D01*
X159861371Y-109682090D01*
X159969200Y-109674280D01*
X159969200Y-110236000D01*
X159867600Y-110236000D01*
X159802140Y-110232535D01*
X159773046Y-110216186D01*
X159766036Y-110178030D01*
X159766000Y-110172500D01*
X159758899Y-110124925D01*
X159731095Y-110111622D01*
X159672834Y-110129657D01*
X159652895Y-110138478D01*
X159622491Y-110154868D01*
X159603500Y-110177602D01*
X159593241Y-110217606D01*
X159589035Y-110285805D01*
X159588201Y-110393126D01*
X159588200Y-110402215D01*
X159589447Y-110514583D01*
X159594365Y-110585995D01*
X159604719Y-110626259D01*
X159622273Y-110645186D01*
X159632650Y-110649256D01*
X159696637Y-110670679D01*
X159721550Y-110680336D01*
X159754373Y-110684131D01*
X159765533Y-110650647D01*
X159766000Y-110632418D01*
X159771140Y-110589820D01*
X159796140Y-110570883D01*
X159855370Y-110566243D01*
X159867600Y-110566200D01*
X159969200Y-110566200D01*
X159969200Y-111102521D01*
X159861371Y-111094711D01*
X159791978Y-111085711D01*
X159757496Y-111065096D01*
X159742049Y-111022421D01*
X159740721Y-111015327D01*
X159732205Y-110986905D01*
X159713185Y-110961018D01*
X159676763Y-110933536D01*
X159616037Y-110900328D01*
X159524109Y-110857263D01*
X159394077Y-110800213D01*
X159385000Y-110796301D01*
X159385000Y-110559859D01*
X159385000Y-110395212D01*
X159383569Y-110307004D01*
X159377305Y-110259810D01*
X159363253Y-110243878D01*
X159340550Y-110248591D01*
X159292078Y-110266977D01*
X159216073Y-110294544D01*
X159163241Y-110313272D01*
X159061567Y-110350249D01*
X159006449Y-110377567D01*
X158998164Y-110401344D01*
X159036993Y-110427696D01*
X159123213Y-110462741D01*
X159170866Y-110480501D01*
X159385000Y-110559859D01*
X159385000Y-110796301D01*
X159348621Y-110780619D01*
X159188880Y-110711904D01*
X159069930Y-110661356D01*
X158985773Y-110627360D01*
X158930412Y-110608295D01*
X158897850Y-110602546D01*
X158882088Y-110608493D01*
X158877130Y-110624519D01*
X158876978Y-110649006D01*
X158877000Y-110653389D01*
X158872557Y-110693472D01*
X158850164Y-110712546D01*
X158796222Y-110718303D01*
X158761711Y-110718600D01*
X158646422Y-110718600D01*
X158653761Y-110497994D01*
X158653761Y-110497994D01*
G37*
X158653761Y-110497994D02*
X158661100Y-110277387D01*
X159194500Y-110055239D01*
X159366706Y-109983167D01*
X159497660Y-109927102D01*
X159593167Y-109883920D01*
X159659034Y-109850500D01*
X159701069Y-109823718D01*
X159725078Y-109800451D01*
X159736869Y-109777578D01*
X159740721Y-109761496D01*
X159754948Y-109715461D01*
X159786299Y-109692747D01*
X159850651Y-109682904D01*
X159861371Y-109682090D01*
X159969200Y-109674280D01*
X159969200Y-110236000D01*
X159867600Y-110236000D01*
X159802140Y-110232535D01*
X159773046Y-110216186D01*
X159766036Y-110178030D01*
X159766000Y-110172500D01*
X159758899Y-110124925D01*
X159731095Y-110111622D01*
X159672834Y-110129657D01*
X159652895Y-110138478D01*
X159622491Y-110154868D01*
X159603500Y-110177602D01*
X159593241Y-110217606D01*
X159589035Y-110285805D01*
X159588201Y-110393126D01*
X159588200Y-110402215D01*
X159589447Y-110514583D01*
X159594365Y-110585995D01*
X159604719Y-110626259D01*
X159622273Y-110645186D01*
X159632650Y-110649256D01*
X159696637Y-110670679D01*
X159721550Y-110680336D01*
X159754373Y-110684131D01*
X159765533Y-110650647D01*
X159766000Y-110632418D01*
X159771140Y-110589820D01*
X159796140Y-110570883D01*
X159855370Y-110566243D01*
X159867600Y-110566200D01*
X159969200Y-110566200D01*
X159969200Y-111102521D01*
X159861371Y-111094711D01*
X159791978Y-111085711D01*
X159757496Y-111065096D01*
X159742049Y-111022421D01*
X159740721Y-111015327D01*
X159732205Y-110986905D01*
X159713185Y-110961018D01*
X159676763Y-110933536D01*
X159616037Y-110900328D01*
X159524109Y-110857263D01*
X159394077Y-110800213D01*
X159385000Y-110796301D01*
X159385000Y-110559859D01*
X159385000Y-110395212D01*
X159383569Y-110307004D01*
X159377305Y-110259810D01*
X159363253Y-110243878D01*
X159340550Y-110248591D01*
X159292078Y-110266977D01*
X159216073Y-110294544D01*
X159163241Y-110313272D01*
X159061567Y-110350249D01*
X159006449Y-110377567D01*
X158998164Y-110401344D01*
X159036993Y-110427696D01*
X159123213Y-110462741D01*
X159170866Y-110480501D01*
X159385000Y-110559859D01*
X159385000Y-110796301D01*
X159348621Y-110780619D01*
X159188880Y-110711904D01*
X159069930Y-110661356D01*
X158985773Y-110627360D01*
X158930412Y-110608295D01*
X158897850Y-110602546D01*
X158882088Y-110608493D01*
X158877130Y-110624519D01*
X158876978Y-110649006D01*
X158877000Y-110653389D01*
X158872557Y-110693472D01*
X158850164Y-110712546D01*
X158796222Y-110718303D01*
X158761711Y-110718600D01*
X158646422Y-110718600D01*
X158653761Y-110497994D01*
G36*
X158756350Y-108259690D02*
X158825255Y-108268375D01*
X158858499Y-108287902D01*
X158871214Y-108328406D01*
X158872337Y-108337350D01*
X158880374Y-108407200D01*
X159969200Y-108407200D01*
X159969200Y-108627420D01*
X159550100Y-108925993D01*
X159423337Y-109016790D01*
X159311970Y-109097497D01*
X159222176Y-109163559D01*
X159160133Y-109210421D01*
X159132018Y-109233530D01*
X159131000Y-109234983D01*
X159154758Y-109239015D01*
X159219472Y-109242321D01*
X159315297Y-109244562D01*
X159432391Y-109245400D01*
X159737225Y-109245400D01*
X159745262Y-109175550D01*
X159755866Y-109130445D01*
X159784077Y-109110496D01*
X159845559Y-109105727D01*
X159854900Y-109105700D01*
X159956500Y-109105700D01*
X159963738Y-109366050D01*
X159970977Y-109626400D01*
X159855788Y-109626400D01*
X159784910Y-109623816D01*
X159751195Y-109611076D01*
X159741079Y-109580702D01*
X159740600Y-109562900D01*
X159740600Y-109499400D01*
X158877000Y-109499400D01*
X158877000Y-109562900D01*
X158872262Y-109602085D01*
X158848975Y-109620650D01*
X158793529Y-109626158D01*
X158762700Y-109626400D01*
X158648400Y-109626400D01*
X158648400Y-109272904D01*
X159023050Y-109007011D01*
X159146989Y-108918883D01*
X159259462Y-108838595D01*
X159352706Y-108771715D01*
X159418957Y-108723807D01*
X159448500Y-108701967D01*
X159465857Y-108685635D01*
X159463350Y-108674544D01*
X159434228Y-108667658D01*
X159371742Y-108663942D01*
X159269143Y-108662358D01*
X159188150Y-108662008D01*
X158877000Y-108661200D01*
X158877000Y-108724700D01*
X158872262Y-108763885D01*
X158848975Y-108782450D01*
X158793529Y-108787958D01*
X158762700Y-108788200D01*
X158648400Y-108788200D01*
X158648400Y-108520040D01*
X158648399Y-108251880D01*
X158756350Y-108259690D01*
X158756350Y-108259690D01*
G37*
X158756350Y-108259690D02*
X158825255Y-108268375D01*
X158858499Y-108287902D01*
X158871214Y-108328406D01*
X158872337Y-108337350D01*
X158880374Y-108407200D01*
X159969200Y-108407200D01*
X159969200Y-108627420D01*
X159550100Y-108925993D01*
X159423337Y-109016790D01*
X159311970Y-109097497D01*
X159222176Y-109163559D01*
X159160133Y-109210421D01*
X159132018Y-109233530D01*
X159131000Y-109234983D01*
X159154758Y-109239015D01*
X159219472Y-109242321D01*
X159315297Y-109244562D01*
X159432391Y-109245400D01*
X159737225Y-109245400D01*
X159745262Y-109175550D01*
X159755866Y-109130445D01*
X159784077Y-109110496D01*
X159845559Y-109105727D01*
X159854900Y-109105700D01*
X159956500Y-109105700D01*
X159963738Y-109366050D01*
X159970977Y-109626400D01*
X159855788Y-109626400D01*
X159784910Y-109623816D01*
X159751195Y-109611076D01*
X159741079Y-109580702D01*
X159740600Y-109562900D01*
X159740600Y-109499400D01*
X158877000Y-109499400D01*
X158877000Y-109562900D01*
X158872262Y-109602085D01*
X158848975Y-109620650D01*
X158793529Y-109626158D01*
X158762700Y-109626400D01*
X158648400Y-109626400D01*
X158648400Y-109272904D01*
X159023050Y-109007011D01*
X159146989Y-108918883D01*
X159259462Y-108838595D01*
X159352706Y-108771715D01*
X159418957Y-108723807D01*
X159448500Y-108701967D01*
X159465857Y-108685635D01*
X159463350Y-108674544D01*
X159434228Y-108667658D01*
X159371742Y-108663942D01*
X159269143Y-108662358D01*
X159188150Y-108662008D01*
X158877000Y-108661200D01*
X158877000Y-108724700D01*
X158872262Y-108763885D01*
X158848975Y-108782450D01*
X158793529Y-108787958D01*
X158762700Y-108788200D01*
X158648400Y-108788200D01*
X158648400Y-108520040D01*
X158648399Y-108251880D01*
X158756350Y-108259690D01*
M02*
