M48
;DRILL file {KiCad 4.0.2-stable} date Sunday, August 14, 2016 'PMt' 09:13:45 PM
;FORMAT={2:4/ absolute / inch / keep zeros}
FMAT,2
INCH,TZ
T1C0.030
T2C0.040
T3C0.087
%
G90
G05
M72
T1
X046000Y-040750
X046000Y-043750
X047000Y-040750
X047000Y-043750
X048000Y-040750
X048000Y-043750
X049000Y-040750
X049000Y-043750
X050000Y-040750
X050000Y-043750
X052500Y-040750
X052500Y-043750
X053500Y-040750
X053500Y-043750
X054500Y-040750
X054500Y-043750
X055500Y-040750
X055500Y-043750
X056500Y-040750
X056500Y-043750
X059000Y-040750
X059000Y-043750
X060000Y-040750
X060000Y-043750
X061000Y-040750
X061000Y-043750
X062000Y-040750
X062000Y-043750
X063000Y-040750
X063000Y-043750
T2
X048000Y-039500
X049000Y-039500
X050000Y-039500
X051000Y-039500
X052000Y-039500
X053000Y-039500
X054000Y-039500
X055000Y-039500
X056000Y-039500
X057000Y-039500
X058000Y-039500
X059000Y-039500
X060000Y-039500
X061000Y-039500
T3
X044250Y-042250
X064750Y-042250
T0
M30
