G04 #@! TF.FileFunction,Copper,L2,Bot,Signal*
%FSLAX46Y46*%
G04 Gerber Fmt 4.6, Leading zero omitted, Abs format (unit mm)*
G04 Created by KiCad (PCBNEW 4.0.2-stable) date Sunday, August 14, 2016 'PMt' 09:10:01 PM*
%MOMM*%
G01*
G04 APERTURE LIST*
%ADD10C,0.100000*%
%ADD11C,2.500000*%
%ADD12C,1.524000*%
%ADD13R,1.727200X2.032000*%
%ADD14O,1.727200X2.032000*%
%ADD15C,0.250000*%
%ADD16C,0.300000*%
G04 APERTURE END LIST*
D10*
D11*
X164465000Y-107315000D03*
X112395000Y-107315000D03*
D12*
X116840000Y-111125000D03*
X119380000Y-111125000D03*
X121920000Y-111125000D03*
X124460000Y-111125000D03*
X127000000Y-111125000D03*
X127000000Y-103505000D03*
X124460000Y-103505000D03*
X121920000Y-103505000D03*
X119380000Y-103505000D03*
X116840000Y-103505000D03*
X133350000Y-111125000D03*
X135890000Y-111125000D03*
X138430000Y-111125000D03*
X140970000Y-111125000D03*
X143510000Y-111125000D03*
X143510000Y-103505000D03*
X140970000Y-103505000D03*
X138430000Y-103505000D03*
X135890000Y-103505000D03*
X133350000Y-103505000D03*
X149860000Y-111125000D03*
X152400000Y-111125000D03*
X154940000Y-111125000D03*
X157480000Y-111125000D03*
X160020000Y-111125000D03*
X160020000Y-103505000D03*
X157480000Y-103505000D03*
X154940000Y-103505000D03*
X152400000Y-103505000D03*
X149860000Y-103505000D03*
D13*
X121920000Y-100330000D03*
D14*
X124460000Y-100330000D03*
X127000000Y-100330000D03*
X129540000Y-100330000D03*
X132080000Y-100330000D03*
X134620000Y-100330000D03*
X137160000Y-100330000D03*
X139700000Y-100330000D03*
X142240000Y-100330000D03*
X144780000Y-100330000D03*
X147320000Y-100330000D03*
X149860000Y-100330000D03*
X152400000Y-100330000D03*
X154940000Y-100330000D03*
D15*
X147320000Y-100330000D02*
X147320000Y-108585000D01*
X147320000Y-108585000D02*
X149860000Y-111125000D01*
X134485500Y-112260500D02*
X133350000Y-111125000D01*
X138883000Y-112260500D02*
X134485500Y-112260500D01*
X139700000Y-111443500D02*
X138883000Y-112260500D01*
X139700000Y-110854700D02*
X139700000Y-111443500D01*
X141969700Y-108585000D02*
X139700000Y-110854700D01*
X147320000Y-108585000D02*
X141969700Y-108585000D01*
X148509500Y-107234500D02*
X152400000Y-111125000D01*
X148509500Y-99648100D02*
X148509500Y-107234500D01*
X147810200Y-98948800D02*
X148509500Y-99648100D01*
X146830000Y-98948800D02*
X147810200Y-98948800D01*
X145968900Y-99809900D02*
X146830000Y-98948800D01*
X145968900Y-100330000D02*
X145968900Y-99809900D01*
X144780000Y-100330000D02*
X145968900Y-100330000D01*
X142240000Y-100330000D02*
X143428900Y-100330000D01*
X123492100Y-109552900D02*
X121920000Y-111125000D01*
X138430000Y-109552900D02*
X123492100Y-109552900D01*
X138430000Y-109552800D02*
X138430000Y-109552900D01*
X139019600Y-109552800D02*
X138430000Y-109552800D01*
X144615800Y-103956600D02*
X139019600Y-109552800D01*
X144615800Y-102705800D02*
X144615800Y-103956600D01*
X143428900Y-101518900D02*
X144615800Y-102705800D01*
X143428900Y-100330000D02*
X143428900Y-101518900D01*
X138430000Y-109552900D02*
X138430000Y-111125000D01*
X125555800Y-110029200D02*
X124460000Y-111125000D01*
X129028000Y-110029200D02*
X125555800Y-110029200D01*
X131709700Y-112710900D02*
X129028000Y-110029200D01*
X139384100Y-112710900D02*
X131709700Y-112710900D01*
X140970000Y-111125000D02*
X139384100Y-112710900D01*
X152400000Y-100330000D02*
X153588900Y-100330000D01*
X156356600Y-110001600D02*
X157480000Y-111125000D01*
X153833400Y-110001600D02*
X156356600Y-110001600D01*
X153588900Y-109757100D02*
X153833400Y-110001600D01*
X153588900Y-100330000D02*
X153588900Y-109757100D01*
X142082300Y-110012700D02*
X140970000Y-111125000D01*
X144355500Y-110012700D02*
X142082300Y-110012700D01*
X146571500Y-112228700D02*
X144355500Y-110012700D01*
X152835700Y-112228700D02*
X146571500Y-112228700D01*
X153833400Y-111231000D02*
X152835700Y-112228700D01*
X153833400Y-110001600D02*
X153833400Y-111231000D01*
X154940000Y-100330000D02*
X156128900Y-100330000D01*
X156128900Y-107233900D02*
X159522900Y-110627900D01*
X156128900Y-100330000D02*
X156128900Y-107233900D01*
X159522900Y-110627900D02*
X160020000Y-111125000D01*
X157471700Y-112679100D02*
X159522900Y-110627900D01*
X145064100Y-112679100D02*
X157471700Y-112679100D01*
X143510000Y-111125000D02*
X145064100Y-112679100D01*
X141414600Y-113220400D02*
X143510000Y-111125000D01*
X129095400Y-113220400D02*
X141414600Y-113220400D01*
X127000000Y-111125000D02*
X129095400Y-113220400D01*
X137160000Y-100330000D02*
X137160000Y-98988700D01*
X140255800Y-98988700D02*
X137160000Y-98988700D01*
X140970000Y-99702900D02*
X140255800Y-98988700D01*
X140970000Y-103505000D02*
X140970000Y-99702900D01*
X125730000Y-102235000D02*
X124460000Y-103505000D01*
X125730000Y-99761600D02*
X125730000Y-102235000D01*
X126502900Y-98988700D02*
X125730000Y-99761600D01*
X137160000Y-98988700D02*
X126502900Y-98988700D01*
X139700000Y-102235000D02*
X138430000Y-103505000D01*
X139700000Y-100330000D02*
X139700000Y-102235000D01*
D16*
X120706100Y-102178900D02*
X119380000Y-103505000D01*
X120706100Y-100330000D02*
X120706100Y-102178900D01*
X121920000Y-100330000D02*
X120706100Y-100330000D01*
D15*
X149860000Y-100330000D02*
X149860000Y-103505000D01*
X117927800Y-104592800D02*
X116840000Y-103505000D01*
X132262200Y-104592800D02*
X117927800Y-104592800D01*
X133350000Y-103505000D02*
X132262200Y-104592800D01*
D16*
X142371800Y-104643200D02*
X143510000Y-103505000D01*
X137991600Y-104643200D02*
X142371800Y-104643200D01*
X137160000Y-103811600D02*
X137991600Y-104643200D01*
X137160000Y-103188400D02*
X137160000Y-103811600D01*
X135668000Y-101696400D02*
X137160000Y-103188400D01*
X131513300Y-101696400D02*
X135668000Y-101696400D01*
X130753900Y-100937000D02*
X131513300Y-101696400D01*
X130753900Y-100330000D02*
X130753900Y-100937000D01*
X129540000Y-100330000D02*
X130753900Y-100330000D01*
X134680800Y-102295800D02*
X135890000Y-103505000D01*
X129572700Y-102295800D02*
X134680800Y-102295800D01*
X128213900Y-100937000D02*
X129572700Y-102295800D01*
X128213900Y-100330000D02*
X128213900Y-100937000D01*
X127000000Y-100330000D02*
X128213900Y-100330000D01*
M02*
