M48
;DRILL file {KiCad 4.0.2-stable} date Monday, September 19, 2016 'PMt' 09:37:46 PM
;FORMAT={2:4/ absolute / inch / keep zeros}
FMAT,2
INCH,TZ
T1C0.016
T2C0.024
T3C0.031
T4C0.032
T5C0.032
T6C0.039
T7C0.040
T8C0.125
%
G90
G05
M72
T1
X048893Y-056280
X048903Y-055783
X053333Y-056071
X053522Y-045804
X056810Y-054630
X058067Y-054749
X059350Y-052354
X059352Y-055071
X059461Y-055469
X059506Y-055890
X060284Y-044018
X060549Y-056449
X060718Y-054279
X061426Y-054892
X061575Y-054153
X061739Y-051156
X062577Y-048528
X062624Y-054783
X064030Y-056704
X064608Y-038171
X065382Y-040889
X065459Y-038793
X065580Y-040360
X065737Y-054505
X066014Y-048479
X066536Y-045001
T2
X048450Y-051250
X048950Y-051250
X049450Y-051250
X050700Y-051250
X051200Y-051250
X051700Y-051250
X052950Y-051250
X053450Y-051250
X053950Y-051250
X055200Y-051250
X055700Y-051250
X056200Y-051250
X057450Y-051250
X057950Y-051250
X058450Y-051250
X059700Y-051250
X060200Y-051250
X060700Y-051250
T3
X049200Y-052900
X051200Y-040200
X052184Y-040200
X053600Y-040200
X054584Y-040200
X059116Y-043550
X060550Y-053000
X061800Y-051650
X063200Y-054200
X063200Y-055200
X063200Y-056200
X063200Y-057200
X065216Y-043500
X066200Y-054200
X066200Y-055200
X066200Y-056200
X066200Y-057200
T4
X050184Y-052900
X060100Y-043550
X061534Y-053000
X061800Y-050666
X066200Y-043500
T5
X055800Y-035900
X055800Y-037900
X055800Y-038900
X055800Y-040900
X058800Y-035900
X058800Y-037900
X058800Y-038900
X058800Y-040900
T6
X051700Y-053200
X051700Y-057200
X052900Y-053200
X052900Y-057200
X053000Y-044300
X053000Y-048300
X054100Y-053200
X054100Y-057200
X054200Y-044300
X054200Y-048300
X055300Y-053200
X055300Y-057200
X055400Y-044300
X055400Y-048300
X056500Y-053200
X056500Y-057200
X056600Y-044300
X056600Y-048300
X057700Y-053200
X057700Y-057200
X057800Y-044300
X057800Y-048300
X058900Y-053200
X058900Y-057200
X059000Y-045300
X059000Y-048300
X060200Y-045300
X060200Y-048300
X061400Y-044300
X061400Y-048300
X062900Y-049050
X062900Y-053050
T7
X048500Y-049400
X048650Y-040500
X049500Y-049400
X049650Y-040500
X050500Y-049400
X051500Y-049400
X052500Y-049400
X053050Y-042600
X053500Y-049400
X054050Y-042600
X054500Y-049400
X055050Y-042600
X055500Y-049400
X056050Y-042600
X056500Y-049400
X057050Y-042600
X057500Y-049400
X058050Y-042600
X058500Y-049400
X059500Y-049400
X060500Y-049400
X061500Y-049400
T8
X049000Y-038000
X065500Y-051500
T0
M30
