G04 #@! TF.FileFunction,Soldermask,Top*
%FSLAX46Y46*%
G04 Gerber Fmt 4.6, Leading zero omitted, Abs format (unit mm)*
G04 Created by KiCad (PCBNEW 4.0.2-stable) date Monday, September 19, 2016 'PMt' 09:37:39 PM*
%MOMM*%
G01*
G04 APERTURE LIST*
%ADD10C,0.100000*%
%ADD11R,5.500320X2.899360*%
%ADD12C,10.600640*%
%ADD13C,4.464000*%
%ADD14O,2.000000X2.000000*%
%ADD15R,1.700000X1.700000*%
%ADD16C,1.700000*%
%ADD17R,2.432000X2.432000*%
%ADD18O,2.432000X2.432000*%
%ADD19R,2.127200X2.432000*%
%ADD20O,2.127200X2.432000*%
%ADD21O,1.299160X1.901140*%
%ADD22C,2.398980*%
%ADD23C,1.797000*%
%ADD24R,1.900000X1.000000*%
%ADD25O,1.500000X2.800000*%
%ADD26R,2.800000X1.500000*%
%ADD27O,2.800000X1.500000*%
%ADD28R,1.650000X2.950000*%
%ADD29R,1.650000X9.150000*%
%ADD30R,4.050000X2.950000*%
G04 APERTURE END LIST*
D10*
D11*
X127000060Y-121950480D03*
D12*
X126901000Y-114300000D03*
D11*
X127000060Y-106649520D03*
D13*
X166370000Y-130810000D03*
D14*
X160528000Y-137668000D03*
X160528000Y-140208000D03*
X160528000Y-142748000D03*
X160528000Y-145288000D03*
X168148000Y-145288000D03*
X168148000Y-142748000D03*
X168148000Y-140208000D03*
X168148000Y-137668000D03*
D15*
X165648000Y-110490000D03*
D16*
X168148000Y-110490000D03*
D15*
X150154000Y-110617000D03*
D16*
X152654000Y-110617000D03*
D15*
X138644000Y-102108000D03*
D16*
X136144000Y-102108000D03*
D15*
X132548000Y-102108000D03*
D16*
X130048000Y-102108000D03*
D15*
X153797000Y-134620000D03*
D16*
X156297000Y-134620000D03*
D15*
X124968000Y-134366000D03*
D16*
X127468000Y-134366000D03*
D15*
X156972000Y-131191000D03*
D16*
X156972000Y-128691000D03*
D17*
X123571000Y-102870000D03*
D18*
X126111000Y-102870000D03*
D19*
X134747000Y-108204000D03*
D20*
X137287000Y-108204000D03*
X139827000Y-108204000D03*
X142367000Y-108204000D03*
X144907000Y-108204000D03*
X147447000Y-108204000D03*
D19*
X123190000Y-125476000D03*
D20*
X125730000Y-125476000D03*
X128270000Y-125476000D03*
X130810000Y-125476000D03*
X133350000Y-125476000D03*
X135890000Y-125476000D03*
X138430000Y-125476000D03*
X140970000Y-125476000D03*
X143510000Y-125476000D03*
X146050000Y-125476000D03*
X148590000Y-125476000D03*
X151130000Y-125476000D03*
X153670000Y-125476000D03*
X156210000Y-125476000D03*
D21*
X124333000Y-130175000D03*
X125603000Y-130175000D03*
X123063000Y-130175000D03*
X130048000Y-130175000D03*
X131318000Y-130175000D03*
X128778000Y-130175000D03*
X135763000Y-130175000D03*
X137033000Y-130175000D03*
X134493000Y-130175000D03*
X141478000Y-130175000D03*
X142748000Y-130175000D03*
X140208000Y-130175000D03*
X147193000Y-130175000D03*
X148463000Y-130175000D03*
X145923000Y-130175000D03*
X152908000Y-130175000D03*
X154178000Y-130175000D03*
X151638000Y-130175000D03*
D22*
X155956000Y-122682000D03*
X155956000Y-112522000D03*
X134620000Y-122682000D03*
X134620000Y-112522000D03*
X137668000Y-122682000D03*
X137668000Y-112522000D03*
X140716000Y-122682000D03*
X140716000Y-112522000D03*
X143764000Y-122682000D03*
X143764000Y-112522000D03*
X146812000Y-122682000D03*
X146812000Y-112522000D03*
X149860000Y-122682000D03*
X149860000Y-115062000D03*
X152908000Y-122682000D03*
X152908000Y-115062000D03*
X159766000Y-124587000D03*
X159766000Y-134747000D03*
X131318000Y-145288000D03*
X131318000Y-135128000D03*
X134366000Y-135128000D03*
X134366000Y-145288000D03*
X137414000Y-135128000D03*
X137414000Y-145288000D03*
X140462000Y-135128000D03*
X140462000Y-145288000D03*
X143510000Y-135128000D03*
X143510000Y-145288000D03*
X146558000Y-135128000D03*
X146558000Y-145288000D03*
X149606000Y-135128000D03*
X149606000Y-145288000D03*
D23*
X149352000Y-98806000D03*
X149352000Y-103886000D03*
X141732000Y-98806000D03*
X141732000Y-103886000D03*
X149352000Y-91186000D03*
X149352000Y-96266000D03*
X141732000Y-91186000D03*
X141732000Y-96266000D03*
D24*
X158418000Y-113411000D03*
X158418000Y-114681000D03*
X158418000Y-115951000D03*
X158418000Y-117221000D03*
X158418000Y-118491000D03*
X158418000Y-119761000D03*
X158418000Y-121031000D03*
X158418000Y-122301000D03*
X167718000Y-122301000D03*
X167718000Y-121031000D03*
X167718000Y-119761000D03*
X167718000Y-118491000D03*
X167718000Y-117221000D03*
X167718000Y-115951000D03*
X167718000Y-114681000D03*
X167718000Y-113411000D03*
D25*
X154782000Y-107188000D03*
X156782000Y-107188000D03*
X158782000Y-107188000D03*
X160782000Y-107188000D03*
X162782000Y-107188000D03*
X164782000Y-107188000D03*
D26*
X151792000Y-91438000D03*
D27*
X151792000Y-93438000D03*
X151792000Y-95438000D03*
X151792000Y-97438000D03*
X151792000Y-99438000D03*
X151792000Y-101438000D03*
X151792000Y-103438000D03*
X151792000Y-105438000D03*
X167792000Y-105438000D03*
X167792000Y-103438000D03*
X167792000Y-101438000D03*
X167792000Y-99438000D03*
X167792000Y-97438000D03*
X167792000Y-95438000D03*
X167792000Y-93438000D03*
X167792000Y-91438000D03*
D24*
X152400000Y-136906000D03*
X152400000Y-138176000D03*
X152400000Y-139446000D03*
X152400000Y-140716000D03*
X152400000Y-141986000D03*
X152400000Y-143256000D03*
X152400000Y-144526000D03*
X152400000Y-145796000D03*
X157800000Y-145796000D03*
X157800000Y-144526000D03*
X157800000Y-143256000D03*
X157800000Y-141986000D03*
X157800000Y-140716000D03*
X157800000Y-139446000D03*
X157800000Y-138176000D03*
X157800000Y-136906000D03*
X128336000Y-145669000D03*
X128336000Y-144399000D03*
X128336000Y-143129000D03*
X128336000Y-141859000D03*
X128336000Y-140589000D03*
X128336000Y-139319000D03*
X128336000Y-138049000D03*
X128336000Y-136779000D03*
X122936000Y-136779000D03*
X122936000Y-138049000D03*
X122936000Y-139319000D03*
X122936000Y-140589000D03*
X122936000Y-141859000D03*
X122936000Y-143129000D03*
X122936000Y-144399000D03*
X122936000Y-145669000D03*
D28*
X134084000Y-97409000D03*
D29*
X136384000Y-94309000D03*
D28*
X138684000Y-97409000D03*
D30*
X136384000Y-91209000D03*
D13*
X124460000Y-96520000D03*
M02*
