G04 #@! TF.FileFunction,Copper,L2,Bot,Signal*
%FSLAX46Y46*%
G04 Gerber Fmt 4.6, Leading zero omitted, Abs format (unit mm)*
G04 Created by KiCad (PCBNEW 4.0.2-stable) date Monday, September 19, 2016 'PMt' 09:37:39 PM*
%MOMM*%
G01*
G04 APERTURE LIST*
%ADD10C,0.100000*%
%ADD11C,4.064000*%
%ADD12O,1.600000X1.600000*%
%ADD13R,1.300000X1.300000*%
%ADD14C,1.300000*%
%ADD15R,2.032000X2.032000*%
%ADD16O,2.032000X2.032000*%
%ADD17R,1.727200X2.032000*%
%ADD18O,1.727200X2.032000*%
%ADD19O,0.899160X1.501140*%
%ADD20C,1.998980*%
%ADD21C,1.397000*%
%ADD22C,0.600000*%
%ADD23C,0.250000*%
%ADD24C,0.500000*%
%ADD25C,0.254000*%
G04 APERTURE END LIST*
D10*
D11*
X166370000Y-130810000D03*
D12*
X160528000Y-137668000D03*
X160528000Y-140208000D03*
X160528000Y-142748000D03*
X160528000Y-145288000D03*
X168148000Y-145288000D03*
X168148000Y-142748000D03*
X168148000Y-140208000D03*
X168148000Y-137668000D03*
D13*
X165648000Y-110490000D03*
D14*
X168148000Y-110490000D03*
D13*
X150154000Y-110617000D03*
D14*
X152654000Y-110617000D03*
D13*
X138644000Y-102108000D03*
D14*
X136144000Y-102108000D03*
D13*
X132548000Y-102108000D03*
D14*
X130048000Y-102108000D03*
D13*
X153797000Y-134620000D03*
D14*
X156297000Y-134620000D03*
D13*
X124968000Y-134366000D03*
D14*
X127468000Y-134366000D03*
D13*
X156972000Y-131191000D03*
D14*
X156972000Y-128691000D03*
D15*
X123571000Y-102870000D03*
D16*
X126111000Y-102870000D03*
D17*
X134747000Y-108204000D03*
D18*
X137287000Y-108204000D03*
X139827000Y-108204000D03*
X142367000Y-108204000D03*
X144907000Y-108204000D03*
X147447000Y-108204000D03*
D17*
X123190000Y-125476000D03*
D18*
X125730000Y-125476000D03*
X128270000Y-125476000D03*
X130810000Y-125476000D03*
X133350000Y-125476000D03*
X135890000Y-125476000D03*
X138430000Y-125476000D03*
X140970000Y-125476000D03*
X143510000Y-125476000D03*
X146050000Y-125476000D03*
X148590000Y-125476000D03*
X151130000Y-125476000D03*
X153670000Y-125476000D03*
X156210000Y-125476000D03*
D19*
X124333000Y-130175000D03*
X125603000Y-130175000D03*
X123063000Y-130175000D03*
X130048000Y-130175000D03*
X131318000Y-130175000D03*
X128778000Y-130175000D03*
X135763000Y-130175000D03*
X137033000Y-130175000D03*
X134493000Y-130175000D03*
X141478000Y-130175000D03*
X142748000Y-130175000D03*
X140208000Y-130175000D03*
X147193000Y-130175000D03*
X148463000Y-130175000D03*
X145923000Y-130175000D03*
X152908000Y-130175000D03*
X154178000Y-130175000D03*
X151638000Y-130175000D03*
D20*
X155956000Y-122682000D03*
X155956000Y-112522000D03*
X134620000Y-122682000D03*
X134620000Y-112522000D03*
X137668000Y-122682000D03*
X137668000Y-112522000D03*
X140716000Y-122682000D03*
X140716000Y-112522000D03*
X143764000Y-122682000D03*
X143764000Y-112522000D03*
X146812000Y-122682000D03*
X146812000Y-112522000D03*
X149860000Y-122682000D03*
X149860000Y-115062000D03*
X152908000Y-122682000D03*
X152908000Y-115062000D03*
X159766000Y-124587000D03*
X159766000Y-134747000D03*
X131318000Y-145288000D03*
X131318000Y-135128000D03*
X134366000Y-135128000D03*
X134366000Y-145288000D03*
X137414000Y-135128000D03*
X137414000Y-145288000D03*
X140462000Y-135128000D03*
X140462000Y-145288000D03*
X143510000Y-135128000D03*
X143510000Y-145288000D03*
X146558000Y-135128000D03*
X146558000Y-145288000D03*
X149606000Y-135128000D03*
X149606000Y-145288000D03*
D21*
X149352000Y-98806000D03*
X149352000Y-103886000D03*
X141732000Y-98806000D03*
X141732000Y-103886000D03*
X149352000Y-91186000D03*
X149352000Y-96266000D03*
X141732000Y-91186000D03*
X141732000Y-96266000D03*
D11*
X124460000Y-96520000D03*
D22*
X158945300Y-123261700D03*
X135944900Y-116342300D03*
X167675900Y-123135400D03*
X124214200Y-141689100D03*
X159065900Y-139149500D03*
X124189000Y-142951300D03*
X151030400Y-140892400D03*
X166971200Y-138443100D03*
X169001500Y-114301800D03*
X150753900Y-139880800D03*
X156817700Y-129937200D03*
X164104400Y-96953200D03*
X151144500Y-141961800D03*
X144297400Y-138760200D03*
X153795400Y-143379300D03*
X147490800Y-139061400D03*
X150749900Y-132978500D03*
X154222700Y-137868200D03*
X156023000Y-139424700D03*
X156400700Y-137549100D03*
X153122500Y-111806000D03*
X166266700Y-98533600D03*
X166069700Y-103857600D03*
X166572700Y-102514000D03*
X162636000Y-144028300D03*
X135465900Y-142421300D03*
D23*
X153034000Y-117350400D02*
X158945300Y-123261700D01*
X136953000Y-117350400D02*
X153034000Y-117350400D01*
X135944900Y-116342300D02*
X136953000Y-117350400D01*
D24*
X141732000Y-98806000D02*
X149352000Y-98806000D01*
X153797000Y-134244900D02*
X153797000Y-133519700D01*
X127468000Y-138435300D02*
X124214200Y-141689100D01*
X127468000Y-134366000D02*
X127468000Y-138435300D01*
X141732000Y-91186000D02*
X149352000Y-91186000D01*
X153797000Y-134620000D02*
X154897300Y-134620000D01*
X150154000Y-110617000D02*
X151254300Y-110617000D01*
X166506500Y-109389600D02*
X167877500Y-110760500D01*
X152206600Y-109389600D02*
X166506500Y-109389600D01*
X151254300Y-110341900D02*
X152206600Y-109389600D01*
X151254300Y-110617000D02*
X151254300Y-110341900D01*
X168148000Y-110490000D02*
X167877500Y-110760500D01*
X167675900Y-110962100D02*
X167675900Y-123135400D01*
X167877500Y-110760500D02*
X167675900Y-110962100D01*
X153797000Y-134244900D02*
X153797000Y-134620000D01*
X162120300Y-128691000D02*
X156972000Y-128691000D01*
X167675900Y-123135400D02*
X162120300Y-128691000D01*
X157843100Y-137926700D02*
X159065900Y-139149500D01*
X157170800Y-137926700D02*
X157843100Y-137926700D01*
X154897300Y-134984500D02*
X154897300Y-134620000D01*
X157170800Y-137258000D02*
X154897300Y-134984500D01*
X157170800Y-137926700D02*
X157170800Y-137258000D01*
X155532500Y-130130500D02*
X156972000Y-128691000D01*
X155532500Y-131784200D02*
X155532500Y-130130500D01*
X153797000Y-133519700D02*
X155532500Y-131784200D01*
X136144000Y-106807000D02*
X136144000Y-102108000D01*
X134747000Y-108204000D02*
X136144000Y-106807000D01*
X140576900Y-92341100D02*
X141732000Y-91186000D01*
X140576900Y-98806000D02*
X140576900Y-92341100D01*
X139446000Y-98806000D02*
X140576900Y-98806000D01*
X136144000Y-102108000D02*
X139446000Y-98806000D01*
X140576900Y-98806000D02*
X141732000Y-98806000D01*
X133281800Y-137091800D02*
X131318000Y-135128000D01*
X146488600Y-137091800D02*
X133281800Y-137091800D01*
X146620200Y-136960200D02*
X146488600Y-137091800D01*
X152253600Y-136960200D02*
X146620200Y-136960200D01*
X153911900Y-138618500D02*
X152253600Y-136960200D01*
X156479000Y-138618500D02*
X153911900Y-138618500D01*
X157170800Y-137926700D02*
X156479000Y-138618500D01*
X152908000Y-122682000D02*
X149860000Y-122682000D01*
X149860000Y-122682000D02*
X146812000Y-122682000D01*
X157861000Y-124587000D02*
X159766000Y-124587000D01*
X155956000Y-122682000D02*
X157861000Y-124587000D01*
X135269500Y-110123500D02*
X137668000Y-112522000D01*
X134125600Y-110123500D02*
X135269500Y-110123500D01*
X132548000Y-108545900D02*
X134125600Y-110123500D01*
X132548000Y-102108000D02*
X132548000Y-108545900D01*
X142171000Y-121227000D02*
X140716000Y-122682000D01*
X145357000Y-121227000D02*
X142171000Y-121227000D01*
X146812000Y-122682000D02*
X145357000Y-121227000D01*
X139266100Y-121232100D02*
X140716000Y-122682000D01*
X136069900Y-121232100D02*
X139266100Y-121232100D01*
X134620000Y-122682000D02*
X136069900Y-121232100D01*
X152781000Y-110490000D02*
X152654000Y-110617000D01*
X165648000Y-110490000D02*
X152781000Y-110490000D01*
X154178000Y-130175000D02*
X154178000Y-131375900D01*
X139133800Y-131375900D02*
X142748000Y-131375900D01*
X137932900Y-130175000D02*
X139133800Y-131375900D01*
X137033000Y-130175000D02*
X137932900Y-130175000D01*
X142748000Y-130175000D02*
X142748000Y-131375900D01*
X148463000Y-131375900D02*
X154178000Y-131375900D01*
X148463000Y-130175000D02*
X148463000Y-131375900D01*
X148463000Y-131375900D02*
X142748000Y-131375900D01*
X124171000Y-128974100D02*
X125603000Y-128974100D01*
X121876000Y-126679100D02*
X124171000Y-128974100D01*
X121876000Y-106031300D02*
X121876000Y-126679100D01*
X123571000Y-104336300D02*
X121876000Y-106031300D01*
X123571000Y-102870000D02*
X123571000Y-104336300D01*
X125603000Y-130175000D02*
X125603000Y-128974100D01*
X131318000Y-128974100D02*
X125603000Y-128974100D01*
X131318000Y-130175000D02*
X131318000Y-128974100D01*
D23*
X160528000Y-140208000D02*
X159402700Y-140208000D01*
X129022900Y-138117400D02*
X124189000Y-142951300D01*
X146913600Y-138117400D02*
X129022900Y-138117400D01*
X147045200Y-137985800D02*
X146913600Y-138117400D01*
X149743500Y-137985800D02*
X147045200Y-137985800D01*
X151965700Y-140208000D02*
X149743500Y-137985800D01*
X159402700Y-140208000D02*
X151965700Y-140208000D01*
X160528000Y-142748000D02*
X159402700Y-142748000D01*
X152886000Y-142748000D02*
X151030400Y-140892400D01*
X159402700Y-142748000D02*
X152886000Y-142748000D01*
X166971200Y-134906400D02*
X166971200Y-138443100D01*
X169001500Y-132876100D02*
X166971200Y-134906400D01*
X169001500Y-114301800D02*
X169001500Y-132876100D01*
X149158000Y-114360000D02*
X149860000Y-115062000D01*
X149158000Y-109787900D02*
X149158000Y-114360000D01*
X150156200Y-108789700D02*
X149158000Y-109787900D01*
X167855600Y-108789700D02*
X150156200Y-108789700D01*
X169123400Y-110057500D02*
X167855600Y-108789700D01*
X169123400Y-114179900D02*
X169123400Y-110057500D01*
X169001500Y-114301800D02*
X169123400Y-114179900D01*
X168148000Y-142748000D02*
X167022700Y-142748000D01*
X165897400Y-141622700D02*
X167022700Y-142748000D01*
X152743500Y-141622700D02*
X165897400Y-141622700D01*
X151001600Y-139880800D02*
X152743500Y-141622700D01*
X150753900Y-139880800D02*
X151001600Y-139880800D01*
X168148000Y-140208000D02*
X167022700Y-140208000D01*
X157498500Y-129937200D02*
X156817700Y-129937200D01*
X167022700Y-139461400D02*
X157498500Y-129937200D01*
X167022700Y-140208000D02*
X167022700Y-139461400D01*
X143555900Y-107683900D02*
X143555900Y-108204000D01*
X145353600Y-105886200D02*
X143555900Y-107683900D01*
X155171400Y-105886200D02*
X145353600Y-105886200D01*
X164104400Y-96953200D02*
X155171400Y-105886200D01*
X142367000Y-108204000D02*
X143555900Y-108204000D01*
D24*
X140208000Y-130175000D02*
X139308100Y-130175000D01*
X138107100Y-128974000D02*
X139308100Y-130175000D01*
X134308000Y-128974000D02*
X138107100Y-128974000D01*
X130810000Y-125476000D02*
X134308000Y-128974000D01*
X145923000Y-130175000D02*
X145023100Y-130175000D01*
X143121700Y-128273600D02*
X145023100Y-130175000D01*
X136147600Y-128273600D02*
X143121700Y-128273600D01*
X133350000Y-125476000D02*
X136147600Y-128273600D01*
X137919500Y-127505500D02*
X135890000Y-125476000D01*
X148068600Y-127505500D02*
X137919500Y-127505500D01*
X150738100Y-130175000D02*
X148068600Y-127505500D01*
X151638000Y-130175000D02*
X150738100Y-130175000D01*
D23*
X146921800Y-138746100D02*
X144297400Y-138760200D01*
X147231800Y-138436100D02*
X146921800Y-138746100D01*
X147749900Y-138436100D02*
X147231800Y-138436100D01*
X148116100Y-138802300D02*
X147749900Y-138436100D01*
X148116100Y-138933400D02*
X148116100Y-138802300D01*
X151144500Y-141961800D02*
X148116100Y-138933400D01*
X147490800Y-139201300D02*
X147490800Y-139061400D01*
X151668800Y-143379300D02*
X147490800Y-139201300D01*
X153795400Y-143379300D02*
X151668800Y-143379300D01*
X150749900Y-134395400D02*
X154222700Y-137868200D01*
X150749900Y-132978500D02*
X150749900Y-134395400D01*
X153670000Y-125476000D02*
X152481100Y-125476000D01*
X152481100Y-124955900D02*
X152481100Y-125476000D01*
X151658600Y-124133400D02*
X152481100Y-124955900D01*
X130294400Y-124133400D02*
X151658600Y-124133400D01*
X129595100Y-124832700D02*
X130294400Y-124133400D01*
X129595100Y-126308700D02*
X129595100Y-124832700D01*
X132600500Y-129314100D02*
X129595100Y-126308700D01*
X132600500Y-129681900D02*
X132600500Y-129314100D01*
X135644600Y-132726000D02*
X132600500Y-129681900D01*
X136885700Y-132726000D02*
X135644600Y-132726000D01*
X138768200Y-134608500D02*
X136885700Y-132726000D01*
X138768200Y-135652400D02*
X138768200Y-134608500D01*
X137943400Y-136477200D02*
X138768200Y-135652400D01*
X133757500Y-136477200D02*
X137943400Y-136477200D01*
X132842000Y-135561700D02*
X133757500Y-136477200D01*
X132842000Y-134731700D02*
X132842000Y-135561700D01*
X131871000Y-133760700D02*
X132842000Y-134731700D01*
X130754500Y-133760700D02*
X131871000Y-133760700D01*
X129992900Y-134522300D02*
X130754500Y-133760700D01*
X129992900Y-135706800D02*
X129992900Y-134522300D01*
X131953200Y-137667100D02*
X129992900Y-135706800D01*
X146727000Y-137667100D02*
X131953200Y-137667100D01*
X146858600Y-137535500D02*
X146727000Y-137667100D01*
X149930100Y-137535500D02*
X146858600Y-137535500D01*
X151819300Y-139424700D02*
X149930100Y-137535500D01*
X156023000Y-139424700D02*
X151819300Y-139424700D01*
X156210000Y-125476000D02*
X155021100Y-125476000D01*
X154950600Y-137549100D02*
X156400700Y-137549100D01*
X152781000Y-135379500D02*
X154950600Y-137549100D01*
X152781000Y-133587200D02*
X152781000Y-135379500D01*
X154957100Y-131411100D02*
X152781000Y-133587200D01*
X154957100Y-125540000D02*
X154957100Y-131411100D01*
X155021100Y-125476000D02*
X154957100Y-125540000D01*
X125241900Y-132159800D02*
X124333000Y-131250900D01*
X131397800Y-132159800D02*
X125241900Y-132159800D01*
X134366000Y-135128000D02*
X131397800Y-132159800D01*
X124333000Y-130175000D02*
X124333000Y-131250900D01*
X130048000Y-130175000D02*
X130048000Y-131250900D01*
X137150400Y-135128000D02*
X137414000Y-135128000D01*
X133273300Y-131250900D02*
X137150400Y-135128000D01*
X130048000Y-131250900D02*
X133273300Y-131250900D01*
X136584900Y-131250900D02*
X135763000Y-131250900D01*
X140462000Y-135128000D02*
X136584900Y-131250900D01*
X135763000Y-130175000D02*
X135763000Y-131250900D01*
X153838500Y-112522000D02*
X153122500Y-111806000D01*
X155956000Y-112522000D02*
X153838500Y-112522000D01*
X135960500Y-113862500D02*
X134620000Y-112522000D01*
X138207100Y-113862500D02*
X135960500Y-113862500D01*
X139192000Y-112877600D02*
X138207100Y-113862500D01*
X139192000Y-111846800D02*
X139192000Y-112877600D01*
X141097000Y-109941800D02*
X139192000Y-111846800D01*
X141097000Y-104521000D02*
X141097000Y-109941800D01*
X141732000Y-103886000D02*
X141097000Y-104521000D01*
X149352000Y-103886000D02*
X141732000Y-103886000D01*
X156953100Y-96284900D02*
X149352000Y-103886000D01*
X164320500Y-96284900D02*
X156953100Y-96284900D01*
X166266700Y-98231100D02*
X164320500Y-96284900D01*
X166266700Y-98533600D02*
X166266700Y-98231100D01*
X141732000Y-96266000D02*
X149352000Y-96266000D01*
X162560000Y-107367300D02*
X166069700Y-103857600D01*
X150304700Y-107367300D02*
X162560000Y-107367300D01*
X147029500Y-110642500D02*
X150304700Y-107367300D01*
X145643500Y-110642500D02*
X147029500Y-110642500D01*
X143764000Y-112522000D02*
X145643500Y-110642500D01*
X166728800Y-102670100D02*
X166572700Y-102514000D01*
X166728800Y-104090400D02*
X166728800Y-102670100D01*
X162947000Y-107872200D02*
X166728800Y-104090400D01*
X150436800Y-107872200D02*
X162947000Y-107872200D01*
X146812000Y-111497000D02*
X150436800Y-107872200D01*
X146812000Y-112522000D02*
X146812000Y-111497000D01*
X153549200Y-144028300D02*
X162636000Y-144028300D01*
X153483900Y-143963000D02*
X153549200Y-144028300D01*
X137973600Y-143963000D02*
X153483900Y-143963000D01*
X135791600Y-141781000D02*
X137973600Y-143963000D01*
X134825000Y-141781000D02*
X135791600Y-141781000D01*
X131318000Y-145288000D02*
X134825000Y-141781000D01*
X134366000Y-143521200D02*
X135465900Y-142421300D01*
X134366000Y-145288000D02*
X134366000Y-143521200D01*
D25*
G36*
X166485299Y-143285401D02*
X166731861Y-143450148D01*
X166921563Y-143487882D01*
X167105189Y-143762698D01*
X167487275Y-144018000D01*
X167105189Y-144273302D01*
X166794120Y-144738849D01*
X166684887Y-145288000D01*
X166794120Y-145837151D01*
X166886228Y-145975000D01*
X161779925Y-145975000D01*
X161919904Y-145637039D01*
X161797915Y-145415000D01*
X160655000Y-145415000D01*
X160655000Y-145435000D01*
X160401000Y-145435000D01*
X160401000Y-145415000D01*
X159258085Y-145415000D01*
X159136096Y-145637039D01*
X159276075Y-145975000D01*
X151090533Y-145975000D01*
X151240206Y-145614547D01*
X151240774Y-144964306D01*
X151141068Y-144723000D01*
X153247214Y-144723000D01*
X153258361Y-144730448D01*
X153549200Y-144788300D01*
X159198498Y-144788300D01*
X159136096Y-144938961D01*
X159258085Y-145161000D01*
X160401000Y-145161000D01*
X160401000Y-145141000D01*
X160655000Y-145141000D01*
X160655000Y-145161000D01*
X161797915Y-145161000D01*
X161919904Y-144938961D01*
X161857502Y-144788300D01*
X162073537Y-144788300D01*
X162105673Y-144820492D01*
X162449201Y-144963138D01*
X162821167Y-144963462D01*
X163164943Y-144821417D01*
X163428192Y-144558627D01*
X163570838Y-144215099D01*
X163571162Y-143843133D01*
X163429117Y-143499357D01*
X163166327Y-143236108D01*
X162822799Y-143093462D01*
X162450833Y-143093138D01*
X162107057Y-143235183D01*
X162073882Y-143268300D01*
X161887619Y-143268300D01*
X161991113Y-142748000D01*
X161918450Y-142382700D01*
X165582598Y-142382700D01*
X166485299Y-143285401D01*
X166485299Y-143285401D01*
G37*
X166485299Y-143285401D02*
X166731861Y-143450148D01*
X166921563Y-143487882D01*
X167105189Y-143762698D01*
X167487275Y-144018000D01*
X167105189Y-144273302D01*
X166794120Y-144738849D01*
X166684887Y-145288000D01*
X166794120Y-145837151D01*
X166886228Y-145975000D01*
X161779925Y-145975000D01*
X161919904Y-145637039D01*
X161797915Y-145415000D01*
X160655000Y-145415000D01*
X160655000Y-145435000D01*
X160401000Y-145435000D01*
X160401000Y-145415000D01*
X159258085Y-145415000D01*
X159136096Y-145637039D01*
X159276075Y-145975000D01*
X151090533Y-145975000D01*
X151240206Y-145614547D01*
X151240774Y-144964306D01*
X151141068Y-144723000D01*
X153247214Y-144723000D01*
X153258361Y-144730448D01*
X153549200Y-144788300D01*
X159198498Y-144788300D01*
X159136096Y-144938961D01*
X159258085Y-145161000D01*
X160401000Y-145161000D01*
X160401000Y-145141000D01*
X160655000Y-145141000D01*
X160655000Y-145161000D01*
X161797915Y-145161000D01*
X161919904Y-144938961D01*
X161857502Y-144788300D01*
X162073537Y-144788300D01*
X162105673Y-144820492D01*
X162449201Y-144963138D01*
X162821167Y-144963462D01*
X163164943Y-144821417D01*
X163428192Y-144558627D01*
X163570838Y-144215099D01*
X163571162Y-143843133D01*
X163429117Y-143499357D01*
X163166327Y-143236108D01*
X162822799Y-143093462D01*
X162450833Y-143093138D01*
X162107057Y-143235183D01*
X162073882Y-143268300D01*
X161887619Y-143268300D01*
X161991113Y-142748000D01*
X161918450Y-142382700D01*
X165582598Y-142382700D01*
X166485299Y-143285401D01*
G36*
X122060979Y-130918186D02*
X122296086Y-131270049D01*
X122647949Y-131505156D01*
X123063000Y-131587715D01*
X123478051Y-131505156D01*
X123606503Y-131419327D01*
X123630852Y-131541739D01*
X123795599Y-131788301D01*
X124704499Y-132697201D01*
X124951061Y-132861948D01*
X125241900Y-132919800D01*
X131082998Y-132919800D01*
X131163898Y-133000700D01*
X130754500Y-133000700D01*
X130463661Y-133058552D01*
X130217099Y-133223299D01*
X129455499Y-133984899D01*
X129290752Y-134231461D01*
X129232900Y-134522300D01*
X129232900Y-135706800D01*
X129290752Y-135997639D01*
X129455499Y-136244201D01*
X130568698Y-137357400D01*
X129022900Y-137357400D01*
X128732061Y-137415252D01*
X128485499Y-137579999D01*
X124049320Y-142016178D01*
X124003833Y-142016138D01*
X123660057Y-142158183D01*
X123396808Y-142420973D01*
X123254162Y-142764501D01*
X123253838Y-143136467D01*
X123395883Y-143480243D01*
X123658673Y-143743492D01*
X124002201Y-143886138D01*
X124374167Y-143886462D01*
X124717943Y-143744417D01*
X124981192Y-143481627D01*
X125123838Y-143138099D01*
X125123879Y-143091223D01*
X129337702Y-138877400D01*
X143362297Y-138877400D01*
X143362238Y-138945367D01*
X143504283Y-139289143D01*
X143767073Y-139552392D01*
X144110601Y-139695038D01*
X144482567Y-139695362D01*
X144826343Y-139553317D01*
X144862549Y-139517175D01*
X146663453Y-139507499D01*
X146697683Y-139590343D01*
X146960473Y-139853592D01*
X147144851Y-139930153D01*
X150417698Y-143203000D01*
X138288402Y-143203000D01*
X136329001Y-141243599D01*
X136082439Y-141078852D01*
X135791600Y-141021000D01*
X134825000Y-141021000D01*
X134534161Y-141078852D01*
X134287599Y-141243599D01*
X131809083Y-143722115D01*
X131644547Y-143653794D01*
X130994306Y-143653226D01*
X130393345Y-143901538D01*
X129933154Y-144360927D01*
X129683794Y-144961453D01*
X129683226Y-145611694D01*
X129833341Y-145975000D01*
X122624931Y-145975000D01*
X122346019Y-145919521D01*
X122168856Y-145801145D01*
X122050478Y-145623979D01*
X121995000Y-145345070D01*
X121995000Y-133716000D01*
X123670560Y-133716000D01*
X123670560Y-135016000D01*
X123714838Y-135251317D01*
X123853910Y-135467441D01*
X124066110Y-135612431D01*
X124318000Y-135663440D01*
X125618000Y-135663440D01*
X125853317Y-135619162D01*
X126069441Y-135480090D01*
X126214431Y-135267890D01*
X126215012Y-135265016D01*
X126748590Y-135265016D01*
X126804271Y-135495611D01*
X127287078Y-135663622D01*
X127797428Y-135634083D01*
X128131729Y-135495611D01*
X128187410Y-135265016D01*
X127468000Y-134545605D01*
X126748590Y-135265016D01*
X126215012Y-135265016D01*
X126265440Y-135016000D01*
X126265440Y-134853615D01*
X126338389Y-135029729D01*
X126568984Y-135085410D01*
X127288395Y-134366000D01*
X127647605Y-134366000D01*
X128367016Y-135085410D01*
X128597611Y-135029729D01*
X128765622Y-134546922D01*
X128736083Y-134036572D01*
X128597611Y-133702271D01*
X128367016Y-133646590D01*
X127647605Y-134366000D01*
X127288395Y-134366000D01*
X126568984Y-133646590D01*
X126338389Y-133702271D01*
X126265440Y-133911902D01*
X126265440Y-133716000D01*
X126221162Y-133480683D01*
X126212347Y-133466984D01*
X126748590Y-133466984D01*
X127468000Y-134186395D01*
X128187410Y-133466984D01*
X128131729Y-133236389D01*
X127648922Y-133068378D01*
X127138572Y-133097917D01*
X126804271Y-133236389D01*
X126748590Y-133466984D01*
X126212347Y-133466984D01*
X126082090Y-133264559D01*
X125869890Y-133119569D01*
X125618000Y-133068560D01*
X124318000Y-133068560D01*
X124082683Y-133112838D01*
X123866559Y-133251910D01*
X123721569Y-133464110D01*
X123670560Y-133716000D01*
X121995000Y-133716000D01*
X121995000Y-130586488D01*
X122060979Y-130918186D01*
X122060979Y-130918186D01*
G37*
X122060979Y-130918186D02*
X122296086Y-131270049D01*
X122647949Y-131505156D01*
X123063000Y-131587715D01*
X123478051Y-131505156D01*
X123606503Y-131419327D01*
X123630852Y-131541739D01*
X123795599Y-131788301D01*
X124704499Y-132697201D01*
X124951061Y-132861948D01*
X125241900Y-132919800D01*
X131082998Y-132919800D01*
X131163898Y-133000700D01*
X130754500Y-133000700D01*
X130463661Y-133058552D01*
X130217099Y-133223299D01*
X129455499Y-133984899D01*
X129290752Y-134231461D01*
X129232900Y-134522300D01*
X129232900Y-135706800D01*
X129290752Y-135997639D01*
X129455499Y-136244201D01*
X130568698Y-137357400D01*
X129022900Y-137357400D01*
X128732061Y-137415252D01*
X128485499Y-137579999D01*
X124049320Y-142016178D01*
X124003833Y-142016138D01*
X123660057Y-142158183D01*
X123396808Y-142420973D01*
X123254162Y-142764501D01*
X123253838Y-143136467D01*
X123395883Y-143480243D01*
X123658673Y-143743492D01*
X124002201Y-143886138D01*
X124374167Y-143886462D01*
X124717943Y-143744417D01*
X124981192Y-143481627D01*
X125123838Y-143138099D01*
X125123879Y-143091223D01*
X129337702Y-138877400D01*
X143362297Y-138877400D01*
X143362238Y-138945367D01*
X143504283Y-139289143D01*
X143767073Y-139552392D01*
X144110601Y-139695038D01*
X144482567Y-139695362D01*
X144826343Y-139553317D01*
X144862549Y-139517175D01*
X146663453Y-139507499D01*
X146697683Y-139590343D01*
X146960473Y-139853592D01*
X147144851Y-139930153D01*
X150417698Y-143203000D01*
X138288402Y-143203000D01*
X136329001Y-141243599D01*
X136082439Y-141078852D01*
X135791600Y-141021000D01*
X134825000Y-141021000D01*
X134534161Y-141078852D01*
X134287599Y-141243599D01*
X131809083Y-143722115D01*
X131644547Y-143653794D01*
X130994306Y-143653226D01*
X130393345Y-143901538D01*
X129933154Y-144360927D01*
X129683794Y-144961453D01*
X129683226Y-145611694D01*
X129833341Y-145975000D01*
X122624931Y-145975000D01*
X122346019Y-145919521D01*
X122168856Y-145801145D01*
X122050478Y-145623979D01*
X121995000Y-145345070D01*
X121995000Y-133716000D01*
X123670560Y-133716000D01*
X123670560Y-135016000D01*
X123714838Y-135251317D01*
X123853910Y-135467441D01*
X124066110Y-135612431D01*
X124318000Y-135663440D01*
X125618000Y-135663440D01*
X125853317Y-135619162D01*
X126069441Y-135480090D01*
X126214431Y-135267890D01*
X126215012Y-135265016D01*
X126748590Y-135265016D01*
X126804271Y-135495611D01*
X127287078Y-135663622D01*
X127797428Y-135634083D01*
X128131729Y-135495611D01*
X128187410Y-135265016D01*
X127468000Y-134545605D01*
X126748590Y-135265016D01*
X126215012Y-135265016D01*
X126265440Y-135016000D01*
X126265440Y-134853615D01*
X126338389Y-135029729D01*
X126568984Y-135085410D01*
X127288395Y-134366000D01*
X127647605Y-134366000D01*
X128367016Y-135085410D01*
X128597611Y-135029729D01*
X128765622Y-134546922D01*
X128736083Y-134036572D01*
X128597611Y-133702271D01*
X128367016Y-133646590D01*
X127647605Y-134366000D01*
X127288395Y-134366000D01*
X126568984Y-133646590D01*
X126338389Y-133702271D01*
X126265440Y-133911902D01*
X126265440Y-133716000D01*
X126221162Y-133480683D01*
X126212347Y-133466984D01*
X126748590Y-133466984D01*
X127468000Y-134186395D01*
X128187410Y-133466984D01*
X128131729Y-133236389D01*
X127648922Y-133068378D01*
X127138572Y-133097917D01*
X126804271Y-133236389D01*
X126748590Y-133466984D01*
X126212347Y-133466984D01*
X126082090Y-133264559D01*
X125869890Y-133119569D01*
X125618000Y-133068560D01*
X124318000Y-133068560D01*
X124082683Y-133112838D01*
X123866559Y-133251910D01*
X123721569Y-133464110D01*
X123670560Y-133716000D01*
X121995000Y-133716000D01*
X121995000Y-130586488D01*
X122060979Y-130918186D01*
G36*
X155674560Y-131841000D02*
X155718838Y-132076317D01*
X155857910Y-132292441D01*
X156070110Y-132437431D01*
X156322000Y-132488440D01*
X157622000Y-132488440D01*
X157857317Y-132444162D01*
X158073441Y-132305090D01*
X158218431Y-132092890D01*
X158269440Y-131841000D01*
X158269440Y-131782942D01*
X159598861Y-133112363D01*
X159442306Y-133112226D01*
X158841345Y-133360538D01*
X158381154Y-133819927D01*
X158131794Y-134420453D01*
X158131226Y-135070694D01*
X158379538Y-135671655D01*
X158838927Y-136131846D01*
X159439453Y-136381206D01*
X159891817Y-136381601D01*
X159485189Y-136653302D01*
X159174120Y-137118849D01*
X159064887Y-137668000D01*
X159174120Y-138217151D01*
X159485189Y-138682698D01*
X159867275Y-138938000D01*
X159485189Y-139193302D01*
X159315005Y-139448000D01*
X156957980Y-139448000D01*
X156958162Y-139239533D01*
X156816117Y-138895757D01*
X156553327Y-138632508D01*
X156209799Y-138489862D01*
X155837833Y-138489538D01*
X155494057Y-138631583D01*
X155460882Y-138664700D01*
X154743455Y-138664700D01*
X154751643Y-138661317D01*
X155014892Y-138398527D01*
X155052026Y-138309100D01*
X155838237Y-138309100D01*
X155870373Y-138341292D01*
X156213901Y-138483938D01*
X156585867Y-138484262D01*
X156929643Y-138342217D01*
X157192892Y-138079427D01*
X157335538Y-137735899D01*
X157335862Y-137363933D01*
X157193817Y-137020157D01*
X156931027Y-136756908D01*
X156587499Y-136614262D01*
X156215533Y-136613938D01*
X155871757Y-136755983D01*
X155838582Y-136789100D01*
X155265402Y-136789100D01*
X154381302Y-135905000D01*
X154573309Y-135905000D01*
X154806698Y-135808327D01*
X154985327Y-135629699D01*
X155082000Y-135396310D01*
X155082000Y-135044433D01*
X155206995Y-135346943D01*
X155568155Y-135708735D01*
X156040276Y-135904777D01*
X156551481Y-135905223D01*
X157023943Y-135710005D01*
X157385735Y-135348845D01*
X157581777Y-134876724D01*
X157582223Y-134365519D01*
X157387005Y-133893057D01*
X157025845Y-133531265D01*
X156553724Y-133335223D01*
X156042519Y-133334777D01*
X155570057Y-133529995D01*
X155208265Y-133891155D01*
X155082000Y-134195235D01*
X155082000Y-133843690D01*
X154985327Y-133610301D01*
X154806698Y-133431673D01*
X154573309Y-133335000D01*
X154108002Y-133335000D01*
X155494501Y-131948501D01*
X155659248Y-131701939D01*
X155674560Y-131624961D01*
X155674560Y-131841000D01*
X155674560Y-131841000D01*
G37*
X155674560Y-131841000D02*
X155718838Y-132076317D01*
X155857910Y-132292441D01*
X156070110Y-132437431D01*
X156322000Y-132488440D01*
X157622000Y-132488440D01*
X157857317Y-132444162D01*
X158073441Y-132305090D01*
X158218431Y-132092890D01*
X158269440Y-131841000D01*
X158269440Y-131782942D01*
X159598861Y-133112363D01*
X159442306Y-133112226D01*
X158841345Y-133360538D01*
X158381154Y-133819927D01*
X158131794Y-134420453D01*
X158131226Y-135070694D01*
X158379538Y-135671655D01*
X158838927Y-136131846D01*
X159439453Y-136381206D01*
X159891817Y-136381601D01*
X159485189Y-136653302D01*
X159174120Y-137118849D01*
X159064887Y-137668000D01*
X159174120Y-138217151D01*
X159485189Y-138682698D01*
X159867275Y-138938000D01*
X159485189Y-139193302D01*
X159315005Y-139448000D01*
X156957980Y-139448000D01*
X156958162Y-139239533D01*
X156816117Y-138895757D01*
X156553327Y-138632508D01*
X156209799Y-138489862D01*
X155837833Y-138489538D01*
X155494057Y-138631583D01*
X155460882Y-138664700D01*
X154743455Y-138664700D01*
X154751643Y-138661317D01*
X155014892Y-138398527D01*
X155052026Y-138309100D01*
X155838237Y-138309100D01*
X155870373Y-138341292D01*
X156213901Y-138483938D01*
X156585867Y-138484262D01*
X156929643Y-138342217D01*
X157192892Y-138079427D01*
X157335538Y-137735899D01*
X157335862Y-137363933D01*
X157193817Y-137020157D01*
X156931027Y-136756908D01*
X156587499Y-136614262D01*
X156215533Y-136613938D01*
X155871757Y-136755983D01*
X155838582Y-136789100D01*
X155265402Y-136789100D01*
X154381302Y-135905000D01*
X154573309Y-135905000D01*
X154806698Y-135808327D01*
X154985327Y-135629699D01*
X155082000Y-135396310D01*
X155082000Y-135044433D01*
X155206995Y-135346943D01*
X155568155Y-135708735D01*
X156040276Y-135904777D01*
X156551481Y-135905223D01*
X157023943Y-135710005D01*
X157385735Y-135348845D01*
X157581777Y-134876724D01*
X157582223Y-134365519D01*
X157387005Y-133893057D01*
X157025845Y-133531265D01*
X156553724Y-133335223D01*
X156042519Y-133334777D01*
X155570057Y-133529995D01*
X155208265Y-133891155D01*
X155082000Y-134195235D01*
X155082000Y-133843690D01*
X154985327Y-133610301D01*
X154806698Y-133431673D01*
X154573309Y-133335000D01*
X154108002Y-133335000D01*
X155494501Y-131948501D01*
X155659248Y-131701939D01*
X155674560Y-131624961D01*
X155674560Y-131841000D01*
G36*
X167428590Y-109590984D02*
X168148000Y-110310395D01*
X168162142Y-110296252D01*
X168341748Y-110475858D01*
X168327605Y-110490000D01*
X168341748Y-110504143D01*
X168162143Y-110683748D01*
X168148000Y-110669605D01*
X167428590Y-111389016D01*
X167484271Y-111619611D01*
X167967078Y-111787622D01*
X168363400Y-111764683D01*
X168363400Y-113617650D01*
X168209308Y-113771473D01*
X168066662Y-114115001D01*
X168066338Y-114486967D01*
X168208383Y-114830743D01*
X168241500Y-114863918D01*
X168241500Y-128909765D01*
X167882707Y-128550345D01*
X166902827Y-128143464D01*
X165841828Y-128142538D01*
X164861239Y-128547709D01*
X164110345Y-129297293D01*
X163703464Y-130277173D01*
X163702538Y-131338172D01*
X164107709Y-132318761D01*
X164857293Y-133069655D01*
X165837173Y-133476536D01*
X166898172Y-133477462D01*
X167626116Y-133176682D01*
X166433799Y-134368999D01*
X166269052Y-134615561D01*
X166211200Y-134906400D01*
X166211200Y-137575098D01*
X158035901Y-129399799D01*
X158003797Y-129378348D01*
X158101611Y-129354729D01*
X158269622Y-128871922D01*
X158240083Y-128361572D01*
X158101611Y-128027271D01*
X157871016Y-127971590D01*
X157151605Y-128691000D01*
X157165748Y-128705142D01*
X156986142Y-128884748D01*
X156972000Y-128870605D01*
X156957858Y-128884748D01*
X156778252Y-128705142D01*
X156792395Y-128691000D01*
X156072984Y-127971590D01*
X155842389Y-128027271D01*
X155717100Y-128387309D01*
X155717100Y-127791984D01*
X156252590Y-127791984D01*
X156972000Y-128511395D01*
X157691410Y-127791984D01*
X157635729Y-127561389D01*
X157152922Y-127393378D01*
X156642572Y-127422917D01*
X156308271Y-127561389D01*
X156252590Y-127791984D01*
X155717100Y-127791984D01*
X155717100Y-127061301D01*
X156210000Y-127159345D01*
X156783489Y-127045271D01*
X157269670Y-126720415D01*
X157594526Y-126234234D01*
X157708600Y-125660745D01*
X157708600Y-125441686D01*
X157861000Y-125472001D01*
X157861005Y-125472000D01*
X158363153Y-125472000D01*
X158379538Y-125511655D01*
X158838927Y-125971846D01*
X159439453Y-126221206D01*
X160089694Y-126221774D01*
X160690655Y-125973462D01*
X161150846Y-125514073D01*
X161400206Y-124913547D01*
X161400774Y-124263306D01*
X161152462Y-123662345D01*
X160693073Y-123202154D01*
X160092547Y-122952794D01*
X159829239Y-122952564D01*
X159738417Y-122732757D01*
X159475627Y-122469508D01*
X159132099Y-122326862D01*
X159085223Y-122326821D01*
X153571401Y-116812999D01*
X153334119Y-116654453D01*
X153832655Y-116448462D01*
X154292846Y-115989073D01*
X154542206Y-115388547D01*
X154542774Y-114738306D01*
X154294462Y-114137345D01*
X153835073Y-113677154D01*
X153234547Y-113427794D01*
X152584306Y-113427226D01*
X151983345Y-113675538D01*
X151523154Y-114134927D01*
X151383966Y-114470130D01*
X151246462Y-114137345D01*
X150787073Y-113677154D01*
X150186547Y-113427794D01*
X149918000Y-113427559D01*
X149918000Y-111852250D01*
X150027000Y-111743250D01*
X150027000Y-110744000D01*
X150007000Y-110744000D01*
X150007000Y-110490000D01*
X150027000Y-110490000D01*
X150027000Y-110470000D01*
X150281000Y-110470000D01*
X150281000Y-110490000D01*
X150301000Y-110490000D01*
X150301000Y-110744000D01*
X150281000Y-110744000D01*
X150281000Y-111743250D01*
X150439750Y-111902000D01*
X150930309Y-111902000D01*
X151163698Y-111805327D01*
X151342327Y-111626699D01*
X151439000Y-111393310D01*
X151439000Y-111041433D01*
X151563995Y-111343943D01*
X151925155Y-111705735D01*
X152187492Y-111814667D01*
X152187338Y-111991167D01*
X152329383Y-112334943D01*
X152592173Y-112598192D01*
X152935701Y-112740838D01*
X152982577Y-112740879D01*
X153301099Y-113059401D01*
X153547661Y-113224148D01*
X153838500Y-113282000D01*
X154501504Y-113282000D01*
X154569538Y-113446655D01*
X155028927Y-113906846D01*
X155629453Y-114156206D01*
X156279694Y-114156774D01*
X156880655Y-113908462D01*
X157340846Y-113449073D01*
X157590206Y-112848547D01*
X157590774Y-112198306D01*
X157342462Y-111597345D01*
X157120504Y-111375000D01*
X164394778Y-111375000D01*
X164394838Y-111375317D01*
X164533910Y-111591441D01*
X164746110Y-111736431D01*
X164998000Y-111787440D01*
X166298000Y-111787440D01*
X166533317Y-111743162D01*
X166749441Y-111604090D01*
X166894431Y-111391890D01*
X166945440Y-111140000D01*
X166945440Y-110977615D01*
X167018389Y-111153729D01*
X167248984Y-111209410D01*
X167968395Y-110490000D01*
X167248984Y-109770590D01*
X167018389Y-109826271D01*
X166945440Y-110035902D01*
X166945440Y-109840000D01*
X166901162Y-109604683D01*
X166865781Y-109549700D01*
X167438559Y-109549700D01*
X167428590Y-109590984D01*
X167428590Y-109590984D01*
G37*
X167428590Y-109590984D02*
X168148000Y-110310395D01*
X168162142Y-110296252D01*
X168341748Y-110475858D01*
X168327605Y-110490000D01*
X168341748Y-110504143D01*
X168162143Y-110683748D01*
X168148000Y-110669605D01*
X167428590Y-111389016D01*
X167484271Y-111619611D01*
X167967078Y-111787622D01*
X168363400Y-111764683D01*
X168363400Y-113617650D01*
X168209308Y-113771473D01*
X168066662Y-114115001D01*
X168066338Y-114486967D01*
X168208383Y-114830743D01*
X168241500Y-114863918D01*
X168241500Y-128909765D01*
X167882707Y-128550345D01*
X166902827Y-128143464D01*
X165841828Y-128142538D01*
X164861239Y-128547709D01*
X164110345Y-129297293D01*
X163703464Y-130277173D01*
X163702538Y-131338172D01*
X164107709Y-132318761D01*
X164857293Y-133069655D01*
X165837173Y-133476536D01*
X166898172Y-133477462D01*
X167626116Y-133176682D01*
X166433799Y-134368999D01*
X166269052Y-134615561D01*
X166211200Y-134906400D01*
X166211200Y-137575098D01*
X158035901Y-129399799D01*
X158003797Y-129378348D01*
X158101611Y-129354729D01*
X158269622Y-128871922D01*
X158240083Y-128361572D01*
X158101611Y-128027271D01*
X157871016Y-127971590D01*
X157151605Y-128691000D01*
X157165748Y-128705142D01*
X156986142Y-128884748D01*
X156972000Y-128870605D01*
X156957858Y-128884748D01*
X156778252Y-128705142D01*
X156792395Y-128691000D01*
X156072984Y-127971590D01*
X155842389Y-128027271D01*
X155717100Y-128387309D01*
X155717100Y-127791984D01*
X156252590Y-127791984D01*
X156972000Y-128511395D01*
X157691410Y-127791984D01*
X157635729Y-127561389D01*
X157152922Y-127393378D01*
X156642572Y-127422917D01*
X156308271Y-127561389D01*
X156252590Y-127791984D01*
X155717100Y-127791984D01*
X155717100Y-127061301D01*
X156210000Y-127159345D01*
X156783489Y-127045271D01*
X157269670Y-126720415D01*
X157594526Y-126234234D01*
X157708600Y-125660745D01*
X157708600Y-125441686D01*
X157861000Y-125472001D01*
X157861005Y-125472000D01*
X158363153Y-125472000D01*
X158379538Y-125511655D01*
X158838927Y-125971846D01*
X159439453Y-126221206D01*
X160089694Y-126221774D01*
X160690655Y-125973462D01*
X161150846Y-125514073D01*
X161400206Y-124913547D01*
X161400774Y-124263306D01*
X161152462Y-123662345D01*
X160693073Y-123202154D01*
X160092547Y-122952794D01*
X159829239Y-122952564D01*
X159738417Y-122732757D01*
X159475627Y-122469508D01*
X159132099Y-122326862D01*
X159085223Y-122326821D01*
X153571401Y-116812999D01*
X153334119Y-116654453D01*
X153832655Y-116448462D01*
X154292846Y-115989073D01*
X154542206Y-115388547D01*
X154542774Y-114738306D01*
X154294462Y-114137345D01*
X153835073Y-113677154D01*
X153234547Y-113427794D01*
X152584306Y-113427226D01*
X151983345Y-113675538D01*
X151523154Y-114134927D01*
X151383966Y-114470130D01*
X151246462Y-114137345D01*
X150787073Y-113677154D01*
X150186547Y-113427794D01*
X149918000Y-113427559D01*
X149918000Y-111852250D01*
X150027000Y-111743250D01*
X150027000Y-110744000D01*
X150007000Y-110744000D01*
X150007000Y-110490000D01*
X150027000Y-110490000D01*
X150027000Y-110470000D01*
X150281000Y-110470000D01*
X150281000Y-110490000D01*
X150301000Y-110490000D01*
X150301000Y-110744000D01*
X150281000Y-110744000D01*
X150281000Y-111743250D01*
X150439750Y-111902000D01*
X150930309Y-111902000D01*
X151163698Y-111805327D01*
X151342327Y-111626699D01*
X151439000Y-111393310D01*
X151439000Y-111041433D01*
X151563995Y-111343943D01*
X151925155Y-111705735D01*
X152187492Y-111814667D01*
X152187338Y-111991167D01*
X152329383Y-112334943D01*
X152592173Y-112598192D01*
X152935701Y-112740838D01*
X152982577Y-112740879D01*
X153301099Y-113059401D01*
X153547661Y-113224148D01*
X153838500Y-113282000D01*
X154501504Y-113282000D01*
X154569538Y-113446655D01*
X155028927Y-113906846D01*
X155629453Y-114156206D01*
X156279694Y-114156774D01*
X156880655Y-113908462D01*
X157340846Y-113449073D01*
X157590206Y-112848547D01*
X157590774Y-112198306D01*
X157342462Y-111597345D01*
X157120504Y-111375000D01*
X164394778Y-111375000D01*
X164394838Y-111375317D01*
X164533910Y-111591441D01*
X164746110Y-111736431D01*
X164998000Y-111787440D01*
X166298000Y-111787440D01*
X166533317Y-111743162D01*
X166749441Y-111604090D01*
X166894431Y-111391890D01*
X166945440Y-111140000D01*
X166945440Y-110977615D01*
X167018389Y-111153729D01*
X167248984Y-111209410D01*
X167968395Y-110490000D01*
X167248984Y-109770590D01*
X167018389Y-109826271D01*
X166945440Y-110035902D01*
X166945440Y-109840000D01*
X166901162Y-109604683D01*
X166865781Y-109549700D01*
X167438559Y-109549700D01*
X167428590Y-109590984D01*
G36*
X131511748Y-135113858D02*
X131497605Y-135128000D01*
X132119418Y-135749813D01*
X132139852Y-135852539D01*
X132304599Y-136099101D01*
X133112598Y-136907100D01*
X132268002Y-136907100D01*
X131991075Y-136630173D01*
X132191958Y-136546965D01*
X132290557Y-136280163D01*
X131318000Y-135307605D01*
X131303858Y-135321748D01*
X131124252Y-135142142D01*
X131138395Y-135128000D01*
X131124252Y-135113858D01*
X131303858Y-134934252D01*
X131318000Y-134948395D01*
X131332142Y-134934252D01*
X131511748Y-135113858D01*
X131511748Y-135113858D01*
G37*
X131511748Y-135113858D02*
X131497605Y-135128000D01*
X132119418Y-135749813D01*
X132139852Y-135852539D01*
X132304599Y-136099101D01*
X133112598Y-136907100D01*
X132268002Y-136907100D01*
X131991075Y-136630173D01*
X132191958Y-136546965D01*
X132290557Y-136280163D01*
X131318000Y-135307605D01*
X131303858Y-135321748D01*
X131124252Y-135142142D01*
X131138395Y-135128000D01*
X131124252Y-135113858D01*
X131303858Y-134934252D01*
X131318000Y-134948395D01*
X131332142Y-134934252D01*
X131511748Y-135113858D01*
G36*
X153924000Y-134493000D02*
X153944000Y-134493000D01*
X153944000Y-134747000D01*
X153924000Y-134747000D01*
X153924000Y-134767000D01*
X153670000Y-134767000D01*
X153670000Y-134747000D01*
X153650000Y-134747000D01*
X153650000Y-134493000D01*
X153670000Y-134493000D01*
X153670000Y-134473000D01*
X153924000Y-134473000D01*
X153924000Y-134493000D01*
X153924000Y-134493000D01*
G37*
X153924000Y-134493000D02*
X153944000Y-134493000D01*
X153944000Y-134747000D01*
X153924000Y-134747000D01*
X153924000Y-134767000D01*
X153670000Y-134767000D01*
X153670000Y-134747000D01*
X153650000Y-134747000D01*
X153650000Y-134493000D01*
X153670000Y-134493000D01*
X153670000Y-134473000D01*
X153924000Y-134473000D01*
X153924000Y-134493000D01*
G36*
X168315003Y-89631867D02*
X168785939Y-89993283D01*
X168835000Y-90239931D01*
X168835000Y-108694298D01*
X168393001Y-108252299D01*
X168146439Y-108087552D01*
X167855600Y-108029700D01*
X163864302Y-108029700D01*
X167266201Y-104627801D01*
X167430948Y-104381239D01*
X167488800Y-104090400D01*
X167488800Y-102745925D01*
X167507538Y-102700799D01*
X167507862Y-102328833D01*
X167365817Y-101985057D01*
X167103027Y-101721808D01*
X166759499Y-101579162D01*
X166387533Y-101578838D01*
X166043757Y-101720883D01*
X165780508Y-101983673D01*
X165637862Y-102327201D01*
X165637538Y-102699167D01*
X165752357Y-102977052D01*
X165540757Y-103064483D01*
X165277508Y-103327273D01*
X165134862Y-103670801D01*
X165134821Y-103717677D01*
X162245198Y-106607300D01*
X155366962Y-106607300D01*
X155462239Y-106588348D01*
X155708801Y-106423601D01*
X164244080Y-97888322D01*
X164289567Y-97888362D01*
X164633343Y-97746317D01*
X164670261Y-97709463D01*
X165331841Y-98371043D01*
X165331538Y-98718767D01*
X165473583Y-99062543D01*
X165736373Y-99325792D01*
X166079901Y-99468438D01*
X166451867Y-99468762D01*
X166795643Y-99326717D01*
X167058892Y-99063927D01*
X167201538Y-98720399D01*
X167201862Y-98348433D01*
X167059817Y-98004657D01*
X166914831Y-97859417D01*
X166804101Y-97693699D01*
X164857901Y-95747499D01*
X164611339Y-95582752D01*
X164320500Y-95524900D01*
X156953100Y-95524900D01*
X156662261Y-95582752D01*
X156415699Y-95747499D01*
X149610473Y-102552725D01*
X149087914Y-102552269D01*
X148597620Y-102754854D01*
X148225826Y-103126000D01*
X142857536Y-103126000D01*
X142488353Y-102756173D01*
X141998413Y-102552732D01*
X141467914Y-102552269D01*
X140977620Y-102754854D01*
X140602173Y-103129647D01*
X140398732Y-103619587D01*
X140398269Y-104150086D01*
X140417407Y-104196404D01*
X140394852Y-104230161D01*
X140337000Y-104521000D01*
X140337000Y-106622100D01*
X139827000Y-106520655D01*
X139253511Y-106634729D01*
X138767330Y-106959585D01*
X138557000Y-107274366D01*
X138346670Y-106959585D01*
X137860489Y-106634729D01*
X137287000Y-106520655D01*
X136713511Y-106634729D01*
X136227330Y-106959585D01*
X136212500Y-106981780D01*
X136148927Y-106828302D01*
X135970299Y-106649673D01*
X135736910Y-106553000D01*
X135032750Y-106553000D01*
X134874000Y-106711750D01*
X134874000Y-108077000D01*
X134894000Y-108077000D01*
X134894000Y-108331000D01*
X134874000Y-108331000D01*
X134874000Y-108351000D01*
X134620000Y-108351000D01*
X134620000Y-108331000D01*
X134600000Y-108331000D01*
X134600000Y-108077000D01*
X134620000Y-108077000D01*
X134620000Y-106711750D01*
X134461250Y-106553000D01*
X133757090Y-106553000D01*
X133523701Y-106649673D01*
X133433000Y-106740375D01*
X133433000Y-103361222D01*
X133433317Y-103361162D01*
X133649441Y-103222090D01*
X133794431Y-103009890D01*
X133795012Y-103007016D01*
X135424590Y-103007016D01*
X135480271Y-103237611D01*
X135963078Y-103405622D01*
X136473428Y-103376083D01*
X136807729Y-103237611D01*
X136863410Y-103007016D01*
X136144000Y-102287605D01*
X135424590Y-103007016D01*
X133795012Y-103007016D01*
X133845440Y-102758000D01*
X133845440Y-101927078D01*
X134846378Y-101927078D01*
X134875917Y-102437428D01*
X135014389Y-102771729D01*
X135244984Y-102827410D01*
X135964395Y-102108000D01*
X136323605Y-102108000D01*
X137043016Y-102827410D01*
X137273611Y-102771729D01*
X137346560Y-102562098D01*
X137346560Y-102758000D01*
X137390838Y-102993317D01*
X137529910Y-103209441D01*
X137742110Y-103354431D01*
X137994000Y-103405440D01*
X139294000Y-103405440D01*
X139529317Y-103361162D01*
X139745441Y-103222090D01*
X139890431Y-103009890D01*
X139941440Y-102758000D01*
X139941440Y-101458000D01*
X139897162Y-101222683D01*
X139758090Y-101006559D01*
X139545890Y-100861569D01*
X139294000Y-100810560D01*
X137994000Y-100810560D01*
X137758683Y-100854838D01*
X137542559Y-100993910D01*
X137397569Y-101206110D01*
X137346560Y-101458000D01*
X137346560Y-101620385D01*
X137273611Y-101444271D01*
X137043016Y-101388590D01*
X136323605Y-102108000D01*
X135964395Y-102108000D01*
X135244984Y-101388590D01*
X135014389Y-101444271D01*
X134846378Y-101927078D01*
X133845440Y-101927078D01*
X133845440Y-101458000D01*
X133801162Y-101222683D01*
X133792347Y-101208984D01*
X135424590Y-101208984D01*
X136144000Y-101928395D01*
X136863410Y-101208984D01*
X136807729Y-100978389D01*
X136324922Y-100810378D01*
X135814572Y-100839917D01*
X135480271Y-100978389D01*
X135424590Y-101208984D01*
X133792347Y-101208984D01*
X133662090Y-101006559D01*
X133449890Y-100861569D01*
X133198000Y-100810560D01*
X131898000Y-100810560D01*
X131662683Y-100854838D01*
X131446559Y-100993910D01*
X131301569Y-101206110D01*
X131250560Y-101458000D01*
X131250560Y-101620385D01*
X131177611Y-101444271D01*
X130947016Y-101388590D01*
X130227605Y-102108000D01*
X130947016Y-102827410D01*
X131177611Y-102771729D01*
X131250560Y-102562098D01*
X131250560Y-102758000D01*
X131294838Y-102993317D01*
X131433910Y-103209441D01*
X131646110Y-103354431D01*
X131663000Y-103357851D01*
X131663000Y-108545895D01*
X131662999Y-108545900D01*
X131711495Y-108789700D01*
X131730367Y-108884575D01*
X131922210Y-109171690D01*
X133499808Y-110749287D01*
X133499810Y-110749290D01*
X133786925Y-110941133D01*
X134042706Y-110992011D01*
X133695345Y-111135538D01*
X133235154Y-111594927D01*
X132985794Y-112195453D01*
X132985226Y-112845694D01*
X133233538Y-113446655D01*
X133692927Y-113906846D01*
X134293453Y-114156206D01*
X134943694Y-114156774D01*
X135110889Y-114087691D01*
X135423099Y-114399901D01*
X135669660Y-114564648D01*
X135960500Y-114622500D01*
X138207100Y-114622500D01*
X138497939Y-114564648D01*
X138744501Y-114399901D01*
X139513482Y-113630920D01*
X139788927Y-113906846D01*
X140389453Y-114156206D01*
X141039694Y-114156774D01*
X141640655Y-113908462D01*
X142100846Y-113449073D01*
X142240034Y-113113870D01*
X142377538Y-113446655D01*
X142836927Y-113906846D01*
X143437453Y-114156206D01*
X144087694Y-114156774D01*
X144688655Y-113908462D01*
X145148846Y-113449073D01*
X145288034Y-113113870D01*
X145425538Y-113446655D01*
X145884927Y-113906846D01*
X146485453Y-114156206D01*
X147135694Y-114156774D01*
X147736655Y-113908462D01*
X148196846Y-113449073D01*
X148398000Y-112964640D01*
X148398000Y-114320735D01*
X148225794Y-114735453D01*
X148225226Y-115385694D01*
X148473538Y-115986655D01*
X148932927Y-116446846D01*
X149278644Y-116590400D01*
X137267802Y-116590400D01*
X136880022Y-116202620D01*
X136880062Y-116157133D01*
X136738017Y-115813357D01*
X136475227Y-115550108D01*
X136131699Y-115407462D01*
X135759733Y-115407138D01*
X135415957Y-115549183D01*
X135152708Y-115811973D01*
X135010062Y-116155501D01*
X135009738Y-116527467D01*
X135151783Y-116871243D01*
X135414573Y-117134492D01*
X135758101Y-117277138D01*
X135804977Y-117277179D01*
X136415599Y-117887801D01*
X136662161Y-118052548D01*
X136953000Y-118110400D01*
X152719198Y-118110400D01*
X155656045Y-121047247D01*
X155632306Y-121047226D01*
X155031345Y-121295538D01*
X154571154Y-121754927D01*
X154431966Y-122090130D01*
X154294462Y-121757345D01*
X153835073Y-121297154D01*
X153234547Y-121047794D01*
X152584306Y-121047226D01*
X151983345Y-121295538D01*
X151523154Y-121754927D01*
X151505684Y-121797000D01*
X151262847Y-121797000D01*
X151246462Y-121757345D01*
X150787073Y-121297154D01*
X150186547Y-121047794D01*
X149536306Y-121047226D01*
X148935345Y-121295538D01*
X148475154Y-121754927D01*
X148457684Y-121797000D01*
X148214847Y-121797000D01*
X148198462Y-121757345D01*
X147739073Y-121297154D01*
X147138547Y-121047794D01*
X146488306Y-121047226D01*
X146446202Y-121064623D01*
X145982790Y-120601210D01*
X145695675Y-120409367D01*
X145639484Y-120398190D01*
X145357000Y-120341999D01*
X145356995Y-120342000D01*
X142171005Y-120342000D01*
X142171000Y-120341999D01*
X141888516Y-120398190D01*
X141832325Y-120409367D01*
X141545210Y-120601210D01*
X141545208Y-120601213D01*
X141082173Y-121064248D01*
X141042547Y-121047794D01*
X140392306Y-121047226D01*
X140350202Y-121064623D01*
X139891890Y-120606310D01*
X139884257Y-120601210D01*
X139604775Y-120414467D01*
X139548584Y-120403290D01*
X139266100Y-120347099D01*
X139266095Y-120347100D01*
X136069905Y-120347100D01*
X136069900Y-120347099D01*
X135756864Y-120409367D01*
X135731225Y-120414467D01*
X135444110Y-120606310D01*
X135444108Y-120606313D01*
X134986173Y-121064248D01*
X134946547Y-121047794D01*
X134296306Y-121047226D01*
X133695345Y-121295538D01*
X133235154Y-121754927D01*
X132985794Y-122355453D01*
X132985226Y-123005694D01*
X133137159Y-123373400D01*
X130294400Y-123373400D01*
X130003561Y-123431252D01*
X129756999Y-123595999D01*
X129204829Y-124148169D01*
X128843489Y-123906729D01*
X128270000Y-123792655D01*
X127696511Y-123906729D01*
X127210330Y-124231585D01*
X127000000Y-124546366D01*
X126789670Y-124231585D01*
X126303489Y-123906729D01*
X125730000Y-123792655D01*
X125156511Y-123906729D01*
X124670330Y-124231585D01*
X124660757Y-124245913D01*
X124656762Y-124224683D01*
X124517690Y-124008559D01*
X124305490Y-123863569D01*
X124053600Y-123812560D01*
X122761000Y-123812560D01*
X122761000Y-106397880D01*
X124196787Y-104962092D01*
X124196790Y-104962090D01*
X124388633Y-104674975D01*
X124405904Y-104588148D01*
X124416787Y-104533440D01*
X124587000Y-104533440D01*
X124822317Y-104489162D01*
X125038441Y-104350090D01*
X125149840Y-104187052D01*
X125246182Y-104276385D01*
X125728056Y-104475975D01*
X125984000Y-104356836D01*
X125984000Y-102997000D01*
X126238000Y-102997000D01*
X126238000Y-104356836D01*
X126493944Y-104475975D01*
X126975818Y-104276385D01*
X127448188Y-103838379D01*
X127716983Y-103252946D01*
X127603009Y-103007016D01*
X129328590Y-103007016D01*
X129384271Y-103237611D01*
X129867078Y-103405622D01*
X130377428Y-103376083D01*
X130711729Y-103237611D01*
X130767410Y-103007016D01*
X130048000Y-102287605D01*
X129328590Y-103007016D01*
X127603009Y-103007016D01*
X127598367Y-102997000D01*
X126238000Y-102997000D01*
X125984000Y-102997000D01*
X125964000Y-102997000D01*
X125964000Y-102743000D01*
X125984000Y-102743000D01*
X125984000Y-101383164D01*
X126238000Y-101383164D01*
X126238000Y-102743000D01*
X127598367Y-102743000D01*
X127716983Y-102487054D01*
X127459877Y-101927078D01*
X128750378Y-101927078D01*
X128779917Y-102437428D01*
X128918389Y-102771729D01*
X129148984Y-102827410D01*
X129868395Y-102108000D01*
X129148984Y-101388590D01*
X128918389Y-101444271D01*
X128750378Y-101927078D01*
X127459877Y-101927078D01*
X127448188Y-101901621D01*
X126975818Y-101463615D01*
X126493944Y-101264025D01*
X126238000Y-101383164D01*
X125984000Y-101383164D01*
X125728056Y-101264025D01*
X125246182Y-101463615D01*
X125148602Y-101554097D01*
X125051090Y-101402559D01*
X124838890Y-101257569D01*
X124598971Y-101208984D01*
X129328590Y-101208984D01*
X130048000Y-101928395D01*
X130767410Y-101208984D01*
X130711729Y-100978389D01*
X130228922Y-100810378D01*
X129718572Y-100839917D01*
X129384271Y-100978389D01*
X129328590Y-101208984D01*
X124598971Y-101208984D01*
X124587000Y-101206560D01*
X122555000Y-101206560D01*
X122319683Y-101250838D01*
X122103559Y-101389910D01*
X121995000Y-101548791D01*
X121995000Y-99740188D01*
X140977417Y-99740188D01*
X141039071Y-99975800D01*
X141539480Y-100151927D01*
X142069199Y-100123148D01*
X142424929Y-99975800D01*
X142486583Y-99740188D01*
X148597417Y-99740188D01*
X148659071Y-99975800D01*
X149159480Y-100151927D01*
X149689199Y-100123148D01*
X150044929Y-99975800D01*
X150106583Y-99740188D01*
X149352000Y-98985605D01*
X148597417Y-99740188D01*
X142486583Y-99740188D01*
X141732000Y-98985605D01*
X140977417Y-99740188D01*
X121995000Y-99740188D01*
X121995000Y-97538168D01*
X122197709Y-98028761D01*
X122947293Y-98779655D01*
X123927173Y-99186536D01*
X124988172Y-99187462D01*
X125968761Y-98782291D01*
X126137867Y-98613480D01*
X140386073Y-98613480D01*
X140414852Y-99143199D01*
X140562200Y-99498929D01*
X140797812Y-99560583D01*
X141552395Y-98806000D01*
X141911605Y-98806000D01*
X142666188Y-99560583D01*
X142901800Y-99498929D01*
X143077927Y-98998520D01*
X143057009Y-98613480D01*
X148006073Y-98613480D01*
X148034852Y-99143199D01*
X148182200Y-99498929D01*
X148417812Y-99560583D01*
X149172395Y-98806000D01*
X149531605Y-98806000D01*
X150286188Y-99560583D01*
X150521800Y-99498929D01*
X150697927Y-98998520D01*
X150669148Y-98468801D01*
X150521800Y-98113071D01*
X150286188Y-98051417D01*
X149531605Y-98806000D01*
X149172395Y-98806000D01*
X148417812Y-98051417D01*
X148182200Y-98113071D01*
X148006073Y-98613480D01*
X143057009Y-98613480D01*
X143049148Y-98468801D01*
X142901800Y-98113071D01*
X142666188Y-98051417D01*
X141911605Y-98806000D01*
X141552395Y-98806000D01*
X140797812Y-98051417D01*
X140562200Y-98113071D01*
X140386073Y-98613480D01*
X126137867Y-98613480D01*
X126719655Y-98032707D01*
X127126536Y-97052827D01*
X127126992Y-96530086D01*
X140398269Y-96530086D01*
X140600854Y-97020380D01*
X140975647Y-97395827D01*
X141297118Y-97529314D01*
X141039071Y-97636200D01*
X140977417Y-97871812D01*
X141732000Y-98626395D01*
X142486583Y-97871812D01*
X142424929Y-97636200D01*
X142145688Y-97537917D01*
X142486380Y-97397146D01*
X142858174Y-97026000D01*
X148226464Y-97026000D01*
X148595647Y-97395827D01*
X148917118Y-97529314D01*
X148659071Y-97636200D01*
X148597417Y-97871812D01*
X149352000Y-98626395D01*
X150106583Y-97871812D01*
X150044929Y-97636200D01*
X149765688Y-97537917D01*
X150106380Y-97397146D01*
X150481827Y-97022353D01*
X150685268Y-96532413D01*
X150685731Y-96001914D01*
X150483146Y-95511620D01*
X150108353Y-95136173D01*
X149618413Y-94932732D01*
X149087914Y-94932269D01*
X148597620Y-95134854D01*
X148225826Y-95506000D01*
X142857536Y-95506000D01*
X142488353Y-95136173D01*
X141998413Y-94932732D01*
X141467914Y-94932269D01*
X140977620Y-95134854D01*
X140602173Y-95509647D01*
X140398732Y-95999587D01*
X140398269Y-96530086D01*
X127126992Y-96530086D01*
X127127462Y-95991828D01*
X126722291Y-95011239D01*
X125972707Y-94260345D01*
X124992827Y-93853464D01*
X123931828Y-93852538D01*
X122951239Y-94257709D01*
X122200345Y-95007293D01*
X121995000Y-95501820D01*
X121995000Y-92120188D01*
X140977417Y-92120188D01*
X141039071Y-92355800D01*
X141539480Y-92531927D01*
X142069199Y-92503148D01*
X142424929Y-92355800D01*
X142486583Y-92120188D01*
X148597417Y-92120188D01*
X148659071Y-92355800D01*
X149159480Y-92531927D01*
X149689199Y-92503148D01*
X150044929Y-92355800D01*
X150106583Y-92120188D01*
X149352000Y-91365605D01*
X148597417Y-92120188D01*
X142486583Y-92120188D01*
X141732000Y-91365605D01*
X140977417Y-92120188D01*
X121995000Y-92120188D01*
X121995000Y-90993480D01*
X140386073Y-90993480D01*
X140414852Y-91523199D01*
X140562200Y-91878929D01*
X140797812Y-91940583D01*
X141552395Y-91186000D01*
X141911605Y-91186000D01*
X142666188Y-91940583D01*
X142901800Y-91878929D01*
X143077927Y-91378520D01*
X143057009Y-90993480D01*
X148006073Y-90993480D01*
X148034852Y-91523199D01*
X148182200Y-91878929D01*
X148417812Y-91940583D01*
X149172395Y-91186000D01*
X149531605Y-91186000D01*
X150286188Y-91940583D01*
X150521800Y-91878929D01*
X150697927Y-91378520D01*
X150669148Y-90848801D01*
X150521800Y-90493071D01*
X150286188Y-90431417D01*
X149531605Y-91186000D01*
X149172395Y-91186000D01*
X148417812Y-90431417D01*
X148182200Y-90493071D01*
X148006073Y-90993480D01*
X143057009Y-90993480D01*
X143049148Y-90848801D01*
X142901800Y-90493071D01*
X142666188Y-90431417D01*
X141911605Y-91186000D01*
X141552395Y-91186000D01*
X140797812Y-90431417D01*
X140562200Y-90493071D01*
X140386073Y-90993480D01*
X121995000Y-90993480D01*
X121995000Y-90251812D01*
X140977417Y-90251812D01*
X141732000Y-91006395D01*
X142486583Y-90251812D01*
X148597417Y-90251812D01*
X149352000Y-91006395D01*
X150106583Y-90251812D01*
X150044929Y-90016200D01*
X149544520Y-89840073D01*
X149014801Y-89868852D01*
X148659071Y-90016200D01*
X148597417Y-90251812D01*
X142486583Y-90251812D01*
X142424929Y-90016200D01*
X141924520Y-89840073D01*
X141394801Y-89868852D01*
X141039071Y-90016200D01*
X140977417Y-90251812D01*
X121995000Y-90251812D01*
X121995000Y-90239930D01*
X122050478Y-89961021D01*
X122168856Y-89783855D01*
X122346019Y-89665479D01*
X122624931Y-89610000D01*
X168205070Y-89610000D01*
X168315003Y-89631867D01*
X168315003Y-89631867D01*
G37*
X168315003Y-89631867D02*
X168785939Y-89993283D01*
X168835000Y-90239931D01*
X168835000Y-108694298D01*
X168393001Y-108252299D01*
X168146439Y-108087552D01*
X167855600Y-108029700D01*
X163864302Y-108029700D01*
X167266201Y-104627801D01*
X167430948Y-104381239D01*
X167488800Y-104090400D01*
X167488800Y-102745925D01*
X167507538Y-102700799D01*
X167507862Y-102328833D01*
X167365817Y-101985057D01*
X167103027Y-101721808D01*
X166759499Y-101579162D01*
X166387533Y-101578838D01*
X166043757Y-101720883D01*
X165780508Y-101983673D01*
X165637862Y-102327201D01*
X165637538Y-102699167D01*
X165752357Y-102977052D01*
X165540757Y-103064483D01*
X165277508Y-103327273D01*
X165134862Y-103670801D01*
X165134821Y-103717677D01*
X162245198Y-106607300D01*
X155366962Y-106607300D01*
X155462239Y-106588348D01*
X155708801Y-106423601D01*
X164244080Y-97888322D01*
X164289567Y-97888362D01*
X164633343Y-97746317D01*
X164670261Y-97709463D01*
X165331841Y-98371043D01*
X165331538Y-98718767D01*
X165473583Y-99062543D01*
X165736373Y-99325792D01*
X166079901Y-99468438D01*
X166451867Y-99468762D01*
X166795643Y-99326717D01*
X167058892Y-99063927D01*
X167201538Y-98720399D01*
X167201862Y-98348433D01*
X167059817Y-98004657D01*
X166914831Y-97859417D01*
X166804101Y-97693699D01*
X164857901Y-95747499D01*
X164611339Y-95582752D01*
X164320500Y-95524900D01*
X156953100Y-95524900D01*
X156662261Y-95582752D01*
X156415699Y-95747499D01*
X149610473Y-102552725D01*
X149087914Y-102552269D01*
X148597620Y-102754854D01*
X148225826Y-103126000D01*
X142857536Y-103126000D01*
X142488353Y-102756173D01*
X141998413Y-102552732D01*
X141467914Y-102552269D01*
X140977620Y-102754854D01*
X140602173Y-103129647D01*
X140398732Y-103619587D01*
X140398269Y-104150086D01*
X140417407Y-104196404D01*
X140394852Y-104230161D01*
X140337000Y-104521000D01*
X140337000Y-106622100D01*
X139827000Y-106520655D01*
X139253511Y-106634729D01*
X138767330Y-106959585D01*
X138557000Y-107274366D01*
X138346670Y-106959585D01*
X137860489Y-106634729D01*
X137287000Y-106520655D01*
X136713511Y-106634729D01*
X136227330Y-106959585D01*
X136212500Y-106981780D01*
X136148927Y-106828302D01*
X135970299Y-106649673D01*
X135736910Y-106553000D01*
X135032750Y-106553000D01*
X134874000Y-106711750D01*
X134874000Y-108077000D01*
X134894000Y-108077000D01*
X134894000Y-108331000D01*
X134874000Y-108331000D01*
X134874000Y-108351000D01*
X134620000Y-108351000D01*
X134620000Y-108331000D01*
X134600000Y-108331000D01*
X134600000Y-108077000D01*
X134620000Y-108077000D01*
X134620000Y-106711750D01*
X134461250Y-106553000D01*
X133757090Y-106553000D01*
X133523701Y-106649673D01*
X133433000Y-106740375D01*
X133433000Y-103361222D01*
X133433317Y-103361162D01*
X133649441Y-103222090D01*
X133794431Y-103009890D01*
X133795012Y-103007016D01*
X135424590Y-103007016D01*
X135480271Y-103237611D01*
X135963078Y-103405622D01*
X136473428Y-103376083D01*
X136807729Y-103237611D01*
X136863410Y-103007016D01*
X136144000Y-102287605D01*
X135424590Y-103007016D01*
X133795012Y-103007016D01*
X133845440Y-102758000D01*
X133845440Y-101927078D01*
X134846378Y-101927078D01*
X134875917Y-102437428D01*
X135014389Y-102771729D01*
X135244984Y-102827410D01*
X135964395Y-102108000D01*
X136323605Y-102108000D01*
X137043016Y-102827410D01*
X137273611Y-102771729D01*
X137346560Y-102562098D01*
X137346560Y-102758000D01*
X137390838Y-102993317D01*
X137529910Y-103209441D01*
X137742110Y-103354431D01*
X137994000Y-103405440D01*
X139294000Y-103405440D01*
X139529317Y-103361162D01*
X139745441Y-103222090D01*
X139890431Y-103009890D01*
X139941440Y-102758000D01*
X139941440Y-101458000D01*
X139897162Y-101222683D01*
X139758090Y-101006559D01*
X139545890Y-100861569D01*
X139294000Y-100810560D01*
X137994000Y-100810560D01*
X137758683Y-100854838D01*
X137542559Y-100993910D01*
X137397569Y-101206110D01*
X137346560Y-101458000D01*
X137346560Y-101620385D01*
X137273611Y-101444271D01*
X137043016Y-101388590D01*
X136323605Y-102108000D01*
X135964395Y-102108000D01*
X135244984Y-101388590D01*
X135014389Y-101444271D01*
X134846378Y-101927078D01*
X133845440Y-101927078D01*
X133845440Y-101458000D01*
X133801162Y-101222683D01*
X133792347Y-101208984D01*
X135424590Y-101208984D01*
X136144000Y-101928395D01*
X136863410Y-101208984D01*
X136807729Y-100978389D01*
X136324922Y-100810378D01*
X135814572Y-100839917D01*
X135480271Y-100978389D01*
X135424590Y-101208984D01*
X133792347Y-101208984D01*
X133662090Y-101006559D01*
X133449890Y-100861569D01*
X133198000Y-100810560D01*
X131898000Y-100810560D01*
X131662683Y-100854838D01*
X131446559Y-100993910D01*
X131301569Y-101206110D01*
X131250560Y-101458000D01*
X131250560Y-101620385D01*
X131177611Y-101444271D01*
X130947016Y-101388590D01*
X130227605Y-102108000D01*
X130947016Y-102827410D01*
X131177611Y-102771729D01*
X131250560Y-102562098D01*
X131250560Y-102758000D01*
X131294838Y-102993317D01*
X131433910Y-103209441D01*
X131646110Y-103354431D01*
X131663000Y-103357851D01*
X131663000Y-108545895D01*
X131662999Y-108545900D01*
X131711495Y-108789700D01*
X131730367Y-108884575D01*
X131922210Y-109171690D01*
X133499808Y-110749287D01*
X133499810Y-110749290D01*
X133786925Y-110941133D01*
X134042706Y-110992011D01*
X133695345Y-111135538D01*
X133235154Y-111594927D01*
X132985794Y-112195453D01*
X132985226Y-112845694D01*
X133233538Y-113446655D01*
X133692927Y-113906846D01*
X134293453Y-114156206D01*
X134943694Y-114156774D01*
X135110889Y-114087691D01*
X135423099Y-114399901D01*
X135669660Y-114564648D01*
X135960500Y-114622500D01*
X138207100Y-114622500D01*
X138497939Y-114564648D01*
X138744501Y-114399901D01*
X139513482Y-113630920D01*
X139788927Y-113906846D01*
X140389453Y-114156206D01*
X141039694Y-114156774D01*
X141640655Y-113908462D01*
X142100846Y-113449073D01*
X142240034Y-113113870D01*
X142377538Y-113446655D01*
X142836927Y-113906846D01*
X143437453Y-114156206D01*
X144087694Y-114156774D01*
X144688655Y-113908462D01*
X145148846Y-113449073D01*
X145288034Y-113113870D01*
X145425538Y-113446655D01*
X145884927Y-113906846D01*
X146485453Y-114156206D01*
X147135694Y-114156774D01*
X147736655Y-113908462D01*
X148196846Y-113449073D01*
X148398000Y-112964640D01*
X148398000Y-114320735D01*
X148225794Y-114735453D01*
X148225226Y-115385694D01*
X148473538Y-115986655D01*
X148932927Y-116446846D01*
X149278644Y-116590400D01*
X137267802Y-116590400D01*
X136880022Y-116202620D01*
X136880062Y-116157133D01*
X136738017Y-115813357D01*
X136475227Y-115550108D01*
X136131699Y-115407462D01*
X135759733Y-115407138D01*
X135415957Y-115549183D01*
X135152708Y-115811973D01*
X135010062Y-116155501D01*
X135009738Y-116527467D01*
X135151783Y-116871243D01*
X135414573Y-117134492D01*
X135758101Y-117277138D01*
X135804977Y-117277179D01*
X136415599Y-117887801D01*
X136662161Y-118052548D01*
X136953000Y-118110400D01*
X152719198Y-118110400D01*
X155656045Y-121047247D01*
X155632306Y-121047226D01*
X155031345Y-121295538D01*
X154571154Y-121754927D01*
X154431966Y-122090130D01*
X154294462Y-121757345D01*
X153835073Y-121297154D01*
X153234547Y-121047794D01*
X152584306Y-121047226D01*
X151983345Y-121295538D01*
X151523154Y-121754927D01*
X151505684Y-121797000D01*
X151262847Y-121797000D01*
X151246462Y-121757345D01*
X150787073Y-121297154D01*
X150186547Y-121047794D01*
X149536306Y-121047226D01*
X148935345Y-121295538D01*
X148475154Y-121754927D01*
X148457684Y-121797000D01*
X148214847Y-121797000D01*
X148198462Y-121757345D01*
X147739073Y-121297154D01*
X147138547Y-121047794D01*
X146488306Y-121047226D01*
X146446202Y-121064623D01*
X145982790Y-120601210D01*
X145695675Y-120409367D01*
X145639484Y-120398190D01*
X145357000Y-120341999D01*
X145356995Y-120342000D01*
X142171005Y-120342000D01*
X142171000Y-120341999D01*
X141888516Y-120398190D01*
X141832325Y-120409367D01*
X141545210Y-120601210D01*
X141545208Y-120601213D01*
X141082173Y-121064248D01*
X141042547Y-121047794D01*
X140392306Y-121047226D01*
X140350202Y-121064623D01*
X139891890Y-120606310D01*
X139884257Y-120601210D01*
X139604775Y-120414467D01*
X139548584Y-120403290D01*
X139266100Y-120347099D01*
X139266095Y-120347100D01*
X136069905Y-120347100D01*
X136069900Y-120347099D01*
X135756864Y-120409367D01*
X135731225Y-120414467D01*
X135444110Y-120606310D01*
X135444108Y-120606313D01*
X134986173Y-121064248D01*
X134946547Y-121047794D01*
X134296306Y-121047226D01*
X133695345Y-121295538D01*
X133235154Y-121754927D01*
X132985794Y-122355453D01*
X132985226Y-123005694D01*
X133137159Y-123373400D01*
X130294400Y-123373400D01*
X130003561Y-123431252D01*
X129756999Y-123595999D01*
X129204829Y-124148169D01*
X128843489Y-123906729D01*
X128270000Y-123792655D01*
X127696511Y-123906729D01*
X127210330Y-124231585D01*
X127000000Y-124546366D01*
X126789670Y-124231585D01*
X126303489Y-123906729D01*
X125730000Y-123792655D01*
X125156511Y-123906729D01*
X124670330Y-124231585D01*
X124660757Y-124245913D01*
X124656762Y-124224683D01*
X124517690Y-124008559D01*
X124305490Y-123863569D01*
X124053600Y-123812560D01*
X122761000Y-123812560D01*
X122761000Y-106397880D01*
X124196787Y-104962092D01*
X124196790Y-104962090D01*
X124388633Y-104674975D01*
X124405904Y-104588148D01*
X124416787Y-104533440D01*
X124587000Y-104533440D01*
X124822317Y-104489162D01*
X125038441Y-104350090D01*
X125149840Y-104187052D01*
X125246182Y-104276385D01*
X125728056Y-104475975D01*
X125984000Y-104356836D01*
X125984000Y-102997000D01*
X126238000Y-102997000D01*
X126238000Y-104356836D01*
X126493944Y-104475975D01*
X126975818Y-104276385D01*
X127448188Y-103838379D01*
X127716983Y-103252946D01*
X127603009Y-103007016D01*
X129328590Y-103007016D01*
X129384271Y-103237611D01*
X129867078Y-103405622D01*
X130377428Y-103376083D01*
X130711729Y-103237611D01*
X130767410Y-103007016D01*
X130048000Y-102287605D01*
X129328590Y-103007016D01*
X127603009Y-103007016D01*
X127598367Y-102997000D01*
X126238000Y-102997000D01*
X125984000Y-102997000D01*
X125964000Y-102997000D01*
X125964000Y-102743000D01*
X125984000Y-102743000D01*
X125984000Y-101383164D01*
X126238000Y-101383164D01*
X126238000Y-102743000D01*
X127598367Y-102743000D01*
X127716983Y-102487054D01*
X127459877Y-101927078D01*
X128750378Y-101927078D01*
X128779917Y-102437428D01*
X128918389Y-102771729D01*
X129148984Y-102827410D01*
X129868395Y-102108000D01*
X129148984Y-101388590D01*
X128918389Y-101444271D01*
X128750378Y-101927078D01*
X127459877Y-101927078D01*
X127448188Y-101901621D01*
X126975818Y-101463615D01*
X126493944Y-101264025D01*
X126238000Y-101383164D01*
X125984000Y-101383164D01*
X125728056Y-101264025D01*
X125246182Y-101463615D01*
X125148602Y-101554097D01*
X125051090Y-101402559D01*
X124838890Y-101257569D01*
X124598971Y-101208984D01*
X129328590Y-101208984D01*
X130048000Y-101928395D01*
X130767410Y-101208984D01*
X130711729Y-100978389D01*
X130228922Y-100810378D01*
X129718572Y-100839917D01*
X129384271Y-100978389D01*
X129328590Y-101208984D01*
X124598971Y-101208984D01*
X124587000Y-101206560D01*
X122555000Y-101206560D01*
X122319683Y-101250838D01*
X122103559Y-101389910D01*
X121995000Y-101548791D01*
X121995000Y-99740188D01*
X140977417Y-99740188D01*
X141039071Y-99975800D01*
X141539480Y-100151927D01*
X142069199Y-100123148D01*
X142424929Y-99975800D01*
X142486583Y-99740188D01*
X148597417Y-99740188D01*
X148659071Y-99975800D01*
X149159480Y-100151927D01*
X149689199Y-100123148D01*
X150044929Y-99975800D01*
X150106583Y-99740188D01*
X149352000Y-98985605D01*
X148597417Y-99740188D01*
X142486583Y-99740188D01*
X141732000Y-98985605D01*
X140977417Y-99740188D01*
X121995000Y-99740188D01*
X121995000Y-97538168D01*
X122197709Y-98028761D01*
X122947293Y-98779655D01*
X123927173Y-99186536D01*
X124988172Y-99187462D01*
X125968761Y-98782291D01*
X126137867Y-98613480D01*
X140386073Y-98613480D01*
X140414852Y-99143199D01*
X140562200Y-99498929D01*
X140797812Y-99560583D01*
X141552395Y-98806000D01*
X141911605Y-98806000D01*
X142666188Y-99560583D01*
X142901800Y-99498929D01*
X143077927Y-98998520D01*
X143057009Y-98613480D01*
X148006073Y-98613480D01*
X148034852Y-99143199D01*
X148182200Y-99498929D01*
X148417812Y-99560583D01*
X149172395Y-98806000D01*
X149531605Y-98806000D01*
X150286188Y-99560583D01*
X150521800Y-99498929D01*
X150697927Y-98998520D01*
X150669148Y-98468801D01*
X150521800Y-98113071D01*
X150286188Y-98051417D01*
X149531605Y-98806000D01*
X149172395Y-98806000D01*
X148417812Y-98051417D01*
X148182200Y-98113071D01*
X148006073Y-98613480D01*
X143057009Y-98613480D01*
X143049148Y-98468801D01*
X142901800Y-98113071D01*
X142666188Y-98051417D01*
X141911605Y-98806000D01*
X141552395Y-98806000D01*
X140797812Y-98051417D01*
X140562200Y-98113071D01*
X140386073Y-98613480D01*
X126137867Y-98613480D01*
X126719655Y-98032707D01*
X127126536Y-97052827D01*
X127126992Y-96530086D01*
X140398269Y-96530086D01*
X140600854Y-97020380D01*
X140975647Y-97395827D01*
X141297118Y-97529314D01*
X141039071Y-97636200D01*
X140977417Y-97871812D01*
X141732000Y-98626395D01*
X142486583Y-97871812D01*
X142424929Y-97636200D01*
X142145688Y-97537917D01*
X142486380Y-97397146D01*
X142858174Y-97026000D01*
X148226464Y-97026000D01*
X148595647Y-97395827D01*
X148917118Y-97529314D01*
X148659071Y-97636200D01*
X148597417Y-97871812D01*
X149352000Y-98626395D01*
X150106583Y-97871812D01*
X150044929Y-97636200D01*
X149765688Y-97537917D01*
X150106380Y-97397146D01*
X150481827Y-97022353D01*
X150685268Y-96532413D01*
X150685731Y-96001914D01*
X150483146Y-95511620D01*
X150108353Y-95136173D01*
X149618413Y-94932732D01*
X149087914Y-94932269D01*
X148597620Y-95134854D01*
X148225826Y-95506000D01*
X142857536Y-95506000D01*
X142488353Y-95136173D01*
X141998413Y-94932732D01*
X141467914Y-94932269D01*
X140977620Y-95134854D01*
X140602173Y-95509647D01*
X140398732Y-95999587D01*
X140398269Y-96530086D01*
X127126992Y-96530086D01*
X127127462Y-95991828D01*
X126722291Y-95011239D01*
X125972707Y-94260345D01*
X124992827Y-93853464D01*
X123931828Y-93852538D01*
X122951239Y-94257709D01*
X122200345Y-95007293D01*
X121995000Y-95501820D01*
X121995000Y-92120188D01*
X140977417Y-92120188D01*
X141039071Y-92355800D01*
X141539480Y-92531927D01*
X142069199Y-92503148D01*
X142424929Y-92355800D01*
X142486583Y-92120188D01*
X148597417Y-92120188D01*
X148659071Y-92355800D01*
X149159480Y-92531927D01*
X149689199Y-92503148D01*
X150044929Y-92355800D01*
X150106583Y-92120188D01*
X149352000Y-91365605D01*
X148597417Y-92120188D01*
X142486583Y-92120188D01*
X141732000Y-91365605D01*
X140977417Y-92120188D01*
X121995000Y-92120188D01*
X121995000Y-90993480D01*
X140386073Y-90993480D01*
X140414852Y-91523199D01*
X140562200Y-91878929D01*
X140797812Y-91940583D01*
X141552395Y-91186000D01*
X141911605Y-91186000D01*
X142666188Y-91940583D01*
X142901800Y-91878929D01*
X143077927Y-91378520D01*
X143057009Y-90993480D01*
X148006073Y-90993480D01*
X148034852Y-91523199D01*
X148182200Y-91878929D01*
X148417812Y-91940583D01*
X149172395Y-91186000D01*
X149531605Y-91186000D01*
X150286188Y-91940583D01*
X150521800Y-91878929D01*
X150697927Y-91378520D01*
X150669148Y-90848801D01*
X150521800Y-90493071D01*
X150286188Y-90431417D01*
X149531605Y-91186000D01*
X149172395Y-91186000D01*
X148417812Y-90431417D01*
X148182200Y-90493071D01*
X148006073Y-90993480D01*
X143057009Y-90993480D01*
X143049148Y-90848801D01*
X142901800Y-90493071D01*
X142666188Y-90431417D01*
X141911605Y-91186000D01*
X141552395Y-91186000D01*
X140797812Y-90431417D01*
X140562200Y-90493071D01*
X140386073Y-90993480D01*
X121995000Y-90993480D01*
X121995000Y-90251812D01*
X140977417Y-90251812D01*
X141732000Y-91006395D01*
X142486583Y-90251812D01*
X148597417Y-90251812D01*
X149352000Y-91006395D01*
X150106583Y-90251812D01*
X150044929Y-90016200D01*
X149544520Y-89840073D01*
X149014801Y-89868852D01*
X148659071Y-90016200D01*
X148597417Y-90251812D01*
X142486583Y-90251812D01*
X142424929Y-90016200D01*
X141924520Y-89840073D01*
X141394801Y-89868852D01*
X141039071Y-90016200D01*
X140977417Y-90251812D01*
X121995000Y-90251812D01*
X121995000Y-90239930D01*
X122050478Y-89961021D01*
X122168856Y-89783855D01*
X122346019Y-89665479D01*
X122624931Y-89610000D01*
X168205070Y-89610000D01*
X168315003Y-89631867D01*
G36*
X143957748Y-122667858D02*
X143943605Y-122682000D01*
X143957748Y-122696142D01*
X143778142Y-122875748D01*
X143764000Y-122861605D01*
X143749858Y-122875748D01*
X143570252Y-122696142D01*
X143584395Y-122682000D01*
X143570252Y-122667858D01*
X143749858Y-122488253D01*
X143764000Y-122502395D01*
X143778143Y-122488253D01*
X143957748Y-122667858D01*
X143957748Y-122667858D01*
G37*
X143957748Y-122667858D02*
X143943605Y-122682000D01*
X143957748Y-122696142D01*
X143778142Y-122875748D01*
X143764000Y-122861605D01*
X143749858Y-122875748D01*
X143570252Y-122696142D01*
X143584395Y-122682000D01*
X143570252Y-122667858D01*
X143749858Y-122488253D01*
X143764000Y-122502395D01*
X143778143Y-122488253D01*
X143957748Y-122667858D01*
M02*
