G04 #@! TF.FileFunction,Legend,Bot*
%FSLAX46Y46*%
G04 Gerber Fmt 4.6, Leading zero omitted, Abs format (unit mm)*
G04 Created by KiCad (PCBNEW 4.0.2-stable) date Monday, September 19, 2016 'PMt' 09:37:39 PM*
%MOMM*%
G01*
G04 APERTURE LIST*
%ADD10C,0.100000*%
%ADD11C,0.010000*%
G04 APERTURE END LIST*
D10*
D11*
G36*
X126492000Y-119464667D02*
X148251333Y-119464667D01*
X148251333Y-119051753D01*
X130979333Y-119051753D01*
X130969947Y-119077463D01*
X130939421Y-119077387D01*
X130933122Y-119074065D01*
X130568181Y-119074065D01*
X130555932Y-119083665D01*
X130555639Y-119083667D01*
X130536632Y-119077102D01*
X129765674Y-119077102D01*
X129751206Y-119083667D01*
X129712787Y-119071050D01*
X129710073Y-119069276D01*
X129387472Y-119069276D01*
X129376584Y-119083129D01*
X129370137Y-119083667D01*
X129329491Y-119070669D01*
X129312411Y-119059591D01*
X129007138Y-119059591D01*
X129003479Y-119080515D01*
X128989043Y-119083667D01*
X128955258Y-119073161D01*
X128604828Y-119073161D01*
X128584323Y-119083233D01*
X128574775Y-119083667D01*
X128534632Y-119074511D01*
X128210728Y-119074511D01*
X128186773Y-119083636D01*
X128184337Y-119083667D01*
X128147586Y-119072857D01*
X127836713Y-119072857D01*
X127811181Y-119083419D01*
X127802942Y-119083667D01*
X127738531Y-119064821D01*
X127719183Y-119052071D01*
X127426327Y-119052071D01*
X127421283Y-119077187D01*
X127381718Y-119083653D01*
X127378494Y-119083667D01*
X127100507Y-119083667D01*
X126985425Y-119083667D01*
X126892498Y-119063551D01*
X126846924Y-119022639D01*
X126833912Y-118926870D01*
X126837670Y-118892526D01*
X126858191Y-118860721D01*
X126905204Y-118884757D01*
X126976170Y-118953554D01*
X127100507Y-119083667D01*
X127378494Y-119083667D01*
X127279269Y-119050800D01*
X127145614Y-118949952D01*
X127047801Y-118856369D01*
X126916996Y-118712234D01*
X126849494Y-118606699D01*
X126837580Y-118537228D01*
X126850944Y-118503424D01*
X126882650Y-118504409D01*
X126942872Y-118547173D01*
X127041782Y-118638710D01*
X127168274Y-118764525D01*
X127306430Y-118905770D01*
X127390245Y-118998275D01*
X127426327Y-119052071D01*
X127719183Y-119052071D01*
X127646182Y-119003967D01*
X127517874Y-118894624D01*
X127345583Y-118730316D01*
X127260083Y-118645270D01*
X127076896Y-118457519D01*
X126950270Y-118317511D01*
X126873458Y-118216778D01*
X126839709Y-118146846D01*
X126837506Y-118114880D01*
X126850800Y-118089651D01*
X126883849Y-118094576D01*
X126944276Y-118135807D01*
X127039701Y-118219502D01*
X127177746Y-118351816D01*
X127366035Y-118538902D01*
X127380365Y-118553276D01*
X127569523Y-118744557D01*
X127703731Y-118884618D01*
X127788994Y-118980995D01*
X127831319Y-119041229D01*
X127836713Y-119072857D01*
X128147586Y-119072857D01*
X128130433Y-119067812D01*
X128050489Y-119016339D01*
X127937663Y-118923385D01*
X127785116Y-118783088D01*
X127586007Y-118589584D01*
X127450785Y-118454962D01*
X127228793Y-118230202D01*
X127062829Y-118056079D01*
X126946918Y-117925570D01*
X126875087Y-117831657D01*
X126841361Y-117767317D01*
X126837481Y-117734236D01*
X126850639Y-117713512D01*
X126884121Y-117720949D01*
X126944365Y-117762063D01*
X127037807Y-117842370D01*
X127170883Y-117967387D01*
X127350031Y-118142631D01*
X127571033Y-118362940D01*
X127798041Y-118591607D01*
X127969658Y-118767743D01*
X128091310Y-118897726D01*
X128168422Y-118987931D01*
X128206419Y-119044734D01*
X128210728Y-119074511D01*
X128534632Y-119074511D01*
X128528800Y-119073181D01*
X128465637Y-119037725D01*
X128378448Y-118971296D01*
X128260394Y-118867896D01*
X128104639Y-118721522D01*
X127904344Y-118526175D01*
X127652672Y-118275854D01*
X127641393Y-118264566D01*
X127382172Y-118003175D01*
X127179648Y-117794293D01*
X127028899Y-117632365D01*
X126925003Y-117511838D01*
X126863036Y-117427155D01*
X126838076Y-117372764D01*
X126837467Y-117357478D01*
X126851912Y-117342148D01*
X126889685Y-117355855D01*
X126956271Y-117403416D01*
X127057159Y-117489646D01*
X127197837Y-117619361D01*
X127383791Y-117797377D01*
X127620510Y-118028509D01*
X127770849Y-118176578D01*
X128031102Y-118434217D01*
X128235655Y-118638898D01*
X128389706Y-118796484D01*
X128498452Y-118912839D01*
X128567089Y-118993828D01*
X128600816Y-119045314D01*
X128604828Y-119073161D01*
X128955258Y-119073161D01*
X128945536Y-119070138D01*
X128877574Y-119026345D01*
X128779855Y-118947478D01*
X128647080Y-118828727D01*
X128473946Y-118665283D01*
X128255154Y-118452336D01*
X127985402Y-118185077D01*
X127853134Y-118052971D01*
X127564035Y-117762402D01*
X127331119Y-117525133D01*
X127149526Y-117335790D01*
X127014395Y-117189001D01*
X126920866Y-117079395D01*
X126864080Y-117001598D01*
X126839176Y-116950240D01*
X126837458Y-116930241D01*
X126850327Y-116915158D01*
X126884024Y-116926071D01*
X126943616Y-116967581D01*
X127034175Y-117044289D01*
X127160769Y-117160795D01*
X127328469Y-117321698D01*
X127542345Y-117531599D01*
X127807467Y-117795100D01*
X127973367Y-117960937D01*
X128266397Y-118255106D01*
X128503395Y-118495155D01*
X128688912Y-118686112D01*
X128827496Y-118833006D01*
X128923696Y-118940865D01*
X128982060Y-119014718D01*
X129007138Y-119059591D01*
X129312411Y-119059591D01*
X129264783Y-119028700D01*
X129171165Y-118953298D01*
X129043791Y-118840001D01*
X128877812Y-118684346D01*
X128668383Y-118481872D01*
X128410655Y-118228116D01*
X128099783Y-117918616D01*
X128043678Y-117862514D01*
X127727257Y-117544898D01*
X127467167Y-117281264D01*
X127258904Y-117066709D01*
X127097964Y-116896330D01*
X126979843Y-116765223D01*
X126900037Y-116668485D01*
X126854042Y-116601213D01*
X126837354Y-116558503D01*
X126837452Y-116549327D01*
X126850203Y-116536004D01*
X126883883Y-116548068D01*
X126943158Y-116589812D01*
X127032694Y-116665534D01*
X127157157Y-116779527D01*
X127321212Y-116936088D01*
X127529526Y-117139512D01*
X127786764Y-117394094D01*
X128097591Y-117704129D01*
X128163910Y-117770479D01*
X128483965Y-118091528D01*
X128747770Y-118357976D01*
X128959578Y-118574453D01*
X129123640Y-118745588D01*
X129244209Y-118876008D01*
X129325536Y-118970344D01*
X129371873Y-119033223D01*
X129387472Y-119069276D01*
X129710073Y-119069276D01*
X129650602Y-119030415D01*
X129560161Y-118957582D01*
X129436973Y-118848375D01*
X129276548Y-118698614D01*
X129074396Y-118504121D01*
X128826028Y-118260718D01*
X128526952Y-117964227D01*
X128234211Y-117672046D01*
X127892460Y-117329290D01*
X127607183Y-117041032D01*
X127374167Y-116802736D01*
X127189196Y-116609862D01*
X127048056Y-116457875D01*
X126946532Y-116342237D01*
X126880408Y-116258411D01*
X126845471Y-116201858D01*
X126837448Y-116168390D01*
X126850091Y-116156498D01*
X126883727Y-116169515D01*
X126942701Y-116211486D01*
X127031356Y-116286452D01*
X127154039Y-116398457D01*
X127315093Y-116551543D01*
X127518863Y-116749753D01*
X127769693Y-116997131D01*
X128071929Y-117297718D01*
X128354443Y-117580010D01*
X128699601Y-117926052D01*
X128988327Y-118217110D01*
X129224624Y-118457496D01*
X129412499Y-118651520D01*
X129555954Y-118803494D01*
X129658994Y-118917728D01*
X129725625Y-118998533D01*
X129759850Y-119050221D01*
X129765674Y-119077102D01*
X130536632Y-119077102D01*
X130520661Y-119071586D01*
X130508132Y-119063264D01*
X130181358Y-119063264D01*
X130170808Y-119074406D01*
X130167676Y-119074225D01*
X130125631Y-119056023D01*
X130054160Y-119005010D01*
X129949522Y-118917687D01*
X129807974Y-118790555D01*
X129625773Y-118620118D01*
X129399175Y-118402876D01*
X129124437Y-118135333D01*
X128797818Y-117813989D01*
X128440247Y-117459848D01*
X128069914Y-117091356D01*
X127756622Y-116777680D01*
X127496548Y-116514778D01*
X127285872Y-116298610D01*
X127120770Y-116125132D01*
X126997422Y-115990305D01*
X126912005Y-115890087D01*
X126860698Y-115820436D01*
X126839678Y-115777310D01*
X126838904Y-115766515D01*
X126852148Y-115757050D01*
X126888420Y-115773849D01*
X126951675Y-115820606D01*
X127045864Y-115901014D01*
X127174940Y-116018769D01*
X127342856Y-116177563D01*
X127553564Y-116381091D01*
X127811016Y-116633047D01*
X128119166Y-116937124D01*
X128481966Y-117297016D01*
X128566333Y-117380892D01*
X128940665Y-117753803D01*
X129257936Y-118071401D01*
X129521722Y-118337465D01*
X129735594Y-118555774D01*
X129903128Y-118730107D01*
X130027898Y-118864243D01*
X130113477Y-118961962D01*
X130163439Y-119027043D01*
X130181358Y-119063264D01*
X130508132Y-119063264D01*
X130462363Y-119032864D01*
X130376809Y-118963781D01*
X130260064Y-118860619D01*
X130108192Y-118719658D01*
X129917258Y-118537178D01*
X129683326Y-118309460D01*
X129402460Y-118032785D01*
X129070724Y-117703433D01*
X128684184Y-117317686D01*
X128636424Y-117269925D01*
X128246168Y-116878920D01*
X127912653Y-116543182D01*
X127632132Y-116258738D01*
X127400854Y-116021616D01*
X127215069Y-115827845D01*
X127071029Y-115673452D01*
X126964984Y-115554466D01*
X126893184Y-115466914D01*
X126851879Y-115406824D01*
X126837321Y-115370224D01*
X126837442Y-115364148D01*
X126849890Y-115354564D01*
X126883395Y-115369157D01*
X126941794Y-115411556D01*
X127028927Y-115485388D01*
X127148631Y-115594281D01*
X127304745Y-115741861D01*
X127501107Y-115931757D01*
X127741556Y-116167596D01*
X128029930Y-116453006D01*
X128370068Y-116791613D01*
X128756657Y-117177889D01*
X129149987Y-117571936D01*
X129486577Y-117910396D01*
X129770023Y-118197077D01*
X130003921Y-118435790D01*
X130191867Y-118630344D01*
X130337458Y-118784549D01*
X130444288Y-118902214D01*
X130515955Y-118987149D01*
X130556054Y-119043162D01*
X130568181Y-119074065D01*
X130933122Y-119074065D01*
X130884200Y-119048267D01*
X130800731Y-118986849D01*
X130685460Y-118889877D01*
X130534833Y-118754094D01*
X130345297Y-118576244D01*
X130113297Y-118353073D01*
X129835281Y-118081324D01*
X129507694Y-117757741D01*
X129126983Y-117379068D01*
X128831082Y-117083584D01*
X128412394Y-116664183D01*
X128051049Y-116300350D01*
X127743787Y-115988529D01*
X127487349Y-115725163D01*
X127278476Y-115506694D01*
X127113907Y-115329566D01*
X126990384Y-115190221D01*
X126904647Y-115085102D01*
X126853436Y-115010654D01*
X126833493Y-114963317D01*
X126841558Y-114939536D01*
X126862254Y-114935000D01*
X126897224Y-114964096D01*
X126985817Y-115047424D01*
X127122094Y-115179045D01*
X127300114Y-115353019D01*
X127513938Y-115563406D01*
X127757625Y-115804268D01*
X128025237Y-116069665D01*
X128310832Y-116353657D01*
X128608472Y-116650305D01*
X128912215Y-116953669D01*
X129216123Y-117257811D01*
X129514254Y-117556789D01*
X129800670Y-117844666D01*
X130069430Y-118115501D01*
X130314594Y-118363356D01*
X130530223Y-118582289D01*
X130710376Y-118766363D01*
X130849113Y-118909638D01*
X130940495Y-119006173D01*
X130978582Y-119050031D01*
X130979333Y-119051753D01*
X148251333Y-119051753D01*
X148251333Y-114977333D01*
X147828000Y-114977333D01*
X147828000Y-119041333D01*
X131445000Y-119041333D01*
X131445000Y-118694482D01*
X130979333Y-118694482D01*
X130970975Y-118709418D01*
X130943156Y-118701633D01*
X130891760Y-118667303D01*
X130812671Y-118602606D01*
X130701772Y-118503718D01*
X130554946Y-118366818D01*
X130368078Y-118188080D01*
X130137051Y-117963684D01*
X129857748Y-117689804D01*
X129526054Y-117362619D01*
X129233083Y-117072676D01*
X128907400Y-116750117D01*
X128594142Y-116440041D01*
X128299477Y-116148539D01*
X128029570Y-115881704D01*
X127790588Y-115645628D01*
X127588697Y-115446404D01*
X127430065Y-115290123D01*
X127320858Y-115182878D01*
X127275670Y-115138842D01*
X127167032Y-115032313D01*
X127113789Y-114971357D01*
X127109915Y-114943274D01*
X127149382Y-114935363D01*
X127178941Y-114935000D01*
X127212185Y-114943955D01*
X127262695Y-114973497D01*
X127334779Y-115027643D01*
X127432742Y-115110409D01*
X127560891Y-115225810D01*
X127723532Y-115377865D01*
X127924971Y-115570588D01*
X128169514Y-115807996D01*
X128461468Y-116094106D01*
X128805138Y-116432933D01*
X129136354Y-116760648D01*
X129530088Y-117151318D01*
X129866937Y-117487066D01*
X130150763Y-117771944D01*
X130385430Y-118010007D01*
X130574801Y-118205308D01*
X130722737Y-118361899D01*
X130833103Y-118483835D01*
X130909760Y-118575168D01*
X130956573Y-118639951D01*
X130977403Y-118682239D01*
X130979333Y-118694482D01*
X131445000Y-118694482D01*
X131445000Y-118321269D01*
X130979333Y-118321269D01*
X130970060Y-118334830D01*
X130939573Y-118323815D01*
X130883876Y-118284472D01*
X130798969Y-118213050D01*
X130680853Y-118105795D01*
X130525531Y-117958954D01*
X130329003Y-117768776D01*
X130087271Y-117531508D01*
X129796337Y-117243397D01*
X129452202Y-116900690D01*
X129242873Y-116691640D01*
X128868215Y-116316617D01*
X128550190Y-115996878D01*
X128285011Y-115728393D01*
X128068892Y-115507132D01*
X127898048Y-115329067D01*
X127768690Y-115190168D01*
X127677034Y-115086407D01*
X127619292Y-115013753D01*
X127591678Y-114968178D01*
X127590405Y-114945653D01*
X127598448Y-114941777D01*
X127649067Y-114967791D01*
X127751419Y-115048429D01*
X127898830Y-115177020D01*
X128084626Y-115346893D01*
X128302133Y-115551377D01*
X128544679Y-115783802D01*
X128805588Y-116037495D01*
X129078187Y-116305786D01*
X129355802Y-116582005D01*
X129631760Y-116859479D01*
X129899387Y-117131538D01*
X130152009Y-117391511D01*
X130382951Y-117632726D01*
X130585541Y-117848513D01*
X130753105Y-118032201D01*
X130878968Y-118177119D01*
X130956457Y-118276595D01*
X130979333Y-118321269D01*
X131445000Y-118321269D01*
X131445000Y-117940219D01*
X130979333Y-117940219D01*
X130970176Y-117955125D01*
X130939871Y-117945127D01*
X130884169Y-117906272D01*
X130798823Y-117834604D01*
X130679583Y-117726168D01*
X130522201Y-117577009D01*
X130322428Y-117383172D01*
X130076015Y-117140702D01*
X129778713Y-116845645D01*
X129433350Y-116501116D01*
X129081827Y-116149185D01*
X128786791Y-115852222D01*
X128544252Y-115605947D01*
X128350215Y-115406076D01*
X128200688Y-115248329D01*
X128091680Y-115128423D01*
X128019197Y-115042077D01*
X127979248Y-114985008D01*
X127967840Y-114952936D01*
X127979402Y-114941780D01*
X128031304Y-114967589D01*
X128134306Y-115047777D01*
X128281301Y-115175239D01*
X128465180Y-115342870D01*
X128678834Y-115543566D01*
X128915157Y-115770223D01*
X129167039Y-116015735D01*
X129427372Y-116272999D01*
X129689049Y-116534909D01*
X129944961Y-116794360D01*
X130188000Y-117044249D01*
X130411058Y-117277471D01*
X130607026Y-117486920D01*
X130768797Y-117665493D01*
X130889263Y-117806085D01*
X130961314Y-117901591D01*
X130979333Y-117940219D01*
X131445000Y-117940219D01*
X131445000Y-117537983D01*
X130979333Y-117537983D01*
X130975226Y-117563943D01*
X130959562Y-117573241D01*
X130927326Y-117561338D01*
X130873506Y-117523693D01*
X130793087Y-117455767D01*
X130681055Y-117353019D01*
X130532397Y-117210910D01*
X130342098Y-117024899D01*
X130105145Y-116790446D01*
X129816524Y-116503011D01*
X129623825Y-116310585D01*
X129303087Y-115989706D01*
X129037966Y-115723287D01*
X128823870Y-115506267D01*
X128656202Y-115333583D01*
X128530370Y-115200174D01*
X128441779Y-115100977D01*
X128385835Y-115030931D01*
X128357944Y-114984973D01*
X128353511Y-114958041D01*
X128367943Y-114945074D01*
X128381837Y-114942111D01*
X128416117Y-114944601D01*
X128460826Y-114963172D01*
X128521651Y-115002971D01*
X128604278Y-115069149D01*
X128714393Y-115166854D01*
X128857682Y-115301234D01*
X129039833Y-115477440D01*
X129266530Y-115700618D01*
X129543461Y-115975920D01*
X129737345Y-116169508D01*
X130047621Y-116480303D01*
X130302654Y-116737539D01*
X130507643Y-116946943D01*
X130667788Y-117114245D01*
X130788288Y-117245173D01*
X130874341Y-117345457D01*
X130931148Y-117420826D01*
X130963908Y-117477007D01*
X130977820Y-117519730D01*
X130979333Y-117537983D01*
X131445000Y-117537983D01*
X131445000Y-117135722D01*
X130979333Y-117135722D01*
X130970544Y-117154451D01*
X130940859Y-117147291D01*
X130885298Y-117109730D01*
X130798882Y-117037254D01*
X130676634Y-116925350D01*
X130513573Y-116769505D01*
X130304721Y-116565207D01*
X130045099Y-116307943D01*
X129835442Y-116098872D01*
X129538053Y-115800944D01*
X129296766Y-115557057D01*
X129107017Y-115362191D01*
X128964244Y-115211327D01*
X128863882Y-115099444D01*
X128801369Y-115021523D01*
X128772141Y-114972545D01*
X128771635Y-114947488D01*
X128783585Y-114941790D01*
X128839248Y-114967026D01*
X128944056Y-115045977D01*
X129089612Y-115170252D01*
X129267519Y-115331462D01*
X129469378Y-115521214D01*
X129686792Y-115731119D01*
X129911363Y-115952785D01*
X130134694Y-116177821D01*
X130348386Y-116397838D01*
X130544042Y-116604443D01*
X130713263Y-116789247D01*
X130847654Y-116943858D01*
X130938814Y-117059885D01*
X130978348Y-117128939D01*
X130979333Y-117135722D01*
X131445000Y-117135722D01*
X131445000Y-116754593D01*
X130979333Y-116754593D01*
X130970822Y-116775884D01*
X130941632Y-116770576D01*
X130886278Y-116733800D01*
X130799275Y-116660687D01*
X130675138Y-116546369D01*
X130508381Y-116385978D01*
X130293520Y-116174644D01*
X130025885Y-115908314D01*
X129757515Y-115639314D01*
X129545013Y-115423706D01*
X129383446Y-115255957D01*
X129267884Y-115130535D01*
X129193396Y-115041907D01*
X129155050Y-114984541D01*
X129147918Y-114952903D01*
X129164468Y-114941798D01*
X129222760Y-114966657D01*
X129328736Y-115044817D01*
X129473082Y-115166976D01*
X129646483Y-115323828D01*
X129839624Y-115506069D01*
X130043190Y-115704396D01*
X130247866Y-115909503D01*
X130444338Y-116112088D01*
X130623291Y-116302845D01*
X130775409Y-116472470D01*
X130891379Y-116611660D01*
X130961885Y-116711110D01*
X130979333Y-116754593D01*
X131445000Y-116754593D01*
X131445000Y-116373396D01*
X130979333Y-116373396D01*
X130971227Y-116398096D01*
X130942786Y-116395181D01*
X130887829Y-116359338D01*
X130800174Y-116285254D01*
X130673638Y-116167618D01*
X130502039Y-116001118D01*
X130279196Y-115780440D01*
X130216299Y-115717725D01*
X129980046Y-115480722D01*
X129799380Y-115296211D01*
X129668903Y-115157955D01*
X129583220Y-115059712D01*
X129536934Y-114995242D01*
X129524649Y-114958307D01*
X129540969Y-114942665D01*
X129545289Y-114941810D01*
X129607244Y-114966177D01*
X129714706Y-115043341D01*
X129857063Y-115162706D01*
X130023700Y-115313675D01*
X130204001Y-115485652D01*
X130387354Y-115668042D01*
X130563142Y-115850247D01*
X130720753Y-116021672D01*
X130849572Y-116171721D01*
X130938983Y-116289797D01*
X130978374Y-116365304D01*
X130979333Y-116373396D01*
X131445000Y-116373396D01*
X131445000Y-115949667D01*
X130979333Y-115949667D01*
X130971961Y-115979916D01*
X130944927Y-115980694D01*
X130890851Y-115946064D01*
X130802357Y-115870090D01*
X130672067Y-115746836D01*
X130492601Y-115570364D01*
X130427800Y-115505889D01*
X130232407Y-115309562D01*
X130092232Y-115164186D01*
X130001198Y-115062303D01*
X129953229Y-114996454D01*
X129942248Y-114959181D01*
X129962181Y-114943027D01*
X129968266Y-114941835D01*
X130036668Y-114965432D01*
X130146305Y-115041145D01*
X130284209Y-115156048D01*
X130437412Y-115297215D01*
X130592945Y-115451721D01*
X130737843Y-115606637D01*
X130859136Y-115749039D01*
X130943857Y-115866000D01*
X130979039Y-115944593D01*
X130979333Y-115949667D01*
X131445000Y-115949667D01*
X131445000Y-115567842D01*
X130979333Y-115567842D01*
X130973209Y-115606468D01*
X130948609Y-115612243D01*
X130896189Y-115578632D01*
X130806608Y-115499099D01*
X130670521Y-115367108D01*
X130617982Y-115315065D01*
X130466717Y-115162675D01*
X130370367Y-115058739D01*
X130322097Y-114993788D01*
X130315068Y-114958354D01*
X130342445Y-114942967D01*
X130348533Y-114941890D01*
X130428153Y-114964437D01*
X130539913Y-115038616D01*
X130666552Y-115147300D01*
X130790807Y-115273360D01*
X130895419Y-115399668D01*
X130963126Y-115509095D01*
X130979333Y-115567842D01*
X131445000Y-115567842D01*
X131445000Y-115182986D01*
X130979333Y-115182986D01*
X130976315Y-115240907D01*
X130957545Y-115254807D01*
X130908454Y-115219645D01*
X130814469Y-115130380D01*
X130807408Y-115123508D01*
X130713444Y-115028790D01*
X130675410Y-114976454D01*
X130686717Y-114951786D01*
X130726232Y-114942181D01*
X130838455Y-114962778D01*
X130931021Y-115042910D01*
X130977780Y-115157699D01*
X130979333Y-115182986D01*
X131445000Y-115182986D01*
X131445000Y-114977333D01*
X147828000Y-114977333D01*
X148251333Y-114977333D01*
X148251333Y-114554000D01*
X126492000Y-114554000D01*
X126492000Y-119464667D01*
X126492000Y-119464667D01*
G37*
X126492000Y-119464667D02*
X148251333Y-119464667D01*
X148251333Y-119051753D01*
X130979333Y-119051753D01*
X130969947Y-119077463D01*
X130939421Y-119077387D01*
X130933122Y-119074065D01*
X130568181Y-119074065D01*
X130555932Y-119083665D01*
X130555639Y-119083667D01*
X130536632Y-119077102D01*
X129765674Y-119077102D01*
X129751206Y-119083667D01*
X129712787Y-119071050D01*
X129710073Y-119069276D01*
X129387472Y-119069276D01*
X129376584Y-119083129D01*
X129370137Y-119083667D01*
X129329491Y-119070669D01*
X129312411Y-119059591D01*
X129007138Y-119059591D01*
X129003479Y-119080515D01*
X128989043Y-119083667D01*
X128955258Y-119073161D01*
X128604828Y-119073161D01*
X128584323Y-119083233D01*
X128574775Y-119083667D01*
X128534632Y-119074511D01*
X128210728Y-119074511D01*
X128186773Y-119083636D01*
X128184337Y-119083667D01*
X128147586Y-119072857D01*
X127836713Y-119072857D01*
X127811181Y-119083419D01*
X127802942Y-119083667D01*
X127738531Y-119064821D01*
X127719183Y-119052071D01*
X127426327Y-119052071D01*
X127421283Y-119077187D01*
X127381718Y-119083653D01*
X127378494Y-119083667D01*
X127100507Y-119083667D01*
X126985425Y-119083667D01*
X126892498Y-119063551D01*
X126846924Y-119022639D01*
X126833912Y-118926870D01*
X126837670Y-118892526D01*
X126858191Y-118860721D01*
X126905204Y-118884757D01*
X126976170Y-118953554D01*
X127100507Y-119083667D01*
X127378494Y-119083667D01*
X127279269Y-119050800D01*
X127145614Y-118949952D01*
X127047801Y-118856369D01*
X126916996Y-118712234D01*
X126849494Y-118606699D01*
X126837580Y-118537228D01*
X126850944Y-118503424D01*
X126882650Y-118504409D01*
X126942872Y-118547173D01*
X127041782Y-118638710D01*
X127168274Y-118764525D01*
X127306430Y-118905770D01*
X127390245Y-118998275D01*
X127426327Y-119052071D01*
X127719183Y-119052071D01*
X127646182Y-119003967D01*
X127517874Y-118894624D01*
X127345583Y-118730316D01*
X127260083Y-118645270D01*
X127076896Y-118457519D01*
X126950270Y-118317511D01*
X126873458Y-118216778D01*
X126839709Y-118146846D01*
X126837506Y-118114880D01*
X126850800Y-118089651D01*
X126883849Y-118094576D01*
X126944276Y-118135807D01*
X127039701Y-118219502D01*
X127177746Y-118351816D01*
X127366035Y-118538902D01*
X127380365Y-118553276D01*
X127569523Y-118744557D01*
X127703731Y-118884618D01*
X127788994Y-118980995D01*
X127831319Y-119041229D01*
X127836713Y-119072857D01*
X128147586Y-119072857D01*
X128130433Y-119067812D01*
X128050489Y-119016339D01*
X127937663Y-118923385D01*
X127785116Y-118783088D01*
X127586007Y-118589584D01*
X127450785Y-118454962D01*
X127228793Y-118230202D01*
X127062829Y-118056079D01*
X126946918Y-117925570D01*
X126875087Y-117831657D01*
X126841361Y-117767317D01*
X126837481Y-117734236D01*
X126850639Y-117713512D01*
X126884121Y-117720949D01*
X126944365Y-117762063D01*
X127037807Y-117842370D01*
X127170883Y-117967387D01*
X127350031Y-118142631D01*
X127571033Y-118362940D01*
X127798041Y-118591607D01*
X127969658Y-118767743D01*
X128091310Y-118897726D01*
X128168422Y-118987931D01*
X128206419Y-119044734D01*
X128210728Y-119074511D01*
X128534632Y-119074511D01*
X128528800Y-119073181D01*
X128465637Y-119037725D01*
X128378448Y-118971296D01*
X128260394Y-118867896D01*
X128104639Y-118721522D01*
X127904344Y-118526175D01*
X127652672Y-118275854D01*
X127641393Y-118264566D01*
X127382172Y-118003175D01*
X127179648Y-117794293D01*
X127028899Y-117632365D01*
X126925003Y-117511838D01*
X126863036Y-117427155D01*
X126838076Y-117372764D01*
X126837467Y-117357478D01*
X126851912Y-117342148D01*
X126889685Y-117355855D01*
X126956271Y-117403416D01*
X127057159Y-117489646D01*
X127197837Y-117619361D01*
X127383791Y-117797377D01*
X127620510Y-118028509D01*
X127770849Y-118176578D01*
X128031102Y-118434217D01*
X128235655Y-118638898D01*
X128389706Y-118796484D01*
X128498452Y-118912839D01*
X128567089Y-118993828D01*
X128600816Y-119045314D01*
X128604828Y-119073161D01*
X128955258Y-119073161D01*
X128945536Y-119070138D01*
X128877574Y-119026345D01*
X128779855Y-118947478D01*
X128647080Y-118828727D01*
X128473946Y-118665283D01*
X128255154Y-118452336D01*
X127985402Y-118185077D01*
X127853134Y-118052971D01*
X127564035Y-117762402D01*
X127331119Y-117525133D01*
X127149526Y-117335790D01*
X127014395Y-117189001D01*
X126920866Y-117079395D01*
X126864080Y-117001598D01*
X126839176Y-116950240D01*
X126837458Y-116930241D01*
X126850327Y-116915158D01*
X126884024Y-116926071D01*
X126943616Y-116967581D01*
X127034175Y-117044289D01*
X127160769Y-117160795D01*
X127328469Y-117321698D01*
X127542345Y-117531599D01*
X127807467Y-117795100D01*
X127973367Y-117960937D01*
X128266397Y-118255106D01*
X128503395Y-118495155D01*
X128688912Y-118686112D01*
X128827496Y-118833006D01*
X128923696Y-118940865D01*
X128982060Y-119014718D01*
X129007138Y-119059591D01*
X129312411Y-119059591D01*
X129264783Y-119028700D01*
X129171165Y-118953298D01*
X129043791Y-118840001D01*
X128877812Y-118684346D01*
X128668383Y-118481872D01*
X128410655Y-118228116D01*
X128099783Y-117918616D01*
X128043678Y-117862514D01*
X127727257Y-117544898D01*
X127467167Y-117281264D01*
X127258904Y-117066709D01*
X127097964Y-116896330D01*
X126979843Y-116765223D01*
X126900037Y-116668485D01*
X126854042Y-116601213D01*
X126837354Y-116558503D01*
X126837452Y-116549327D01*
X126850203Y-116536004D01*
X126883883Y-116548068D01*
X126943158Y-116589812D01*
X127032694Y-116665534D01*
X127157157Y-116779527D01*
X127321212Y-116936088D01*
X127529526Y-117139512D01*
X127786764Y-117394094D01*
X128097591Y-117704129D01*
X128163910Y-117770479D01*
X128483965Y-118091528D01*
X128747770Y-118357976D01*
X128959578Y-118574453D01*
X129123640Y-118745588D01*
X129244209Y-118876008D01*
X129325536Y-118970344D01*
X129371873Y-119033223D01*
X129387472Y-119069276D01*
X129710073Y-119069276D01*
X129650602Y-119030415D01*
X129560161Y-118957582D01*
X129436973Y-118848375D01*
X129276548Y-118698614D01*
X129074396Y-118504121D01*
X128826028Y-118260718D01*
X128526952Y-117964227D01*
X128234211Y-117672046D01*
X127892460Y-117329290D01*
X127607183Y-117041032D01*
X127374167Y-116802736D01*
X127189196Y-116609862D01*
X127048056Y-116457875D01*
X126946532Y-116342237D01*
X126880408Y-116258411D01*
X126845471Y-116201858D01*
X126837448Y-116168390D01*
X126850091Y-116156498D01*
X126883727Y-116169515D01*
X126942701Y-116211486D01*
X127031356Y-116286452D01*
X127154039Y-116398457D01*
X127315093Y-116551543D01*
X127518863Y-116749753D01*
X127769693Y-116997131D01*
X128071929Y-117297718D01*
X128354443Y-117580010D01*
X128699601Y-117926052D01*
X128988327Y-118217110D01*
X129224624Y-118457496D01*
X129412499Y-118651520D01*
X129555954Y-118803494D01*
X129658994Y-118917728D01*
X129725625Y-118998533D01*
X129759850Y-119050221D01*
X129765674Y-119077102D01*
X130536632Y-119077102D01*
X130520661Y-119071586D01*
X130508132Y-119063264D01*
X130181358Y-119063264D01*
X130170808Y-119074406D01*
X130167676Y-119074225D01*
X130125631Y-119056023D01*
X130054160Y-119005010D01*
X129949522Y-118917687D01*
X129807974Y-118790555D01*
X129625773Y-118620118D01*
X129399175Y-118402876D01*
X129124437Y-118135333D01*
X128797818Y-117813989D01*
X128440247Y-117459848D01*
X128069914Y-117091356D01*
X127756622Y-116777680D01*
X127496548Y-116514778D01*
X127285872Y-116298610D01*
X127120770Y-116125132D01*
X126997422Y-115990305D01*
X126912005Y-115890087D01*
X126860698Y-115820436D01*
X126839678Y-115777310D01*
X126838904Y-115766515D01*
X126852148Y-115757050D01*
X126888420Y-115773849D01*
X126951675Y-115820606D01*
X127045864Y-115901014D01*
X127174940Y-116018769D01*
X127342856Y-116177563D01*
X127553564Y-116381091D01*
X127811016Y-116633047D01*
X128119166Y-116937124D01*
X128481966Y-117297016D01*
X128566333Y-117380892D01*
X128940665Y-117753803D01*
X129257936Y-118071401D01*
X129521722Y-118337465D01*
X129735594Y-118555774D01*
X129903128Y-118730107D01*
X130027898Y-118864243D01*
X130113477Y-118961962D01*
X130163439Y-119027043D01*
X130181358Y-119063264D01*
X130508132Y-119063264D01*
X130462363Y-119032864D01*
X130376809Y-118963781D01*
X130260064Y-118860619D01*
X130108192Y-118719658D01*
X129917258Y-118537178D01*
X129683326Y-118309460D01*
X129402460Y-118032785D01*
X129070724Y-117703433D01*
X128684184Y-117317686D01*
X128636424Y-117269925D01*
X128246168Y-116878920D01*
X127912653Y-116543182D01*
X127632132Y-116258738D01*
X127400854Y-116021616D01*
X127215069Y-115827845D01*
X127071029Y-115673452D01*
X126964984Y-115554466D01*
X126893184Y-115466914D01*
X126851879Y-115406824D01*
X126837321Y-115370224D01*
X126837442Y-115364148D01*
X126849890Y-115354564D01*
X126883395Y-115369157D01*
X126941794Y-115411556D01*
X127028927Y-115485388D01*
X127148631Y-115594281D01*
X127304745Y-115741861D01*
X127501107Y-115931757D01*
X127741556Y-116167596D01*
X128029930Y-116453006D01*
X128370068Y-116791613D01*
X128756657Y-117177889D01*
X129149987Y-117571936D01*
X129486577Y-117910396D01*
X129770023Y-118197077D01*
X130003921Y-118435790D01*
X130191867Y-118630344D01*
X130337458Y-118784549D01*
X130444288Y-118902214D01*
X130515955Y-118987149D01*
X130556054Y-119043162D01*
X130568181Y-119074065D01*
X130933122Y-119074065D01*
X130884200Y-119048267D01*
X130800731Y-118986849D01*
X130685460Y-118889877D01*
X130534833Y-118754094D01*
X130345297Y-118576244D01*
X130113297Y-118353073D01*
X129835281Y-118081324D01*
X129507694Y-117757741D01*
X129126983Y-117379068D01*
X128831082Y-117083584D01*
X128412394Y-116664183D01*
X128051049Y-116300350D01*
X127743787Y-115988529D01*
X127487349Y-115725163D01*
X127278476Y-115506694D01*
X127113907Y-115329566D01*
X126990384Y-115190221D01*
X126904647Y-115085102D01*
X126853436Y-115010654D01*
X126833493Y-114963317D01*
X126841558Y-114939536D01*
X126862254Y-114935000D01*
X126897224Y-114964096D01*
X126985817Y-115047424D01*
X127122094Y-115179045D01*
X127300114Y-115353019D01*
X127513938Y-115563406D01*
X127757625Y-115804268D01*
X128025237Y-116069665D01*
X128310832Y-116353657D01*
X128608472Y-116650305D01*
X128912215Y-116953669D01*
X129216123Y-117257811D01*
X129514254Y-117556789D01*
X129800670Y-117844666D01*
X130069430Y-118115501D01*
X130314594Y-118363356D01*
X130530223Y-118582289D01*
X130710376Y-118766363D01*
X130849113Y-118909638D01*
X130940495Y-119006173D01*
X130978582Y-119050031D01*
X130979333Y-119051753D01*
X148251333Y-119051753D01*
X148251333Y-114977333D01*
X147828000Y-114977333D01*
X147828000Y-119041333D01*
X131445000Y-119041333D01*
X131445000Y-118694482D01*
X130979333Y-118694482D01*
X130970975Y-118709418D01*
X130943156Y-118701633D01*
X130891760Y-118667303D01*
X130812671Y-118602606D01*
X130701772Y-118503718D01*
X130554946Y-118366818D01*
X130368078Y-118188080D01*
X130137051Y-117963684D01*
X129857748Y-117689804D01*
X129526054Y-117362619D01*
X129233083Y-117072676D01*
X128907400Y-116750117D01*
X128594142Y-116440041D01*
X128299477Y-116148539D01*
X128029570Y-115881704D01*
X127790588Y-115645628D01*
X127588697Y-115446404D01*
X127430065Y-115290123D01*
X127320858Y-115182878D01*
X127275670Y-115138842D01*
X127167032Y-115032313D01*
X127113789Y-114971357D01*
X127109915Y-114943274D01*
X127149382Y-114935363D01*
X127178941Y-114935000D01*
X127212185Y-114943955D01*
X127262695Y-114973497D01*
X127334779Y-115027643D01*
X127432742Y-115110409D01*
X127560891Y-115225810D01*
X127723532Y-115377865D01*
X127924971Y-115570588D01*
X128169514Y-115807996D01*
X128461468Y-116094106D01*
X128805138Y-116432933D01*
X129136354Y-116760648D01*
X129530088Y-117151318D01*
X129866937Y-117487066D01*
X130150763Y-117771944D01*
X130385430Y-118010007D01*
X130574801Y-118205308D01*
X130722737Y-118361899D01*
X130833103Y-118483835D01*
X130909760Y-118575168D01*
X130956573Y-118639951D01*
X130977403Y-118682239D01*
X130979333Y-118694482D01*
X131445000Y-118694482D01*
X131445000Y-118321269D01*
X130979333Y-118321269D01*
X130970060Y-118334830D01*
X130939573Y-118323815D01*
X130883876Y-118284472D01*
X130798969Y-118213050D01*
X130680853Y-118105795D01*
X130525531Y-117958954D01*
X130329003Y-117768776D01*
X130087271Y-117531508D01*
X129796337Y-117243397D01*
X129452202Y-116900690D01*
X129242873Y-116691640D01*
X128868215Y-116316617D01*
X128550190Y-115996878D01*
X128285011Y-115728393D01*
X128068892Y-115507132D01*
X127898048Y-115329067D01*
X127768690Y-115190168D01*
X127677034Y-115086407D01*
X127619292Y-115013753D01*
X127591678Y-114968178D01*
X127590405Y-114945653D01*
X127598448Y-114941777D01*
X127649067Y-114967791D01*
X127751419Y-115048429D01*
X127898830Y-115177020D01*
X128084626Y-115346893D01*
X128302133Y-115551377D01*
X128544679Y-115783802D01*
X128805588Y-116037495D01*
X129078187Y-116305786D01*
X129355802Y-116582005D01*
X129631760Y-116859479D01*
X129899387Y-117131538D01*
X130152009Y-117391511D01*
X130382951Y-117632726D01*
X130585541Y-117848513D01*
X130753105Y-118032201D01*
X130878968Y-118177119D01*
X130956457Y-118276595D01*
X130979333Y-118321269D01*
X131445000Y-118321269D01*
X131445000Y-117940219D01*
X130979333Y-117940219D01*
X130970176Y-117955125D01*
X130939871Y-117945127D01*
X130884169Y-117906272D01*
X130798823Y-117834604D01*
X130679583Y-117726168D01*
X130522201Y-117577009D01*
X130322428Y-117383172D01*
X130076015Y-117140702D01*
X129778713Y-116845645D01*
X129433350Y-116501116D01*
X129081827Y-116149185D01*
X128786791Y-115852222D01*
X128544252Y-115605947D01*
X128350215Y-115406076D01*
X128200688Y-115248329D01*
X128091680Y-115128423D01*
X128019197Y-115042077D01*
X127979248Y-114985008D01*
X127967840Y-114952936D01*
X127979402Y-114941780D01*
X128031304Y-114967589D01*
X128134306Y-115047777D01*
X128281301Y-115175239D01*
X128465180Y-115342870D01*
X128678834Y-115543566D01*
X128915157Y-115770223D01*
X129167039Y-116015735D01*
X129427372Y-116272999D01*
X129689049Y-116534909D01*
X129944961Y-116794360D01*
X130188000Y-117044249D01*
X130411058Y-117277471D01*
X130607026Y-117486920D01*
X130768797Y-117665493D01*
X130889263Y-117806085D01*
X130961314Y-117901591D01*
X130979333Y-117940219D01*
X131445000Y-117940219D01*
X131445000Y-117537983D01*
X130979333Y-117537983D01*
X130975226Y-117563943D01*
X130959562Y-117573241D01*
X130927326Y-117561338D01*
X130873506Y-117523693D01*
X130793087Y-117455767D01*
X130681055Y-117353019D01*
X130532397Y-117210910D01*
X130342098Y-117024899D01*
X130105145Y-116790446D01*
X129816524Y-116503011D01*
X129623825Y-116310585D01*
X129303087Y-115989706D01*
X129037966Y-115723287D01*
X128823870Y-115506267D01*
X128656202Y-115333583D01*
X128530370Y-115200174D01*
X128441779Y-115100977D01*
X128385835Y-115030931D01*
X128357944Y-114984973D01*
X128353511Y-114958041D01*
X128367943Y-114945074D01*
X128381837Y-114942111D01*
X128416117Y-114944601D01*
X128460826Y-114963172D01*
X128521651Y-115002971D01*
X128604278Y-115069149D01*
X128714393Y-115166854D01*
X128857682Y-115301234D01*
X129039833Y-115477440D01*
X129266530Y-115700618D01*
X129543461Y-115975920D01*
X129737345Y-116169508D01*
X130047621Y-116480303D01*
X130302654Y-116737539D01*
X130507643Y-116946943D01*
X130667788Y-117114245D01*
X130788288Y-117245173D01*
X130874341Y-117345457D01*
X130931148Y-117420826D01*
X130963908Y-117477007D01*
X130977820Y-117519730D01*
X130979333Y-117537983D01*
X131445000Y-117537983D01*
X131445000Y-117135722D01*
X130979333Y-117135722D01*
X130970544Y-117154451D01*
X130940859Y-117147291D01*
X130885298Y-117109730D01*
X130798882Y-117037254D01*
X130676634Y-116925350D01*
X130513573Y-116769505D01*
X130304721Y-116565207D01*
X130045099Y-116307943D01*
X129835442Y-116098872D01*
X129538053Y-115800944D01*
X129296766Y-115557057D01*
X129107017Y-115362191D01*
X128964244Y-115211327D01*
X128863882Y-115099444D01*
X128801369Y-115021523D01*
X128772141Y-114972545D01*
X128771635Y-114947488D01*
X128783585Y-114941790D01*
X128839248Y-114967026D01*
X128944056Y-115045977D01*
X129089612Y-115170252D01*
X129267519Y-115331462D01*
X129469378Y-115521214D01*
X129686792Y-115731119D01*
X129911363Y-115952785D01*
X130134694Y-116177821D01*
X130348386Y-116397838D01*
X130544042Y-116604443D01*
X130713263Y-116789247D01*
X130847654Y-116943858D01*
X130938814Y-117059885D01*
X130978348Y-117128939D01*
X130979333Y-117135722D01*
X131445000Y-117135722D01*
X131445000Y-116754593D01*
X130979333Y-116754593D01*
X130970822Y-116775884D01*
X130941632Y-116770576D01*
X130886278Y-116733800D01*
X130799275Y-116660687D01*
X130675138Y-116546369D01*
X130508381Y-116385978D01*
X130293520Y-116174644D01*
X130025885Y-115908314D01*
X129757515Y-115639314D01*
X129545013Y-115423706D01*
X129383446Y-115255957D01*
X129267884Y-115130535D01*
X129193396Y-115041907D01*
X129155050Y-114984541D01*
X129147918Y-114952903D01*
X129164468Y-114941798D01*
X129222760Y-114966657D01*
X129328736Y-115044817D01*
X129473082Y-115166976D01*
X129646483Y-115323828D01*
X129839624Y-115506069D01*
X130043190Y-115704396D01*
X130247866Y-115909503D01*
X130444338Y-116112088D01*
X130623291Y-116302845D01*
X130775409Y-116472470D01*
X130891379Y-116611660D01*
X130961885Y-116711110D01*
X130979333Y-116754593D01*
X131445000Y-116754593D01*
X131445000Y-116373396D01*
X130979333Y-116373396D01*
X130971227Y-116398096D01*
X130942786Y-116395181D01*
X130887829Y-116359338D01*
X130800174Y-116285254D01*
X130673638Y-116167618D01*
X130502039Y-116001118D01*
X130279196Y-115780440D01*
X130216299Y-115717725D01*
X129980046Y-115480722D01*
X129799380Y-115296211D01*
X129668903Y-115157955D01*
X129583220Y-115059712D01*
X129536934Y-114995242D01*
X129524649Y-114958307D01*
X129540969Y-114942665D01*
X129545289Y-114941810D01*
X129607244Y-114966177D01*
X129714706Y-115043341D01*
X129857063Y-115162706D01*
X130023700Y-115313675D01*
X130204001Y-115485652D01*
X130387354Y-115668042D01*
X130563142Y-115850247D01*
X130720753Y-116021672D01*
X130849572Y-116171721D01*
X130938983Y-116289797D01*
X130978374Y-116365304D01*
X130979333Y-116373396D01*
X131445000Y-116373396D01*
X131445000Y-115949667D01*
X130979333Y-115949667D01*
X130971961Y-115979916D01*
X130944927Y-115980694D01*
X130890851Y-115946064D01*
X130802357Y-115870090D01*
X130672067Y-115746836D01*
X130492601Y-115570364D01*
X130427800Y-115505889D01*
X130232407Y-115309562D01*
X130092232Y-115164186D01*
X130001198Y-115062303D01*
X129953229Y-114996454D01*
X129942248Y-114959181D01*
X129962181Y-114943027D01*
X129968266Y-114941835D01*
X130036668Y-114965432D01*
X130146305Y-115041145D01*
X130284209Y-115156048D01*
X130437412Y-115297215D01*
X130592945Y-115451721D01*
X130737843Y-115606637D01*
X130859136Y-115749039D01*
X130943857Y-115866000D01*
X130979039Y-115944593D01*
X130979333Y-115949667D01*
X131445000Y-115949667D01*
X131445000Y-115567842D01*
X130979333Y-115567842D01*
X130973209Y-115606468D01*
X130948609Y-115612243D01*
X130896189Y-115578632D01*
X130806608Y-115499099D01*
X130670521Y-115367108D01*
X130617982Y-115315065D01*
X130466717Y-115162675D01*
X130370367Y-115058739D01*
X130322097Y-114993788D01*
X130315068Y-114958354D01*
X130342445Y-114942967D01*
X130348533Y-114941890D01*
X130428153Y-114964437D01*
X130539913Y-115038616D01*
X130666552Y-115147300D01*
X130790807Y-115273360D01*
X130895419Y-115399668D01*
X130963126Y-115509095D01*
X130979333Y-115567842D01*
X131445000Y-115567842D01*
X131445000Y-115182986D01*
X130979333Y-115182986D01*
X130976315Y-115240907D01*
X130957545Y-115254807D01*
X130908454Y-115219645D01*
X130814469Y-115130380D01*
X130807408Y-115123508D01*
X130713444Y-115028790D01*
X130675410Y-114976454D01*
X130686717Y-114951786D01*
X130726232Y-114942181D01*
X130838455Y-114962778D01*
X130931021Y-115042910D01*
X130977780Y-115157699D01*
X130979333Y-115182986D01*
X131445000Y-115182986D01*
X131445000Y-114977333D01*
X147828000Y-114977333D01*
X148251333Y-114977333D01*
X148251333Y-114554000D01*
X126492000Y-114554000D01*
X126492000Y-119464667D01*
G36*
X142713816Y-116130916D02*
X142730006Y-116248376D01*
X142764985Y-116305299D01*
X142822083Y-116324361D01*
X142859405Y-116332526D01*
X142885431Y-116353438D01*
X142902197Y-116400315D01*
X142911737Y-116486377D01*
X142916087Y-116624844D01*
X142917282Y-116828934D01*
X142917333Y-116943068D01*
X142916288Y-117185084D01*
X142911888Y-117357961D01*
X142902232Y-117477214D01*
X142885421Y-117558358D01*
X142859557Y-117616908D01*
X142829594Y-117659791D01*
X142750867Y-117735089D01*
X142650611Y-117766834D01*
X142557500Y-117771333D01*
X142423769Y-117759537D01*
X142335472Y-117713985D01*
X142285406Y-117659791D01*
X142250511Y-117608222D01*
X142226258Y-117547036D01*
X142210749Y-117460717D01*
X142202083Y-117333750D01*
X142198361Y-117150620D01*
X142197666Y-116943068D01*
X142198117Y-116705877D01*
X142200827Y-116540132D01*
X142207830Y-116432615D01*
X142221162Y-116370106D01*
X142242859Y-116339385D01*
X142274954Y-116327234D01*
X142292916Y-116324361D01*
X142355579Y-116300932D01*
X142387632Y-116238088D01*
X142401184Y-116130917D01*
X142414201Y-115951000D01*
X141562666Y-115951000D01*
X141562666Y-116141500D01*
X141567053Y-116259053D01*
X141588615Y-116314749D01*
X141639954Y-116331272D01*
X141668500Y-116332000D01*
X141774333Y-116332000D01*
X141775263Y-116956417D01*
X141782564Y-117289132D01*
X141806516Y-117549318D01*
X141851856Y-117748271D01*
X141923324Y-117897286D01*
X142025656Y-118007657D01*
X142163592Y-118090682D01*
X142268948Y-118133333D01*
X142529572Y-118187731D01*
X142777769Y-118159202D01*
X142896166Y-118115049D01*
X143042567Y-118035008D01*
X143153685Y-117938879D01*
X143234052Y-117814587D01*
X143288197Y-117650058D01*
X143320651Y-117433218D01*
X143335943Y-117151993D01*
X143338808Y-116935250D01*
X143340666Y-116332000D01*
X143446500Y-116332000D01*
X143511807Y-116324104D01*
X143542749Y-116285293D01*
X143551929Y-116192882D01*
X143552333Y-116141500D01*
X143552333Y-115951000D01*
X142700798Y-115951000D01*
X142713816Y-116130916D01*
X142713816Y-116130916D01*
G37*
X142713816Y-116130916D02*
X142730006Y-116248376D01*
X142764985Y-116305299D01*
X142822083Y-116324361D01*
X142859405Y-116332526D01*
X142885431Y-116353438D01*
X142902197Y-116400315D01*
X142911737Y-116486377D01*
X142916087Y-116624844D01*
X142917282Y-116828934D01*
X142917333Y-116943068D01*
X142916288Y-117185084D01*
X142911888Y-117357961D01*
X142902232Y-117477214D01*
X142885421Y-117558358D01*
X142859557Y-117616908D01*
X142829594Y-117659791D01*
X142750867Y-117735089D01*
X142650611Y-117766834D01*
X142557500Y-117771333D01*
X142423769Y-117759537D01*
X142335472Y-117713985D01*
X142285406Y-117659791D01*
X142250511Y-117608222D01*
X142226258Y-117547036D01*
X142210749Y-117460717D01*
X142202083Y-117333750D01*
X142198361Y-117150620D01*
X142197666Y-116943068D01*
X142198117Y-116705877D01*
X142200827Y-116540132D01*
X142207830Y-116432615D01*
X142221162Y-116370106D01*
X142242859Y-116339385D01*
X142274954Y-116327234D01*
X142292916Y-116324361D01*
X142355579Y-116300932D01*
X142387632Y-116238088D01*
X142401184Y-116130917D01*
X142414201Y-115951000D01*
X141562666Y-115951000D01*
X141562666Y-116141500D01*
X141567053Y-116259053D01*
X141588615Y-116314749D01*
X141639954Y-116331272D01*
X141668500Y-116332000D01*
X141774333Y-116332000D01*
X141775263Y-116956417D01*
X141782564Y-117289132D01*
X141806516Y-117549318D01*
X141851856Y-117748271D01*
X141923324Y-117897286D01*
X142025656Y-118007657D01*
X142163592Y-118090682D01*
X142268948Y-118133333D01*
X142529572Y-118187731D01*
X142777769Y-118159202D01*
X142896166Y-118115049D01*
X143042567Y-118035008D01*
X143153685Y-117938879D01*
X143234052Y-117814587D01*
X143288197Y-117650058D01*
X143320651Y-117433218D01*
X143335943Y-117151993D01*
X143338808Y-116935250D01*
X143340666Y-116332000D01*
X143446500Y-116332000D01*
X143511807Y-116324104D01*
X143542749Y-116285293D01*
X143551929Y-116192882D01*
X143552333Y-116141500D01*
X143552333Y-115951000D01*
X142700798Y-115951000D01*
X142713816Y-116130916D01*
G36*
X145669000Y-116675777D02*
X145827750Y-116662639D01*
X145932558Y-116647205D01*
X145980103Y-116606246D01*
X145997766Y-116512381D01*
X145999639Y-116490750D01*
X146014452Y-116386686D01*
X146052084Y-116342165D01*
X146137629Y-116332092D01*
X146158389Y-116332000D01*
X146304000Y-116332000D01*
X146304000Y-117765709D01*
X146187583Y-117779105D01*
X146112407Y-117796777D01*
X146079159Y-117843796D01*
X146071210Y-117946266D01*
X146071166Y-117961833D01*
X146071166Y-118131167D01*
X146505840Y-118143239D01*
X146710254Y-118146590D01*
X146844480Y-118142051D01*
X146922758Y-118128090D01*
X146959327Y-118103174D01*
X146964081Y-118093898D01*
X146977056Y-118007558D01*
X146973907Y-117912493D01*
X146944947Y-117820384D01*
X146869407Y-117782825D01*
X146843750Y-117779105D01*
X146727333Y-117765709D01*
X146727333Y-116332000D01*
X146872944Y-116332000D01*
X146968955Y-116338760D01*
X147012855Y-116375771D01*
X147029738Y-116468125D01*
X147031694Y-116490750D01*
X147047128Y-116595558D01*
X147088087Y-116643103D01*
X147181952Y-116660766D01*
X147203583Y-116662639D01*
X147362333Y-116675777D01*
X147362333Y-115951000D01*
X145669000Y-115951000D01*
X145669000Y-116675777D01*
X145669000Y-116675777D01*
G37*
X145669000Y-116675777D02*
X145827750Y-116662639D01*
X145932558Y-116647205D01*
X145980103Y-116606246D01*
X145997766Y-116512381D01*
X145999639Y-116490750D01*
X146014452Y-116386686D01*
X146052084Y-116342165D01*
X146137629Y-116332092D01*
X146158389Y-116332000D01*
X146304000Y-116332000D01*
X146304000Y-117765709D01*
X146187583Y-117779105D01*
X146112407Y-117796777D01*
X146079159Y-117843796D01*
X146071210Y-117946266D01*
X146071166Y-117961833D01*
X146071166Y-118131167D01*
X146505840Y-118143239D01*
X146710254Y-118146590D01*
X146844480Y-118142051D01*
X146922758Y-118128090D01*
X146959327Y-118103174D01*
X146964081Y-118093898D01*
X146977056Y-118007558D01*
X146973907Y-117912493D01*
X146944947Y-117820384D01*
X146869407Y-117782825D01*
X146843750Y-117779105D01*
X146727333Y-117765709D01*
X146727333Y-116332000D01*
X146872944Y-116332000D01*
X146968955Y-116338760D01*
X147012855Y-116375771D01*
X147029738Y-116468125D01*
X147031694Y-116490750D01*
X147047128Y-116595558D01*
X147088087Y-116643103D01*
X147181952Y-116660766D01*
X147203583Y-116662639D01*
X147362333Y-116675777D01*
X147362333Y-115951000D01*
X145669000Y-115951000D01*
X145669000Y-116675777D01*
G36*
X144077725Y-116859314D02*
X143957264Y-117149341D01*
X143863733Y-117370342D01*
X143792063Y-117531678D01*
X143737186Y-117642710D01*
X143694033Y-117712800D01*
X143657536Y-117751310D01*
X143622626Y-117767599D01*
X143584235Y-117771029D01*
X143584083Y-117771030D01*
X143512601Y-117777712D01*
X143478610Y-117812489D01*
X143468281Y-117898197D01*
X143467666Y-117963265D01*
X143467666Y-118155198D01*
X143922750Y-118143182D01*
X144377833Y-118131167D01*
X144377833Y-117983416D01*
X144367953Y-117880216D01*
X144325334Y-117831519D01*
X144264633Y-117814082D01*
X144191258Y-117794675D01*
X144173134Y-117757839D01*
X144200765Y-117676073D01*
X144209672Y-117654917D01*
X144267913Y-117517333D01*
X144652004Y-117517333D01*
X144833979Y-117518456D01*
X144949326Y-117524895D01*
X145016078Y-117541253D01*
X145052271Y-117572134D01*
X145075939Y-117622143D01*
X145077381Y-117625922D01*
X145112475Y-117736529D01*
X145103620Y-117793243D01*
X145044794Y-117817867D01*
X145023416Y-117821306D01*
X144956814Y-117848354D01*
X144924351Y-117920634D01*
X144915028Y-117993583D01*
X144901889Y-118152333D01*
X145796000Y-118152333D01*
X145796000Y-117961833D01*
X145792000Y-117844552D01*
X145770677Y-117788993D01*
X145718043Y-117772278D01*
X145679533Y-117771333D01*
X145636529Y-117767339D01*
X145598287Y-117748317D01*
X145558608Y-117703707D01*
X145511292Y-117622946D01*
X145450139Y-117495476D01*
X145368950Y-117310735D01*
X145305308Y-117161117D01*
X144907000Y-117161117D01*
X144868527Y-117170374D01*
X144768532Y-117176734D01*
X144653000Y-117178667D01*
X144495673Y-117171630D01*
X144415396Y-117149607D01*
X144401474Y-117125750D01*
X144416804Y-117063006D01*
X144455189Y-116944505D01*
X144509024Y-116793409D01*
X144521985Y-116758628D01*
X144640022Y-116444424D01*
X144773511Y-116793995D01*
X144833046Y-116951754D01*
X144878901Y-117076794D01*
X144904176Y-117150135D01*
X144907000Y-117161117D01*
X145305308Y-117161117D01*
X145263252Y-117062250D01*
X144963438Y-116353167D01*
X145072802Y-116331584D01*
X145144119Y-116306345D01*
X145175370Y-116250611D01*
X145182166Y-116141084D01*
X145182166Y-115972167D01*
X144818558Y-115960034D01*
X144454950Y-115947902D01*
X144077725Y-116859314D01*
X144077725Y-116859314D01*
G37*
X144077725Y-116859314D02*
X143957264Y-117149341D01*
X143863733Y-117370342D01*
X143792063Y-117531678D01*
X143737186Y-117642710D01*
X143694033Y-117712800D01*
X143657536Y-117751310D01*
X143622626Y-117767599D01*
X143584235Y-117771029D01*
X143584083Y-117771030D01*
X143512601Y-117777712D01*
X143478610Y-117812489D01*
X143468281Y-117898197D01*
X143467666Y-117963265D01*
X143467666Y-118155198D01*
X143922750Y-118143182D01*
X144377833Y-118131167D01*
X144377833Y-117983416D01*
X144367953Y-117880216D01*
X144325334Y-117831519D01*
X144264633Y-117814082D01*
X144191258Y-117794675D01*
X144173134Y-117757839D01*
X144200765Y-117676073D01*
X144209672Y-117654917D01*
X144267913Y-117517333D01*
X144652004Y-117517333D01*
X144833979Y-117518456D01*
X144949326Y-117524895D01*
X145016078Y-117541253D01*
X145052271Y-117572134D01*
X145075939Y-117622143D01*
X145077381Y-117625922D01*
X145112475Y-117736529D01*
X145103620Y-117793243D01*
X145044794Y-117817867D01*
X145023416Y-117821306D01*
X144956814Y-117848354D01*
X144924351Y-117920634D01*
X144915028Y-117993583D01*
X144901889Y-118152333D01*
X145796000Y-118152333D01*
X145796000Y-117961833D01*
X145792000Y-117844552D01*
X145770677Y-117788993D01*
X145718043Y-117772278D01*
X145679533Y-117771333D01*
X145636529Y-117767339D01*
X145598287Y-117748317D01*
X145558608Y-117703707D01*
X145511292Y-117622946D01*
X145450139Y-117495476D01*
X145368950Y-117310735D01*
X145305308Y-117161117D01*
X144907000Y-117161117D01*
X144868527Y-117170374D01*
X144768532Y-117176734D01*
X144653000Y-117178667D01*
X144495673Y-117171630D01*
X144415396Y-117149607D01*
X144401474Y-117125750D01*
X144416804Y-117063006D01*
X144455189Y-116944505D01*
X144509024Y-116793409D01*
X144521985Y-116758628D01*
X144640022Y-116444424D01*
X144773511Y-116793995D01*
X144833046Y-116951754D01*
X144878901Y-117076794D01*
X144904176Y-117150135D01*
X144907000Y-117161117D01*
X145305308Y-117161117D01*
X145263252Y-117062250D01*
X144963438Y-116353167D01*
X145072802Y-116331584D01*
X145144119Y-116306345D01*
X145175370Y-116250611D01*
X145182166Y-116141084D01*
X145182166Y-115972167D01*
X144818558Y-115960034D01*
X144454950Y-115947902D01*
X144077725Y-116859314D01*
G36*
X140577508Y-115955091D02*
X140359841Y-115969718D01*
X140197932Y-115998409D01*
X140077471Y-116044692D01*
X139984147Y-116112099D01*
X139918774Y-116184412D01*
X139838063Y-116350673D01*
X139823193Y-116541278D01*
X139872787Y-116729093D01*
X139952710Y-116853230D01*
X140078421Y-116996406D01*
X139981045Y-117048521D01*
X139852773Y-117161553D01*
X139767890Y-117325678D01*
X139731869Y-117516286D01*
X139750181Y-117708766D01*
X139804516Y-117842369D01*
X139873104Y-117943246D01*
X139951757Y-118018164D01*
X140054038Y-118071283D01*
X140193510Y-118106766D01*
X140383734Y-118128774D01*
X140638274Y-118141470D01*
X140792705Y-118145599D01*
X141440911Y-118160031D01*
X141427705Y-117976266D01*
X141413501Y-117859975D01*
X141382151Y-117803395D01*
X141317251Y-117781576D01*
X141298083Y-117779105D01*
X141181666Y-117765709D01*
X141181666Y-117178667D01*
X140758333Y-117178667D01*
X140758333Y-117771333D01*
X140528572Y-117771333D01*
X140386194Y-117765282D01*
X140297389Y-117739948D01*
X140231492Y-117684558D01*
X140211072Y-117659791D01*
X140135853Y-117525129D01*
X140141006Y-117404292D01*
X140227158Y-117282660D01*
X140227242Y-117282576D01*
X140315669Y-117215044D01*
X140424816Y-117184394D01*
X140544742Y-117178667D01*
X140758333Y-117178667D01*
X141181666Y-117178667D01*
X141181666Y-116337624D01*
X141230540Y-116332000D01*
X140758333Y-116332000D01*
X140758333Y-116840000D01*
X140577253Y-116840000D01*
X140439444Y-116824640D01*
X140323036Y-116786504D01*
X140302086Y-116774099D01*
X140225635Y-116673414D01*
X140211582Y-116537842D01*
X140251823Y-116413883D01*
X140296476Y-116364156D01*
X140377070Y-116339187D01*
X140516994Y-116332016D01*
X140526989Y-116332000D01*
X140758333Y-116332000D01*
X141230540Y-116332000D01*
X141298083Y-116324228D01*
X141372626Y-116306123D01*
X141409552Y-116257771D01*
X141425750Y-116153951D01*
X141427517Y-116130917D01*
X141440535Y-115951000D01*
X140865241Y-115951000D01*
X140577508Y-115955091D01*
X140577508Y-115955091D01*
G37*
X140577508Y-115955091D02*
X140359841Y-115969718D01*
X140197932Y-115998409D01*
X140077471Y-116044692D01*
X139984147Y-116112099D01*
X139918774Y-116184412D01*
X139838063Y-116350673D01*
X139823193Y-116541278D01*
X139872787Y-116729093D01*
X139952710Y-116853230D01*
X140078421Y-116996406D01*
X139981045Y-117048521D01*
X139852773Y-117161553D01*
X139767890Y-117325678D01*
X139731869Y-117516286D01*
X139750181Y-117708766D01*
X139804516Y-117842369D01*
X139873104Y-117943246D01*
X139951757Y-118018164D01*
X140054038Y-118071283D01*
X140193510Y-118106766D01*
X140383734Y-118128774D01*
X140638274Y-118141470D01*
X140792705Y-118145599D01*
X141440911Y-118160031D01*
X141427705Y-117976266D01*
X141413501Y-117859975D01*
X141382151Y-117803395D01*
X141317251Y-117781576D01*
X141298083Y-117779105D01*
X141181666Y-117765709D01*
X141181666Y-117178667D01*
X140758333Y-117178667D01*
X140758333Y-117771333D01*
X140528572Y-117771333D01*
X140386194Y-117765282D01*
X140297389Y-117739948D01*
X140231492Y-117684558D01*
X140211072Y-117659791D01*
X140135853Y-117525129D01*
X140141006Y-117404292D01*
X140227158Y-117282660D01*
X140227242Y-117282576D01*
X140315669Y-117215044D01*
X140424816Y-117184394D01*
X140544742Y-117178667D01*
X140758333Y-117178667D01*
X141181666Y-117178667D01*
X141181666Y-116337624D01*
X141230540Y-116332000D01*
X140758333Y-116332000D01*
X140758333Y-116840000D01*
X140577253Y-116840000D01*
X140439444Y-116824640D01*
X140323036Y-116786504D01*
X140302086Y-116774099D01*
X140225635Y-116673414D01*
X140211582Y-116537842D01*
X140251823Y-116413883D01*
X140296476Y-116364156D01*
X140377070Y-116339187D01*
X140516994Y-116332016D01*
X140526989Y-116332000D01*
X140758333Y-116332000D01*
X141230540Y-116332000D01*
X141298083Y-116324228D01*
X141372626Y-116306123D01*
X141409552Y-116257771D01*
X141425750Y-116153951D01*
X141427517Y-116130917D01*
X141440535Y-115951000D01*
X140865241Y-115951000D01*
X140577508Y-115955091D01*
G36*
X138793108Y-115972167D02*
X138506733Y-116708460D01*
X138415803Y-116941052D01*
X138335168Y-117145042D01*
X138269873Y-117307853D01*
X138224962Y-117416909D01*
X138205479Y-117459631D01*
X138205450Y-117459660D01*
X138186592Y-117426794D01*
X138142851Y-117326421D01*
X138079033Y-117170325D01*
X137999945Y-116970291D01*
X137910395Y-116738103D01*
X137900204Y-116711346D01*
X137609865Y-115948124D01*
X137205016Y-115960145D01*
X136800166Y-115972167D01*
X136800166Y-116141500D01*
X136806369Y-116251561D01*
X136836065Y-116303338D01*
X136905884Y-116322933D01*
X136916583Y-116324228D01*
X137033000Y-116337624D01*
X137033000Y-117765709D01*
X136916583Y-117779105D01*
X136841407Y-117796777D01*
X136808159Y-117843796D01*
X136800210Y-117946266D01*
X136800166Y-117961833D01*
X136800166Y-118131167D01*
X137668000Y-118155295D01*
X137668000Y-117963314D01*
X137663692Y-117845184D01*
X137642458Y-117788993D01*
X137591835Y-117772132D01*
X137562166Y-117771333D01*
X137456333Y-117771333D01*
X137456333Y-117192778D01*
X137457649Y-116984535D01*
X137461260Y-116812426D01*
X137466661Y-116691106D01*
X137473347Y-116635231D01*
X137475611Y-116633500D01*
X137495653Y-116677514D01*
X137539768Y-116788293D01*
X137603044Y-116953051D01*
X137680571Y-117159003D01*
X137766926Y-117391972D01*
X138038962Y-118131167D01*
X138186905Y-118143993D01*
X138334847Y-118156819D01*
X138486581Y-117762993D01*
X138575064Y-117533462D01*
X138674269Y-117276312D01*
X138765914Y-117038928D01*
X138785523Y-116988167D01*
X138932732Y-116607167D01*
X138938000Y-117765709D01*
X138821583Y-117779105D01*
X138746407Y-117796777D01*
X138713159Y-117843796D01*
X138705210Y-117946266D01*
X138705166Y-117961833D01*
X138705166Y-118131167D01*
X139162755Y-118143207D01*
X139620344Y-118155248D01*
X139607255Y-117973874D01*
X139592886Y-117858482D01*
X139560803Y-117802631D01*
X139494304Y-117781203D01*
X139477750Y-117779105D01*
X139361333Y-117765709D01*
X139361333Y-116337624D01*
X139477750Y-116324228D01*
X139552033Y-116306276D01*
X139588973Y-116258349D01*
X139605259Y-116155336D01*
X139607260Y-116129353D01*
X139620354Y-115947873D01*
X138793108Y-115972167D01*
X138793108Y-115972167D01*
G37*
X138793108Y-115972167D02*
X138506733Y-116708460D01*
X138415803Y-116941052D01*
X138335168Y-117145042D01*
X138269873Y-117307853D01*
X138224962Y-117416909D01*
X138205479Y-117459631D01*
X138205450Y-117459660D01*
X138186592Y-117426794D01*
X138142851Y-117326421D01*
X138079033Y-117170325D01*
X137999945Y-116970291D01*
X137910395Y-116738103D01*
X137900204Y-116711346D01*
X137609865Y-115948124D01*
X137205016Y-115960145D01*
X136800166Y-115972167D01*
X136800166Y-116141500D01*
X136806369Y-116251561D01*
X136836065Y-116303338D01*
X136905884Y-116322933D01*
X136916583Y-116324228D01*
X137033000Y-116337624D01*
X137033000Y-117765709D01*
X136916583Y-117779105D01*
X136841407Y-117796777D01*
X136808159Y-117843796D01*
X136800210Y-117946266D01*
X136800166Y-117961833D01*
X136800166Y-118131167D01*
X137668000Y-118155295D01*
X137668000Y-117963314D01*
X137663692Y-117845184D01*
X137642458Y-117788993D01*
X137591835Y-117772132D01*
X137562166Y-117771333D01*
X137456333Y-117771333D01*
X137456333Y-117192778D01*
X137457649Y-116984535D01*
X137461260Y-116812426D01*
X137466661Y-116691106D01*
X137473347Y-116635231D01*
X137475611Y-116633500D01*
X137495653Y-116677514D01*
X137539768Y-116788293D01*
X137603044Y-116953051D01*
X137680571Y-117159003D01*
X137766926Y-117391972D01*
X138038962Y-118131167D01*
X138186905Y-118143993D01*
X138334847Y-118156819D01*
X138486581Y-117762993D01*
X138575064Y-117533462D01*
X138674269Y-117276312D01*
X138765914Y-117038928D01*
X138785523Y-116988167D01*
X138932732Y-116607167D01*
X138938000Y-117765709D01*
X138821583Y-117779105D01*
X138746407Y-117796777D01*
X138713159Y-117843796D01*
X138705210Y-117946266D01*
X138705166Y-117961833D01*
X138705166Y-118131167D01*
X139162755Y-118143207D01*
X139620344Y-118155248D01*
X139607255Y-117973874D01*
X139592886Y-117858482D01*
X139560803Y-117802631D01*
X139494304Y-117781203D01*
X139477750Y-117779105D01*
X139361333Y-117765709D01*
X139361333Y-116337624D01*
X139477750Y-116324228D01*
X139552033Y-116306276D01*
X139588973Y-116258349D01*
X139605259Y-116155336D01*
X139607260Y-116129353D01*
X139620354Y-115947873D01*
X138793108Y-115972167D01*
G36*
X135733989Y-115959935D02*
X135366311Y-115972167D01*
X134996064Y-116861167D01*
X134875944Y-117148178D01*
X134782502Y-117366434D01*
X134710533Y-117525612D01*
X134654832Y-117635391D01*
X134610196Y-117705449D01*
X134571418Y-117745464D01*
X134533295Y-117765115D01*
X134506492Y-117771536D01*
X134429768Y-117795247D01*
X134391911Y-117847499D01*
X134375506Y-117954752D01*
X134374149Y-117972620D01*
X134361132Y-118152333D01*
X135297333Y-118152333D01*
X135297333Y-117983000D01*
X135291557Y-117873901D01*
X135264310Y-117825411D01*
X135200716Y-117813727D01*
X135191500Y-117813667D01*
X135112207Y-117801833D01*
X135090036Y-117755493D01*
X135120094Y-117658390D01*
X135134795Y-117625158D01*
X135162112Y-117574486D01*
X135200002Y-117542834D01*
X135266676Y-117525736D01*
X135380341Y-117518725D01*
X135559209Y-117517335D01*
X135574358Y-117517333D01*
X135761637Y-117519412D01*
X135880657Y-117527609D01*
X135947765Y-117544865D01*
X135979308Y-117574123D01*
X135986093Y-117591417D01*
X136021798Y-117698062D01*
X136037893Y-117739583D01*
X136044217Y-117794289D01*
X135988410Y-117812888D01*
X135958029Y-117813667D01*
X135887032Y-117822234D01*
X135855471Y-117863901D01*
X135847737Y-117962618D01*
X135847666Y-117983000D01*
X135847666Y-118152333D01*
X136741535Y-118152333D01*
X136728517Y-117972620D01*
X136713518Y-117856964D01*
X136679160Y-117799494D01*
X136608034Y-117773749D01*
X136596210Y-117771536D01*
X136548841Y-117757342D01*
X136505696Y-117725643D01*
X136459892Y-117664939D01*
X136404545Y-117563729D01*
X136332771Y-117410515D01*
X136237687Y-117193796D01*
X136231166Y-117178667D01*
X135837098Y-117178667D01*
X135562686Y-117178667D01*
X135415673Y-117176282D01*
X135337015Y-117165842D01*
X135310462Y-117142422D01*
X135318318Y-117104583D01*
X135348961Y-117023797D01*
X135394905Y-116897122D01*
X135426119Y-116809069D01*
X135487747Y-116639613D01*
X135533277Y-116547748D01*
X135572905Y-116533941D01*
X135616826Y-116598655D01*
X135675234Y-116742356D01*
X135704834Y-116821777D01*
X135837098Y-117178667D01*
X136231166Y-117178667D01*
X136205031Y-117118036D01*
X136090505Y-116851801D01*
X136006260Y-116653551D01*
X135949598Y-116513290D01*
X135917825Y-116421021D01*
X135908242Y-116366751D01*
X135918154Y-116340481D01*
X135944864Y-116332218D01*
X135985675Y-116331965D01*
X135992980Y-116332000D01*
X136059785Y-116324596D01*
X136091575Y-116287274D01*
X136101171Y-116197370D01*
X136101666Y-116139852D01*
X136101666Y-115947704D01*
X135733989Y-115959935D01*
X135733989Y-115959935D01*
G37*
X135733989Y-115959935D02*
X135366311Y-115972167D01*
X134996064Y-116861167D01*
X134875944Y-117148178D01*
X134782502Y-117366434D01*
X134710533Y-117525612D01*
X134654832Y-117635391D01*
X134610196Y-117705449D01*
X134571418Y-117745464D01*
X134533295Y-117765115D01*
X134506492Y-117771536D01*
X134429768Y-117795247D01*
X134391911Y-117847499D01*
X134375506Y-117954752D01*
X134374149Y-117972620D01*
X134361132Y-118152333D01*
X135297333Y-118152333D01*
X135297333Y-117983000D01*
X135291557Y-117873901D01*
X135264310Y-117825411D01*
X135200716Y-117813727D01*
X135191500Y-117813667D01*
X135112207Y-117801833D01*
X135090036Y-117755493D01*
X135120094Y-117658390D01*
X135134795Y-117625158D01*
X135162112Y-117574486D01*
X135200002Y-117542834D01*
X135266676Y-117525736D01*
X135380341Y-117518725D01*
X135559209Y-117517335D01*
X135574358Y-117517333D01*
X135761637Y-117519412D01*
X135880657Y-117527609D01*
X135947765Y-117544865D01*
X135979308Y-117574123D01*
X135986093Y-117591417D01*
X136021798Y-117698062D01*
X136037893Y-117739583D01*
X136044217Y-117794289D01*
X135988410Y-117812888D01*
X135958029Y-117813667D01*
X135887032Y-117822234D01*
X135855471Y-117863901D01*
X135847737Y-117962618D01*
X135847666Y-117983000D01*
X135847666Y-118152333D01*
X136741535Y-118152333D01*
X136728517Y-117972620D01*
X136713518Y-117856964D01*
X136679160Y-117799494D01*
X136608034Y-117773749D01*
X136596210Y-117771536D01*
X136548841Y-117757342D01*
X136505696Y-117725643D01*
X136459892Y-117664939D01*
X136404545Y-117563729D01*
X136332771Y-117410515D01*
X136237687Y-117193796D01*
X136231166Y-117178667D01*
X135837098Y-117178667D01*
X135562686Y-117178667D01*
X135415673Y-117176282D01*
X135337015Y-117165842D01*
X135310462Y-117142422D01*
X135318318Y-117104583D01*
X135348961Y-117023797D01*
X135394905Y-116897122D01*
X135426119Y-116809069D01*
X135487747Y-116639613D01*
X135533277Y-116547748D01*
X135572905Y-116533941D01*
X135616826Y-116598655D01*
X135675234Y-116742356D01*
X135704834Y-116821777D01*
X135837098Y-117178667D01*
X136231166Y-117178667D01*
X136205031Y-117118036D01*
X136090505Y-116851801D01*
X136006260Y-116653551D01*
X135949598Y-116513290D01*
X135917825Y-116421021D01*
X135908242Y-116366751D01*
X135918154Y-116340481D01*
X135944864Y-116332218D01*
X135985675Y-116331965D01*
X135992980Y-116332000D01*
X136059785Y-116324596D01*
X136091575Y-116287274D01*
X136101171Y-116197370D01*
X136101666Y-116139852D01*
X136101666Y-115947704D01*
X135733989Y-115959935D01*
G36*
X133249018Y-116575417D02*
X133102137Y-116781983D01*
X132968325Y-116969438D01*
X132856857Y-117124844D01*
X132777010Y-117235263D01*
X132740611Y-117284500D01*
X132713391Y-117313429D01*
X132694906Y-117309250D01*
X132683429Y-117260714D01*
X132677235Y-117156571D01*
X132674596Y-116985572D01*
X132674013Y-116850583D01*
X132672666Y-116332000D01*
X132778500Y-116332000D01*
X132843807Y-116324104D01*
X132874749Y-116285293D01*
X132883929Y-116192882D01*
X132884333Y-116141500D01*
X132884333Y-115951000D01*
X131990465Y-115951000D01*
X132003482Y-116130917D01*
X132017957Y-116245760D01*
X132050503Y-116301166D01*
X132118008Y-116322358D01*
X132132916Y-116324228D01*
X132249333Y-116337624D01*
X132249333Y-118152333D01*
X132616366Y-118152333D01*
X133113987Y-117453833D01*
X133265316Y-117242562D01*
X133399827Y-117056951D01*
X133509930Y-116907295D01*
X133588034Y-116803890D01*
X133626548Y-116757031D01*
X133628971Y-116755333D01*
X133635691Y-116794931D01*
X133641200Y-116902787D01*
X133644936Y-117062496D01*
X133646333Y-117257652D01*
X133646333Y-117765709D01*
X133529916Y-117779105D01*
X133454740Y-117796777D01*
X133421493Y-117843796D01*
X133413544Y-117946266D01*
X133413500Y-117961833D01*
X133413500Y-118131167D01*
X133847416Y-118143231D01*
X134281333Y-118155295D01*
X134281333Y-117963314D01*
X134277025Y-117845184D01*
X134255792Y-117788993D01*
X134205168Y-117772132D01*
X134175500Y-117771333D01*
X134069666Y-117771333D01*
X134069666Y-116332000D01*
X134175500Y-116332000D01*
X134240807Y-116324104D01*
X134271749Y-116285293D01*
X134280929Y-116192882D01*
X134281333Y-116141500D01*
X134281333Y-115951000D01*
X133692172Y-115951000D01*
X133249018Y-116575417D01*
X133249018Y-116575417D01*
G37*
X133249018Y-116575417D02*
X133102137Y-116781983D01*
X132968325Y-116969438D01*
X132856857Y-117124844D01*
X132777010Y-117235263D01*
X132740611Y-117284500D01*
X132713391Y-117313429D01*
X132694906Y-117309250D01*
X132683429Y-117260714D01*
X132677235Y-117156571D01*
X132674596Y-116985572D01*
X132674013Y-116850583D01*
X132672666Y-116332000D01*
X132778500Y-116332000D01*
X132843807Y-116324104D01*
X132874749Y-116285293D01*
X132883929Y-116192882D01*
X132884333Y-116141500D01*
X132884333Y-115951000D01*
X131990465Y-115951000D01*
X132003482Y-116130917D01*
X132017957Y-116245760D01*
X132050503Y-116301166D01*
X132118008Y-116322358D01*
X132132916Y-116324228D01*
X132249333Y-116337624D01*
X132249333Y-118152333D01*
X132616366Y-118152333D01*
X133113987Y-117453833D01*
X133265316Y-117242562D01*
X133399827Y-117056951D01*
X133509930Y-116907295D01*
X133588034Y-116803890D01*
X133626548Y-116757031D01*
X133628971Y-116755333D01*
X133635691Y-116794931D01*
X133641200Y-116902787D01*
X133644936Y-117062496D01*
X133646333Y-117257652D01*
X133646333Y-117765709D01*
X133529916Y-117779105D01*
X133454740Y-117796777D01*
X133421493Y-117843796D01*
X133413544Y-117946266D01*
X133413500Y-117961833D01*
X133413500Y-118131167D01*
X133847416Y-118143231D01*
X134281333Y-118155295D01*
X134281333Y-117963314D01*
X134277025Y-117845184D01*
X134255792Y-117788993D01*
X134205168Y-117772132D01*
X134175500Y-117771333D01*
X134069666Y-117771333D01*
X134069666Y-116332000D01*
X134175500Y-116332000D01*
X134240807Y-116324104D01*
X134271749Y-116285293D01*
X134280929Y-116192882D01*
X134281333Y-116141500D01*
X134281333Y-115951000D01*
X133692172Y-115951000D01*
X133249018Y-116575417D01*
G36*
X144952496Y-119839441D02*
X144876495Y-119851686D01*
X144845380Y-119882219D01*
X144839272Y-119939324D01*
X144839266Y-119943034D01*
X144859548Y-120025448D01*
X144897717Y-120048867D01*
X144927392Y-120070461D01*
X144948739Y-120143102D01*
X144963980Y-120278575D01*
X144973802Y-120452073D01*
X144984294Y-120644658D01*
X144998906Y-120773248D01*
X145022715Y-120858510D01*
X145060801Y-120921112D01*
X145099393Y-120963235D01*
X145236724Y-121050034D01*
X145409808Y-121092802D01*
X145578894Y-121083715D01*
X145628487Y-121067390D01*
X145729112Y-121006061D01*
X145796473Y-120913883D01*
X145836043Y-120775869D01*
X145853297Y-120577035D01*
X145855266Y-120446551D01*
X145856895Y-120262295D01*
X145864110Y-120145755D01*
X145880408Y-120080005D01*
X145909284Y-120048119D01*
X145939933Y-120036601D01*
X146011600Y-119979865D01*
X146024600Y-119925830D01*
X146016305Y-119876451D01*
X145978397Y-119849773D01*
X145891340Y-119838980D01*
X145770600Y-119837200D01*
X145629830Y-119839441D01*
X145553828Y-119851686D01*
X145522714Y-119882219D01*
X145516605Y-119939324D01*
X145516600Y-119943034D01*
X145538680Y-120028153D01*
X145580100Y-120048867D01*
X145613469Y-120065403D01*
X145633117Y-120125196D01*
X145642072Y-120243519D01*
X145643600Y-120369150D01*
X145636172Y-120585352D01*
X145610573Y-120729678D01*
X145561834Y-120813882D01*
X145484983Y-120849720D01*
X145438910Y-120853200D01*
X145340786Y-120841775D01*
X145276596Y-120798229D01*
X145239632Y-120708659D01*
X145223181Y-120559160D01*
X145220266Y-120400234D01*
X145223084Y-120222769D01*
X145233326Y-120114975D01*
X145253680Y-120061988D01*
X145283766Y-120048867D01*
X145334838Y-120012066D01*
X145347266Y-119943034D01*
X145341888Y-119884379D01*
X145312500Y-119852712D01*
X145239221Y-119839748D01*
X145102169Y-119837203D01*
X145093266Y-119837200D01*
X144952496Y-119839441D01*
X144952496Y-119839441D01*
G37*
X144952496Y-119839441D02*
X144876495Y-119851686D01*
X144845380Y-119882219D01*
X144839272Y-119939324D01*
X144839266Y-119943034D01*
X144859548Y-120025448D01*
X144897717Y-120048867D01*
X144927392Y-120070461D01*
X144948739Y-120143102D01*
X144963980Y-120278575D01*
X144973802Y-120452073D01*
X144984294Y-120644658D01*
X144998906Y-120773248D01*
X145022715Y-120858510D01*
X145060801Y-120921112D01*
X145099393Y-120963235D01*
X145236724Y-121050034D01*
X145409808Y-121092802D01*
X145578894Y-121083715D01*
X145628487Y-121067390D01*
X145729112Y-121006061D01*
X145796473Y-120913883D01*
X145836043Y-120775869D01*
X145853297Y-120577035D01*
X145855266Y-120446551D01*
X145856895Y-120262295D01*
X145864110Y-120145755D01*
X145880408Y-120080005D01*
X145909284Y-120048119D01*
X145939933Y-120036601D01*
X146011600Y-119979865D01*
X146024600Y-119925830D01*
X146016305Y-119876451D01*
X145978397Y-119849773D01*
X145891340Y-119838980D01*
X145770600Y-119837200D01*
X145629830Y-119839441D01*
X145553828Y-119851686D01*
X145522714Y-119882219D01*
X145516605Y-119939324D01*
X145516600Y-119943034D01*
X145538680Y-120028153D01*
X145580100Y-120048867D01*
X145613469Y-120065403D01*
X145633117Y-120125196D01*
X145642072Y-120243519D01*
X145643600Y-120369150D01*
X145636172Y-120585352D01*
X145610573Y-120729678D01*
X145561834Y-120813882D01*
X145484983Y-120849720D01*
X145438910Y-120853200D01*
X145340786Y-120841775D01*
X145276596Y-120798229D01*
X145239632Y-120708659D01*
X145223181Y-120559160D01*
X145220266Y-120400234D01*
X145223084Y-120222769D01*
X145233326Y-120114975D01*
X145253680Y-120061988D01*
X145283766Y-120048867D01*
X145334838Y-120012066D01*
X145347266Y-119943034D01*
X145341888Y-119884379D01*
X145312500Y-119852712D01*
X145239221Y-119839748D01*
X145102169Y-119837203D01*
X145093266Y-119837200D01*
X144952496Y-119839441D01*
G36*
X135094758Y-119823924D02*
X135022450Y-119849004D01*
X134900830Y-119884199D01*
X134826344Y-119888117D01*
X134813322Y-119878239D01*
X134764974Y-119843991D01*
X134718072Y-119837200D01*
X134667150Y-119850872D01*
X134643104Y-119905970D01*
X134636936Y-120023619D01*
X134636933Y-120027700D01*
X134640615Y-120144842D01*
X134661871Y-120200324D01*
X134716021Y-120217123D01*
X134763933Y-120218200D01*
X134853132Y-120207899D01*
X134890924Y-120183081D01*
X134890933Y-120182662D01*
X134928172Y-120136042D01*
X135020666Y-120090815D01*
X135139580Y-120058245D01*
X135233516Y-120048867D01*
X135369948Y-120086689D01*
X135493977Y-120184609D01*
X135578706Y-120319308D01*
X135591400Y-120359133D01*
X135588373Y-120493306D01*
X135532400Y-120638434D01*
X135441029Y-120758572D01*
X135373734Y-120805001D01*
X135198893Y-120850150D01*
X135040078Y-120813970D01*
X134940987Y-120747367D01*
X134842272Y-120685664D01*
X134735074Y-120648544D01*
X134644826Y-120640907D01*
X134596963Y-120667654D01*
X134594600Y-120680619D01*
X134626077Y-120753431D01*
X134705495Y-120850553D01*
X134810330Y-120949355D01*
X134918059Y-121027205D01*
X134961680Y-121049456D01*
X135125064Y-121098686D01*
X135274847Y-121093226D01*
X135444500Y-121030664D01*
X135482081Y-121011950D01*
X135665300Y-120880038D01*
X135775137Y-120707713D01*
X135813975Y-120490577D01*
X135811361Y-120404821D01*
X135762037Y-120175438D01*
X135650203Y-120001758D01*
X135471970Y-119878391D01*
X135413498Y-119853596D01*
X135288182Y-119810548D01*
X135196569Y-119800830D01*
X135094758Y-119823924D01*
X135094758Y-119823924D01*
G37*
X135094758Y-119823924D02*
X135022450Y-119849004D01*
X134900830Y-119884199D01*
X134826344Y-119888117D01*
X134813322Y-119878239D01*
X134764974Y-119843991D01*
X134718072Y-119837200D01*
X134667150Y-119850872D01*
X134643104Y-119905970D01*
X134636936Y-120023619D01*
X134636933Y-120027700D01*
X134640615Y-120144842D01*
X134661871Y-120200324D01*
X134716021Y-120217123D01*
X134763933Y-120218200D01*
X134853132Y-120207899D01*
X134890924Y-120183081D01*
X134890933Y-120182662D01*
X134928172Y-120136042D01*
X135020666Y-120090815D01*
X135139580Y-120058245D01*
X135233516Y-120048867D01*
X135369948Y-120086689D01*
X135493977Y-120184609D01*
X135578706Y-120319308D01*
X135591400Y-120359133D01*
X135588373Y-120493306D01*
X135532400Y-120638434D01*
X135441029Y-120758572D01*
X135373734Y-120805001D01*
X135198893Y-120850150D01*
X135040078Y-120813970D01*
X134940987Y-120747367D01*
X134842272Y-120685664D01*
X134735074Y-120648544D01*
X134644826Y-120640907D01*
X134596963Y-120667654D01*
X134594600Y-120680619D01*
X134626077Y-120753431D01*
X134705495Y-120850553D01*
X134810330Y-120949355D01*
X134918059Y-121027205D01*
X134961680Y-121049456D01*
X135125064Y-121098686D01*
X135274847Y-121093226D01*
X135444500Y-121030664D01*
X135482081Y-121011950D01*
X135665300Y-120880038D01*
X135775137Y-120707713D01*
X135813975Y-120490577D01*
X135811361Y-120404821D01*
X135762037Y-120175438D01*
X135650203Y-120001758D01*
X135471970Y-119878391D01*
X135413498Y-119853596D01*
X135288182Y-119810548D01*
X135196569Y-119800830D01*
X135094758Y-119823924D01*
G36*
X131517364Y-119846224D02*
X131443549Y-119880149D01*
X131269319Y-119990581D01*
X131162330Y-120125126D01*
X131111044Y-120303337D01*
X131102100Y-120458837D01*
X131106990Y-120612717D01*
X131128561Y-120714511D01*
X131177165Y-120796563D01*
X131229100Y-120855634D01*
X131393659Y-120991611D01*
X131576494Y-121080316D01*
X131726770Y-121107200D01*
X131822444Y-121088350D01*
X131951735Y-121040637D01*
X132012911Y-121011950D01*
X132201130Y-120874427D01*
X132319995Y-120691223D01*
X132364800Y-120469835D01*
X132365044Y-120451033D01*
X132362043Y-120433694D01*
X132120769Y-120433694D01*
X132097798Y-120575413D01*
X132007199Y-120734074D01*
X131871088Y-120829770D01*
X131707087Y-120855367D01*
X131533233Y-120803952D01*
X131409701Y-120709040D01*
X131349169Y-120578922D01*
X131337626Y-120451034D01*
X131360525Y-120281752D01*
X131437496Y-120163783D01*
X131533233Y-120098115D01*
X131703279Y-120047435D01*
X131862237Y-120068488D01*
X131994926Y-120148439D01*
X132086164Y-120274453D01*
X132120769Y-120433694D01*
X132362043Y-120433694D01*
X132326260Y-120226962D01*
X132213047Y-120040485D01*
X132030109Y-119899099D01*
X132012911Y-119890117D01*
X131832677Y-119816320D01*
X131678679Y-119801885D01*
X131517364Y-119846224D01*
X131517364Y-119846224D01*
G37*
X131517364Y-119846224D02*
X131443549Y-119880149D01*
X131269319Y-119990581D01*
X131162330Y-120125126D01*
X131111044Y-120303337D01*
X131102100Y-120458837D01*
X131106990Y-120612717D01*
X131128561Y-120714511D01*
X131177165Y-120796563D01*
X131229100Y-120855634D01*
X131393659Y-120991611D01*
X131576494Y-121080316D01*
X131726770Y-121107200D01*
X131822444Y-121088350D01*
X131951735Y-121040637D01*
X132012911Y-121011950D01*
X132201130Y-120874427D01*
X132319995Y-120691223D01*
X132364800Y-120469835D01*
X132365044Y-120451033D01*
X132362043Y-120433694D01*
X132120769Y-120433694D01*
X132097798Y-120575413D01*
X132007199Y-120734074D01*
X131871088Y-120829770D01*
X131707087Y-120855367D01*
X131533233Y-120803952D01*
X131409701Y-120709040D01*
X131349169Y-120578922D01*
X131337626Y-120451034D01*
X131360525Y-120281752D01*
X131437496Y-120163783D01*
X131533233Y-120098115D01*
X131703279Y-120047435D01*
X131862237Y-120068488D01*
X131994926Y-120148439D01*
X132086164Y-120274453D01*
X132120769Y-120433694D01*
X132362043Y-120433694D01*
X132326260Y-120226962D01*
X132213047Y-120040485D01*
X132030109Y-119899099D01*
X132012911Y-119890117D01*
X131832677Y-119816320D01*
X131678679Y-119801885D01*
X131517364Y-119846224D01*
G36*
X128212584Y-119843193D02*
X128186473Y-119853394D01*
X128090431Y-119884635D01*
X128036911Y-119884787D01*
X128032933Y-119877373D01*
X127996692Y-119847170D01*
X127927100Y-119837200D01*
X127861792Y-119845096D01*
X127830850Y-119883907D01*
X127821671Y-119976318D01*
X127821266Y-120027700D01*
X127825501Y-120145133D01*
X127846951Y-120200770D01*
X127898732Y-120217382D01*
X127931006Y-120218200D01*
X128043413Y-120192036D01*
X128148382Y-120133534D01*
X128306879Y-120057174D01*
X128474615Y-120059053D01*
X128632218Y-120137724D01*
X128671190Y-120172610D01*
X128765930Y-120319425D01*
X128788243Y-120481100D01*
X128741459Y-120635672D01*
X128628909Y-120761178D01*
X128577127Y-120792875D01*
X128402067Y-120848345D01*
X128241944Y-120821884D01*
X128125320Y-120747367D01*
X128020476Y-120679284D01*
X127919484Y-120644793D01*
X127845542Y-120648528D01*
X127821266Y-120686650D01*
X127857623Y-120798229D01*
X127955172Y-120917286D01*
X128026720Y-120975776D01*
X128227439Y-121069420D01*
X128446437Y-121085264D01*
X128654050Y-121027143D01*
X128839257Y-120899673D01*
X128962150Y-120729014D01*
X129020182Y-120531944D01*
X129010805Y-120325245D01*
X128931474Y-120125695D01*
X128813031Y-119979731D01*
X128627051Y-119855688D01*
X128422035Y-119809194D01*
X128212584Y-119843193D01*
X128212584Y-119843193D01*
G37*
X128212584Y-119843193D02*
X128186473Y-119853394D01*
X128090431Y-119884635D01*
X128036911Y-119884787D01*
X128032933Y-119877373D01*
X127996692Y-119847170D01*
X127927100Y-119837200D01*
X127861792Y-119845096D01*
X127830850Y-119883907D01*
X127821671Y-119976318D01*
X127821266Y-120027700D01*
X127825501Y-120145133D01*
X127846951Y-120200770D01*
X127898732Y-120217382D01*
X127931006Y-120218200D01*
X128043413Y-120192036D01*
X128148382Y-120133534D01*
X128306879Y-120057174D01*
X128474615Y-120059053D01*
X128632218Y-120137724D01*
X128671190Y-120172610D01*
X128765930Y-120319425D01*
X128788243Y-120481100D01*
X128741459Y-120635672D01*
X128628909Y-120761178D01*
X128577127Y-120792875D01*
X128402067Y-120848345D01*
X128241944Y-120821884D01*
X128125320Y-120747367D01*
X128020476Y-120679284D01*
X127919484Y-120644793D01*
X127845542Y-120648528D01*
X127821266Y-120686650D01*
X127857623Y-120798229D01*
X127955172Y-120917286D01*
X128026720Y-120975776D01*
X128227439Y-121069420D01*
X128446437Y-121085264D01*
X128654050Y-121027143D01*
X128839257Y-120899673D01*
X128962150Y-120729014D01*
X129020182Y-120531944D01*
X129010805Y-120325245D01*
X128931474Y-120125695D01*
X128813031Y-119979731D01*
X128627051Y-119855688D01*
X128422035Y-119809194D01*
X128212584Y-119843193D01*
G36*
X127198859Y-119834101D02*
X127069850Y-119836108D01*
X126981697Y-119842734D01*
X126942524Y-119876985D01*
X126932534Y-119963389D01*
X126932266Y-120006559D01*
X126938572Y-120116210D01*
X126966261Y-120164883D01*
X127027917Y-120175867D01*
X127125067Y-120142265D01*
X127176442Y-120091200D01*
X127262556Y-120018675D01*
X127366052Y-120018234D01*
X127443211Y-120073582D01*
X127473449Y-120160624D01*
X127422055Y-120245422D01*
X127292049Y-120323959D01*
X127238996Y-120345392D01*
X127107649Y-120405451D01*
X126997284Y-120474281D01*
X126978832Y-120489536D01*
X126905138Y-120608235D01*
X126894070Y-120755149D01*
X126945243Y-120901941D01*
X126985183Y-120956718D01*
X127079630Y-121032056D01*
X127195478Y-121084017D01*
X127302449Y-121102616D01*
X127366288Y-121082401D01*
X127426176Y-121062823D01*
X127531241Y-121056315D01*
X127545911Y-121056711D01*
X127637283Y-121056274D01*
X127680400Y-121030863D01*
X127693391Y-120958038D01*
X127694266Y-120873078D01*
X127688242Y-120753783D01*
X127664273Y-120697701D01*
X127614469Y-120683867D01*
X127535139Y-120716826D01*
X127465326Y-120789700D01*
X127369855Y-120877601D01*
X127260410Y-120885961D01*
X127166227Y-120827113D01*
X127121411Y-120763703D01*
X127139246Y-120697629D01*
X127155652Y-120671574D01*
X127232313Y-120601821D01*
X127349568Y-120538477D01*
X127379798Y-120526977D01*
X127561165Y-120439664D01*
X127666802Y-120325992D01*
X127703436Y-120179544D01*
X127669493Y-120027643D01*
X127572388Y-119907139D01*
X127432918Y-119838518D01*
X127348751Y-119830196D01*
X127198859Y-119834101D01*
X127198859Y-119834101D01*
G37*
X127198859Y-119834101D02*
X127069850Y-119836108D01*
X126981697Y-119842734D01*
X126942524Y-119876985D01*
X126932534Y-119963389D01*
X126932266Y-120006559D01*
X126938572Y-120116210D01*
X126966261Y-120164883D01*
X127027917Y-120175867D01*
X127125067Y-120142265D01*
X127176442Y-120091200D01*
X127262556Y-120018675D01*
X127366052Y-120018234D01*
X127443211Y-120073582D01*
X127473449Y-120160624D01*
X127422055Y-120245422D01*
X127292049Y-120323959D01*
X127238996Y-120345392D01*
X127107649Y-120405451D01*
X126997284Y-120474281D01*
X126978832Y-120489536D01*
X126905138Y-120608235D01*
X126894070Y-120755149D01*
X126945243Y-120901941D01*
X126985183Y-120956718D01*
X127079630Y-121032056D01*
X127195478Y-121084017D01*
X127302449Y-121102616D01*
X127366288Y-121082401D01*
X127426176Y-121062823D01*
X127531241Y-121056315D01*
X127545911Y-121056711D01*
X127637283Y-121056274D01*
X127680400Y-121030863D01*
X127693391Y-120958038D01*
X127694266Y-120873078D01*
X127688242Y-120753783D01*
X127664273Y-120697701D01*
X127614469Y-120683867D01*
X127535139Y-120716826D01*
X127465326Y-120789700D01*
X127369855Y-120877601D01*
X127260410Y-120885961D01*
X127166227Y-120827113D01*
X127121411Y-120763703D01*
X127139246Y-120697629D01*
X127155652Y-120671574D01*
X127232313Y-120601821D01*
X127349568Y-120538477D01*
X127379798Y-120526977D01*
X127561165Y-120439664D01*
X127666802Y-120325992D01*
X127703436Y-120179544D01*
X127669493Y-120027643D01*
X127572388Y-119907139D01*
X127432918Y-119838518D01*
X127348751Y-119830196D01*
X127198859Y-119834101D01*
G36*
X147209933Y-120027700D02*
X147215473Y-120146748D01*
X147238476Y-120203042D01*
X147288518Y-120218127D01*
X147294600Y-120218200D01*
X147365352Y-120188266D01*
X147379266Y-120133534D01*
X147404071Y-120067141D01*
X147485100Y-120048867D01*
X147534372Y-120051713D01*
X147565338Y-120070892D01*
X147582249Y-120122359D01*
X147589357Y-120222072D01*
X147590913Y-120385988D01*
X147590933Y-120446096D01*
X147589380Y-120632922D01*
X147582470Y-120751815D01*
X147566831Y-120819486D01*
X147539089Y-120852647D01*
X147506266Y-120865466D01*
X147434599Y-120922202D01*
X147421600Y-120976237D01*
X147429239Y-121024096D01*
X147464725Y-121050772D01*
X147546909Y-121062339D01*
X147694645Y-121064867D01*
X147696766Y-121064867D01*
X147845353Y-121062406D01*
X147928174Y-121050976D01*
X147964084Y-121024505D01*
X147971933Y-120976920D01*
X147971933Y-120976237D01*
X147935638Y-120891724D01*
X147887266Y-120865466D01*
X147847533Y-120847787D01*
X147822576Y-120808845D01*
X147809024Y-120731927D01*
X147803503Y-120600323D01*
X147802600Y-120446096D01*
X147803908Y-120260541D01*
X147810078Y-120143841D01*
X147824477Y-120080198D01*
X147850472Y-120053814D01*
X147887266Y-120048867D01*
X147958019Y-120078801D01*
X147971933Y-120133534D01*
X147996738Y-120199926D01*
X148077766Y-120218200D01*
X148143074Y-120210304D01*
X148174016Y-120171493D01*
X148183196Y-120079082D01*
X148183600Y-120027700D01*
X148183600Y-119837200D01*
X147209933Y-119837200D01*
X147209933Y-120027700D01*
X147209933Y-120027700D01*
G37*
X147209933Y-120027700D02*
X147215473Y-120146748D01*
X147238476Y-120203042D01*
X147288518Y-120218127D01*
X147294600Y-120218200D01*
X147365352Y-120188266D01*
X147379266Y-120133534D01*
X147404071Y-120067141D01*
X147485100Y-120048867D01*
X147534372Y-120051713D01*
X147565338Y-120070892D01*
X147582249Y-120122359D01*
X147589357Y-120222072D01*
X147590913Y-120385988D01*
X147590933Y-120446096D01*
X147589380Y-120632922D01*
X147582470Y-120751815D01*
X147566831Y-120819486D01*
X147539089Y-120852647D01*
X147506266Y-120865466D01*
X147434599Y-120922202D01*
X147421600Y-120976237D01*
X147429239Y-121024096D01*
X147464725Y-121050772D01*
X147546909Y-121062339D01*
X147694645Y-121064867D01*
X147696766Y-121064867D01*
X147845353Y-121062406D01*
X147928174Y-121050976D01*
X147964084Y-121024505D01*
X147971933Y-120976920D01*
X147971933Y-120976237D01*
X147935638Y-120891724D01*
X147887266Y-120865466D01*
X147847533Y-120847787D01*
X147822576Y-120808845D01*
X147809024Y-120731927D01*
X147803503Y-120600323D01*
X147802600Y-120446096D01*
X147803908Y-120260541D01*
X147810078Y-120143841D01*
X147824477Y-120080198D01*
X147850472Y-120053814D01*
X147887266Y-120048867D01*
X147958019Y-120078801D01*
X147971933Y-120133534D01*
X147996738Y-120199926D01*
X148077766Y-120218200D01*
X148143074Y-120210304D01*
X148174016Y-120171493D01*
X148183196Y-120079082D01*
X148183600Y-120027700D01*
X148183600Y-119837200D01*
X147209933Y-119837200D01*
X147209933Y-120027700D01*
G36*
X146301081Y-120341960D02*
X146197181Y-120585766D01*
X146114448Y-120752012D01*
X146050805Y-120844553D01*
X146018109Y-120867164D01*
X145953323Y-120921762D01*
X145939933Y-120976237D01*
X145947572Y-121024096D01*
X145983058Y-121050772D01*
X146065243Y-121062339D01*
X146212979Y-121064867D01*
X146215100Y-121064867D01*
X146370776Y-121060341D01*
X146457104Y-121044540D01*
X146489032Y-121014128D01*
X146490266Y-121003470D01*
X146457184Y-120932866D01*
X146420226Y-120902877D01*
X146371737Y-120837953D01*
X146376564Y-120794941D01*
X146417483Y-120751980D01*
X146509686Y-120730767D01*
X146632167Y-120726200D01*
X146768853Y-120731029D01*
X146843273Y-120750477D01*
X146877521Y-120791985D01*
X146883533Y-120810867D01*
X146880148Y-120881595D01*
X146846137Y-120895534D01*
X146797860Y-120930800D01*
X146786600Y-120980200D01*
X146795868Y-121027488D01*
X146836580Y-121053040D01*
X146928099Y-121063310D01*
X147040600Y-121064867D01*
X147182112Y-121061973D01*
X147258567Y-121048745D01*
X147289500Y-121018368D01*
X147294600Y-120976237D01*
X147260909Y-120893699D01*
X147215552Y-120866936D01*
X147166825Y-120824164D01*
X147103034Y-120728097D01*
X147032206Y-120596884D01*
X146976429Y-120478517D01*
X146744266Y-120478517D01*
X146707454Y-120503813D01*
X146618768Y-120514531D01*
X146617266Y-120514534D01*
X146528045Y-120506196D01*
X146490274Y-120486112D01*
X146490266Y-120485789D01*
X146505074Y-120415899D01*
X146540204Y-120319478D01*
X146581716Y-120229413D01*
X146615671Y-120178594D01*
X146621630Y-120175867D01*
X146651868Y-120211064D01*
X146691374Y-120294376D01*
X146726605Y-120392378D01*
X146744017Y-120471649D01*
X146744266Y-120478517D01*
X146976429Y-120478517D01*
X146962366Y-120448674D01*
X146901540Y-120301618D01*
X146857756Y-120173866D01*
X146839037Y-120083567D01*
X146853411Y-120048872D01*
X146853798Y-120048867D01*
X146900848Y-120012035D01*
X146913600Y-119943034D01*
X146906385Y-119879340D01*
X146870061Y-119848128D01*
X146782605Y-119837963D01*
X146709739Y-119837200D01*
X146505878Y-119837200D01*
X146301081Y-120341960D01*
X146301081Y-120341960D01*
G37*
X146301081Y-120341960D02*
X146197181Y-120585766D01*
X146114448Y-120752012D01*
X146050805Y-120844553D01*
X146018109Y-120867164D01*
X145953323Y-120921762D01*
X145939933Y-120976237D01*
X145947572Y-121024096D01*
X145983058Y-121050772D01*
X146065243Y-121062339D01*
X146212979Y-121064867D01*
X146215100Y-121064867D01*
X146370776Y-121060341D01*
X146457104Y-121044540D01*
X146489032Y-121014128D01*
X146490266Y-121003470D01*
X146457184Y-120932866D01*
X146420226Y-120902877D01*
X146371737Y-120837953D01*
X146376564Y-120794941D01*
X146417483Y-120751980D01*
X146509686Y-120730767D01*
X146632167Y-120726200D01*
X146768853Y-120731029D01*
X146843273Y-120750477D01*
X146877521Y-120791985D01*
X146883533Y-120810867D01*
X146880148Y-120881595D01*
X146846137Y-120895534D01*
X146797860Y-120930800D01*
X146786600Y-120980200D01*
X146795868Y-121027488D01*
X146836580Y-121053040D01*
X146928099Y-121063310D01*
X147040600Y-121064867D01*
X147182112Y-121061973D01*
X147258567Y-121048745D01*
X147289500Y-121018368D01*
X147294600Y-120976237D01*
X147260909Y-120893699D01*
X147215552Y-120866936D01*
X147166825Y-120824164D01*
X147103034Y-120728097D01*
X147032206Y-120596884D01*
X146976429Y-120478517D01*
X146744266Y-120478517D01*
X146707454Y-120503813D01*
X146618768Y-120514531D01*
X146617266Y-120514534D01*
X146528045Y-120506196D01*
X146490274Y-120486112D01*
X146490266Y-120485789D01*
X146505074Y-120415899D01*
X146540204Y-120319478D01*
X146581716Y-120229413D01*
X146615671Y-120178594D01*
X146621630Y-120175867D01*
X146651868Y-120211064D01*
X146691374Y-120294376D01*
X146726605Y-120392378D01*
X146744017Y-120471649D01*
X146744266Y-120478517D01*
X146976429Y-120478517D01*
X146962366Y-120448674D01*
X146901540Y-120301618D01*
X146857756Y-120173866D01*
X146839037Y-120083567D01*
X146853411Y-120048872D01*
X146853798Y-120048867D01*
X146900848Y-120012035D01*
X146913600Y-119943034D01*
X146906385Y-119879340D01*
X146870061Y-119848128D01*
X146782605Y-119837963D01*
X146709739Y-119837200D01*
X146505878Y-119837200D01*
X146301081Y-120341960D01*
G36*
X144254644Y-119839487D02*
X144136526Y-119849650D01*
X144058620Y-119872644D01*
X143998723Y-119913423D01*
X143969509Y-119941109D01*
X143881949Y-120077135D01*
X143876722Y-120221827D01*
X143927756Y-120330435D01*
X143966037Y-120402824D01*
X143943663Y-120458336D01*
X143906590Y-120494583D01*
X143837184Y-120608823D01*
X143823048Y-120753248D01*
X143863168Y-120894790D01*
X143921245Y-120972821D01*
X143978516Y-121017266D01*
X144048666Y-121044741D01*
X144152395Y-121059159D01*
X144310404Y-121064433D01*
X144408078Y-121064867D01*
X144590663Y-121064066D01*
X144704709Y-121058739D01*
X144766344Y-121044494D01*
X144791696Y-121016943D01*
X144796893Y-120971697D01*
X144796933Y-120959034D01*
X144774853Y-120873914D01*
X144733433Y-120853200D01*
X144703163Y-120838807D01*
X144684007Y-120786165D01*
X144673997Y-120683867D01*
X144415933Y-120683867D01*
X144411254Y-120792326D01*
X144383813Y-120840531D01*
X144313502Y-120852854D01*
X144276233Y-120853200D01*
X144164056Y-120838651D01*
X144086902Y-120803535D01*
X144085733Y-120802400D01*
X144040879Y-120712200D01*
X144065190Y-120621844D01*
X144145285Y-120550011D01*
X144267785Y-120515378D01*
X144291957Y-120514534D01*
X144371483Y-120521507D01*
X144406837Y-120558578D01*
X144415756Y-120649970D01*
X144415933Y-120683867D01*
X144673997Y-120683867D01*
X144673724Y-120681081D01*
X144670073Y-120509362D01*
X144669933Y-120451034D01*
X144672206Y-120259324D01*
X144676473Y-120197034D01*
X144415933Y-120197034D01*
X144407560Y-120297725D01*
X144371745Y-120338836D01*
X144318191Y-120345200D01*
X144204230Y-120320766D01*
X144143670Y-120289058D01*
X144083682Y-120209437D01*
X144094893Y-120129289D01*
X144166484Y-120069087D01*
X144270619Y-120048867D01*
X144368033Y-120055610D01*
X144407985Y-120093135D01*
X144415919Y-120187386D01*
X144415933Y-120197034D01*
X144676473Y-120197034D01*
X144680518Y-120138003D01*
X144697110Y-120072877D01*
X144724223Y-120049751D01*
X144733433Y-120048867D01*
X144784505Y-120012066D01*
X144796933Y-119943034D01*
X144793655Y-119891892D01*
X144772676Y-119860629D01*
X144717277Y-119844353D01*
X144610740Y-119838174D01*
X144436346Y-119837200D01*
X144435176Y-119837200D01*
X144254644Y-119839487D01*
X144254644Y-119839487D01*
G37*
X144254644Y-119839487D02*
X144136526Y-119849650D01*
X144058620Y-119872644D01*
X143998723Y-119913423D01*
X143969509Y-119941109D01*
X143881949Y-120077135D01*
X143876722Y-120221827D01*
X143927756Y-120330435D01*
X143966037Y-120402824D01*
X143943663Y-120458336D01*
X143906590Y-120494583D01*
X143837184Y-120608823D01*
X143823048Y-120753248D01*
X143863168Y-120894790D01*
X143921245Y-120972821D01*
X143978516Y-121017266D01*
X144048666Y-121044741D01*
X144152395Y-121059159D01*
X144310404Y-121064433D01*
X144408078Y-121064867D01*
X144590663Y-121064066D01*
X144704709Y-121058739D01*
X144766344Y-121044494D01*
X144791696Y-121016943D01*
X144796893Y-120971697D01*
X144796933Y-120959034D01*
X144774853Y-120873914D01*
X144733433Y-120853200D01*
X144703163Y-120838807D01*
X144684007Y-120786165D01*
X144673997Y-120683867D01*
X144415933Y-120683867D01*
X144411254Y-120792326D01*
X144383813Y-120840531D01*
X144313502Y-120852854D01*
X144276233Y-120853200D01*
X144164056Y-120838651D01*
X144086902Y-120803535D01*
X144085733Y-120802400D01*
X144040879Y-120712200D01*
X144065190Y-120621844D01*
X144145285Y-120550011D01*
X144267785Y-120515378D01*
X144291957Y-120514534D01*
X144371483Y-120521507D01*
X144406837Y-120558578D01*
X144415756Y-120649970D01*
X144415933Y-120683867D01*
X144673997Y-120683867D01*
X144673724Y-120681081D01*
X144670073Y-120509362D01*
X144669933Y-120451034D01*
X144672206Y-120259324D01*
X144676473Y-120197034D01*
X144415933Y-120197034D01*
X144407560Y-120297725D01*
X144371745Y-120338836D01*
X144318191Y-120345200D01*
X144204230Y-120320766D01*
X144143670Y-120289058D01*
X144083682Y-120209437D01*
X144094893Y-120129289D01*
X144166484Y-120069087D01*
X144270619Y-120048867D01*
X144368033Y-120055610D01*
X144407985Y-120093135D01*
X144415919Y-120187386D01*
X144415933Y-120197034D01*
X144676473Y-120197034D01*
X144680518Y-120138003D01*
X144697110Y-120072877D01*
X144724223Y-120049751D01*
X144733433Y-120048867D01*
X144784505Y-120012066D01*
X144796933Y-119943034D01*
X144793655Y-119891892D01*
X144772676Y-119860629D01*
X144717277Y-119844353D01*
X144610740Y-119838174D01*
X144436346Y-119837200D01*
X144435176Y-119837200D01*
X144254644Y-119839487D01*
G36*
X143128969Y-120260534D02*
X143061126Y-120432706D01*
X143005152Y-120571166D01*
X142967669Y-120659756D01*
X142955433Y-120683867D01*
X142937607Y-120647056D01*
X142895969Y-120547394D01*
X142837141Y-120401036D01*
X142781898Y-120260534D01*
X142616918Y-119837200D01*
X142373426Y-119837200D01*
X142235520Y-119840355D01*
X142162295Y-119854650D01*
X142133853Y-119887325D01*
X142129933Y-119925830D01*
X142166228Y-120010343D01*
X142214600Y-120036601D01*
X142254542Y-120054422D01*
X142279537Y-120093703D01*
X142293024Y-120171265D01*
X142298437Y-120303931D01*
X142299266Y-120451034D01*
X142297809Y-120636050D01*
X142291024Y-120753364D01*
X142275289Y-120819922D01*
X142246984Y-120852670D01*
X142210484Y-120866543D01*
X142110631Y-120877816D01*
X142026714Y-120846595D01*
X141948394Y-120762604D01*
X141865333Y-120615570D01*
X141793491Y-120456784D01*
X141563854Y-120456784D01*
X141548984Y-120499612D01*
X141494128Y-120513380D01*
X141436446Y-120514534D01*
X141287587Y-120514534D01*
X141343427Y-120376950D01*
X141387901Y-120264540D01*
X141419714Y-120179281D01*
X141420888Y-120175867D01*
X141444608Y-120149373D01*
X141476965Y-120200430D01*
X141484234Y-120218200D01*
X141541387Y-120368459D01*
X141563854Y-120456784D01*
X141793491Y-120456784D01*
X141789718Y-120448445D01*
X141714878Y-120266552D01*
X141674729Y-120148572D01*
X141666205Y-120082640D01*
X141686238Y-120056890D01*
X141688356Y-120056346D01*
X141734807Y-120008876D01*
X141748933Y-119939929D01*
X141741426Y-119878447D01*
X141704377Y-119848066D01*
X141616001Y-119837994D01*
X141541525Y-119837200D01*
X141334118Y-119837200D01*
X141128775Y-120344450D01*
X141033998Y-120570187D01*
X140960679Y-120724074D01*
X140904056Y-120814766D01*
X140859369Y-120850918D01*
X140849350Y-120852450D01*
X140789255Y-120885459D01*
X140775266Y-120959034D01*
X140780645Y-121017688D01*
X140810033Y-121049355D01*
X140883312Y-121062319D01*
X141020364Y-121064864D01*
X141029266Y-121064867D01*
X141171131Y-121061778D01*
X141247787Y-121048207D01*
X141278597Y-121017701D01*
X141283266Y-120980200D01*
X141258468Y-120911547D01*
X141223730Y-120895534D01*
X141182131Y-120864417D01*
X141186334Y-120810867D01*
X141212488Y-120760847D01*
X141271837Y-120735237D01*
X141386476Y-120726597D01*
X141437699Y-120726200D01*
X141583768Y-120733527D01*
X141664181Y-120758736D01*
X141693302Y-120794941D01*
X141684363Y-120871984D01*
X141649640Y-120902877D01*
X141590216Y-120965133D01*
X141579600Y-121003470D01*
X141593294Y-121029177D01*
X141642525Y-121046806D01*
X141739519Y-121057721D01*
X141896498Y-121063287D01*
X142125688Y-121064867D01*
X142129933Y-121064867D01*
X142354413Y-121064236D01*
X142507754Y-121060892D01*
X142603483Y-121052657D01*
X142655127Y-121037351D01*
X142676213Y-121012797D01*
X142680266Y-120976815D01*
X142680266Y-120976237D01*
X142643971Y-120891724D01*
X142595600Y-120865466D01*
X142551694Y-120844728D01*
X142526150Y-120798473D01*
X142514170Y-120707738D01*
X142510957Y-120553563D01*
X142510933Y-120530763D01*
X142512904Y-120380298D01*
X142518111Y-120269503D01*
X142525497Y-120219233D01*
X142526787Y-120218200D01*
X142547142Y-120255227D01*
X142589925Y-120355439D01*
X142648411Y-120502532D01*
X142701433Y-120641534D01*
X142776133Y-120833937D01*
X142832555Y-120959071D01*
X142878520Y-121030212D01*
X142921852Y-121060633D01*
X142950881Y-121064867D01*
X142996653Y-121052899D01*
X143040532Y-121008193D01*
X143090387Y-120917548D01*
X143154084Y-120767761D01*
X143203166Y-120641534D01*
X143270562Y-120469030D01*
X143327637Y-120330414D01*
X143367510Y-120241945D01*
X143382364Y-120218200D01*
X143390822Y-120257054D01*
X143397049Y-120359713D01*
X143399875Y-120505320D01*
X143399933Y-120530763D01*
X143397426Y-120693504D01*
X143386706Y-120790610D01*
X143362976Y-120841042D01*
X143321441Y-120863763D01*
X143315266Y-120865466D01*
X143243599Y-120922202D01*
X143230600Y-120976237D01*
X143238239Y-121024096D01*
X143273725Y-121050772D01*
X143355909Y-121062339D01*
X143503645Y-121064867D01*
X143505766Y-121064867D01*
X143654353Y-121062406D01*
X143737174Y-121050976D01*
X143773084Y-121024505D01*
X143780933Y-120976920D01*
X143780933Y-120976237D01*
X143744638Y-120891724D01*
X143696266Y-120865466D01*
X143656325Y-120847645D01*
X143631329Y-120808364D01*
X143617843Y-120730802D01*
X143612429Y-120598136D01*
X143611600Y-120451034D01*
X143613192Y-120265552D01*
X143620259Y-120147889D01*
X143636238Y-120081225D01*
X143664565Y-120048735D01*
X143696266Y-120036601D01*
X143767934Y-119979865D01*
X143780933Y-119925830D01*
X143772265Y-119875633D01*
X143732995Y-119848980D01*
X143643226Y-119838627D01*
X143537441Y-119837200D01*
X143293948Y-119837200D01*
X143128969Y-120260534D01*
X143128969Y-120260534D01*
G37*
X143128969Y-120260534D02*
X143061126Y-120432706D01*
X143005152Y-120571166D01*
X142967669Y-120659756D01*
X142955433Y-120683867D01*
X142937607Y-120647056D01*
X142895969Y-120547394D01*
X142837141Y-120401036D01*
X142781898Y-120260534D01*
X142616918Y-119837200D01*
X142373426Y-119837200D01*
X142235520Y-119840355D01*
X142162295Y-119854650D01*
X142133853Y-119887325D01*
X142129933Y-119925830D01*
X142166228Y-120010343D01*
X142214600Y-120036601D01*
X142254542Y-120054422D01*
X142279537Y-120093703D01*
X142293024Y-120171265D01*
X142298437Y-120303931D01*
X142299266Y-120451034D01*
X142297809Y-120636050D01*
X142291024Y-120753364D01*
X142275289Y-120819922D01*
X142246984Y-120852670D01*
X142210484Y-120866543D01*
X142110631Y-120877816D01*
X142026714Y-120846595D01*
X141948394Y-120762604D01*
X141865333Y-120615570D01*
X141793491Y-120456784D01*
X141563854Y-120456784D01*
X141548984Y-120499612D01*
X141494128Y-120513380D01*
X141436446Y-120514534D01*
X141287587Y-120514534D01*
X141343427Y-120376950D01*
X141387901Y-120264540D01*
X141419714Y-120179281D01*
X141420888Y-120175867D01*
X141444608Y-120149373D01*
X141476965Y-120200430D01*
X141484234Y-120218200D01*
X141541387Y-120368459D01*
X141563854Y-120456784D01*
X141793491Y-120456784D01*
X141789718Y-120448445D01*
X141714878Y-120266552D01*
X141674729Y-120148572D01*
X141666205Y-120082640D01*
X141686238Y-120056890D01*
X141688356Y-120056346D01*
X141734807Y-120008876D01*
X141748933Y-119939929D01*
X141741426Y-119878447D01*
X141704377Y-119848066D01*
X141616001Y-119837994D01*
X141541525Y-119837200D01*
X141334118Y-119837200D01*
X141128775Y-120344450D01*
X141033998Y-120570187D01*
X140960679Y-120724074D01*
X140904056Y-120814766D01*
X140859369Y-120850918D01*
X140849350Y-120852450D01*
X140789255Y-120885459D01*
X140775266Y-120959034D01*
X140780645Y-121017688D01*
X140810033Y-121049355D01*
X140883312Y-121062319D01*
X141020364Y-121064864D01*
X141029266Y-121064867D01*
X141171131Y-121061778D01*
X141247787Y-121048207D01*
X141278597Y-121017701D01*
X141283266Y-120980200D01*
X141258468Y-120911547D01*
X141223730Y-120895534D01*
X141182131Y-120864417D01*
X141186334Y-120810867D01*
X141212488Y-120760847D01*
X141271837Y-120735237D01*
X141386476Y-120726597D01*
X141437699Y-120726200D01*
X141583768Y-120733527D01*
X141664181Y-120758736D01*
X141693302Y-120794941D01*
X141684363Y-120871984D01*
X141649640Y-120902877D01*
X141590216Y-120965133D01*
X141579600Y-121003470D01*
X141593294Y-121029177D01*
X141642525Y-121046806D01*
X141739519Y-121057721D01*
X141896498Y-121063287D01*
X142125688Y-121064867D01*
X142129933Y-121064867D01*
X142354413Y-121064236D01*
X142507754Y-121060892D01*
X142603483Y-121052657D01*
X142655127Y-121037351D01*
X142676213Y-121012797D01*
X142680266Y-120976815D01*
X142680266Y-120976237D01*
X142643971Y-120891724D01*
X142595600Y-120865466D01*
X142551694Y-120844728D01*
X142526150Y-120798473D01*
X142514170Y-120707738D01*
X142510957Y-120553563D01*
X142510933Y-120530763D01*
X142512904Y-120380298D01*
X142518111Y-120269503D01*
X142525497Y-120219233D01*
X142526787Y-120218200D01*
X142547142Y-120255227D01*
X142589925Y-120355439D01*
X142648411Y-120502532D01*
X142701433Y-120641534D01*
X142776133Y-120833937D01*
X142832555Y-120959071D01*
X142878520Y-121030212D01*
X142921852Y-121060633D01*
X142950881Y-121064867D01*
X142996653Y-121052899D01*
X143040532Y-121008193D01*
X143090387Y-120917548D01*
X143154084Y-120767761D01*
X143203166Y-120641534D01*
X143270562Y-120469030D01*
X143327637Y-120330414D01*
X143367510Y-120241945D01*
X143382364Y-120218200D01*
X143390822Y-120257054D01*
X143397049Y-120359713D01*
X143399875Y-120505320D01*
X143399933Y-120530763D01*
X143397426Y-120693504D01*
X143386706Y-120790610D01*
X143362976Y-120841042D01*
X143321441Y-120863763D01*
X143315266Y-120865466D01*
X143243599Y-120922202D01*
X143230600Y-120976237D01*
X143238239Y-121024096D01*
X143273725Y-121050772D01*
X143355909Y-121062339D01*
X143503645Y-121064867D01*
X143505766Y-121064867D01*
X143654353Y-121062406D01*
X143737174Y-121050976D01*
X143773084Y-121024505D01*
X143780933Y-120976920D01*
X143780933Y-120976237D01*
X143744638Y-120891724D01*
X143696266Y-120865466D01*
X143656325Y-120847645D01*
X143631329Y-120808364D01*
X143617843Y-120730802D01*
X143612429Y-120598136D01*
X143611600Y-120451034D01*
X143613192Y-120265552D01*
X143620259Y-120147889D01*
X143636238Y-120081225D01*
X143664565Y-120048735D01*
X143696266Y-120036601D01*
X143767934Y-119979865D01*
X143780933Y-119925830D01*
X143772265Y-119875633D01*
X143732995Y-119848980D01*
X143643226Y-119838627D01*
X143537441Y-119837200D01*
X143293948Y-119837200D01*
X143128969Y-120260534D01*
G36*
X139533830Y-119839441D02*
X139457828Y-119851686D01*
X139426714Y-119882219D01*
X139420605Y-119939324D01*
X139420600Y-119943034D01*
X139442680Y-120028153D01*
X139484100Y-120048867D01*
X139511477Y-120061604D01*
X139529896Y-120108449D01*
X139540974Y-120202356D01*
X139546332Y-120356276D01*
X139547600Y-120556867D01*
X139547600Y-121064867D01*
X139668527Y-121064867D01*
X139728937Y-121056053D01*
X139788576Y-121021648D01*
X139859649Y-120949709D01*
X139954364Y-120828292D01*
X140057928Y-120683867D01*
X140167029Y-120530577D01*
X140257221Y-120406757D01*
X140318143Y-120326443D01*
X140339167Y-120302867D01*
X140345669Y-120341493D01*
X140350268Y-120442553D01*
X140351933Y-120578034D01*
X140347694Y-120732379D01*
X140332546Y-120818164D01*
X140302845Y-120851185D01*
X140288433Y-120853200D01*
X140237362Y-120890001D01*
X140224933Y-120959034D01*
X140230311Y-121017688D01*
X140259700Y-121049355D01*
X140332979Y-121062319D01*
X140470030Y-121064864D01*
X140478933Y-121064867D01*
X140619703Y-121062626D01*
X140695705Y-121050381D01*
X140726819Y-121019848D01*
X140732928Y-120962743D01*
X140732933Y-120959034D01*
X140710853Y-120873914D01*
X140669433Y-120853200D01*
X140639163Y-120838807D01*
X140620007Y-120786165D01*
X140609724Y-120681081D01*
X140606073Y-120509362D01*
X140605933Y-120451034D01*
X140608206Y-120259324D01*
X140616518Y-120138003D01*
X140633110Y-120072877D01*
X140660223Y-120049751D01*
X140669433Y-120048867D01*
X140720505Y-120012066D01*
X140732933Y-119943034D01*
X140724559Y-119876448D01*
X140683940Y-119846149D01*
X140587832Y-119838670D01*
X140553016Y-119838781D01*
X140470840Y-119842080D01*
X140407594Y-119858609D01*
X140348356Y-119900865D01*
X140278204Y-119981345D01*
X140182215Y-120112544D01*
X140119100Y-120202165D01*
X140010839Y-120354097D01*
X139919032Y-120478721D01*
X139855318Y-120560478D01*
X139833350Y-120584082D01*
X139817357Y-120556164D01*
X139805951Y-120463637D01*
X139801600Y-120326533D01*
X139801600Y-120326532D01*
X139805773Y-120171391D01*
X139820699Y-120084843D01*
X139849983Y-120051116D01*
X139865100Y-120048867D01*
X139916171Y-120012066D01*
X139928600Y-119943034D01*
X139923222Y-119884379D01*
X139893833Y-119852712D01*
X139820554Y-119839748D01*
X139683503Y-119837203D01*
X139674600Y-119837200D01*
X139533830Y-119839441D01*
X139533830Y-119839441D01*
G37*
X139533830Y-119839441D02*
X139457828Y-119851686D01*
X139426714Y-119882219D01*
X139420605Y-119939324D01*
X139420600Y-119943034D01*
X139442680Y-120028153D01*
X139484100Y-120048867D01*
X139511477Y-120061604D01*
X139529896Y-120108449D01*
X139540974Y-120202356D01*
X139546332Y-120356276D01*
X139547600Y-120556867D01*
X139547600Y-121064867D01*
X139668527Y-121064867D01*
X139728937Y-121056053D01*
X139788576Y-121021648D01*
X139859649Y-120949709D01*
X139954364Y-120828292D01*
X140057928Y-120683867D01*
X140167029Y-120530577D01*
X140257221Y-120406757D01*
X140318143Y-120326443D01*
X140339167Y-120302867D01*
X140345669Y-120341493D01*
X140350268Y-120442553D01*
X140351933Y-120578034D01*
X140347694Y-120732379D01*
X140332546Y-120818164D01*
X140302845Y-120851185D01*
X140288433Y-120853200D01*
X140237362Y-120890001D01*
X140224933Y-120959034D01*
X140230311Y-121017688D01*
X140259700Y-121049355D01*
X140332979Y-121062319D01*
X140470030Y-121064864D01*
X140478933Y-121064867D01*
X140619703Y-121062626D01*
X140695705Y-121050381D01*
X140726819Y-121019848D01*
X140732928Y-120962743D01*
X140732933Y-120959034D01*
X140710853Y-120873914D01*
X140669433Y-120853200D01*
X140639163Y-120838807D01*
X140620007Y-120786165D01*
X140609724Y-120681081D01*
X140606073Y-120509362D01*
X140605933Y-120451034D01*
X140608206Y-120259324D01*
X140616518Y-120138003D01*
X140633110Y-120072877D01*
X140660223Y-120049751D01*
X140669433Y-120048867D01*
X140720505Y-120012066D01*
X140732933Y-119943034D01*
X140724559Y-119876448D01*
X140683940Y-119846149D01*
X140587832Y-119838670D01*
X140553016Y-119838781D01*
X140470840Y-119842080D01*
X140407594Y-119858609D01*
X140348356Y-119900865D01*
X140278204Y-119981345D01*
X140182215Y-120112544D01*
X140119100Y-120202165D01*
X140010839Y-120354097D01*
X139919032Y-120478721D01*
X139855318Y-120560478D01*
X139833350Y-120584082D01*
X139817357Y-120556164D01*
X139805951Y-120463637D01*
X139801600Y-120326533D01*
X139801600Y-120326532D01*
X139805773Y-120171391D01*
X139820699Y-120084843D01*
X139849983Y-120051116D01*
X139865100Y-120048867D01*
X139916171Y-120012066D01*
X139928600Y-119943034D01*
X139923222Y-119884379D01*
X139893833Y-119852712D01*
X139820554Y-119839748D01*
X139683503Y-119837203D01*
X139674600Y-119837200D01*
X139533830Y-119839441D01*
G36*
X137896600Y-120027700D02*
X137900281Y-120144842D01*
X137921538Y-120200324D01*
X137975688Y-120217123D01*
X138023600Y-120218200D01*
X138116560Y-120204895D01*
X138149290Y-120155389D01*
X138150600Y-120133534D01*
X138167174Y-120075179D01*
X138231878Y-120051634D01*
X138298766Y-120048867D01*
X138398090Y-120055471D01*
X138438824Y-120092299D01*
X138446918Y-120184870D01*
X138446933Y-120194599D01*
X138441587Y-120286363D01*
X138409789Y-120330676D01*
X138327905Y-120348394D01*
X138267016Y-120353349D01*
X138150890Y-120369055D01*
X138098066Y-120401440D01*
X138087100Y-120451034D01*
X138102620Y-120506804D01*
X138163316Y-120536054D01*
X138267016Y-120548718D01*
X138379827Y-120561210D01*
X138431694Y-120590719D01*
X138446255Y-120658099D01*
X138446933Y-120707468D01*
X138440218Y-120805159D01*
X138402776Y-120845225D01*
X138308658Y-120853186D01*
X138298766Y-120853200D01*
X138196647Y-120843729D01*
X138155443Y-120806756D01*
X138150600Y-120768534D01*
X138130642Y-120706560D01*
X138056383Y-120684740D01*
X138023600Y-120683867D01*
X137945506Y-120689389D01*
X137908518Y-120721274D01*
X137897318Y-120802499D01*
X137896600Y-120874367D01*
X137896600Y-121064867D01*
X138362266Y-121064867D01*
X138565977Y-121063928D01*
X138699681Y-121059308D01*
X138778033Y-121048300D01*
X138815687Y-121028199D01*
X138827298Y-120996297D01*
X138827933Y-120978872D01*
X138800348Y-120897469D01*
X138764433Y-120868509D01*
X138733367Y-120838727D01*
X138713899Y-120768471D01*
X138703822Y-120643087D01*
X138700933Y-120447923D01*
X138700933Y-120446504D01*
X138703246Y-120256032D01*
X138711704Y-120135886D01*
X138728581Y-120071815D01*
X138756153Y-120049567D01*
X138764433Y-120048867D01*
X138815505Y-120012066D01*
X138827933Y-119943034D01*
X138827933Y-119837200D01*
X137896600Y-119837200D01*
X137896600Y-120027700D01*
X137896600Y-120027700D01*
G37*
X137896600Y-120027700D02*
X137900281Y-120144842D01*
X137921538Y-120200324D01*
X137975688Y-120217123D01*
X138023600Y-120218200D01*
X138116560Y-120204895D01*
X138149290Y-120155389D01*
X138150600Y-120133534D01*
X138167174Y-120075179D01*
X138231878Y-120051634D01*
X138298766Y-120048867D01*
X138398090Y-120055471D01*
X138438824Y-120092299D01*
X138446918Y-120184870D01*
X138446933Y-120194599D01*
X138441587Y-120286363D01*
X138409789Y-120330676D01*
X138327905Y-120348394D01*
X138267016Y-120353349D01*
X138150890Y-120369055D01*
X138098066Y-120401440D01*
X138087100Y-120451034D01*
X138102620Y-120506804D01*
X138163316Y-120536054D01*
X138267016Y-120548718D01*
X138379827Y-120561210D01*
X138431694Y-120590719D01*
X138446255Y-120658099D01*
X138446933Y-120707468D01*
X138440218Y-120805159D01*
X138402776Y-120845225D01*
X138308658Y-120853186D01*
X138298766Y-120853200D01*
X138196647Y-120843729D01*
X138155443Y-120806756D01*
X138150600Y-120768534D01*
X138130642Y-120706560D01*
X138056383Y-120684740D01*
X138023600Y-120683867D01*
X137945506Y-120689389D01*
X137908518Y-120721274D01*
X137897318Y-120802499D01*
X137896600Y-120874367D01*
X137896600Y-121064867D01*
X138362266Y-121064867D01*
X138565977Y-121063928D01*
X138699681Y-121059308D01*
X138778033Y-121048300D01*
X138815687Y-121028199D01*
X138827298Y-120996297D01*
X138827933Y-120978872D01*
X138800348Y-120897469D01*
X138764433Y-120868509D01*
X138733367Y-120838727D01*
X138713899Y-120768471D01*
X138703822Y-120643087D01*
X138700933Y-120447923D01*
X138700933Y-120446504D01*
X138703246Y-120256032D01*
X138711704Y-120135886D01*
X138728581Y-120071815D01*
X138756153Y-120049567D01*
X138764433Y-120048867D01*
X138815505Y-120012066D01*
X138827933Y-119943034D01*
X138827933Y-119837200D01*
X137896600Y-119837200D01*
X137896600Y-120027700D01*
G36*
X137417163Y-119839441D02*
X137341161Y-119851686D01*
X137310047Y-119882219D01*
X137303939Y-119939324D01*
X137303933Y-119943034D01*
X137326013Y-120028153D01*
X137367433Y-120048867D01*
X137397703Y-120063260D01*
X137416859Y-120115902D01*
X137427142Y-120220986D01*
X137430794Y-120392705D01*
X137430933Y-120451034D01*
X137430933Y-120853200D01*
X137282766Y-120853200D01*
X137180647Y-120843729D01*
X137139443Y-120806756D01*
X137134600Y-120768534D01*
X137109795Y-120702141D01*
X137028766Y-120683867D01*
X136963459Y-120691763D01*
X136932517Y-120730574D01*
X136923337Y-120822985D01*
X136922933Y-120874367D01*
X136922933Y-121064867D01*
X137811933Y-121064867D01*
X137811933Y-120959034D01*
X137789853Y-120873914D01*
X137748433Y-120853200D01*
X137718163Y-120838807D01*
X137699007Y-120786165D01*
X137688724Y-120681081D01*
X137685073Y-120509362D01*
X137684933Y-120451034D01*
X137687206Y-120259324D01*
X137695518Y-120138003D01*
X137712110Y-120072877D01*
X137739223Y-120049751D01*
X137748433Y-120048867D01*
X137799505Y-120012066D01*
X137811933Y-119943034D01*
X137806555Y-119884379D01*
X137777167Y-119852712D01*
X137703887Y-119839748D01*
X137566836Y-119837203D01*
X137557933Y-119837200D01*
X137417163Y-119839441D01*
X137417163Y-119839441D01*
G37*
X137417163Y-119839441D02*
X137341161Y-119851686D01*
X137310047Y-119882219D01*
X137303939Y-119939324D01*
X137303933Y-119943034D01*
X137326013Y-120028153D01*
X137367433Y-120048867D01*
X137397703Y-120063260D01*
X137416859Y-120115902D01*
X137427142Y-120220986D01*
X137430794Y-120392705D01*
X137430933Y-120451034D01*
X137430933Y-120853200D01*
X137282766Y-120853200D01*
X137180647Y-120843729D01*
X137139443Y-120806756D01*
X137134600Y-120768534D01*
X137109795Y-120702141D01*
X137028766Y-120683867D01*
X136963459Y-120691763D01*
X136932517Y-120730574D01*
X136923337Y-120822985D01*
X136922933Y-120874367D01*
X136922933Y-121064867D01*
X137811933Y-121064867D01*
X137811933Y-120959034D01*
X137789853Y-120873914D01*
X137748433Y-120853200D01*
X137718163Y-120838807D01*
X137699007Y-120786165D01*
X137688724Y-120681081D01*
X137685073Y-120509362D01*
X137684933Y-120451034D01*
X137687206Y-120259324D01*
X137695518Y-120138003D01*
X137712110Y-120072877D01*
X137739223Y-120049751D01*
X137748433Y-120048867D01*
X137799505Y-120012066D01*
X137811933Y-119943034D01*
X137806555Y-119884379D01*
X137777167Y-119852712D01*
X137703887Y-119839748D01*
X137566836Y-119837203D01*
X137557933Y-119837200D01*
X137417163Y-119839441D01*
G36*
X135915082Y-120017117D02*
X135929557Y-120131960D01*
X135962103Y-120187367D01*
X136029608Y-120208558D01*
X136044516Y-120210429D01*
X136130188Y-120207789D01*
X136159575Y-120161899D01*
X136160933Y-120136345D01*
X136176490Y-120076291D01*
X136238504Y-120051966D01*
X136309100Y-120048867D01*
X136408406Y-120055420D01*
X136449132Y-120092393D01*
X136457248Y-120185756D01*
X136457266Y-120197034D01*
X136452140Y-120291899D01*
X136420488Y-120334058D01*
X136337899Y-120344869D01*
X136287933Y-120345200D01*
X136178835Y-120350977D01*
X136130344Y-120378224D01*
X136118660Y-120441817D01*
X136118600Y-120451034D01*
X136127842Y-120519220D01*
X136171437Y-120549527D01*
X136273187Y-120556829D01*
X136287933Y-120556867D01*
X136396351Y-120561352D01*
X136444533Y-120589048D01*
X136456888Y-120661313D01*
X136457266Y-120705034D01*
X136450713Y-120804339D01*
X136413740Y-120845066D01*
X136320378Y-120853182D01*
X136309100Y-120853200D01*
X136207383Y-120844015D01*
X136166182Y-120807402D01*
X136160933Y-120765722D01*
X136144302Y-120703260D01*
X136078731Y-120688722D01*
X136044516Y-120691638D01*
X135969974Y-120709743D01*
X135933047Y-120758095D01*
X135916849Y-120861916D01*
X135915082Y-120884950D01*
X135902065Y-121064867D01*
X136838266Y-121064867D01*
X136838266Y-120959034D01*
X136816186Y-120873914D01*
X136774766Y-120853200D01*
X136744497Y-120838807D01*
X136725341Y-120786165D01*
X136715058Y-120681081D01*
X136711406Y-120509362D01*
X136711266Y-120451034D01*
X136713539Y-120259324D01*
X136721851Y-120138003D01*
X136738443Y-120072877D01*
X136765557Y-120049751D01*
X136774766Y-120048867D01*
X136825838Y-120012066D01*
X136838266Y-119943034D01*
X136838266Y-119837200D01*
X135902065Y-119837200D01*
X135915082Y-120017117D01*
X135915082Y-120017117D01*
G37*
X135915082Y-120017117D02*
X135929557Y-120131960D01*
X135962103Y-120187367D01*
X136029608Y-120208558D01*
X136044516Y-120210429D01*
X136130188Y-120207789D01*
X136159575Y-120161899D01*
X136160933Y-120136345D01*
X136176490Y-120076291D01*
X136238504Y-120051966D01*
X136309100Y-120048867D01*
X136408406Y-120055420D01*
X136449132Y-120092393D01*
X136457248Y-120185756D01*
X136457266Y-120197034D01*
X136452140Y-120291899D01*
X136420488Y-120334058D01*
X136337899Y-120344869D01*
X136287933Y-120345200D01*
X136178835Y-120350977D01*
X136130344Y-120378224D01*
X136118660Y-120441817D01*
X136118600Y-120451034D01*
X136127842Y-120519220D01*
X136171437Y-120549527D01*
X136273187Y-120556829D01*
X136287933Y-120556867D01*
X136396351Y-120561352D01*
X136444533Y-120589048D01*
X136456888Y-120661313D01*
X136457266Y-120705034D01*
X136450713Y-120804339D01*
X136413740Y-120845066D01*
X136320378Y-120853182D01*
X136309100Y-120853200D01*
X136207383Y-120844015D01*
X136166182Y-120807402D01*
X136160933Y-120765722D01*
X136144302Y-120703260D01*
X136078731Y-120688722D01*
X136044516Y-120691638D01*
X135969974Y-120709743D01*
X135933047Y-120758095D01*
X135916849Y-120861916D01*
X135915082Y-120884950D01*
X135902065Y-121064867D01*
X136838266Y-121064867D01*
X136838266Y-120959034D01*
X136816186Y-120873914D01*
X136774766Y-120853200D01*
X136744497Y-120838807D01*
X136725341Y-120786165D01*
X136715058Y-120681081D01*
X136711406Y-120509362D01*
X136711266Y-120451034D01*
X136713539Y-120259324D01*
X136721851Y-120138003D01*
X136738443Y-120072877D01*
X136765557Y-120049751D01*
X136774766Y-120048867D01*
X136825838Y-120012066D01*
X136838266Y-119943034D01*
X136838266Y-119837200D01*
X135902065Y-119837200D01*
X135915082Y-120017117D01*
G36*
X133536266Y-120027700D02*
X133540653Y-120145254D01*
X133562215Y-120200949D01*
X133613554Y-120217473D01*
X133642100Y-120218200D01*
X133725090Y-120198357D01*
X133747933Y-120133534D01*
X133777867Y-120062781D01*
X133832600Y-120048867D01*
X133871951Y-120054940D01*
X133896787Y-120083628D01*
X133910413Y-120150639D01*
X133916137Y-120271676D01*
X133917266Y-120451034D01*
X133914994Y-120642743D01*
X133906682Y-120764064D01*
X133890090Y-120829190D01*
X133862976Y-120852316D01*
X133853766Y-120853200D01*
X133802695Y-120890001D01*
X133790266Y-120959034D01*
X133795645Y-121017688D01*
X133825033Y-121049355D01*
X133898312Y-121062319D01*
X134035364Y-121064864D01*
X134044266Y-121064867D01*
X134186001Y-121061846D01*
X134262584Y-121048397D01*
X134293442Y-121017943D01*
X134298266Y-120978872D01*
X134270681Y-120897469D01*
X134234766Y-120868509D01*
X134203701Y-120838727D01*
X134184232Y-120768471D01*
X134174155Y-120643087D01*
X134171267Y-120447923D01*
X134171266Y-120446504D01*
X134172572Y-120260836D01*
X134178731Y-120144031D01*
X134193106Y-120080299D01*
X134219057Y-120053848D01*
X134255933Y-120048867D01*
X134326685Y-120078801D01*
X134340600Y-120133534D01*
X134370534Y-120204286D01*
X134425266Y-120218200D01*
X134478176Y-120205736D01*
X134503196Y-120153979D01*
X134509901Y-120041385D01*
X134509933Y-120027700D01*
X134509933Y-119837200D01*
X133536266Y-119837200D01*
X133536266Y-120027700D01*
X133536266Y-120027700D01*
G37*
X133536266Y-120027700D02*
X133540653Y-120145254D01*
X133562215Y-120200949D01*
X133613554Y-120217473D01*
X133642100Y-120218200D01*
X133725090Y-120198357D01*
X133747933Y-120133534D01*
X133777867Y-120062781D01*
X133832600Y-120048867D01*
X133871951Y-120054940D01*
X133896787Y-120083628D01*
X133910413Y-120150639D01*
X133916137Y-120271676D01*
X133917266Y-120451034D01*
X133914994Y-120642743D01*
X133906682Y-120764064D01*
X133890090Y-120829190D01*
X133862976Y-120852316D01*
X133853766Y-120853200D01*
X133802695Y-120890001D01*
X133790266Y-120959034D01*
X133795645Y-121017688D01*
X133825033Y-121049355D01*
X133898312Y-121062319D01*
X134035364Y-121064864D01*
X134044266Y-121064867D01*
X134186001Y-121061846D01*
X134262584Y-121048397D01*
X134293442Y-121017943D01*
X134298266Y-120978872D01*
X134270681Y-120897469D01*
X134234766Y-120868509D01*
X134203701Y-120838727D01*
X134184232Y-120768471D01*
X134174155Y-120643087D01*
X134171267Y-120447923D01*
X134171266Y-120446504D01*
X134172572Y-120260836D01*
X134178731Y-120144031D01*
X134193106Y-120080299D01*
X134219057Y-120053848D01*
X134255933Y-120048867D01*
X134326685Y-120078801D01*
X134340600Y-120133534D01*
X134370534Y-120204286D01*
X134425266Y-120218200D01*
X134478176Y-120205736D01*
X134503196Y-120153979D01*
X134509901Y-120041385D01*
X134509933Y-120027700D01*
X134509933Y-119837200D01*
X133536266Y-119837200D01*
X133536266Y-120027700D01*
G36*
X132929852Y-119839491D02*
X132805458Y-119849531D01*
X132720320Y-119872072D01*
X132651761Y-119911863D01*
X132613205Y-119942569D01*
X132498365Y-120086620D01*
X132459559Y-120249704D01*
X132496404Y-120414402D01*
X132608514Y-120563295D01*
X132627247Y-120579471D01*
X132695706Y-120644491D01*
X132703312Y-120696168D01*
X132665841Y-120759388D01*
X132587814Y-120830185D01*
X132517866Y-120853200D01*
X132452991Y-120879302D01*
X132435600Y-120959034D01*
X132446951Y-121031081D01*
X132497695Y-121060215D01*
X132581063Y-121064867D01*
X132661574Y-121057628D01*
X132727569Y-121025918D01*
X132797884Y-120954746D01*
X132891358Y-120829121D01*
X132909146Y-120803789D01*
X133091766Y-120542711D01*
X133105562Y-120683892D01*
X133096415Y-120808775D01*
X133052645Y-120862407D01*
X132996322Y-120932379D01*
X132985933Y-120982304D01*
X132995787Y-121028493D01*
X133038179Y-121053452D01*
X133132354Y-121063437D01*
X133239933Y-121064867D01*
X133381668Y-121061846D01*
X133458251Y-121048397D01*
X133489108Y-121017943D01*
X133493933Y-120978872D01*
X133466348Y-120897469D01*
X133430433Y-120868509D01*
X133399367Y-120838727D01*
X133379899Y-120768471D01*
X133369822Y-120643087D01*
X133366933Y-120447923D01*
X133366933Y-120446504D01*
X133369246Y-120256032D01*
X133377704Y-120135886D01*
X133394581Y-120071815D01*
X133422153Y-120049567D01*
X133430433Y-120048867D01*
X133112933Y-120048867D01*
X133112933Y-120472200D01*
X132945089Y-120472200D01*
X132815357Y-120457255D01*
X132743460Y-120406641D01*
X132733423Y-120390317D01*
X132694877Y-120252440D01*
X132731317Y-120141552D01*
X132834360Y-120069862D01*
X132967790Y-120048867D01*
X133112933Y-120048867D01*
X133430433Y-120048867D01*
X133481505Y-120012066D01*
X133493933Y-119943034D01*
X133490860Y-119892763D01*
X133470732Y-119861629D01*
X133417188Y-119845047D01*
X133313864Y-119838433D01*
X133144399Y-119837204D01*
X133116181Y-119837200D01*
X132929852Y-119839491D01*
X132929852Y-119839491D01*
G37*
X132929852Y-119839491D02*
X132805458Y-119849531D01*
X132720320Y-119872072D01*
X132651761Y-119911863D01*
X132613205Y-119942569D01*
X132498365Y-120086620D01*
X132459559Y-120249704D01*
X132496404Y-120414402D01*
X132608514Y-120563295D01*
X132627247Y-120579471D01*
X132695706Y-120644491D01*
X132703312Y-120696168D01*
X132665841Y-120759388D01*
X132587814Y-120830185D01*
X132517866Y-120853200D01*
X132452991Y-120879302D01*
X132435600Y-120959034D01*
X132446951Y-121031081D01*
X132497695Y-121060215D01*
X132581063Y-121064867D01*
X132661574Y-121057628D01*
X132727569Y-121025918D01*
X132797884Y-120954746D01*
X132891358Y-120829121D01*
X132909146Y-120803789D01*
X133091766Y-120542711D01*
X133105562Y-120683892D01*
X133096415Y-120808775D01*
X133052645Y-120862407D01*
X132996322Y-120932379D01*
X132985933Y-120982304D01*
X132995787Y-121028493D01*
X133038179Y-121053452D01*
X133132354Y-121063437D01*
X133239933Y-121064867D01*
X133381668Y-121061846D01*
X133458251Y-121048397D01*
X133489108Y-121017943D01*
X133493933Y-120978872D01*
X133466348Y-120897469D01*
X133430433Y-120868509D01*
X133399367Y-120838727D01*
X133379899Y-120768471D01*
X133369822Y-120643087D01*
X133366933Y-120447923D01*
X133366933Y-120446504D01*
X133369246Y-120256032D01*
X133377704Y-120135886D01*
X133394581Y-120071815D01*
X133422153Y-120049567D01*
X133430433Y-120048867D01*
X133112933Y-120048867D01*
X133112933Y-120472200D01*
X132945089Y-120472200D01*
X132815357Y-120457255D01*
X132743460Y-120406641D01*
X132733423Y-120390317D01*
X132694877Y-120252440D01*
X132731317Y-120141552D01*
X132834360Y-120069862D01*
X132967790Y-120048867D01*
X133112933Y-120048867D01*
X133430433Y-120048867D01*
X133481505Y-120012066D01*
X133493933Y-119943034D01*
X133490860Y-119892763D01*
X133470732Y-119861629D01*
X133417188Y-119845047D01*
X133313864Y-119838433D01*
X133144399Y-119837204D01*
X133116181Y-119837200D01*
X132929852Y-119839491D01*
G36*
X130379145Y-120239367D02*
X130266180Y-120397072D01*
X130171779Y-120525742D01*
X130106096Y-120611750D01*
X130079498Y-120641534D01*
X130072265Y-120602803D01*
X130067052Y-120501011D01*
X130064938Y-120357758D01*
X130064933Y-120350138D01*
X130067829Y-120193788D01*
X130080057Y-120102349D01*
X130106927Y-120056157D01*
X130149600Y-120036601D01*
X130221267Y-119979865D01*
X130234266Y-119925830D01*
X130226627Y-119877971D01*
X130191142Y-119851295D01*
X130108957Y-119839728D01*
X129961221Y-119837200D01*
X129959100Y-119837200D01*
X129810513Y-119839661D01*
X129727692Y-119851091D01*
X129691783Y-119877562D01*
X129683934Y-119925147D01*
X129683933Y-119925830D01*
X129720228Y-120010343D01*
X129768600Y-120036601D01*
X129804586Y-120051867D01*
X129828648Y-120085137D01*
X129843162Y-120151150D01*
X129850503Y-120264645D01*
X129853049Y-120440361D01*
X129853266Y-120561804D01*
X129853266Y-121064867D01*
X129958007Y-121064867D01*
X130016878Y-121050376D01*
X130085515Y-120999808D01*
X130174653Y-120902523D01*
X130295028Y-120747880D01*
X130342394Y-120683867D01*
X130455756Y-120531453D01*
X130550377Y-120408058D01*
X130615502Y-120327457D01*
X130639820Y-120302867D01*
X130648948Y-120341458D01*
X130655363Y-120442277D01*
X130657600Y-120573096D01*
X130654210Y-120722897D01*
X130640096Y-120808594D01*
X130609343Y-120850617D01*
X130572933Y-120865466D01*
X130501266Y-120922202D01*
X130488266Y-120976237D01*
X130495906Y-121024096D01*
X130531391Y-121050772D01*
X130613576Y-121062339D01*
X130761312Y-121064867D01*
X130763433Y-121064867D01*
X130912020Y-121062406D01*
X130994841Y-121050976D01*
X131030750Y-121024505D01*
X131038599Y-120976920D01*
X131038600Y-120976237D01*
X131002305Y-120891724D01*
X130953933Y-120865466D01*
X130913991Y-120847645D01*
X130888996Y-120808364D01*
X130875509Y-120730802D01*
X130870096Y-120598136D01*
X130869266Y-120451034D01*
X130870858Y-120265552D01*
X130877925Y-120147889D01*
X130893904Y-120081225D01*
X130922232Y-120048735D01*
X130953933Y-120036601D01*
X131025600Y-119979865D01*
X131038600Y-119925830D01*
X131027061Y-119870278D01*
X130977759Y-119844229D01*
X130868664Y-119837251D01*
X130851414Y-119837200D01*
X130664228Y-119837200D01*
X130379145Y-120239367D01*
X130379145Y-120239367D01*
G37*
X130379145Y-120239367D02*
X130266180Y-120397072D01*
X130171779Y-120525742D01*
X130106096Y-120611750D01*
X130079498Y-120641534D01*
X130072265Y-120602803D01*
X130067052Y-120501011D01*
X130064938Y-120357758D01*
X130064933Y-120350138D01*
X130067829Y-120193788D01*
X130080057Y-120102349D01*
X130106927Y-120056157D01*
X130149600Y-120036601D01*
X130221267Y-119979865D01*
X130234266Y-119925830D01*
X130226627Y-119877971D01*
X130191142Y-119851295D01*
X130108957Y-119839728D01*
X129961221Y-119837200D01*
X129959100Y-119837200D01*
X129810513Y-119839661D01*
X129727692Y-119851091D01*
X129691783Y-119877562D01*
X129683934Y-119925147D01*
X129683933Y-119925830D01*
X129720228Y-120010343D01*
X129768600Y-120036601D01*
X129804586Y-120051867D01*
X129828648Y-120085137D01*
X129843162Y-120151150D01*
X129850503Y-120264645D01*
X129853049Y-120440361D01*
X129853266Y-120561804D01*
X129853266Y-121064867D01*
X129958007Y-121064867D01*
X130016878Y-121050376D01*
X130085515Y-120999808D01*
X130174653Y-120902523D01*
X130295028Y-120747880D01*
X130342394Y-120683867D01*
X130455756Y-120531453D01*
X130550377Y-120408058D01*
X130615502Y-120327457D01*
X130639820Y-120302867D01*
X130648948Y-120341458D01*
X130655363Y-120442277D01*
X130657600Y-120573096D01*
X130654210Y-120722897D01*
X130640096Y-120808594D01*
X130609343Y-120850617D01*
X130572933Y-120865466D01*
X130501266Y-120922202D01*
X130488266Y-120976237D01*
X130495906Y-121024096D01*
X130531391Y-121050772D01*
X130613576Y-121062339D01*
X130761312Y-121064867D01*
X130763433Y-121064867D01*
X130912020Y-121062406D01*
X130994841Y-121050976D01*
X131030750Y-121024505D01*
X131038599Y-120976920D01*
X131038600Y-120976237D01*
X131002305Y-120891724D01*
X130953933Y-120865466D01*
X130913991Y-120847645D01*
X130888996Y-120808364D01*
X130875509Y-120730802D01*
X130870096Y-120598136D01*
X130869266Y-120451034D01*
X130870858Y-120265552D01*
X130877925Y-120147889D01*
X130893904Y-120081225D01*
X130922232Y-120048735D01*
X130953933Y-120036601D01*
X131025600Y-119979865D01*
X131038600Y-119925830D01*
X131027061Y-119870278D01*
X130977759Y-119844229D01*
X130868664Y-119837251D01*
X130851414Y-119837200D01*
X130664228Y-119837200D01*
X130379145Y-120239367D01*
G36*
X129217847Y-119839661D02*
X129135025Y-119851091D01*
X129099116Y-119877562D01*
X129091267Y-119925147D01*
X129091266Y-119925830D01*
X129127562Y-120010343D01*
X129175933Y-120036601D01*
X129215875Y-120054422D01*
X129240871Y-120093703D01*
X129254357Y-120171265D01*
X129259770Y-120303931D01*
X129260600Y-120451034D01*
X129259008Y-120636515D01*
X129251941Y-120754178D01*
X129235962Y-120820842D01*
X129207635Y-120853332D01*
X129175933Y-120865466D01*
X129104266Y-120922202D01*
X129091266Y-120976237D01*
X129098906Y-121024096D01*
X129134391Y-121050772D01*
X129216576Y-121062339D01*
X129364312Y-121064867D01*
X129366433Y-121064867D01*
X129515020Y-121062406D01*
X129597841Y-121050976D01*
X129633750Y-121024505D01*
X129641599Y-120976920D01*
X129641600Y-120976237D01*
X129605305Y-120891724D01*
X129556933Y-120865466D01*
X129516991Y-120847645D01*
X129491996Y-120808364D01*
X129478509Y-120730802D01*
X129473096Y-120598136D01*
X129472266Y-120451034D01*
X129473858Y-120265552D01*
X129480925Y-120147889D01*
X129496904Y-120081225D01*
X129525232Y-120048735D01*
X129556933Y-120036601D01*
X129628600Y-119979865D01*
X129641600Y-119925830D01*
X129633961Y-119877971D01*
X129598475Y-119851295D01*
X129516290Y-119839728D01*
X129368554Y-119837200D01*
X129366433Y-119837200D01*
X129217847Y-119839661D01*
X129217847Y-119839661D01*
G37*
X129217847Y-119839661D02*
X129135025Y-119851091D01*
X129099116Y-119877562D01*
X129091267Y-119925147D01*
X129091266Y-119925830D01*
X129127562Y-120010343D01*
X129175933Y-120036601D01*
X129215875Y-120054422D01*
X129240871Y-120093703D01*
X129254357Y-120171265D01*
X129259770Y-120303931D01*
X129260600Y-120451034D01*
X129259008Y-120636515D01*
X129251941Y-120754178D01*
X129235962Y-120820842D01*
X129207635Y-120853332D01*
X129175933Y-120865466D01*
X129104266Y-120922202D01*
X129091266Y-120976237D01*
X129098906Y-121024096D01*
X129134391Y-121050772D01*
X129216576Y-121062339D01*
X129364312Y-121064867D01*
X129366433Y-121064867D01*
X129515020Y-121062406D01*
X129597841Y-121050976D01*
X129633750Y-121024505D01*
X129641599Y-120976920D01*
X129641600Y-120976237D01*
X129605305Y-120891724D01*
X129556933Y-120865466D01*
X129516991Y-120847645D01*
X129491996Y-120808364D01*
X129478509Y-120730802D01*
X129473096Y-120598136D01*
X129472266Y-120451034D01*
X129473858Y-120265552D01*
X129480925Y-120147889D01*
X129496904Y-120081225D01*
X129525232Y-120048735D01*
X129556933Y-120036601D01*
X129628600Y-119979865D01*
X129641600Y-119925830D01*
X129633961Y-119877971D01*
X129598475Y-119851295D01*
X129516290Y-119839728D01*
X129368554Y-119837200D01*
X129366433Y-119837200D01*
X129217847Y-119839661D01*
M02*
