<?xml-stylesheet href="https://s3.amazonaws.com/maker.works.boards/css/blackpcb.css" type="text/css"?><svg xmlns="http://www.w3.org/2000/svg" version="1.1" xmlns:xlink="http://www.w3.org/1999/xlink" stroke-width="0" stroke-linecap="round" stroke-linejoin="round" width="2.3000000000000003in" height="0.7000000000000001in" id="pcb_top" viewBox="4300 -4575 2300 700"><defs><circle cx="0" cy="0" r="15" id="tool-T10-pad-1000"/><circle cx="0" cy="0" r="20" id="tool-T11-pad-1001"/><circle cx="0" cy="0" r="43.5" id="tool-T12-pad-1002"/><circle cx="0" cy="0" r="49.2" id="tool-D11-pad-1019"/><circle cx="0" cy="0" r="30" id="tool-D12-pad-1020"/><rect x="-34" y="-40" width="68" height="80" id="tool-D13-pad-1021"/><rect x="-34" y="-40" width="68" height="80" rx="34" ry="34" id="tool-D14-pad-1022"/><circle cx="0" cy="0" r="57.1" id="tool-D11-pad-1029"/><circle cx="0" cy="0" r="37.85" id="tool-D12-pad-1030"/><rect x="-41.85" y="-47.85" width="83.7" height="95.7" id="tool-D13-pad-1031"/><rect x="-41.85" y="-47.85" width="83.7" height="95.7" rx="41.85" ry="41.85" id="tool-D14-pad-1032"/><g id="pcb_top-cu" fill="currentColor" stroke="currentColor"><use x="6475" y="-4225" xlink:href="#tool-D11-pad-1019"/><use x="4425" y="-4225" xlink:href="#tool-D11-pad-1019"/><use x="4600" y="-4375" xlink:href="#tool-D12-pad-1020"/><use x="4700" y="-4375" xlink:href="#tool-D12-pad-1020"/><use x="4800" y="-4375" xlink:href="#tool-D12-pad-1020"/><use x="4900" y="-4375" xlink:href="#tool-D12-pad-1020"/><use x="5000" y="-4375" xlink:href="#tool-D12-pad-1020"/><use x="5000" y="-4075" xlink:href="#tool-D12-pad-1020"/><use x="4900" y="-4075" xlink:href="#tool-D12-pad-1020"/><use x="4800" y="-4075" xlink:href="#tool-D12-pad-1020"/><use x="4700" y="-4075" xlink:href="#tool-D12-pad-1020"/><use x="4600" y="-4075" xlink:href="#tool-D12-pad-1020"/><use x="5250" y="-4375" xlink:href="#tool-D12-pad-1020"/><use x="5350" y="-4375" xlink:href="#tool-D12-pad-1020"/><use x="5450" y="-4375" xlink:href="#tool-D12-pad-1020"/><use x="5550" y="-4375" xlink:href="#tool-D12-pad-1020"/><use x="5650" y="-4375" xlink:href="#tool-D12-pad-1020"/><use x="5650" y="-4075" xlink:href="#tool-D12-pad-1020"/><use x="5550" y="-4075" xlink:href="#tool-D12-pad-1020"/><use x="5450" y="-4075" xlink:href="#tool-D12-pad-1020"/><use x="5350" y="-4075" xlink:href="#tool-D12-pad-1020"/><use x="5250" y="-4075" xlink:href="#tool-D12-pad-1020"/><use x="5900" y="-4375" xlink:href="#tool-D12-pad-1020"/><use x="6000" y="-4375" xlink:href="#tool-D12-pad-1020"/><use x="6100" y="-4375" xlink:href="#tool-D12-pad-1020"/><use x="6200" y="-4375" xlink:href="#tool-D12-pad-1020"/><use x="6300" y="-4375" xlink:href="#tool-D12-pad-1020"/><use x="6300" y="-4075" xlink:href="#tool-D12-pad-1020"/><use x="6200" y="-4075" xlink:href="#tool-D12-pad-1020"/><use x="6100" y="-4075" xlink:href="#tool-D12-pad-1020"/><use x="6000" y="-4075" xlink:href="#tool-D12-pad-1020"/><use x="5900" y="-4075" xlink:href="#tool-D12-pad-1020"/><use x="4800" y="-3950" xlink:href="#tool-D13-pad-1021"/><use x="4900" y="-3950" xlink:href="#tool-D14-pad-1022"/><use x="5000" y="-3950" xlink:href="#tool-D14-pad-1022"/><use x="5100" y="-3950" xlink:href="#tool-D14-pad-1022"/><use x="5200" y="-3950" xlink:href="#tool-D14-pad-1022"/><use x="5300" y="-3950" xlink:href="#tool-D14-pad-1022"/><use x="5400" y="-3950" xlink:href="#tool-D14-pad-1022"/><use x="5500" y="-3950" xlink:href="#tool-D14-pad-1022"/><use x="5600" y="-3950" xlink:href="#tool-D14-pad-1022"/><use x="5700" y="-3950" xlink:href="#tool-D14-pad-1022"/><use x="5800" y="-3950" xlink:href="#tool-D14-pad-1022"/><use x="5900" y="-3950" xlink:href="#tool-D14-pad-1022"/><use x="6000" y="-3950" xlink:href="#tool-D14-pad-1022"/><use x="6100" y="-3950" xlink:href="#tool-D14-pad-1022"/><path stroke-width="9.8" fill="none" d="M 4643.5 -4331.5 L 4600 -4375 M 5206.5 -4331.5 L 4643.5 -4331.5 M 5250 -4375 L 5206.5 -4331.5 M 5350 -4420.4 L 5350 -4375 M 5954.6 -4420.4 L 5350 -4420.4 M 6000 -4375 L 5954.6 -4420.4 M 4745.4 -4420.4 L 4700 -4375 M 5350 -4420.4 L 4745.4 -4420.4 M 5493.2 -4331.8 L 5450 -4375 M 6056.8 -4331.8 L 5493.2 -4331.8 M 6100 -4375 L 6056.8 -4331.8"/><path stroke-width="11.8" fill="none" d="M 4928.8 -4003.8 L 5000 -4075 M 4900 -4003.8 L 4928.8 -4003.8 M 4900 -3950 L 4900 -4003.8"/><path stroke-width="9.8" fill="none" d="M 6156.8 -4031.8 L 6200 -4075 M 5593.2 -4031.8 L 6156.8 -4031.8 M 5550 -4075 L 5593.2 -4031.8 M 6018.6 -4156.4 L 6100 -4075 M 5241.9 -4156.4 L 6018.6 -4156.4 M 5151.4 -4065.8 L 5241.9 -4156.4 M 5151.4 -3896.7 L 5151.4 -4065.8 M 4878.8 -3896.7 L 5151.4 -3896.7 M 4846.8 -3928.7 L 4878.8 -3896.7 M 4846.8 -4028.2 L 4846.8 -3928.7 M 4800 -4075 L 4846.8 -4028.2 M 5404 -4029 L 5450 -4075 M 5305 -4029 L 5404 -4029 M 5250 -3974 L 5305 -4029 M 5250 -3927.1 L 5250 -3974 M 5219.6 -3896.7 L 5250 -3927.1 M 5151.4 -3896.7 L 5219.6 -3896.7 M 5293.2 -4118.2 L 5250 -4075 M 5856.8 -4118.2 L 5293.2 -4118.2 M 5900 -4075 L 5856.8 -4118.2"/><path stroke-width="11.8" fill="none" d="M 6235.2 -4010.2 L 6300 -4075 M 5384.1 -4010.2 L 6235.2 -4010.2 M 5347.8 -3973.9 L 5384.1 -4010.2 M 5347.8 -3950 L 5347.8 -3973.9 M 5300 -3950 L 5347.8 -3950 M 5937.4 -4137.6 L 6000 -4075 M 5249.6 -4137.6 L 5937.4 -4137.6 M 5200 -4088 L 5249.6 -4137.6 M 5200 -3950 L 5200 -4088"/></g><mask id="pcb_top_mech-mask" fill="#fff" stroke="#fff" fill-rule="evenodd"><path stroke-width="0" d="M 4300 -4475 L 4400 -4575 L 6500 -4575 L 6600 -4475 L 6500 -3875 L 4400 -3875 Z"/><g id="pcb_top-drl" fill="#000" stroke="#000"><use x="4600" y="-4075" xlink:href="#tool-T10-pad-1000"/><use x="4600" y="-4375" xlink:href="#tool-T10-pad-1000"/><use x="4700" y="-4075" xlink:href="#tool-T10-pad-1000"/><use x="4700" y="-4375" xlink:href="#tool-T10-pad-1000"/><use x="4800" y="-4075" xlink:href="#tool-T10-pad-1000"/><use x="4800" y="-4375" xlink:href="#tool-T10-pad-1000"/><use x="4900" y="-4075" xlink:href="#tool-T10-pad-1000"/><use x="4900" y="-4375" xlink:href="#tool-T10-pad-1000"/><use x="5000" y="-4075" xlink:href="#tool-T10-pad-1000"/><use x="5000" y="-4375" xlink:href="#tool-T10-pad-1000"/><use x="5250" y="-4075" xlink:href="#tool-T10-pad-1000"/><use x="5250" y="-4375" xlink:href="#tool-T10-pad-1000"/><use x="5350" y="-4075" xlink:href="#tool-T10-pad-1000"/><use x="5350" y="-4375" xlink:href="#tool-T10-pad-1000"/><use x="5450" y="-4075" xlink:href="#tool-T10-pad-1000"/><use x="5450" y="-4375" xlink:href="#tool-T10-pad-1000"/><use x="5550" y="-4075" xlink:href="#tool-T10-pad-1000"/><use x="5550" y="-4375" xlink:href="#tool-T10-pad-1000"/><use x="5650" y="-4075" xlink:href="#tool-T10-pad-1000"/><use x="5650" y="-4375" xlink:href="#tool-T10-pad-1000"/><use x="5900" y="-4075" xlink:href="#tool-T10-pad-1000"/><use x="5900" y="-4375" xlink:href="#tool-T10-pad-1000"/><use x="6000" y="-4075" xlink:href="#tool-T10-pad-1000"/><use x="6000" y="-4375" xlink:href="#tool-T10-pad-1000"/><use x="6100" y="-4075" xlink:href="#tool-T10-pad-1000"/><use x="6100" y="-4375" xlink:href="#tool-T10-pad-1000"/><use x="6200" y="-4075" xlink:href="#tool-T10-pad-1000"/><use x="6200" y="-4375" xlink:href="#tool-T10-pad-1000"/><use x="6300" y="-4075" xlink:href="#tool-T10-pad-1000"/><use x="6300" y="-4375" xlink:href="#tool-T10-pad-1000"/><use x="4800" y="-3950" xlink:href="#tool-T11-pad-1001"/><use x="4900" y="-3950" xlink:href="#tool-T11-pad-1001"/><use x="5000" y="-3950" xlink:href="#tool-T11-pad-1001"/><use x="5100" y="-3950" xlink:href="#tool-T11-pad-1001"/><use x="5200" y="-3950" xlink:href="#tool-T11-pad-1001"/><use x="5300" y="-3950" xlink:href="#tool-T11-pad-1001"/><use x="5400" y="-3950" xlink:href="#tool-T11-pad-1001"/><use x="5500" y="-3950" xlink:href="#tool-T11-pad-1001"/><use x="5600" y="-3950" xlink:href="#tool-T11-pad-1001"/><use x="5700" y="-3950" xlink:href="#tool-T11-pad-1001"/><use x="5800" y="-3950" xlink:href="#tool-T11-pad-1001"/><use x="5900" y="-3950" xlink:href="#tool-T11-pad-1001"/><use x="6000" y="-3950" xlink:href="#tool-T11-pad-1001"/><use x="6100" y="-3950" xlink:href="#tool-T11-pad-1001"/><use x="4425" y="-4225" xlink:href="#tool-T12-pad-1002"/><use x="6475" y="-4225" xlink:href="#tool-T12-pad-1002"/></g></mask></defs><g mask="url(#pcb_top_mech-mask)" transform="translate(0,-8450) scale(1,-1)"><rect x="4300" y="-4575" width="2300" height="700" fill="currentColor" class="pcb_board-fr4"/><use class="pcb_board-cu" xlink:href="#pcb_top-cu"/><g><defs><g id="pcb_top-sm" fill="currentColor" stroke="currentColor"><use x="6475" y="-4225" xlink:href="#tool-D11-pad-1029"/><use x="4425" y="-4225" xlink:href="#tool-D11-pad-1029"/><use x="4600" y="-4375" xlink:href="#tool-D12-pad-1030"/><use x="4700" y="-4375" xlink:href="#tool-D12-pad-1030"/><use x="4800" y="-4375" xlink:href="#tool-D12-pad-1030"/><use x="4900" y="-4375" xlink:href="#tool-D12-pad-1030"/><use x="5000" y="-4375" xlink:href="#tool-D12-pad-1030"/><use x="5000" y="-4075" xlink:href="#tool-D12-pad-1030"/><use x="4900" y="-4075" xlink:href="#tool-D12-pad-1030"/><use x="4800" y="-4075" xlink:href="#tool-D12-pad-1030"/><use x="4700" y="-4075" xlink:href="#tool-D12-pad-1030"/><use x="4600" y="-4075" xlink:href="#tool-D12-pad-1030"/><use x="5250" y="-4375" xlink:href="#tool-D12-pad-1030"/><use x="5350" y="-4375" xlink:href="#tool-D12-pad-1030"/><use x="5450" y="-4375" xlink:href="#tool-D12-pad-1030"/><use x="5550" y="-4375" xlink:href="#tool-D12-pad-1030"/><use x="5650" y="-4375" xlink:href="#tool-D12-pad-1030"/><use x="5650" y="-4075" xlink:href="#tool-D12-pad-1030"/><use x="5550" y="-4075" xlink:href="#tool-D12-pad-1030"/><use x="5450" y="-4075" xlink:href="#tool-D12-pad-1030"/><use x="5350" y="-4075" xlink:href="#tool-D12-pad-1030"/><use x="5250" y="-4075" xlink:href="#tool-D12-pad-1030"/><use x="5900" y="-4375" xlink:href="#tool-D12-pad-1030"/><use x="6000" y="-4375" xlink:href="#tool-D12-pad-1030"/><use x="6100" y="-4375" xlink:href="#tool-D12-pad-1030"/><use x="6200" y="-4375" xlink:href="#tool-D12-pad-1030"/><use x="6300" y="-4375" xlink:href="#tool-D12-pad-1030"/><use x="6300" y="-4075" xlink:href="#tool-D12-pad-1030"/><use x="6200" y="-4075" xlink:href="#tool-D12-pad-1030"/><use x="6100" y="-4075" xlink:href="#tool-D12-pad-1030"/><use x="6000" y="-4075" xlink:href="#tool-D12-pad-1030"/><use x="5900" y="-4075" xlink:href="#tool-D12-pad-1030"/><use x="4800" y="-3950" xlink:href="#tool-D13-pad-1031"/><use x="4900" y="-3950" xlink:href="#tool-D14-pad-1032"/><use x="5000" y="-3950" xlink:href="#tool-D14-pad-1032"/><use x="5100" y="-3950" xlink:href="#tool-D14-pad-1032"/><use x="5200" y="-3950" xlink:href="#tool-D14-pad-1032"/><use x="5300" y="-3950" xlink:href="#tool-D14-pad-1032"/><use x="5400" y="-3950" xlink:href="#tool-D14-pad-1032"/><use x="5500" y="-3950" xlink:href="#tool-D14-pad-1032"/><use x="5600" y="-3950" xlink:href="#tool-D14-pad-1032"/><use x="5700" y="-3950" xlink:href="#tool-D14-pad-1032"/><use x="5800" y="-3950" xlink:href="#tool-D14-pad-1032"/><use x="5900" y="-3950" xlink:href="#tool-D14-pad-1032"/><use x="6000" y="-3950" xlink:href="#tool-D14-pad-1032"/><use x="6100" y="-3950" xlink:href="#tool-D14-pad-1032"/></g><mask id="pcb_top-sm_mask" color="#000"><rect x="4300" y="-4575" width="2300" height="700" fill="#fff"/><use xlink:href="#pcb_top-sm"/></mask><mask id="pcb_top-cu_finish-mask" color="#fff"><use xlink:href="#pcb_top-cu"/></mask></defs><g mask="url(#pcb_top-sm_mask)"><rect x="4300" y="-4575" width="2300" height="700" fill="currentColor" class="pcb_board-sm"/><g id="pcb_top-ss" class="pcb_board-ss" fill="currentColor" stroke="currentColor"><path stroke-width="5.9" fill="none" d="M 4500 -4425 L 5100 -4425 M 4500 -4425 L 4500 -4025 M 5100 -4425 L 4500 -4425 M 5100 -4025 L 5100 -4425 M 5100 -4425 L 5100 -4025 M 4500 -4025 L 5100 -4025 M 5150 -4425 L 5750 -4425 M 5150 -4425 L 5150 -4025 M 5750 -4425 L 5150 -4425 M 5750 -4025 L 5750 -4425 M 5750 -4425 L 5750 -4025 M 5150 -4025 L 5750 -4025 M 5800 -4425 L 6400 -4425 M 5800 -4425 L 5800 -4025 M 6400 -4425 L 5800 -4425 M 6400 -4025 L 6400 -4425 M 6400 -4425 L 6400 -4025 M 5800 -4025 L 6400 -4025"/><path d="M 5707.2 -4556.8 L 5193.2 -4556.8 L 5193.2 -4547.1 L 5601.2 -4547.1 L 5601.4 -4547.7 L 5602.2 -4547.7 L 5602.3 -4547.6 L 5610.9 -4547.6 L 5611.2 -4547.8 L 5611.2 -4547.8 L 5611.7 -4547.7 L 5629.9 -4547.7 L 5630.2 -4547.8 L 5631.1 -4547.5 L 5631.2 -4547.5 L 5638.8 -4547.5 L 5639.1 -4547.8 L 5639.2 -4547.8 L 5640.2 -4547.5 L 5640.6 -4547.3 L 5647.8 -4547.3 L 5647.9 -4547.8 L 5648.2 -4547.8 L 5649 -4547.6 L 5657.3 -4547.6 L 5657.8 -4547.8 L 5658 -4547.8 L 5659 -4547.6 L 5666.6 -4547.6 L 5667.2 -4547.8 L 5667.2 -4547.8 L 5668.1 -4547.6 L 5675.4 -4547.6 L 5676.1 -4547.8 L 5676.2 -4547.8 L 5677.8 -4547.4 L 5678.2 -4547.1 L 5685.1 -4547.1 L 5685.3 -4547.7 L 5686.2 -4547.8 L 5686.3 -4547.8 L 5692.8 -4547.8 L 5695.6 -4547.8 L 5697.8 -4547.4 L 5698.8 -4546.4 L 5699.1 -4544.1 L 5699 -4543.3 L 5698.6 -4542.6 L 5697.5 -4543.1 L 5695.8 -4544.8 L 5692.8 -4547.8 L 5686.3 -4547.8 L 5688.6 -4547.1 L 5691.8 -4544.7 L 5694.1 -4542.5 L 5697.2 -4539.1 L 5698.8 -4536.6 L 5699 -4534.9 L 5698.7 -4534.1 L 5698 -4534.2 L 5696.6 -4535.2 L 5694.2 -4537.3 L 5691.2 -4540.3 L 5688 -4543.6 L 5686 -4545.8 L 5685.1 -4547.1 L 5678.2 -4547.1 L 5679.9 -4546 L 5683 -4543.4 L 5687 -4539.5 L 5689.1 -4537.5 L 5693.4 -4533 L 5696.4 -4529.7 L 5698.2 -4527.4 L 5699 -4525.7 L 5699.1 -4524.9 L 5698.7 -4524.4 L 5698 -4524.5 L 5696.5 -4525.4 L 5694.3 -4527.4 L 5691 -4530.5 L 5686.6 -4535 L 5686.2 -4535.3 L 5681.8 -4539.8 L 5678.6 -4543.1 L 5676.6 -4545.4 L 5675.6 -4546.8 L 5675.4 -4547.6 L 5668.1 -4547.6 L 5668.5 -4547.5 L 5670.4 -4546.2 L 5673.1 -4544 L 5676.7 -4540.7 L 5681.4 -4536.2 L 5684.6 -4533 L 5689.8 -4527.7 L 5693.7 -4523.6 L 5696.5 -4520.5 L 5698.2 -4518.3 L 5699 -4516.7 L 5699.1 -4516 L 5698.7 -4515.5 L 5697.9 -4515.6 L 5696.5 -4516.6 L 5694.3 -4518.5 L 5691.2 -4521.5 L 5686.9 -4525.6 L 5681.7 -4530.8 L 5676.4 -4536.2 L 5672.3 -4540.4 L 5669.4 -4543.4 L 5667.6 -4545.6 L 5666.7 -4546.9 L 5666.6 -4547.6 L 5659 -4547.6 L 5659.1 -4547.6 L 5660.6 -4546.7 L 5662.7 -4545.2 L 5665.4 -4542.7 L 5669.1 -4539.3 L 5673.9 -4534.7 L 5679.8 -4528.8 L 5680.1 -4528.5 L 5686.2 -4522.3 L 5691 -4517.4 L 5694.5 -4513.6 L 5697 -4510.7 L 5698.4 -4508.7 L 5699 -4507.4 L 5699.1 -4507.1 L 5698.7 -4506.7 L 5697.8 -4507 L 5696.2 -4508.1 L 5693.9 -4510.2 L 5690.5 -4513.2 L 5686.1 -4517.4 L 5680.6 -4522.9 L 5677 -4526.4 L 5670.9 -4532.5 L 5666 -4537.3 L 5662.4 -4541.1 L 5659.8 -4543.8 L 5658.2 -4545.7 L 5657.4 -4546.9 L 5657.3 -4547.6 L 5649 -4547.6 L 5649.3 -4547.5 L 5650.9 -4546.5 L 5653.2 -4544.6 L 5656.3 -4541.8 L 5660.4 -4538 L 5665.6 -4532.9 L 5671.9 -4526.6 L 5675.1 -4523.5 L 5681.9 -4516.6 L 5687.4 -4511 L 5691.7 -4506.5 L 5694.9 -4503.1 L 5697.1 -4500.5 L 5698.4 -4498.7 L 5699 -4497.4 L 5699.1 -4497 L 5698.7 -4496.6 L 5698 -4496.9 L 5696.5 -4497.8 L 5694.4 -4499.7 L 5691.4 -4502.4 L 5687.5 -4506.2 L 5682.4 -4511.2 L 5676.1 -4517.4 L 5672.2 -4521.3 L 5665.3 -4528.3 L 5659.7 -4533.9 L 5655.3 -4538.4 L 5652 -4541.9 L 5649.8 -4544.5 L 5648.4 -4546.2 L 5647.8 -4547.3 L 5640.6 -4547.3 L 5641.7 -4546.5 L 5643.9 -4544.8 L 5646.9 -4542.1 L 5650.9 -4538.4 L 5655.8 -4533.6 L 5661.9 -4527.6 L 5669.2 -4520.3 L 5670.6 -4519 L 5678 -4511.5 L 5684.2 -4505.3 L 5689.1 -4500.2 L 5692.9 -4496.2 L 5695.7 -4493.1 L 5697.6 -4490.8 L 5698.7 -4489.2 L 5699.1 -4488.2 L 5699.1 -4488 L 5698.8 -4487.7 L 5698 -4487.9 L 5696.6 -4488.9 L 5694.4 -4490.7 L 5691.5 -4493.4 L 5687.6 -4497.1 L 5682.7 -4501.9 L 5676.6 -4507.9 L 5669.3 -4515.2 L 5667.7 -4516.8 L 5660.2 -4524.4 L 5653.9 -4530.7 L 5648.9 -4535.8 L 5645 -4539.8 L 5642.2 -4542.9 L 5640.3 -4545.2 L 5639.2 -4546.6 L 5638.8 -4547.5 L 5631.2 -4547.5 L 5632.6 -4546.6 L 5634.7 -4544.9 L 5637.6 -4542.3 L 5641.4 -4538.7 L 5646.2 -4534.1 L 5652.1 -4528.4 L 5659.1 -4521.4 L 5666.1 -4514.5 L 5674.1 -4506.4 L 5680.9 -4499.6 L 5686.4 -4494 L 5690.7 -4489.4 L 5694.1 -4485.8 L 5696.5 -4483.1 L 5698 -4481.1 L 5698.9 -4479.8 L 5699.1 -4479 L 5698.8 -4478.7 L 5698 -4479 L 5696.6 -4480 L 5694.5 -4481.8 L 5691.6 -4484.4 L 5687.8 -4488 L 5683 -4492.7 L 5677 -4498.5 L 5669.9 -4505.6 L 5663.2 -4512.3 L 5655.1 -4520.5 L 5648.2 -4527.4 L 5642.7 -4533 L 5638.2 -4537.6 L 5634.8 -4541.2 L 5632.4 -4543.9 L 5630.8 -4545.8 L 5630 -4547 L 5629.9 -4547.7 L 5611.7 -4547.7 L 5612 -4547.5 L 5612.3 -4547.4 L 5620.1 -4547.4 L 5620.3 -4547.6 L 5620.4 -4547.6 L 5621.4 -4547.2 L 5623.1 -4546 L 5625.5 -4543.9 L 5628.9 -4540.9 L 5633.2 -4536.9 L 5638.5 -4531.8 L 5645 -4525.4 L 5652.7 -4517.8 L 5661.2 -4509.5 L 5669.9 -4500.8 L 5677.3 -4493.4 L 5683.5 -4487.2 L 5688.5 -4482 L 5692.4 -4477.9 L 5695.3 -4474.8 L 5697.3 -4472.4 L 5698.5 -4470.8 L 5699 -4469.7 L 5699 -4469.5 L 5698.7 -4469.3 L 5697.8 -4469.6 L 5696.4 -4470.8 L 5694.1 -4472.7 L 5691.1 -4475.4 L 5687.1 -4479.2 L 5682.1 -4484 L 5676.1 -4489.9 L 5668.8 -4497.1 L 5660.2 -4505.6 L 5658.2 -4507.6 L 5649.4 -4516.4 L 5641.9 -4523.9 L 5635.6 -4530.2 L 5630.6 -4535.4 L 5626.6 -4539.5 L 5623.7 -4542.7 L 5621.7 -4545 L 5620.5 -4546.5 L 5620.1 -4547.4 L 5612.3 -4547.4 L 5613.4 -4546.6 L 5615.4 -4545 L 5618.2 -4542.6 L 5621.8 -4539.2 L 5626.3 -4534.9 L 5631.8 -4529.5 L 5638.5 -4523 L 5646.3 -4515.2 L 5655.4 -4506.1 L 5656.6 -4505 L 5665.8 -4495.8 L 5673.7 -4487.8 L 5680.3 -4481.1 L 5685.7 -4475.5 L 5690.1 -4470.9 L 5693.5 -4467.3 L 5696 -4464.5 L 5697.7 -4462.4 L 5698.7 -4461 L 5699.1 -4460.1 L 5699.1 -4460 L 5698.8 -4459.7 L 5698 -4460.1 L 5696.6 -4461.1 L 5694.5 -4462.8 L 5691.7 -4465.4 L 5688 -4468.9 L 5683.4 -4473.4 L 5677.7 -4479 L 5670.9 -4485.7 L 5662.8 -4493.7 L 5653.7 -4502.8 L 5644.4 -4512.1 L 5636.5 -4520.1 L 5629.8 -4526.9 L 5624.3 -4532.5 L 5619.8 -4537.1 L 5616.4 -4540.8 L 5613.9 -4543.5 L 5612.2 -4545.6 L 5611.2 -4546.9 L 5610.9 -4547.6 L 5602.3 -4547.6 L 5603.5 -4547 L 5605.4 -4545.5 L 5608.2 -4543.3 L 5611.7 -4540 L 5616.2 -4535.8 L 5621.7 -4530.6 L 5628.2 -4524.2 L 5636 -4516.5 L 5645 -4507.6 L 5652 -4500.6 L 5661.8 -4490.7 L 5670.4 -4482.1 L 5677.6 -4474.7 L 5683.7 -4468.5 L 5688.6 -4463.3 L 5692.5 -4459.2 L 5695.4 -4455.9 L 5697.5 -4453.4 L 5698.7 -4451.6 L 5699.1 -4450.5 L 5699 -4449.9 L 5698.5 -4449.8 L 5697.6 -4450.5 L 5695.5 -4452.5 L 5692.3 -4455.6 L 5688.1 -4459.7 L 5683.1 -4464.7 L 5677.3 -4470.4 L 5671 -4476.6 L 5664.2 -4483.3 L 5657.2 -4490.4 L 5650 -4497.5 L 5642.9 -4504.7 L 5635.8 -4511.8 L 5629.1 -4518.6 L 5622.7 -4525 L 5616.9 -4530.8 L 5611.8 -4536 L 5607.6 -4540.3 L 5604.3 -4543.7 L 5602.1 -4546 L 5601.2 -4547 L 5601.2 -4547.1 L 5193.2 -4547.1 L 5193.2 -4450.8 L 5203.2 -4450.8 L 5203.2 -4546.8 L 5590.2 -4546.8 L 5590.2 -4538.6 L 5601.2 -4538.6 L 5601.4 -4539 L 5602.1 -4538.8 L 5603.3 -4538 L 5605.1 -4536.5 L 5607.8 -4534.1 L 5611.2 -4530.9 L 5615.7 -4526.7 L 5621.1 -4521.4 L 5627.7 -4514.9 L 5635.5 -4507.2 L 5642.5 -4500.3 L 5650.2 -4492.7 L 5657.6 -4485.4 L 5664.5 -4478.5 L 5670.9 -4472.2 L 5676.5 -4466.6 L 5681.3 -4461.9 L 5685.1 -4458.2 L 5687.6 -4455.7 L 5688.7 -4454.6 L 5691.3 -4452.1 L 5692.5 -4450.7 L 5692.6 -4450 L 5691.7 -4449.8 L 5691 -4449.8 L 5690.2 -4450 L 5689 -4450.7 L 5687.3 -4452 L 5685 -4454 L 5682 -4456.7 L 5678.1 -4460.3 L 5673.4 -4464.8 L 5667.6 -4470.5 L 5660.7 -4477.2 L 5652.6 -4485.2 L 5644.7 -4493 L 5635.4 -4502.2 L 5627.5 -4510.1 L 5620.8 -4516.8 L 5615.2 -4522.5 L 5610.8 -4527.1 L 5607.3 -4530.8 L 5604.7 -4533.7 L 5602.9 -4535.8 L 5601.8 -4537.4 L 5601.3 -4538.4 L 5601.2 -4538.6 L 5590.2 -4538.6 L 5590.2 -4529.8 L 5601.2 -4529.8 L 5601.4 -4530.1 L 5602.2 -4529.9 L 5603.5 -4529 L 5605.5 -4527.3 L 5608.3 -4524.7 L 5611.9 -4521.3 L 5616.6 -4516.8 L 5622.3 -4511.2 L 5629.2 -4504.4 L 5637.3 -4496.3 L 5642.2 -4491.3 L 5651.1 -4482.5 L 5658.6 -4474.9 L 5664.9 -4468.6 L 5670 -4463.3 L 5674 -4459.1 L 5677.1 -4455.9 L 5679.2 -4453.4 L 5680.6 -4451.7 L 5681.2 -4450.6 L 5681.3 -4450.1 L 5681.1 -4450 L 5679.9 -4450.6 L 5677.5 -4452.5 L 5674 -4455.6 L 5669.6 -4459.6 L 5664.5 -4464.4 L 5658.7 -4469.9 L 5652.6 -4475.9 L 5646.1 -4482.2 L 5639.6 -4488.7 L 5633 -4495.3 L 5626.7 -4501.7 L 5620.8 -4507.9 L 5615.3 -4513.6 L 5610.5 -4518.7 L 5606.6 -4523 L 5603.6 -4526.4 L 5601.8 -4528.8 L 5601.2 -4529.8 L 5590.2 -4529.8 L 5590.2 -4520.8 L 5601.2 -4520.8 L 5601.4 -4521.2 L 5602.1 -4520.9 L 5603.5 -4520 L 5605.5 -4518.3 L 5608.3 -4515.8 L 5612 -4512.2 L 5616.7 -4507.7 L 5622.6 -4501.9 L 5629.6 -4495 L 5637.7 -4486.8 L 5646 -4478.5 L 5653 -4471.5 L 5658.7 -4465.7 L 5663.3 -4461 L 5666.8 -4457.2 L 5669.4 -4454.4 L 5671.1 -4452.4 L 5672.1 -4451 L 5672.4 -4450.3 L 5672.1 -4450 L 5670.9 -4450.6 L 5668.4 -4452.5 L 5664.9 -4455.5 L 5660.6 -4459.5 L 5655.6 -4464.2 L 5650 -4469.6 L 5644 -4475.4 L 5637.9 -4481.4 L 5631.7 -4487.6 L 5625.6 -4493.8 L 5619.9 -4499.7 L 5614.6 -4505.2 L 5610 -4510.1 L 5606.2 -4514.3 L 5603.3 -4517.7 L 5601.6 -4519.9 L 5601.2 -4520.8 L 5590.2 -4520.8 L 5590.2 -4511.3 L 5601.2 -4511.3 L 5601.3 -4511.9 L 5601.7 -4512.2 L 5602.4 -4511.9 L 5603.7 -4511 L 5605.6 -4509.4 L 5608.3 -4507 L 5611.8 -4503.6 L 5616.3 -4499.2 L 5621.9 -4493.7 L 5628.7 -4486.9 L 5633.2 -4482.3 L 5640.8 -4474.7 L 5647.1 -4468.5 L 5652.1 -4463.3 L 5656.1 -4459.2 L 5659.1 -4456.1 L 5661.2 -4453.8 L 5662.5 -4452.1 L 5663.1 -4451 L 5663.2 -4450.4 L 5662.9 -4450.1 L 5662.6 -4450 L 5661.8 -4450.1 L 5660.7 -4450.5 L 5659.3 -4451.4 L 5657.3 -4453 L 5654.7 -4455.3 L 5651.3 -4458.5 L 5647 -4462.6 L 5641.7 -4467.9 L 5635.1 -4474.4 L 5630.6 -4479 L 5623.2 -4486.3 L 5617.2 -4492.4 L 5612.4 -4497.4 L 5608.6 -4501.3 L 5605.7 -4504.4 L 5603.7 -4506.8 L 5602.4 -4508.6 L 5601.6 -4509.9 L 5601.2 -4510.9 L 5601.2 -4511.3 L 5590.2 -4511.3 L 5590.2 -4501.8 L 5601.2 -4501.8 L 5601.4 -4502.3 L 5602.1 -4502.1 L 5603.4 -4501.2 L 5605.5 -4499.5 L 5608.4 -4496.9 L 5612.2 -4493.2 L 5617.1 -4488.3 L 5623.3 -4482.3 L 5628.2 -4477.3 L 5635.3 -4470.3 L 5641 -4464.5 L 5645.4 -4459.9 L 5648.8 -4456.4 L 5651.2 -4453.7 L 5652.7 -4451.9 L 5653.4 -4450.7 L 5653.4 -4450.1 L 5653.1 -4450 L 5651.8 -4450.6 L 5649.3 -4452.5 L 5645.9 -4455.4 L 5641.6 -4459.2 L 5636.9 -4463.7 L 5631.7 -4468.6 L 5626.4 -4473.9 L 5621.2 -4479.2 L 5616.1 -4484.4 L 5611.5 -4489.3 L 5607.5 -4493.6 L 5604.3 -4497.3 L 5602.2 -4500 L 5601.2 -4501.7 L 5601.2 -4501.8 L 5590.2 -4501.8 L 5590.2 -4492.8 L 5601.2 -4492.8 L 5601.4 -4493.3 L 5602.1 -4493.2 L 5603.4 -4492.3 L 5605.5 -4490.6 L 5608.4 -4487.9 L 5612.3 -4484.1 L 5617.4 -4479.1 L 5623.7 -4472.8 L 5630.1 -4466.5 L 5635.1 -4461.4 L 5638.9 -4457.4 L 5641.6 -4454.5 L 5643.4 -4452.4 L 5644.3 -4451 L 5644.5 -4450.3 L 5644.1 -4450 L 5642.7 -4450.6 L 5640.2 -4452.4 L 5636.8 -4455.3 L 5632.7 -4459 L 5628.1 -4463.3 L 5623.3 -4468 L 5618.5 -4472.9 L 5613.9 -4477.6 L 5609.6 -4482.1 L 5606 -4486.2 L 5603.3 -4489.4 L 5601.6 -4491.8 L 5601.2 -4492.8 L 5590.2 -4492.8 L 5590.2 -4483.8 L 5601.2 -4483.8 L 5601.4 -4484.4 L 5602.1 -4484.3 L 5603.4 -4483.5 L 5605.4 -4481.7 L 5608.4 -4479 L 5612.5 -4475 L 5617.8 -4469.8 L 5619.2 -4468.3 L 5624.8 -4462.7 L 5629.1 -4458.4 L 5632.2 -4455.1 L 5634.2 -4452.8 L 5635.3 -4451.3 L 5635.6 -4450.4 L 5635.2 -4450 L 5635.1 -4450 L 5633.6 -4450.6 L 5631.1 -4452.4 L 5627.7 -4455.2 L 5623.8 -4458.8 L 5619.5 -4462.8 L 5615.2 -4467.2 L 5611 -4471.5 L 5607.3 -4475.5 L 5604.3 -4479 L 5602.2 -4481.8 L 5601.2 -4483.6 L 5601.2 -4483.8 L 5590.2 -4483.8 L 5590.2 -4473.8 L 5601.2 -4473.8 L 5601.4 -4474.5 L 5602 -4474.5 L 5603.3 -4473.7 L 5605.4 -4471.9 L 5608.5 -4469 L 5612.7 -4464.8 L 5614.2 -4463.3 L 5618.9 -4458.7 L 5622.2 -4455.2 L 5624.3 -4452.8 L 5625.5 -4451.3 L 5625.7 -4450.4 L 5625.2 -4450 L 5625.1 -4450 L 5623.5 -4450.6 L 5620.9 -4452.3 L 5617.6 -4455.1 L 5614 -4458.4 L 5610.3 -4462 L 5606.9 -4465.7 L 5604.1 -4469.1 L 5602.1 -4471.8 L 5601.2 -4473.7 L 5601.2 -4473.8 L 5590.2 -4473.8 L 5590.2 -4464.8 L 5601.2 -4464.8 L 5601.4 -4465.7 L 5601.9 -4465.8 L 5603.2 -4465 L 5605.3 -4463.2 L 5608.5 -4460 L 5609.7 -4458.8 L 5613.3 -4455.2 L 5615.6 -4452.8 L 5616.7 -4451.2 L 5616.9 -4450.4 L 5616.3 -4450 L 5616.1 -4450 L 5614.2 -4450.5 L 5611.6 -4452.3 L 5608.6 -4454.8 L 5605.7 -4457.8 L 5603.2 -4460.8 L 5601.6 -4463.4 L 5601.2 -4464.8 L 5590.2 -4464.8 L 5590.2 -4455.7 L 5601.2 -4455.7 L 5601.3 -4457.1 L 5601.7 -4457.4 L 5602.9 -4456.6 L 5605.1 -4454.4 L 5605.3 -4454.3 L 5607.5 -4452.1 L 5608.4 -4450.8 L 5608.1 -4450.2 L 5607.2 -4450 L 5604.5 -4450.5 L 5602.4 -4452.4 L 5601.2 -4455.1 L 5601.2 -4455.7 L 5590.2 -4455.7 L 5590.2 -4450.8 L 5203.2 -4450.8 L 5193.2 -4450.8 L 5193.2 -4440.8 L 5707.2 -4440.8 L 5707.2 -4556.8 L 5707.2 -4556.8 Z"/><path stroke-width="0.4" fill="none" d="M 5707.2 -4556.8 L 5193.2 -4556.8 M 5193.2 -4556.8 L 5193.2 -4547.1 M 5193.2 -4547.1 L 5601.2 -4547.1 M 5601.2 -4547.1 L 5601.4 -4547.7 M 5601.4 -4547.7 L 5602.2 -4547.7 M 5602.2 -4547.7 L 5602.3 -4547.6 M 5602.3 -4547.6 L 5610.9 -4547.6 M 5610.9 -4547.6 L 5611.2 -4547.8 M 5611.2 -4547.8 L 5611.2 -4547.8 M 5611.2 -4547.8 L 5611.7 -4547.7 M 5611.7 -4547.7 L 5629.9 -4547.7 M 5629.9 -4547.7 L 5630.2 -4547.8 M 5630.2 -4547.8 L 5631.1 -4547.5 M 5631.1 -4547.5 L 5631.2 -4547.5 M 5631.2 -4547.5 L 5638.8 -4547.5 M 5638.8 -4547.5 L 5639.1 -4547.8 M 5639.1 -4547.8 L 5639.2 -4547.8 M 5639.2 -4547.8 L 5640.2 -4547.5 M 5640.2 -4547.5 L 5640.6 -4547.3 M 5640.6 -4547.3 L 5647.8 -4547.3 M 5647.8 -4547.3 L 5647.9 -4547.8 M 5647.9 -4547.8 L 5648.2 -4547.8 M 5648.2 -4547.8 L 5649 -4547.6 M 5649 -4547.6 L 5657.3 -4547.6 M 5657.3 -4547.6 L 5657.8 -4547.8 M 5657.8 -4547.8 L 5658 -4547.8 M 5658 -4547.8 L 5659 -4547.6 M 5659 -4547.6 L 5666.6 -4547.6 M 5666.6 -4547.6 L 5667.2 -4547.8 M 5667.2 -4547.8 L 5667.2 -4547.8 M 5667.2 -4547.8 L 5668.1 -4547.6 M 5668.1 -4547.6 L 5675.4 -4547.6 M 5675.4 -4547.6 L 5676.1 -4547.8 M 5676.1 -4547.8 L 5676.2 -4547.8 M 5676.2 -4547.8 L 5677.8 -4547.4 M 5677.8 -4547.4 L 5678.2 -4547.1 M 5678.2 -4547.1 L 5685.1 -4547.1 M 5685.1 -4547.1 L 5685.3 -4547.7 M 5685.3 -4547.7 L 5686.2 -4547.8 M 5686.2 -4547.8 L 5686.3 -4547.8 M 5686.3 -4547.8 L 5692.8 -4547.8 M 5692.8 -4547.8 L 5695.6 -4547.8 M 5695.6 -4547.8 L 5697.8 -4547.4 M 5697.8 -4547.4 L 5698.8 -4546.4 M 5698.8 -4546.4 L 5699.1 -4544.1 M 5699.1 -4544.1 L 5699 -4543.3 M 5699 -4543.3 L 5698.6 -4542.6 M 5698.6 -4542.6 L 5697.5 -4543.1 M 5697.5 -4543.1 L 5695.8 -4544.8 M 5695.8 -4544.8 L 5692.8 -4547.8 M 5692.8 -4547.8 L 5686.3 -4547.8 M 5686.3 -4547.8 L 5688.6 -4547.1 M 5688.6 -4547.1 L 5691.8 -4544.7 M 5691.8 -4544.7 L 5694.1 -4542.5 M 5694.1 -4542.5 L 5697.2 -4539.1 M 5697.2 -4539.1 L 5698.8 -4536.6 M 5698.8 -4536.6 L 5699 -4534.9 M 5699 -4534.9 L 5698.7 -4534.1 M 5698.7 -4534.1 L 5698 -4534.2 M 5698 -4534.2 L 5696.6 -4535.2 M 5696.6 -4535.2 L 5694.2 -4537.3 M 5694.2 -4537.3 L 5691.2 -4540.3 M 5691.2 -4540.3 L 5688 -4543.6 M 5688 -4543.6 L 5686 -4545.8 M 5686 -4545.8 L 5685.1 -4547.1 M 5685.1 -4547.1 L 5678.2 -4547.1 M 5678.2 -4547.1 L 5679.9 -4546 M 5679.9 -4546 L 5683 -4543.4 M 5683 -4543.4 L 5687 -4539.5 M 5687 -4539.5 L 5689.1 -4537.5 M 5689.1 -4537.5 L 5693.4 -4533 M 5693.4 -4533 L 5696.4 -4529.7 M 5696.4 -4529.7 L 5698.2 -4527.4 M 5698.2 -4527.4 L 5699 -4525.7 M 5699 -4525.7 L 5699.1 -4524.9 M 5699.1 -4524.9 L 5698.7 -4524.4 M 5698.7 -4524.4 L 5698 -4524.5 M 5698 -4524.5 L 5696.5 -4525.4 M 5696.5 -4525.4 L 5694.3 -4527.4 M 5694.3 -4527.4 L 5691 -4530.5 M 5691 -4530.5 L 5686.6 -4535 M 5686.6 -4535 L 5686.2 -4535.3 M 5686.2 -4535.3 L 5681.8 -4539.8 M 5681.8 -4539.8 L 5678.6 -4543.1 M 5678.6 -4543.1 L 5676.6 -4545.4 M 5676.6 -4545.4 L 5675.6 -4546.8 M 5675.6 -4546.8 L 5675.4 -4547.6 M 5675.4 -4547.6 L 5668.1 -4547.6 M 5668.1 -4547.6 L 5668.5 -4547.5 M 5668.5 -4547.5 L 5670.4 -4546.2 M 5670.4 -4546.2 L 5673.1 -4544 M 5673.1 -4544 L 5676.7 -4540.7 M 5676.7 -4540.7 L 5681.4 -4536.2 M 5681.4 -4536.2 L 5684.6 -4533 M 5684.6 -4533 L 5689.8 -4527.7 M 5689.8 -4527.7 L 5693.7 -4523.6 M 5693.7 -4523.6 L 5696.5 -4520.5 M 5696.5 -4520.5 L 5698.2 -4518.3 M 5698.2 -4518.3 L 5699 -4516.7 M 5699 -4516.7 L 5699.1 -4516 M 5699.1 -4516 L 5698.7 -4515.5 M 5698.7 -4515.5 L 5697.9 -4515.6 M 5697.9 -4515.6 L 5696.5 -4516.6 M 5696.5 -4516.6 L 5694.3 -4518.5 M 5694.3 -4518.5 L 5691.2 -4521.5 M 5691.2 -4521.5 L 5686.9 -4525.6 M 5686.9 -4525.6 L 5681.7 -4530.8 M 5681.7 -4530.8 L 5676.4 -4536.2 M 5676.4 -4536.2 L 5672.3 -4540.4 M 5672.3 -4540.4 L 5669.4 -4543.4 M 5669.4 -4543.4 L 5667.6 -4545.6 M 5667.6 -4545.6 L 5666.7 -4546.9 M 5666.7 -4546.9 L 5666.6 -4547.6 M 5666.6 -4547.6 L 5659 -4547.6 M 5659 -4547.6 L 5659.1 -4547.6 M 5659.1 -4547.6 L 5660.6 -4546.7 M 5660.6 -4546.7 L 5662.7 -4545.2 M 5662.7 -4545.2 L 5665.4 -4542.7 M 5665.4 -4542.7 L 5669.1 -4539.3 M 5669.1 -4539.3 L 5673.9 -4534.7 M 5673.9 -4534.7 L 5679.8 -4528.8 M 5679.8 -4528.8 L 5680.1 -4528.5 M 5680.1 -4528.5 L 5686.2 -4522.3 M 5686.2 -4522.3 L 5691 -4517.4 M 5691 -4517.4 L 5694.5 -4513.6 M 5694.5 -4513.6 L 5697 -4510.7 M 5697 -4510.7 L 5698.4 -4508.7 M 5698.4 -4508.7 L 5699 -4507.4 M 5699 -4507.4 L 5699.1 -4507.1 M 5699.1 -4507.1 L 5698.7 -4506.7 M 5698.7 -4506.7 L 5697.8 -4507 M 5697.8 -4507 L 5696.2 -4508.1 M 5696.2 -4508.1 L 5693.9 -4510.2 M 5693.9 -4510.2 L 5690.5 -4513.2 M 5690.5 -4513.2 L 5686.1 -4517.4 M 5686.1 -4517.4 L 5680.6 -4522.9 M 5680.6 -4522.9 L 5677 -4526.4 M 5677 -4526.4 L 5670.9 -4532.5 M 5670.9 -4532.5 L 5666 -4537.3 M 5666 -4537.3 L 5662.4 -4541.1 M 5662.4 -4541.1 L 5659.8 -4543.8 M 5659.8 -4543.8 L 5658.2 -4545.7 M 5658.2 -4545.7 L 5657.4 -4546.9 M 5657.4 -4546.9 L 5657.3 -4547.6 M 5657.3 -4547.6 L 5649 -4547.6 M 5649 -4547.6 L 5649.3 -4547.5 M 5649.3 -4547.5 L 5650.9 -4546.5 M 5650.9 -4546.5 L 5653.2 -4544.6 M 5653.2 -4544.6 L 5656.3 -4541.8 M 5656.3 -4541.8 L 5660.4 -4538 M 5660.4 -4538 L 5665.6 -4532.9 M 5665.6 -4532.9 L 5671.9 -4526.6 M 5671.9 -4526.6 L 5675.1 -4523.5 M 5675.1 -4523.5 L 5681.9 -4516.6 M 5681.9 -4516.6 L 5687.4 -4511 M 5687.4 -4511 L 5691.7 -4506.5 M 5691.7 -4506.5 L 5694.9 -4503.1 M 5694.9 -4503.1 L 5697.1 -4500.5 M 5697.1 -4500.5 L 5698.4 -4498.7 M 5698.4 -4498.7 L 5699 -4497.4 M 5699 -4497.4 L 5699.1 -4497 M 5699.1 -4497 L 5698.7 -4496.6 M 5698.7 -4496.6 L 5698 -4496.9 M 5698 -4496.9 L 5696.5 -4497.8 M 5696.5 -4497.8 L 5694.4 -4499.7 M 5694.4 -4499.7 L 5691.4 -4502.4 M 5691.4 -4502.4 L 5687.5 -4506.2 M 5687.5 -4506.2 L 5682.4 -4511.2 M 5682.4 -4511.2 L 5676.1 -4517.4 M 5676.1 -4517.4 L 5672.2 -4521.3 M 5672.2 -4521.3 L 5665.3 -4528.3 M 5665.3 -4528.3 L 5659.7 -4533.9 M 5659.7 -4533.9 L 5655.3 -4538.4 M 5655.3 -4538.4 L 5652 -4541.9 M 5652 -4541.9 L 5649.8 -4544.5 M 5649.8 -4544.5 L 5648.4 -4546.2 M 5648.4 -4546.2 L 5647.8 -4547.3 M 5647.8 -4547.3 L 5640.6 -4547.3 M 5640.6 -4547.3 L 5641.7 -4546.5 M 5641.7 -4546.5 L 5643.9 -4544.8 M 5643.9 -4544.8 L 5646.9 -4542.1 M 5646.9 -4542.1 L 5650.9 -4538.4 M 5650.9 -4538.4 L 5655.8 -4533.6 M 5655.8 -4533.6 L 5661.9 -4527.6 M 5661.9 -4527.6 L 5669.2 -4520.3 M 5669.2 -4520.3 L 5670.6 -4519 M 5670.6 -4519 L 5678 -4511.5 M 5678 -4511.5 L 5684.2 -4505.3 M 5684.2 -4505.3 L 5689.1 -4500.2 M 5689.1 -4500.2 L 5692.9 -4496.2 M 5692.9 -4496.2 L 5695.7 -4493.1 M 5695.7 -4493.1 L 5697.6 -4490.8 M 5697.6 -4490.8 L 5698.7 -4489.2 M 5698.7 -4489.2 L 5699.1 -4488.2 M 5699.1 -4488.2 L 5699.1 -4488 M 5699.1 -4488 L 5698.8 -4487.7 M 5698.8 -4487.7 L 5698 -4487.9 M 5698 -4487.9 L 5696.6 -4488.9 M 5696.6 -4488.9 L 5694.4 -4490.7 M 5694.4 -4490.7 L 5691.5 -4493.4 M 5691.5 -4493.4 L 5687.6 -4497.1 M 5687.6 -4497.1 L 5682.7 -4501.9 M 5682.7 -4501.9 L 5676.6 -4507.9 M 5676.6 -4507.9 L 5669.3 -4515.2 M 5669.3 -4515.2 L 5667.7 -4516.8 M 5667.7 -4516.8 L 5660.2 -4524.4 M 5660.2 -4524.4 L 5653.9 -4530.7 M 5653.9 -4530.7 L 5648.9 -4535.8 M 5648.9 -4535.8 L 5645 -4539.8 M 5645 -4539.8 L 5642.2 -4542.9 M 5642.2 -4542.9 L 5640.3 -4545.2 M 5640.3 -4545.2 L 5639.2 -4546.6 M 5639.2 -4546.6 L 5638.8 -4547.5 M 5638.8 -4547.5 L 5631.2 -4547.5 M 5631.2 -4547.5 L 5632.6 -4546.6 M 5632.6 -4546.6 L 5634.7 -4544.9 M 5634.7 -4544.9 L 5637.6 -4542.3 M 5637.6 -4542.3 L 5641.4 -4538.7 M 5641.4 -4538.7 L 5646.2 -4534.1 M 5646.2 -4534.1 L 5652.1 -4528.4 M 5652.1 -4528.4 L 5659.1 -4521.4 M 5659.1 -4521.4 L 5666.1 -4514.5 M 5666.1 -4514.5 L 5674.1 -4506.4 M 5674.1 -4506.4 L 5680.9 -4499.6 M 5680.9 -4499.6 L 5686.4 -4494 M 5686.4 -4494 L 5690.7 -4489.4 M 5690.7 -4489.4 L 5694.1 -4485.8 M 5694.1 -4485.8 L 5696.5 -4483.1 M 5696.5 -4483.1 L 5698 -4481.1 M 5698 -4481.1 L 5698.9 -4479.8 M 5698.9 -4479.8 L 5699.1 -4479 M 5699.1 -4479 L 5698.8 -4478.7 M 5698.8 -4478.7 L 5698 -4479 M 5698 -4479 L 5696.6 -4480 M 5696.6 -4480 L 5694.5 -4481.8 M 5694.5 -4481.8 L 5691.6 -4484.4 M 5691.6 -4484.4 L 5687.8 -4488 M 5687.8 -4488 L 5683 -4492.7 M 5683 -4492.7 L 5677 -4498.5 M 5677 -4498.5 L 5669.9 -4505.6 M 5669.9 -4505.6 L 5663.2 -4512.3 M 5663.2 -4512.3 L 5655.1 -4520.5 M 5655.1 -4520.5 L 5648.2 -4527.4 M 5648.2 -4527.4 L 5642.7 -4533 M 5642.7 -4533 L 5638.2 -4537.6 M 5638.2 -4537.6 L 5634.8 -4541.2 M 5634.8 -4541.2 L 5632.4 -4543.9 M 5632.4 -4543.9 L 5630.8 -4545.8 M 5630.8 -4545.8 L 5630 -4547 M 5630 -4547 L 5629.9 -4547.7 M 5629.9 -4547.7 L 5611.7 -4547.7 M 5611.7 -4547.7 L 5612 -4547.5 M 5612 -4547.5 L 5612.3 -4547.4 M 5612.3 -4547.4 L 5620.1 -4547.4 M 5620.1 -4547.4 L 5620.3 -4547.6 M 5620.3 -4547.6 L 5620.4 -4547.6 M 5620.4 -4547.6 L 5621.4 -4547.2 M 5621.4 -4547.2 L 5623.1 -4546 M 5623.1 -4546 L 5625.5 -4543.9 M 5625.5 -4543.9 L 5628.9 -4540.9 M 5628.9 -4540.9 L 5633.2 -4536.9 M 5633.2 -4536.9 L 5638.5 -4531.8 M 5638.5 -4531.8 L 5645 -4525.4 M 5645 -4525.4 L 5652.7 -4517.8 M 5652.7 -4517.8 L 5661.2 -4509.5 M 5661.2 -4509.5 L 5669.9 -4500.8 M 5669.9 -4500.8 L 5677.3 -4493.4 M 5677.3 -4493.4 L 5683.5 -4487.2 M 5683.5 -4487.2 L 5688.5 -4482 M 5688.5 -4482 L 5692.4 -4477.9 M 5692.4 -4477.9 L 5695.3 -4474.8 M 5695.3 -4474.8 L 5697.3 -4472.4 M 5697.3 -4472.4 L 5698.5 -4470.8 M 5698.5 -4470.8 L 5699 -4469.7 M 5699 -4469.7 L 5699 -4469.5 M 5699 -4469.5 L 5698.7 -4469.3 M 5698.7 -4469.3 L 5697.8 -4469.6 M 5697.8 -4469.6 L 5696.4 -4470.8 M 5696.4 -4470.8 L 5694.1 -4472.7 M 5694.1 -4472.7 L 5691.1 -4475.4 M 5691.1 -4475.4 L 5687.1 -4479.2 M 5687.1 -4479.2 L 5682.1 -4484 M 5682.1 -4484 L 5676.1 -4489.9 M 5676.1 -4489.9 L 5668.8 -4497.1 M 5668.8 -4497.1 L 5660.2 -4505.6 M 5660.2 -4505.6 L 5658.2 -4507.6 M 5658.2 -4507.6 L 5649.4 -4516.4 M 5649.4 -4516.4 L 5641.9 -4523.9 M 5641.9 -4523.9 L 5635.6 -4530.2 M 5635.6 -4530.2 L 5630.6 -4535.4 M 5630.6 -4535.4 L 5626.6 -4539.5 M 5626.6 -4539.5 L 5623.7 -4542.7 M 5623.7 -4542.7 L 5621.7 -4545 M 5621.7 -4545 L 5620.5 -4546.5 M 5620.5 -4546.5 L 5620.1 -4547.4 M 5620.1 -4547.4 L 5612.3 -4547.4 M 5612.3 -4547.4 L 5613.4 -4546.6 M 5613.4 -4546.6 L 5615.4 -4545 M 5615.4 -4545 L 5618.2 -4542.6 M 5618.2 -4542.6 L 5621.8 -4539.2 M 5621.8 -4539.2 L 5626.3 -4534.9 M 5626.3 -4534.9 L 5631.8 -4529.5 M 5631.8 -4529.5 L 5638.5 -4523 M 5638.5 -4523 L 5646.3 -4515.2 M 5646.3 -4515.2 L 5655.4 -4506.1 M 5655.4 -4506.1 L 5656.6 -4505 M 5656.6 -4505 L 5665.8 -4495.8 M 5665.8 -4495.8 L 5673.7 -4487.8 M 5673.7 -4487.8 L 5680.3 -4481.1 M 5680.3 -4481.1 L 5685.7 -4475.5 M 5685.7 -4475.5 L 5690.1 -4470.9 M 5690.1 -4470.9 L 5693.5 -4467.3 M 5693.5 -4467.3 L 5696 -4464.5 M 5696 -4464.5 L 5697.7 -4462.4 M 5697.7 -4462.4 L 5698.7 -4461 M 5698.7 -4461 L 5699.1 -4460.1 M 5699.1 -4460.1 L 5699.1 -4460 M 5699.1 -4460 L 5698.8 -4459.7 M 5698.8 -4459.7 L 5698 -4460.1 M 5698 -4460.1 L 5696.6 -4461.1 M 5696.6 -4461.1 L 5694.5 -4462.8 M 5694.5 -4462.8 L 5691.7 -4465.4 M 5691.7 -4465.4 L 5688 -4468.9 M 5688 -4468.9 L 5683.4 -4473.4 M 5683.4 -4473.4 L 5677.7 -4479 M 5677.7 -4479 L 5670.9 -4485.7 M 5670.9 -4485.7 L 5662.8 -4493.7 M 5662.8 -4493.7 L 5653.7 -4502.8 M 5653.7 -4502.8 L 5644.4 -4512.1 M 5644.4 -4512.1 L 5636.5 -4520.1 M 5636.5 -4520.1 L 5629.8 -4526.9 M 5629.8 -4526.9 L 5624.3 -4532.5 M 5624.3 -4532.5 L 5619.8 -4537.1 M 5619.8 -4537.1 L 5616.4 -4540.8 M 5616.4 -4540.8 L 5613.9 -4543.5 M 5613.9 -4543.5 L 5612.2 -4545.6 M 5612.2 -4545.6 L 5611.2 -4546.9 M 5611.2 -4546.9 L 5610.9 -4547.6 M 5610.9 -4547.6 L 5602.3 -4547.6 M 5602.3 -4547.6 L 5603.5 -4547 M 5603.5 -4547 L 5605.4 -4545.5 M 5605.4 -4545.5 L 5608.2 -4543.3 M 5608.2 -4543.3 L 5611.7 -4540 M 5611.7 -4540 L 5616.2 -4535.8 M 5616.2 -4535.8 L 5621.7 -4530.6 M 5621.7 -4530.6 L 5628.2 -4524.2 M 5628.2 -4524.2 L 5636 -4516.5 M 5636 -4516.5 L 5645 -4507.6 M 5645 -4507.6 L 5652 -4500.6 M 5652 -4500.6 L 5661.8 -4490.7 M 5661.8 -4490.7 L 5670.4 -4482.1 M 5670.4 -4482.1 L 5677.6 -4474.7 M 5677.6 -4474.7 L 5683.7 -4468.5 M 5683.7 -4468.5 L 5688.6 -4463.3 M 5688.6 -4463.3 L 5692.5 -4459.2 M 5692.5 -4459.2 L 5695.4 -4455.9 M 5695.4 -4455.9 L 5697.5 -4453.4 M 5697.5 -4453.4 L 5698.7 -4451.6 M 5698.7 -4451.6 L 5699.1 -4450.5 M 5699.1 -4450.5 L 5699 -4449.9 M 5699 -4449.9 L 5698.5 -4449.8 M 5698.5 -4449.8 L 5697.6 -4450.5 M 5697.6 -4450.5 L 5695.5 -4452.5 M 5695.5 -4452.5 L 5692.3 -4455.6 M 5692.3 -4455.6 L 5688.1 -4459.7 M 5688.1 -4459.7 L 5683.1 -4464.7 M 5683.1 -4464.7 L 5677.3 -4470.4 M 5677.3 -4470.4 L 5671 -4476.6 M 5671 -4476.6 L 5664.2 -4483.3 M 5664.2 -4483.3 L 5657.2 -4490.4 M 5657.2 -4490.4 L 5650 -4497.5 M 5650 -4497.5 L 5642.9 -4504.7 M 5642.9 -4504.7 L 5635.8 -4511.8 M 5635.8 -4511.8 L 5629.1 -4518.6 M 5629.1 -4518.6 L 5622.7 -4525 M 5622.7 -4525 L 5616.9 -4530.8 M 5616.9 -4530.8 L 5611.8 -4536 M 5611.8 -4536 L 5607.6 -4540.3 M 5607.6 -4540.3 L 5604.3 -4543.7 M 5604.3 -4543.7 L 5602.1 -4546 M 5602.1 -4546 L 5601.2 -4547 M 5601.2 -4547 L 5601.2 -4547.1 M 5601.2 -4547.1 L 5193.2 -4547.1 M 5193.2 -4547.1 L 5193.2 -4450.8 M 5193.2 -4450.8 L 5203.2 -4450.8 M 5203.2 -4450.8 L 5203.2 -4546.8 M 5203.2 -4546.8 L 5590.2 -4546.8 M 5590.2 -4546.8 L 5590.2 -4538.6 M 5590.2 -4538.6 L 5601.2 -4538.6 M 5601.2 -4538.6 L 5601.4 -4539 M 5601.4 -4539 L 5602.1 -4538.8 M 5602.1 -4538.8 L 5603.3 -4538 M 5603.3 -4538 L 5605.1 -4536.5 M 5605.1 -4536.5 L 5607.8 -4534.1 M 5607.8 -4534.1 L 5611.2 -4530.9 M 5611.2 -4530.9 L 5615.7 -4526.7 M 5615.7 -4526.7 L 5621.1 -4521.4 M 5621.1 -4521.4 L 5627.7 -4514.9 M 5627.7 -4514.9 L 5635.5 -4507.2 M 5635.5 -4507.2 L 5642.5 -4500.3 M 5642.5 -4500.3 L 5650.2 -4492.7 M 5650.2 -4492.7 L 5657.6 -4485.4 M 5657.6 -4485.4 L 5664.5 -4478.5 M 5664.5 -4478.5 L 5670.9 -4472.2 M 5670.9 -4472.2 L 5676.5 -4466.6 M 5676.5 -4466.6 L 5681.3 -4461.9 M 5681.3 -4461.9 L 5685.1 -4458.2 M 5685.1 -4458.2 L 5687.6 -4455.7 M 5687.6 -4455.7 L 5688.7 -4454.6 M 5688.7 -4454.6 L 5691.3 -4452.1 M 5691.3 -4452.1 L 5692.5 -4450.7 M 5692.5 -4450.7 L 5692.6 -4450 M 5692.6 -4450 L 5691.7 -4449.8 M 5691.7 -4449.8 L 5691 -4449.8 M 5691 -4449.8 L 5690.2 -4450 M 5690.2 -4450 L 5689 -4450.7 M 5689 -4450.7 L 5687.3 -4452 M 5687.3 -4452 L 5685 -4454 M 5685 -4454 L 5682 -4456.7 M 5682 -4456.7 L 5678.1 -4460.3 M 5678.1 -4460.3 L 5673.4 -4464.8 M 5673.4 -4464.8 L 5667.6 -4470.5 M 5667.6 -4470.5 L 5660.7 -4477.2 M 5660.7 -4477.2 L 5652.6 -4485.2 M 5652.6 -4485.2 L 5644.7 -4493 M 5644.7 -4493 L 5635.4 -4502.2 M 5635.4 -4502.2 L 5627.5 -4510.1 M 5627.5 -4510.1 L 5620.8 -4516.8 M 5620.8 -4516.8 L 5615.2 -4522.5 M 5615.2 -4522.5 L 5610.8 -4527.1 M 5610.8 -4527.1 L 5607.3 -4530.8 M 5607.3 -4530.8 L 5604.7 -4533.7 M 5604.7 -4533.7 L 5602.9 -4535.8 M 5602.9 -4535.8 L 5601.8 -4537.4 M 5601.8 -4537.4 L 5601.3 -4538.4 M 5601.3 -4538.4 L 5601.2 -4538.6 M 5601.2 -4538.6 L 5590.2 -4538.6 M 5590.2 -4538.6 L 5590.2 -4529.8 M 5590.2 -4529.8 L 5601.2 -4529.8 M 5601.2 -4529.8 L 5601.4 -4530.1 M 5601.4 -4530.1 L 5602.2 -4529.9 M 5602.2 -4529.9 L 5603.5 -4529 M 5603.5 -4529 L 5605.5 -4527.3 M 5605.5 -4527.3 L 5608.3 -4524.7 M 5608.3 -4524.7 L 5611.9 -4521.3 M 5611.9 -4521.3 L 5616.6 -4516.8 M 5616.6 -4516.8 L 5622.3 -4511.2 M 5622.3 -4511.2 L 5629.2 -4504.4 M 5629.2 -4504.4 L 5637.3 -4496.3 M 5637.3 -4496.3 L 5642.2 -4491.3 M 5642.2 -4491.3 L 5651.1 -4482.5 M 5651.1 -4482.5 L 5658.6 -4474.9 M 5658.6 -4474.9 L 5664.9 -4468.6 M 5664.9 -4468.6 L 5670 -4463.3 M 5670 -4463.3 L 5674 -4459.1 M 5674 -4459.1 L 5677.1 -4455.9 M 5677.1 -4455.9 L 5679.2 -4453.4 M 5679.2 -4453.4 L 5680.6 -4451.7 M 5680.6 -4451.7 L 5681.2 -4450.6 M 5681.2 -4450.6 L 5681.3 -4450.1 M 5681.3 -4450.1 L 5681.1 -4450 M 5681.1 -4450 L 5679.9 -4450.6 M 5679.9 -4450.6 L 5677.5 -4452.5 M 5677.5 -4452.5 L 5674 -4455.6 M 5674 -4455.6 L 5669.6 -4459.6 M 5669.6 -4459.6 L 5664.5 -4464.4 M 5664.5 -4464.4 L 5658.7 -4469.9 M 5658.7 -4469.9 L 5652.6 -4475.9 M 5652.6 -4475.9 L 5646.1 -4482.2 M 5646.1 -4482.2 L 5639.6 -4488.7 M 5639.6 -4488.7 L 5633 -4495.3 M 5633 -4495.3 L 5626.7 -4501.7 M 5626.7 -4501.7 L 5620.8 -4507.9 M 5620.8 -4507.9 L 5615.3 -4513.6 M 5615.3 -4513.6 L 5610.5 -4518.7 M 5610.5 -4518.7 L 5606.6 -4523 M 5606.6 -4523 L 5603.6 -4526.4 M 5603.6 -4526.4 L 5601.8 -4528.8 M 5601.8 -4528.8 L 5601.2 -4529.8 M 5601.2 -4529.8 L 5590.2 -4529.8 M 5590.2 -4529.8 L 5590.2 -4520.8 M 5590.2 -4520.8 L 5601.2 -4520.8 M 5601.2 -4520.8 L 5601.4 -4521.2 M 5601.4 -4521.2 L 5602.1 -4520.9 M 5602.1 -4520.9 L 5603.5 -4520 M 5603.5 -4520 L 5605.5 -4518.3 M 5605.5 -4518.3 L 5608.3 -4515.8 M 5608.3 -4515.8 L 5612 -4512.2 M 5612 -4512.2 L 5616.7 -4507.7 M 5616.7 -4507.7 L 5622.6 -4501.9 M 5622.6 -4501.9 L 5629.6 -4495 M 5629.6 -4495 L 5637.7 -4486.8 M 5637.7 -4486.8 L 5646 -4478.5 M 5646 -4478.5 L 5653 -4471.5 M 5653 -4471.5 L 5658.7 -4465.7 M 5658.7 -4465.7 L 5663.3 -4461 M 5663.3 -4461 L 5666.8 -4457.2 M 5666.8 -4457.2 L 5669.4 -4454.4 M 5669.4 -4454.4 L 5671.1 -4452.4 M 5671.1 -4452.4 L 5672.1 -4451 M 5672.1 -4451 L 5672.4 -4450.3 M 5672.4 -4450.3 L 5672.1 -4450 M 5672.1 -4450 L 5670.9 -4450.6 M 5670.9 -4450.6 L 5668.4 -4452.5 M 5668.4 -4452.5 L 5664.9 -4455.5 M 5664.9 -4455.5 L 5660.6 -4459.5 M 5660.6 -4459.5 L 5655.6 -4464.2 M 5655.6 -4464.2 L 5650 -4469.6 M 5650 -4469.6 L 5644 -4475.4 M 5644 -4475.4 L 5637.9 -4481.4 M 5637.9 -4481.4 L 5631.7 -4487.6 M 5631.7 -4487.6 L 5625.6 -4493.8 M 5625.6 -4493.8 L 5619.9 -4499.7 M 5619.9 -4499.7 L 5614.6 -4505.2 M 5614.6 -4505.2 L 5610 -4510.1 M 5610 -4510.1 L 5606.2 -4514.3 M 5606.2 -4514.3 L 5603.3 -4517.7 M 5603.3 -4517.7 L 5601.6 -4519.9 M 5601.6 -4519.9 L 5601.2 -4520.8 M 5601.2 -4520.8 L 5590.2 -4520.8 M 5590.2 -4520.8 L 5590.2 -4511.3 M 5590.2 -4511.3 L 5601.2 -4511.3 M 5601.2 -4511.3 L 5601.3 -4511.9 M 5601.3 -4511.9 L 5601.7 -4512.2 M 5601.7 -4512.2 L 5602.4 -4511.9 M 5602.4 -4511.9 L 5603.7 -4511 M 5603.7 -4511 L 5605.6 -4509.4 M 5605.6 -4509.4 L 5608.3 -4507 M 5608.3 -4507 L 5611.8 -4503.6 M 5611.8 -4503.6 L 5616.3 -4499.2 M 5616.3 -4499.2 L 5621.9 -4493.7 M 5621.9 -4493.7 L 5628.7 -4486.9 M 5628.7 -4486.9 L 5633.2 -4482.3 M 5633.2 -4482.3 L 5640.8 -4474.7 M 5640.8 -4474.7 L 5647.1 -4468.5 M 5647.1 -4468.5 L 5652.1 -4463.3 M 5652.1 -4463.3 L 5656.1 -4459.2 M 5656.1 -4459.2 L 5659.1 -4456.1 M 5659.1 -4456.1 L 5661.2 -4453.8 M 5661.2 -4453.8 L 5662.5 -4452.1 M 5662.5 -4452.1 L 5663.1 -4451 M 5663.1 -4451 L 5663.2 -4450.4 M 5663.2 -4450.4 L 5662.9 -4450.1 M 5662.9 -4450.1 L 5662.6 -4450 M 5662.6 -4450 L 5661.8 -4450.1 M 5661.8 -4450.1 L 5660.7 -4450.5 M 5660.7 -4450.5 L 5659.3 -4451.4 M 5659.3 -4451.4 L 5657.3 -4453 M 5657.3 -4453 L 5654.7 -4455.3 M 5654.7 -4455.3 L 5651.3 -4458.5 M 5651.3 -4458.5 L 5647 -4462.6 M 5647 -4462.6 L 5641.7 -4467.9 M 5641.7 -4467.9 L 5635.1 -4474.4 M 5635.1 -4474.4 L 5630.6 -4479 M 5630.6 -4479 L 5623.2 -4486.3 M 5623.2 -4486.3 L 5617.2 -4492.4 M 5617.2 -4492.4 L 5612.4 -4497.4 M 5612.4 -4497.4 L 5608.6 -4501.3 M 5608.6 -4501.3 L 5605.7 -4504.4 M 5605.7 -4504.4 L 5603.7 -4506.8 M 5603.7 -4506.8 L 5602.4 -4508.6 M 5602.4 -4508.6 L 5601.6 -4509.9 M 5601.6 -4509.9 L 5601.2 -4510.9 M 5601.2 -4510.9 L 5601.2 -4511.3 M 5601.2 -4511.3 L 5590.2 -4511.3 M 5590.2 -4511.3 L 5590.2 -4501.8 M 5590.2 -4501.8 L 5601.2 -4501.8 M 5601.2 -4501.8 L 5601.4 -4502.3 M 5601.4 -4502.3 L 5602.1 -4502.1 M 5602.1 -4502.1 L 5603.4 -4501.2 M 5603.4 -4501.2 L 5605.5 -4499.5 M 5605.5 -4499.5 L 5608.4 -4496.9 M 5608.4 -4496.9 L 5612.2 -4493.2 M 5612.2 -4493.2 L 5617.1 -4488.3 M 5617.1 -4488.3 L 5623.3 -4482.3 M 5623.3 -4482.3 L 5628.2 -4477.3 M 5628.2 -4477.3 L 5635.3 -4470.3 M 5635.3 -4470.3 L 5641 -4464.5 M 5641 -4464.5 L 5645.4 -4459.9 M 5645.4 -4459.9 L 5648.8 -4456.4 M 5648.8 -4456.4 L 5651.2 -4453.7 M 5651.2 -4453.7 L 5652.7 -4451.9 M 5652.7 -4451.9 L 5653.4 -4450.7 M 5653.4 -4450.7 L 5653.4 -4450.1 M 5653.4 -4450.1 L 5653.1 -4450 M 5653.1 -4450 L 5651.8 -4450.6 M 5651.8 -4450.6 L 5649.3 -4452.5 M 5649.3 -4452.5 L 5645.9 -4455.4 M 5645.9 -4455.4 L 5641.6 -4459.2 M 5641.6 -4459.2 L 5636.9 -4463.7 M 5636.9 -4463.7 L 5631.7 -4468.6 M 5631.7 -4468.6 L 5626.4 -4473.9 M 5626.4 -4473.9 L 5621.2 -4479.2 M 5621.2 -4479.2 L 5616.1 -4484.4 M 5616.1 -4484.4 L 5611.5 -4489.3 M 5611.5 -4489.3 L 5607.5 -4493.6 M 5607.5 -4493.6 L 5604.3 -4497.3 M 5604.3 -4497.3 L 5602.2 -4500 M 5602.2 -4500 L 5601.2 -4501.7 M 5601.2 -4501.7 L 5601.2 -4501.8 M 5601.2 -4501.8 L 5590.2 -4501.8 M 5590.2 -4501.8 L 5590.2 -4492.8 M 5590.2 -4492.8 L 5601.2 -4492.8 M 5601.2 -4492.8 L 5601.4 -4493.3 M 5601.4 -4493.3 L 5602.1 -4493.2 M 5602.1 -4493.2 L 5603.4 -4492.3 M 5603.4 -4492.3 L 5605.5 -4490.6 M 5605.5 -4490.6 L 5608.4 -4487.9 M 5608.4 -4487.9 L 5612.3 -4484.1 M 5612.3 -4484.1 L 5617.4 -4479.1 M 5617.4 -4479.1 L 5623.7 -4472.8 M 5623.7 -4472.8 L 5630.1 -4466.5 M 5630.1 -4466.5 L 5635.1 -4461.4 M 5635.1 -4461.4 L 5638.9 -4457.4 M 5638.9 -4457.4 L 5641.6 -4454.5 M 5641.6 -4454.5 L 5643.4 -4452.4 M 5643.4 -4452.4 L 5644.3 -4451 M 5644.3 -4451 L 5644.5 -4450.3 M 5644.5 -4450.3 L 5644.1 -4450 M 5644.1 -4450 L 5642.7 -4450.6 M 5642.7 -4450.6 L 5640.2 -4452.4 M 5640.2 -4452.4 L 5636.8 -4455.3 M 5636.8 -4455.3 L 5632.7 -4459 M 5632.7 -4459 L 5628.1 -4463.3 M 5628.1 -4463.3 L 5623.3 -4468 M 5623.3 -4468 L 5618.5 -4472.9 M 5618.5 -4472.9 L 5613.9 -4477.6 M 5613.9 -4477.6 L 5609.6 -4482.1 M 5609.6 -4482.1 L 5606 -4486.2 M 5606 -4486.2 L 5603.3 -4489.4 M 5603.3 -4489.4 L 5601.6 -4491.8 M 5601.6 -4491.8 L 5601.2 -4492.8 M 5601.2 -4492.8 L 5590.2 -4492.8 M 5590.2 -4492.8 L 5590.2 -4483.8 M 5590.2 -4483.8 L 5601.2 -4483.8 M 5601.2 -4483.8 L 5601.4 -4484.4 M 5601.4 -4484.4 L 5602.1 -4484.3 M 5602.1 -4484.3 L 5603.4 -4483.5 M 5603.4 -4483.5 L 5605.4 -4481.7 M 5605.4 -4481.7 L 5608.4 -4479 M 5608.4 -4479 L 5612.5 -4475 M 5612.5 -4475 L 5617.8 -4469.8 M 5617.8 -4469.8 L 5619.2 -4468.3 M 5619.2 -4468.3 L 5624.8 -4462.7 M 5624.8 -4462.7 L 5629.1 -4458.4 M 5629.1 -4458.4 L 5632.2 -4455.1 M 5632.2 -4455.1 L 5634.2 -4452.8 M 5634.2 -4452.8 L 5635.3 -4451.3 M 5635.3 -4451.3 L 5635.6 -4450.4 M 5635.6 -4450.4 L 5635.2 -4450 M 5635.2 -4450 L 5635.1 -4450 M 5635.1 -4450 L 5633.6 -4450.6 M 5633.6 -4450.6 L 5631.1 -4452.4 M 5631.1 -4452.4 L 5627.7 -4455.2 M 5627.7 -4455.2 L 5623.8 -4458.8 M 5623.8 -4458.8 L 5619.5 -4462.8 M 5619.5 -4462.8 L 5615.2 -4467.2 M 5615.2 -4467.2 L 5611 -4471.5 M 5611 -4471.5 L 5607.3 -4475.5 M 5607.3 -4475.5 L 5604.3 -4479 M 5604.3 -4479 L 5602.2 -4481.8 M 5602.2 -4481.8 L 5601.2 -4483.6 M 5601.2 -4483.6 L 5601.2 -4483.8 M 5601.2 -4483.8 L 5590.2 -4483.8 M 5590.2 -4483.8 L 5590.2 -4473.8 M 5590.2 -4473.8 L 5601.2 -4473.8 M 5601.2 -4473.8 L 5601.4 -4474.5 M 5601.4 -4474.5 L 5602 -4474.5 M 5602 -4474.5 L 5603.3 -4473.7 M 5603.3 -4473.7 L 5605.4 -4471.9 M 5605.4 -4471.9 L 5608.5 -4469 M 5608.5 -4469 L 5612.7 -4464.8 M 5612.7 -4464.8 L 5614.2 -4463.3 M 5614.2 -4463.3 L 5618.9 -4458.7 M 5618.9 -4458.7 L 5622.2 -4455.2 M 5622.2 -4455.2 L 5624.3 -4452.8 M 5624.3 -4452.8 L 5625.5 -4451.3 M 5625.5 -4451.3 L 5625.7 -4450.4 M 5625.7 -4450.4 L 5625.2 -4450 M 5625.2 -4450 L 5625.1 -4450 M 5625.1 -4450 L 5623.5 -4450.6 M 5623.5 -4450.6 L 5620.9 -4452.3 M 5620.9 -4452.3 L 5617.6 -4455.1 M 5617.6 -4455.1 L 5614 -4458.4 M 5614 -4458.4 L 5610.3 -4462 M 5610.3 -4462 L 5606.9 -4465.7 M 5606.9 -4465.7 L 5604.1 -4469.1 M 5604.1 -4469.1 L 5602.1 -4471.8 M 5602.1 -4471.8 L 5601.2 -4473.7 M 5601.2 -4473.7 L 5601.2 -4473.8 M 5601.2 -4473.8 L 5590.2 -4473.8 M 5590.2 -4473.8 L 5590.2 -4464.8 M 5590.2 -4464.8 L 5601.2 -4464.8 M 5601.2 -4464.8 L 5601.4 -4465.7 M 5601.4 -4465.7 L 5601.9 -4465.8 M 5601.9 -4465.8 L 5603.2 -4465 M 5603.2 -4465 L 5605.3 -4463.2 M 5605.3 -4463.2 L 5608.5 -4460 M 5608.5 -4460 L 5609.7 -4458.8 M 5609.7 -4458.8 L 5613.3 -4455.2 M 5613.3 -4455.2 L 5615.6 -4452.8 M 5615.6 -4452.8 L 5616.7 -4451.2 M 5616.7 -4451.2 L 5616.9 -4450.4 M 5616.9 -4450.4 L 5616.3 -4450 M 5616.3 -4450 L 5616.1 -4450 M 5616.1 -4450 L 5614.2 -4450.5 M 5614.2 -4450.5 L 5611.6 -4452.3 M 5611.6 -4452.3 L 5608.6 -4454.8 M 5608.6 -4454.8 L 5605.7 -4457.8 M 5605.7 -4457.8 L 5603.2 -4460.8 M 5603.2 -4460.8 L 5601.6 -4463.4 M 5601.6 -4463.4 L 5601.2 -4464.8 M 5601.2 -4464.8 L 5590.2 -4464.8 M 5590.2 -4464.8 L 5590.2 -4455.7 M 5590.2 -4455.7 L 5601.2 -4455.7 M 5601.2 -4455.7 L 5601.3 -4457.1 M 5601.3 -4457.1 L 5601.7 -4457.4 M 5601.7 -4457.4 L 5602.9 -4456.6 M 5602.9 -4456.6 L 5605.1 -4454.4 M 5605.1 -4454.4 L 5605.3 -4454.3 M 5605.3 -4454.3 L 5607.5 -4452.1 M 5607.5 -4452.1 L 5608.4 -4450.8 M 5608.4 -4450.8 L 5608.1 -4450.2 M 5608.1 -4450.2 L 5607.2 -4450 M 5607.2 -4450 L 5604.5 -4450.5 M 5604.5 -4450.5 L 5602.4 -4452.4 M 5602.4 -4452.4 L 5601.2 -4455.1 M 5601.2 -4455.1 L 5601.2 -4455.7 M 5601.2 -4455.7 L 5590.2 -4455.7 M 5590.2 -4455.7 L 5590.2 -4450.8 M 5590.2 -4450.8 L 5203.2 -4450.8 M 5203.2 -4450.8 L 5193.2 -4450.8 M 5193.2 -4450.8 L 5193.2 -4440.8 M 5193.2 -4440.8 L 5707.2 -4440.8 M 5707.2 -4440.8 L 5707.2 -4556.8"/><path d="M 5324 -4478.1 L 5323.6 -4480.9 L 5322.8 -4482.2 L 5321.5 -4482.7 L 5320.6 -4482.8 L 5320 -4483.3 L 5319.6 -4484.4 L 5319.3 -4486.5 L 5319.2 -4489.8 L 5319.2 -4494.6 L 5319.2 -4497.3 L 5319.2 -4503 L 5319.3 -4507.1 L 5319.6 -4509.9 L 5320 -4511.8 L 5320.6 -4513.2 L 5321.3 -4514.2 L 5323.1 -4516 L 5325.5 -4516.7 L 5327.7 -4516.8 L 5330.9 -4516.6 L 5333 -4515.5 L 5334.1 -4514.2 L 5335 -4513 L 5335.5 -4511.5 L 5335.9 -4509.5 L 5336.1 -4506.5 L 5336.2 -4502.2 L 5336.2 -4497.3 L 5336.2 -4491.7 L 5336.1 -4487.8 L 5336 -4485.2 L 5335.7 -4483.7 L 5335.1 -4483 L 5334.4 -4482.7 L 5334 -4482.7 L 5332.5 -4482.1 L 5331.7 -4480.6 L 5331.4 -4478.1 L 5331.1 -4473.8 L 5351.2 -4473.8 L 5351.2 -4478.3 L 5351.1 -4481.1 L 5350.6 -4482.4 L 5349.4 -4482.8 L 5348.7 -4482.8 L 5346.2 -4482.8 L 5346.2 -4497.6 L 5346 -4505.4 L 5345.5 -4511.6 L 5344.4 -4516.3 L 5342.7 -4519.8 L 5340.3 -4522.4 L 5337 -4524.4 L 5334.5 -4525.4 L 5328.4 -4526.7 L 5322.5 -4526 L 5319.7 -4525 L 5316.3 -4523.1 L 5313.6 -4520.8 L 5311.7 -4517.9 L 5310.5 -4514 L 5309.7 -4508.8 L 5309.3 -4502.2 L 5309.3 -4497.1 L 5309.2 -4482.8 L 5306.7 -4482.8 L 5305.2 -4482.6 L 5304.4 -4481.7 L 5304.2 -4479.5 L 5304.2 -4478.3 L 5304.2 -4473.8 L 5314.3 -4473.8 L 5324.3 -4473.8 L 5324 -4478.1 L 5324 -4478.1 Z"/><path stroke-width="0.4" fill="none" d="M 5324 -4478.1 L 5323.6 -4480.9 M 5323.6 -4480.9 L 5322.8 -4482.2 M 5322.8 -4482.2 L 5321.5 -4482.7 M 5321.5 -4482.7 L 5320.6 -4482.8 M 5320.6 -4482.8 L 5320 -4483.3 M 5320 -4483.3 L 5319.6 -4484.4 M 5319.6 -4484.4 L 5319.3 -4486.5 M 5319.3 -4486.5 L 5319.2 -4489.8 M 5319.2 -4489.8 L 5319.2 -4494.6 M 5319.2 -4494.6 L 5319.2 -4497.3 M 5319.2 -4497.3 L 5319.2 -4503 M 5319.2 -4503 L 5319.3 -4507.1 M 5319.3 -4507.1 L 5319.6 -4509.9 M 5319.6 -4509.9 L 5320 -4511.8 M 5320 -4511.8 L 5320.6 -4513.2 M 5320.6 -4513.2 L 5321.3 -4514.2 M 5321.3 -4514.2 L 5323.1 -4516 M 5323.1 -4516 L 5325.5 -4516.7 M 5325.5 -4516.7 L 5327.7 -4516.8 M 5327.7 -4516.8 L 5330.9 -4516.6 M 5330.9 -4516.6 L 5333 -4515.5 M 5333 -4515.5 L 5334.1 -4514.2 M 5334.1 -4514.2 L 5335 -4513 M 5335 -4513 L 5335.5 -4511.5 M 5335.5 -4511.5 L 5335.9 -4509.5 M 5335.9 -4509.5 L 5336.1 -4506.5 M 5336.1 -4506.5 L 5336.2 -4502.2 M 5336.2 -4502.2 L 5336.2 -4497.3 M 5336.2 -4497.3 L 5336.2 -4491.7 M 5336.2 -4491.7 L 5336.1 -4487.8 M 5336.1 -4487.8 L 5336 -4485.2 M 5336 -4485.2 L 5335.7 -4483.7 M 5335.7 -4483.7 L 5335.1 -4483 M 5335.1 -4483 L 5334.4 -4482.7 M 5334.4 -4482.7 L 5334 -4482.7 M 5334 -4482.7 L 5332.5 -4482.1 M 5332.5 -4482.1 L 5331.7 -4480.6 M 5331.7 -4480.6 L 5331.4 -4478.1 M 5331.4 -4478.1 L 5331.1 -4473.8 M 5331.1 -4473.8 L 5351.2 -4473.8 M 5351.2 -4473.8 L 5351.2 -4478.3 M 5351.2 -4478.3 L 5351.1 -4481.1 M 5351.1 -4481.1 L 5350.6 -4482.4 M 5350.6 -4482.4 L 5349.4 -4482.8 M 5349.4 -4482.8 L 5348.7 -4482.8 M 5348.7 -4482.8 L 5346.2 -4482.8 M 5346.2 -4482.8 L 5346.2 -4497.6 M 5346.2 -4497.6 L 5346 -4505.4 M 5346 -4505.4 L 5345.5 -4511.6 M 5345.5 -4511.6 L 5344.4 -4516.3 M 5344.4 -4516.3 L 5342.7 -4519.8 M 5342.7 -4519.8 L 5340.3 -4522.4 M 5340.3 -4522.4 L 5337 -4524.4 M 5337 -4524.4 L 5334.5 -4525.4 M 5334.5 -4525.4 L 5328.4 -4526.7 M 5328.4 -4526.7 L 5322.5 -4526 M 5322.5 -4526 L 5319.7 -4525 M 5319.7 -4525 L 5316.3 -4523.1 M 5316.3 -4523.1 L 5313.6 -4520.8 M 5313.6 -4520.8 L 5311.7 -4517.9 M 5311.7 -4517.9 L 5310.5 -4514 M 5310.5 -4514 L 5309.7 -4508.8 M 5309.7 -4508.8 L 5309.3 -4502.2 M 5309.3 -4502.2 L 5309.3 -4497.1 M 5309.3 -4497.1 L 5309.2 -4482.8 M 5309.2 -4482.8 L 5306.7 -4482.8 M 5306.7 -4482.8 L 5305.2 -4482.6 M 5305.2 -4482.6 L 5304.4 -4481.7 M 5304.4 -4481.7 L 5304.2 -4479.5 M 5304.2 -4479.5 L 5304.2 -4478.3 M 5304.2 -4478.3 L 5304.2 -4473.8 M 5304.2 -4473.8 L 5314.3 -4473.8 M 5314.3 -4473.8 L 5324.3 -4473.8 M 5324.3 -4473.8 L 5324 -4478.1"/><path d="M 5254.2 -4491 L 5250.5 -4490.6 L 5248 -4490.3 L 5246.9 -4489.3 L 5246.4 -4487.1 L 5246.4 -4486.6 L 5246.1 -4484.1 L 5245.2 -4483.1 L 5243.1 -4482.8 L 5242.7 -4482.8 L 5239.2 -4482.8 L 5239.2 -4516.7 L 5242 -4517 L 5243.7 -4517.4 L 5244.5 -4518.5 L 5244.7 -4521 L 5244.7 -4521.3 L 5244.7 -4525.3 L 5234.4 -4525.6 L 5229.6 -4525.7 L 5226.4 -4525.6 L 5224.6 -4525.3 L 5223.7 -4524.7 L 5223.6 -4524.5 L 5223.3 -4522.4 L 5223.4 -4520.2 L 5224.1 -4518 L 5225.9 -4517.1 L 5226.5 -4517 L 5229.2 -4516.7 L 5229.2 -4482.8 L 5225.8 -4482.8 L 5223.5 -4483 L 5222.5 -4483.9 L 5222.1 -4486.1 L 5222 -4486.6 L 5221.7 -4489.1 L 5220.7 -4490.2 L 5218.5 -4490.6 L 5218 -4490.6 L 5214.2 -4491 L 5214.2 -4473.8 L 5254.2 -4473.8 L 5254.2 -4491 L 5254.2 -4491 Z"/><path stroke-width="0.4" fill="none" d="M 5254.2 -4491 L 5250.5 -4490.6 M 5250.5 -4490.6 L 5248 -4490.3 M 5248 -4490.3 L 5246.9 -4489.3 M 5246.9 -4489.3 L 5246.4 -4487.1 M 5246.4 -4487.1 L 5246.4 -4486.6 M 5246.4 -4486.6 L 5246.1 -4484.1 M 5246.1 -4484.1 L 5245.2 -4483.1 M 5245.2 -4483.1 L 5243.1 -4482.8 M 5243.1 -4482.8 L 5242.7 -4482.8 M 5242.7 -4482.8 L 5239.2 -4482.8 M 5239.2 -4482.8 L 5239.2 -4516.7 M 5239.2 -4516.7 L 5242 -4517 M 5242 -4517 L 5243.7 -4517.4 M 5243.7 -4517.4 L 5244.5 -4518.5 M 5244.5 -4518.5 L 5244.7 -4521 M 5244.7 -4521 L 5244.7 -4521.3 M 5244.7 -4521.3 L 5244.7 -4525.3 M 5244.7 -4525.3 L 5234.4 -4525.6 M 5234.4 -4525.6 L 5229.6 -4525.7 M 5229.6 -4525.7 L 5226.4 -4525.6 M 5226.4 -4525.6 L 5224.6 -4525.3 M 5224.6 -4525.3 L 5223.7 -4524.7 M 5223.7 -4524.7 L 5223.6 -4524.5 M 5223.6 -4524.5 L 5223.3 -4522.4 M 5223.3 -4522.4 L 5223.4 -4520.2 M 5223.4 -4520.2 L 5224.1 -4518 M 5224.1 -4518 L 5225.9 -4517.1 M 5225.9 -4517.1 L 5226.5 -4517 M 5226.5 -4517 L 5229.2 -4516.7 M 5229.2 -4516.7 L 5229.2 -4482.8 M 5229.2 -4482.8 L 5225.8 -4482.8 M 5225.8 -4482.8 L 5223.5 -4483 M 5223.5 -4483 L 5222.5 -4483.9 M 5222.5 -4483.9 L 5222.1 -4486.1 M 5222.1 -4486.1 L 5222 -4486.6 M 5222 -4486.6 L 5221.7 -4489.1 M 5221.7 -4489.1 L 5220.7 -4490.2 M 5220.7 -4490.2 L 5218.5 -4490.6 M 5218.5 -4490.6 L 5218 -4490.6 M 5218 -4490.6 L 5214.2 -4491 M 5214.2 -4491 L 5214.2 -4473.8 M 5214.2 -4473.8 L 5254.2 -4473.8 M 5254.2 -4473.8 L 5254.2 -4491"/><path d="M 5291.8 -4495.3 L 5294.6 -4502.1 L 5296.9 -4507.4 L 5298.5 -4511.2 L 5299.8 -4513.8 L 5300.9 -4515.5 L 5301.7 -4516.4 L 5302.6 -4516.7 L 5303.5 -4516.8 L 5303.5 -4516.8 L 5305.2 -4517 L 5306 -4517.8 L 5306.2 -4519.8 L 5306.2 -4521.4 L 5306.2 -4525.9 L 5284.7 -4525.3 L 5284.7 -4521.8 L 5284.9 -4519.4 L 5286 -4518.3 L 5287.4 -4517.8 L 5289.1 -4517.4 L 5289.5 -4516.5 L 5288.9 -4514.6 L 5288.7 -4514.1 L 5287.3 -4510.8 L 5278.2 -4510.8 L 5273.9 -4510.9 L 5271.2 -4511 L 5269.6 -4511.4 L 5268.8 -4512.1 L 5268.2 -4513.3 L 5268.2 -4513.4 L 5267.4 -4516 L 5267.6 -4517.4 L 5269 -4517.9 L 5269.5 -4518 L 5271 -4518.7 L 5271.8 -4520.4 L 5272 -4522.1 L 5272.3 -4525.8 L 5251.2 -4525.8 L 5251.2 -4521.3 L 5251.3 -4518.6 L 5251.8 -4517.3 L 5253.1 -4516.9 L 5254 -4516.8 L 5255 -4516.7 L 5255.9 -4516.3 L 5256.8 -4515.2 L 5257.9 -4513.3 L 5259.4 -4510.3 L 5261.3 -4506 L 5262.8 -4502.4 L 5272.2 -4502.4 L 5273.1 -4502.6 L 5275.5 -4502.8 L 5278.2 -4502.8 L 5281.9 -4502.7 L 5283.8 -4502.1 L 5284.2 -4501.6 L 5283.8 -4500.1 L 5282.9 -4497.3 L 5281.6 -4493.7 L 5281.3 -4492.9 L 5278.5 -4485.5 L 5275.4 -4493.7 L 5274 -4497.5 L 5272.9 -4500.4 L 5272.3 -4502.2 L 5272.2 -4502.4 L 5262.8 -4502.4 L 5263.8 -4500.1 L 5270.9 -4483.3 L 5268.3 -4482.8 L 5266.6 -4482.2 L 5265.9 -4480.9 L 5265.7 -4478.3 L 5265.7 -4474.3 L 5274.3 -4474 L 5282.9 -4473.8 L 5291.8 -4495.3 L 5291.8 -4495.3 Z"/><path stroke-width="0.4" fill="none" d="M 5291.8 -4495.3 L 5294.6 -4502.1 M 5294.6 -4502.1 L 5296.9 -4507.4 M 5296.9 -4507.4 L 5298.5 -4511.2 M 5298.5 -4511.2 L 5299.8 -4513.8 M 5299.8 -4513.8 L 5300.9 -4515.5 M 5300.9 -4515.5 L 5301.7 -4516.4 M 5301.7 -4516.4 L 5302.6 -4516.7 M 5302.6 -4516.7 L 5303.5 -4516.8 M 5303.5 -4516.8 L 5303.5 -4516.8 M 5303.5 -4516.8 L 5305.2 -4517 M 5305.2 -4517 L 5306 -4517.8 M 5306 -4517.8 L 5306.2 -4519.8 M 5306.2 -4519.8 L 5306.2 -4521.4 M 5306.2 -4521.4 L 5306.2 -4525.9 M 5306.2 -4525.9 L 5284.7 -4525.3 M 5284.7 -4525.3 L 5284.7 -4521.8 M 5284.7 -4521.8 L 5284.9 -4519.4 M 5284.9 -4519.4 L 5286 -4518.3 M 5286 -4518.3 L 5287.4 -4517.8 M 5287.4 -4517.8 L 5289.1 -4517.4 M 5289.1 -4517.4 L 5289.5 -4516.5 M 5289.5 -4516.5 L 5288.9 -4514.6 M 5288.9 -4514.6 L 5288.7 -4514.1 M 5288.7 -4514.1 L 5287.3 -4510.8 M 5287.3 -4510.8 L 5278.2 -4510.8 M 5278.2 -4510.8 L 5273.9 -4510.9 M 5273.9 -4510.9 L 5271.2 -4511 M 5271.2 -4511 L 5269.6 -4511.4 M 5269.6 -4511.4 L 5268.8 -4512.1 M 5268.8 -4512.1 L 5268.2 -4513.3 M 5268.2 -4513.3 L 5268.2 -4513.4 M 5268.2 -4513.4 L 5267.4 -4516 M 5267.4 -4516 L 5267.6 -4517.4 M 5267.6 -4517.4 L 5269 -4517.9 M 5269 -4517.9 L 5269.5 -4518 M 5269.5 -4518 L 5271 -4518.7 M 5271 -4518.7 L 5271.8 -4520.4 M 5271.8 -4520.4 L 5272 -4522.1 M 5272 -4522.1 L 5272.3 -4525.8 M 5272.3 -4525.8 L 5251.2 -4525.8 M 5251.2 -4525.8 L 5251.2 -4521.3 M 5251.2 -4521.3 L 5251.3 -4518.6 M 5251.3 -4518.6 L 5251.8 -4517.3 M 5251.8 -4517.3 L 5253.1 -4516.9 M 5253.1 -4516.9 L 5254 -4516.8 M 5254 -4516.8 L 5255 -4516.7 M 5255 -4516.7 L 5255.9 -4516.3 M 5255.9 -4516.3 L 5256.8 -4515.2 M 5256.8 -4515.2 L 5257.9 -4513.3 M 5257.9 -4513.3 L 5259.4 -4510.3 M 5259.4 -4510.3 L 5261.3 -4506 M 5261.3 -4506 L 5262.8 -4502.4 M 5262.8 -4502.4 L 5272.2 -4502.4 M 5272.2 -4502.4 L 5273.1 -4502.6 M 5273.1 -4502.6 L 5275.5 -4502.8 M 5275.5 -4502.8 L 5278.2 -4502.8 M 5278.2 -4502.8 L 5281.9 -4502.7 M 5281.9 -4502.7 L 5283.8 -4502.1 M 5283.8 -4502.1 L 5284.2 -4501.6 M 5284.2 -4501.6 L 5283.8 -4500.1 M 5283.8 -4500.1 L 5282.9 -4497.3 M 5282.9 -4497.3 L 5281.6 -4493.7 M 5281.6 -4493.7 L 5281.3 -4492.9 M 5281.3 -4492.9 L 5278.5 -4485.5 M 5278.5 -4485.5 L 5275.4 -4493.7 M 5275.4 -4493.7 L 5274 -4497.5 M 5274 -4497.5 L 5272.9 -4500.4 M 5272.9 -4500.4 L 5272.3 -4502.2 M 5272.3 -4502.2 L 5272.2 -4502.4 M 5272.2 -4502.4 L 5262.8 -4502.4 M 5262.8 -4502.4 L 5263.8 -4500.1 M 5263.8 -4500.1 L 5270.9 -4483.3 M 5270.9 -4483.3 L 5268.3 -4482.8 M 5268.3 -4482.8 L 5266.6 -4482.2 M 5266.6 -4482.2 L 5265.9 -4480.9 M 5265.9 -4480.9 L 5265.7 -4478.3 M 5265.7 -4478.3 L 5265.7 -4474.3 M 5265.7 -4474.3 L 5274.3 -4474 M 5274.3 -4474 L 5282.9 -4473.8 M 5282.9 -4473.8 L 5291.8 -4495.3"/><path d="M 5367.7 -4473.8 L 5374.5 -4473.9 L 5379.6 -4474.3 L 5383.5 -4475 L 5386.3 -4476 L 5388.5 -4477.6 L 5390 -4479.3 L 5392 -4483.3 L 5392.3 -4487.8 L 5391.1 -4492.2 L 5389.2 -4495.1 L 5386.3 -4498.5 L 5388.6 -4499.8 L 5391.6 -4502.4 L 5393.6 -4506.3 L 5394.5 -4510.8 L 5394 -4515.4 L 5392.7 -4518.5 L 5391.1 -4520.9 L 5389.3 -4522.7 L 5386.8 -4523.9 L 5383.6 -4524.8 L 5379.1 -4525.3 L 5373 -4525.6 L 5369.4 -4525.7 L 5354.1 -4526 L 5354.4 -4521.7 L 5354.7 -4518.9 L 5355.5 -4517.6 L 5357 -4517.1 L 5357.5 -4517 L 5360.2 -4516.7 L 5360.2 -4502.8 L 5370.2 -4502.8 L 5370.2 -4516.8 L 5375.6 -4516.8 L 5379 -4516.7 L 5381.1 -4516.1 L 5382.7 -4514.8 L 5383.1 -4514.2 L 5384.9 -4511 L 5384.8 -4508.2 L 5382.8 -4505.3 L 5382.8 -4505.3 L 5380.7 -4503.7 L 5378.1 -4503 L 5375.3 -4502.8 L 5370.2 -4502.8 L 5360.2 -4502.8 L 5360.2 -4483 L 5359.1 -4482.8 L 5370.2 -4482.8 L 5370.2 -4494.8 L 5374.5 -4494.8 L 5377.7 -4494.5 L 5380.5 -4493.6 L 5381 -4493.3 L 5382.8 -4490.9 L 5383.1 -4487.7 L 5382.2 -4484.8 L 5381.1 -4483.6 L 5379.2 -4483 L 5375.9 -4482.8 L 5375.7 -4482.8 L 5370.2 -4482.8 L 5359.1 -4482.8 L 5357.5 -4482.7 L 5355.7 -4482.2 L 5354.8 -4481.1 L 5354.4 -4478.6 L 5354.4 -4478.1 L 5354.1 -4473.8 L 5367.7 -4473.8 L 5367.7 -4473.8 Z"/><path stroke-width="0.4" fill="none" d="M 5367.7 -4473.8 L 5374.5 -4473.9 M 5374.5 -4473.9 L 5379.6 -4474.3 M 5379.6 -4474.3 L 5383.5 -4475 M 5383.5 -4475 L 5386.3 -4476 M 5386.3 -4476 L 5388.5 -4477.6 M 5388.5 -4477.6 L 5390 -4479.3 M 5390 -4479.3 L 5392 -4483.3 M 5392 -4483.3 L 5392.3 -4487.8 M 5392.3 -4487.8 L 5391.1 -4492.2 M 5391.1 -4492.2 L 5389.2 -4495.1 M 5389.2 -4495.1 L 5386.3 -4498.5 M 5386.3 -4498.5 L 5388.6 -4499.8 M 5388.6 -4499.8 L 5391.6 -4502.4 M 5391.6 -4502.4 L 5393.6 -4506.3 M 5393.6 -4506.3 L 5394.5 -4510.8 M 5394.5 -4510.8 L 5394 -4515.4 M 5394 -4515.4 L 5392.7 -4518.5 M 5392.7 -4518.5 L 5391.1 -4520.9 M 5391.1 -4520.9 L 5389.3 -4522.7 M 5389.3 -4522.7 L 5386.8 -4523.9 M 5386.8 -4523.9 L 5383.6 -4524.8 M 5383.6 -4524.8 L 5379.1 -4525.3 M 5379.1 -4525.3 L 5373 -4525.6 M 5373 -4525.6 L 5369.4 -4525.7 M 5369.4 -4525.7 L 5354.1 -4526 M 5354.1 -4526 L 5354.4 -4521.7 M 5354.4 -4521.7 L 5354.7 -4518.9 M 5354.7 -4518.9 L 5355.5 -4517.6 M 5355.5 -4517.6 L 5357 -4517.1 M 5357 -4517.1 L 5357.5 -4517 M 5357.5 -4517 L 5360.2 -4516.7 M 5360.2 -4516.7 L 5360.2 -4502.8 M 5360.2 -4502.8 L 5370.2 -4502.8 M 5370.2 -4502.8 L 5370.2 -4516.8 M 5370.2 -4516.8 L 5375.6 -4516.8 M 5375.6 -4516.8 L 5379 -4516.7 M 5379 -4516.7 L 5381.1 -4516.1 M 5381.1 -4516.1 L 5382.7 -4514.8 M 5382.7 -4514.8 L 5383.1 -4514.2 M 5383.1 -4514.2 L 5384.9 -4511 M 5384.9 -4511 L 5384.8 -4508.2 M 5384.8 -4508.2 L 5382.8 -4505.3 M 5382.8 -4505.3 L 5382.8 -4505.3 M 5382.8 -4505.3 L 5380.7 -4503.7 M 5380.7 -4503.7 L 5378.1 -4503 M 5378.1 -4503 L 5375.3 -4502.8 M 5375.3 -4502.8 L 5370.2 -4502.8 M 5370.2 -4502.8 L 5360.2 -4502.8 M 5360.2 -4502.8 L 5360.2 -4483 M 5360.2 -4483 L 5359.1 -4482.8 M 5359.1 -4482.8 L 5370.2 -4482.8 M 5370.2 -4482.8 L 5370.2 -4494.8 M 5370.2 -4494.8 L 5374.5 -4494.8 M 5374.5 -4494.8 L 5377.7 -4494.5 M 5377.7 -4494.5 L 5380.5 -4493.6 M 5380.5 -4493.6 L 5381 -4493.3 M 5381 -4493.3 L 5382.8 -4490.9 M 5382.8 -4490.9 L 5383.1 -4487.7 M 5383.1 -4487.7 L 5382.2 -4484.8 M 5382.2 -4484.8 L 5381.1 -4483.6 M 5381.1 -4483.6 L 5379.2 -4483 M 5379.2 -4483 L 5375.9 -4482.8 M 5375.9 -4482.8 L 5375.7 -4482.8 M 5375.7 -4482.8 L 5370.2 -4482.8 M 5370.2 -4482.8 L 5359.1 -4482.8 M 5359.1 -4482.8 L 5357.5 -4482.7 M 5357.5 -4482.7 L 5355.7 -4482.2 M 5355.7 -4482.2 L 5354.8 -4481.1 M 5354.8 -4481.1 L 5354.4 -4478.6 M 5354.4 -4478.6 L 5354.4 -4478.1 M 5354.4 -4478.1 L 5354.1 -4473.8 M 5354.1 -4473.8 L 5367.7 -4473.8"/><path d="M 5416.6 -4474.3 L 5423.4 -4491.7 L 5425.5 -4497.2 L 5427.5 -4502 L 5429 -4505.9 L 5430.1 -4508.5 L 5430.5 -4509.5 L 5430.5 -4509.5 L 5431 -4508.7 L 5432 -4506.3 L 5433.5 -4502.6 L 5435.4 -4497.9 L 5437.5 -4492.4 L 5437.7 -4491.8 L 5444.6 -4473.8 L 5463.7 -4474.3 L 5463.7 -4478.3 L 5463.6 -4480.9 L 5462.9 -4482.2 L 5461.2 -4482.6 L 5461 -4482.7 L 5458.2 -4483 L 5458.2 -4516.7 L 5461 -4517 L 5462.7 -4517.4 L 5463.5 -4518.5 L 5463.7 -4521 L 5463.7 -4521.3 L 5463.7 -4525.3 L 5453.5 -4525.6 L 5443.2 -4525.9 L 5443.2 -4521.4 L 5443.3 -4518.6 L 5443.8 -4517.3 L 5445 -4516.9 L 5445.7 -4516.8 L 5448.2 -4516.8 L 5448.2 -4503.2 L 5448.2 -4498.2 L 5448.1 -4494.2 L 5448 -4491.3 L 5447.8 -4490 L 5447.8 -4490 L 5447.3 -4491 L 5446.2 -4493.6 L 5444.7 -4497.5 L 5442.9 -4502.4 L 5440.9 -4507.9 L 5434.4 -4525.3 L 5431 -4525.6 L 5427.5 -4525.9 L 5423.9 -4516.6 L 5421.8 -4511.2 L 5419.4 -4505.1 L 5417.3 -4499.5 L 5416.8 -4498.3 L 5413.3 -4489.3 L 5413.3 -4503 L 5413.2 -4516.7 L 5416 -4517 L 5417.7 -4517.4 L 5418.5 -4518.5 L 5418.7 -4521 L 5418.7 -4521.3 L 5418.7 -4525.3 L 5407.9 -4525.6 L 5397.1 -4525.9 L 5397.4 -4521.6 L 5397.7 -4518.9 L 5398.5 -4517.6 L 5400.1 -4517.1 L 5400.5 -4517 L 5403.2 -4516.7 L 5403.2 -4483 L 5400.5 -4482.7 L 5398.7 -4482.2 L 5397.8 -4481.1 L 5397.5 -4478.7 L 5397.4 -4478 L 5397.1 -4473.8 L 5416.6 -4474.3 L 5416.6 -4474.3 Z"/><path stroke-width="0.4" fill="none" d="M 5416.6 -4474.3 L 5423.4 -4491.7 M 5423.4 -4491.7 L 5425.5 -4497.2 M 5425.5 -4497.2 L 5427.5 -4502 M 5427.5 -4502 L 5429 -4505.9 M 5429 -4505.9 L 5430.1 -4508.5 M 5430.1 -4508.5 L 5430.5 -4509.5 M 5430.5 -4509.5 L 5430.5 -4509.5 M 5430.5 -4509.5 L 5431 -4508.7 M 5431 -4508.7 L 5432 -4506.3 M 5432 -4506.3 L 5433.5 -4502.6 M 5433.5 -4502.6 L 5435.4 -4497.9 M 5435.4 -4497.9 L 5437.5 -4492.4 M 5437.5 -4492.4 L 5437.7 -4491.8 M 5437.7 -4491.8 L 5444.6 -4473.8 M 5444.6 -4473.8 L 5463.7 -4474.3 M 5463.7 -4474.3 L 5463.7 -4478.3 M 5463.7 -4478.3 L 5463.6 -4480.9 M 5463.6 -4480.9 L 5462.9 -4482.2 M 5462.9 -4482.2 L 5461.2 -4482.6 M 5461.2 -4482.6 L 5461 -4482.7 M 5461 -4482.7 L 5458.2 -4483 M 5458.2 -4483 L 5458.2 -4516.7 M 5458.2 -4516.7 L 5461 -4517 M 5461 -4517 L 5462.7 -4517.4 M 5462.7 -4517.4 L 5463.5 -4518.5 M 5463.5 -4518.5 L 5463.7 -4521 M 5463.7 -4521 L 5463.7 -4521.3 M 5463.7 -4521.3 L 5463.7 -4525.3 M 5463.7 -4525.3 L 5453.5 -4525.6 M 5453.5 -4525.6 L 5443.2 -4525.9 M 5443.2 -4525.9 L 5443.2 -4521.4 M 5443.2 -4521.4 L 5443.3 -4518.6 M 5443.3 -4518.6 L 5443.8 -4517.3 M 5443.8 -4517.3 L 5445 -4516.9 M 5445 -4516.9 L 5445.7 -4516.8 M 5445.7 -4516.8 L 5448.2 -4516.8 M 5448.2 -4516.8 L 5448.2 -4503.2 M 5448.2 -4503.2 L 5448.2 -4498.2 M 5448.2 -4498.2 L 5448.1 -4494.2 M 5448.1 -4494.2 L 5448 -4491.3 M 5448 -4491.3 L 5447.8 -4490 M 5447.8 -4490 L 5447.8 -4490 M 5447.8 -4490 L 5447.3 -4491 M 5447.3 -4491 L 5446.2 -4493.6 M 5446.2 -4493.6 L 5444.7 -4497.5 M 5444.7 -4497.5 L 5442.9 -4502.4 M 5442.9 -4502.4 L 5440.9 -4507.9 M 5440.9 -4507.9 L 5434.4 -4525.3 M 5434.4 -4525.3 L 5431 -4525.6 M 5431 -4525.6 L 5427.5 -4525.9 M 5427.5 -4525.9 L 5423.9 -4516.6 M 5423.9 -4516.6 L 5421.8 -4511.2 M 5421.8 -4511.2 L 5419.4 -4505.1 M 5419.4 -4505.1 L 5417.3 -4499.5 M 5417.3 -4499.5 L 5416.8 -4498.3 M 5416.8 -4498.3 L 5413.3 -4489.3 M 5413.3 -4489.3 L 5413.3 -4503 M 5413.3 -4503 L 5413.2 -4516.7 M 5413.2 -4516.7 L 5416 -4517 M 5416 -4517 L 5417.7 -4517.4 M 5417.7 -4517.4 L 5418.5 -4518.5 M 5418.5 -4518.5 L 5418.7 -4521 M 5418.7 -4521 L 5418.7 -4521.3 M 5418.7 -4521.3 L 5418.7 -4525.3 M 5418.7 -4525.3 L 5407.9 -4525.6 M 5407.9 -4525.6 L 5397.1 -4525.9 M 5397.1 -4525.9 L 5397.4 -4521.6 M 5397.4 -4521.6 L 5397.7 -4518.9 M 5397.7 -4518.9 L 5398.5 -4517.6 M 5398.5 -4517.6 L 5400.1 -4517.1 M 5400.1 -4517.1 L 5400.5 -4517 M 5400.5 -4517 L 5403.2 -4516.7 M 5403.2 -4516.7 L 5403.2 -4483 M 5403.2 -4483 L 5400.5 -4482.7 M 5400.5 -4482.7 L 5398.7 -4482.2 M 5398.7 -4482.2 L 5397.8 -4481.1 M 5397.8 -4481.1 L 5397.5 -4478.7 M 5397.5 -4478.7 L 5397.4 -4478 M 5397.4 -4478 L 5397.1 -4473.8 M 5397.1 -4473.8 L 5416.6 -4474.3"/><path d="M 5488.9 -4474 L 5497.6 -4474.3 L 5506.3 -4495.3 L 5509.2 -4502.1 L 5511.4 -4507.3 L 5513.1 -4511 L 5514.4 -4513.6 L 5515.4 -4515.3 L 5516.4 -4516.2 L 5517.3 -4516.7 L 5517.9 -4516.8 L 5519.7 -4517.4 L 5520.6 -4518.6 L 5521 -4521.2 L 5521 -4521.6 L 5521.3 -4525.8 L 5499.2 -4525.8 L 5499.2 -4521.8 L 5499.3 -4519.3 L 5500 -4518.1 L 5501.5 -4517.8 L 5501.7 -4517.8 L 5503.6 -4517.6 L 5504.1 -4516.5 L 5503.4 -4514.2 L 5503.1 -4513.4 L 5502.4 -4512.2 L 5501.5 -4511.4 L 5499.9 -4511 L 5497.3 -4510.9 L 5493 -4510.8 L 5492.7 -4510.8 L 5488.2 -4510.9 L 5485.4 -4511.1 L 5483.8 -4511.5 L 5483.1 -4512.2 L 5482.9 -4512.6 L 5482.1 -4515.1 L 5481.7 -4516.1 L 5481.6 -4517.4 L 5482.9 -4517.8 L 5483.6 -4517.8 L 5485.3 -4518 L 5486 -4519 L 5486.2 -4521.4 L 5486.2 -4521.8 L 5486.2 -4525.8 L 5465.1 -4525.8 L 5465.4 -4521.6 L 5465.8 -4518.9 L 5466.6 -4517.5 L 5468.3 -4516.9 L 5468.5 -4516.8 L 5469.6 -4516.5 L 5470.7 -4515.8 L 5471.8 -4514.3 L 5473.1 -4511.9 L 5474.8 -4508.3 L 5477 -4503.2 L 5477.2 -4502.8 L 5486.5 -4502.8 L 5492.9 -4502.8 L 5496.4 -4502.8 L 5498.3 -4502.5 L 5498.9 -4502 L 5498.7 -4501.1 L 5498 -4499.2 L 5496.9 -4496.2 L 5496.2 -4494.1 L 5494.7 -4490.1 L 5493.6 -4487.9 L 5492.7 -4487.6 L 5491.7 -4489.1 L 5490.3 -4492.5 L 5489.6 -4494.4 L 5486.5 -4502.8 L 5477.2 -4502.8 L 5477.8 -4501.4 L 5480.5 -4495.1 L 5482.5 -4490.4 L 5483.8 -4487.1 L 5484.6 -4484.9 L 5484.8 -4483.7 L 5484.5 -4483 L 5483.9 -4482.8 L 5483 -4482.8 L 5482.8 -4482.8 L 5481.2 -4482.7 L 5480.5 -4481.8 L 5480.2 -4479.7 L 5480.2 -4478.3 L 5480.2 -4473.8 L 5488.9 -4474 L 5488.9 -4474 Z"/><path stroke-width="0.4" fill="none" d="M 5488.9 -4474 L 5497.6 -4474.3 M 5497.6 -4474.3 L 5506.3 -4495.3 M 5506.3 -4495.3 L 5509.2 -4502.1 M 5509.2 -4502.1 L 5511.4 -4507.3 M 5511.4 -4507.3 L 5513.1 -4511 M 5513.1 -4511 L 5514.4 -4513.6 M 5514.4 -4513.6 L 5515.4 -4515.3 M 5515.4 -4515.3 L 5516.4 -4516.2 M 5516.4 -4516.2 L 5517.3 -4516.7 M 5517.3 -4516.7 L 5517.9 -4516.8 M 5517.9 -4516.8 L 5519.7 -4517.4 M 5519.7 -4517.4 L 5520.6 -4518.6 M 5520.6 -4518.6 L 5521 -4521.2 M 5521 -4521.2 L 5521 -4521.6 M 5521 -4521.6 L 5521.3 -4525.8 M 5521.3 -4525.8 L 5499.2 -4525.8 M 5499.2 -4525.8 L 5499.2 -4521.8 M 5499.2 -4521.8 L 5499.3 -4519.3 M 5499.3 -4519.3 L 5500 -4518.1 M 5500 -4518.1 L 5501.5 -4517.8 M 5501.5 -4517.8 L 5501.7 -4517.8 M 5501.7 -4517.8 L 5503.6 -4517.6 M 5503.6 -4517.6 L 5504.1 -4516.5 M 5504.1 -4516.5 L 5503.4 -4514.2 M 5503.4 -4514.2 L 5503.1 -4513.4 M 5503.1 -4513.4 L 5502.4 -4512.2 M 5502.4 -4512.2 L 5501.5 -4511.4 M 5501.5 -4511.4 L 5499.9 -4511 M 5499.9 -4511 L 5497.3 -4510.9 M 5497.3 -4510.9 L 5493 -4510.8 M 5493 -4510.8 L 5492.7 -4510.8 M 5492.7 -4510.8 L 5488.2 -4510.9 M 5488.2 -4510.9 L 5485.4 -4511.1 M 5485.4 -4511.1 L 5483.8 -4511.5 M 5483.8 -4511.5 L 5483.1 -4512.2 M 5483.1 -4512.2 L 5482.9 -4512.6 M 5482.9 -4512.6 L 5482.1 -4515.1 M 5482.1 -4515.1 L 5481.7 -4516.1 M 5481.7 -4516.1 L 5481.6 -4517.4 M 5481.6 -4517.4 L 5482.9 -4517.8 M 5482.9 -4517.8 L 5483.6 -4517.8 M 5483.6 -4517.8 L 5485.3 -4518 M 5485.3 -4518 L 5486 -4519 M 5486 -4519 L 5486.2 -4521.4 M 5486.2 -4521.4 L 5486.2 -4521.8 M 5486.2 -4521.8 L 5486.2 -4525.8 M 5486.2 -4525.8 L 5465.1 -4525.8 M 5465.1 -4525.8 L 5465.4 -4521.6 M 5465.4 -4521.6 L 5465.8 -4518.9 M 5465.8 -4518.9 L 5466.6 -4517.5 M 5466.6 -4517.5 L 5468.3 -4516.9 M 5468.3 -4516.9 L 5468.5 -4516.8 M 5468.5 -4516.8 L 5469.6 -4516.5 M 5469.6 -4516.5 L 5470.7 -4515.8 M 5470.7 -4515.8 L 5471.8 -4514.3 M 5471.8 -4514.3 L 5473.1 -4511.9 M 5473.1 -4511.9 L 5474.8 -4508.3 M 5474.8 -4508.3 L 5477 -4503.2 M 5477 -4503.2 L 5477.2 -4502.8 M 5477.2 -4502.8 L 5486.5 -4502.8 M 5486.5 -4502.8 L 5492.9 -4502.8 M 5492.9 -4502.8 L 5496.4 -4502.8 M 5496.4 -4502.8 L 5498.3 -4502.5 M 5498.3 -4502.5 L 5498.9 -4502 M 5498.9 -4502 L 5498.7 -4501.1 M 5498.7 -4501.1 L 5498 -4499.2 M 5498 -4499.2 L 5496.9 -4496.2 M 5496.9 -4496.2 L 5496.2 -4494.1 M 5496.2 -4494.1 L 5494.7 -4490.1 M 5494.7 -4490.1 L 5493.6 -4487.9 M 5493.6 -4487.9 L 5492.7 -4487.6 M 5492.7 -4487.6 L 5491.7 -4489.1 M 5491.7 -4489.1 L 5490.3 -4492.5 M 5490.3 -4492.5 L 5489.6 -4494.4 M 5489.6 -4494.4 L 5486.5 -4502.8 M 5486.5 -4502.8 L 5477.2 -4502.8 M 5477.2 -4502.8 L 5477.8 -4501.4 M 5477.8 -4501.4 L 5480.5 -4495.1 M 5480.5 -4495.1 L 5482.5 -4490.4 M 5482.5 -4490.4 L 5483.8 -4487.1 M 5483.8 -4487.1 L 5484.6 -4484.9 M 5484.6 -4484.9 L 5484.8 -4483.7 M 5484.8 -4483.7 L 5484.5 -4483 M 5484.5 -4483 L 5483.9 -4482.8 M 5483.9 -4482.8 L 5483 -4482.8 M 5483 -4482.8 L 5482.8 -4482.8 M 5482.8 -4482.8 L 5481.2 -4482.7 M 5481.2 -4482.7 L 5480.5 -4481.8 M 5480.5 -4481.8 L 5480.2 -4479.7 M 5480.2 -4479.7 L 5480.2 -4478.3 M 5480.2 -4478.3 L 5480.2 -4473.8 M 5480.2 -4473.8 L 5488.9 -4474"/><path d="M 5577 -4478.1 L 5576.7 -4480.8 L 5575.9 -4482.1 L 5574.3 -4482.6 L 5574 -4482.7 L 5571.2 -4483 L 5571.2 -4525.8 L 5562.5 -4525.8 L 5550.8 -4509.3 L 5547.2 -4504.3 L 5544 -4500 L 5541.4 -4496.4 L 5539.6 -4494 L 5538.7 -4492.9 L 5538.6 -4492.8 L 5538.5 -4493.8 L 5538.3 -4496.3 L 5538.2 -4500.1 L 5538.2 -4504.7 L 5538.2 -4516.7 L 5541 -4517 L 5542.7 -4517.4 L 5543.5 -4518.5 L 5543.7 -4521 L 5543.7 -4521.3 L 5543.7 -4525.3 L 5533.5 -4525.6 L 5523.2 -4525.9 L 5523.2 -4521.4 L 5523.3 -4518.6 L 5523.8 -4517.3 L 5525 -4516.9 L 5525.7 -4516.8 L 5528.2 -4516.8 L 5528.2 -4482.8 L 5525.7 -4482.8 L 5524.2 -4482.6 L 5523.4 -4481.7 L 5523.2 -4479.5 L 5523.2 -4478.3 L 5523.2 -4473.8 L 5537.1 -4473.8 L 5547.6 -4488.6 L 5551.1 -4493.5 L 5554.2 -4497.9 L 5556.9 -4501.6 L 5558.7 -4504.2 L 5559.6 -4505.3 L 5560.3 -4506 L 5560.7 -4505.9 L 5561 -4504.8 L 5561.1 -4502.3 L 5561.2 -4498.3 L 5561.2 -4495.1 L 5561.2 -4482.8 L 5558.7 -4482.8 L 5557.2 -4482.6 L 5556.4 -4481.7 L 5556.2 -4479.5 L 5556.2 -4478.3 L 5556.2 -4473.8 L 5566.8 -4473.8 L 5577.3 -4473.8 L 5577 -4478.1 L 5577 -4478.1 Z"/><path stroke-width="0.4" fill="none" d="M 5577 -4478.1 L 5576.7 -4480.8 M 5576.7 -4480.8 L 5575.9 -4482.1 M 5575.9 -4482.1 L 5574.3 -4482.6 M 5574.3 -4482.6 L 5574 -4482.7 M 5574 -4482.7 L 5571.2 -4483 M 5571.2 -4483 L 5571.2 -4525.8 M 5571.2 -4525.8 L 5562.5 -4525.8 M 5562.5 -4525.8 L 5550.8 -4509.3 M 5550.8 -4509.3 L 5547.2 -4504.3 M 5547.2 -4504.3 L 5544 -4500 M 5544 -4500 L 5541.4 -4496.4 M 5541.4 -4496.4 L 5539.6 -4494 M 5539.6 -4494 L 5538.7 -4492.9 M 5538.7 -4492.9 L 5538.6 -4492.8 M 5538.6 -4492.8 L 5538.5 -4493.8 M 5538.5 -4493.8 L 5538.3 -4496.3 M 5538.3 -4496.3 L 5538.2 -4500.1 M 5538.2 -4500.1 L 5538.2 -4504.7 M 5538.2 -4504.7 L 5538.2 -4516.7 M 5538.2 -4516.7 L 5541 -4517 M 5541 -4517 L 5542.7 -4517.4 M 5542.7 -4517.4 L 5543.5 -4518.5 M 5543.5 -4518.5 L 5543.7 -4521 M 5543.7 -4521 L 5543.7 -4521.3 M 5543.7 -4521.3 L 5543.7 -4525.3 M 5543.7 -4525.3 L 5533.5 -4525.6 M 5533.5 -4525.6 L 5523.2 -4525.9 M 5523.2 -4525.9 L 5523.2 -4521.4 M 5523.2 -4521.4 L 5523.3 -4518.6 M 5523.3 -4518.6 L 5523.8 -4517.3 M 5523.8 -4517.3 L 5525 -4516.9 M 5525 -4516.9 L 5525.7 -4516.8 M 5525.7 -4516.8 L 5528.2 -4516.8 M 5528.2 -4516.8 L 5528.2 -4482.8 M 5528.2 -4482.8 L 5525.7 -4482.8 M 5525.7 -4482.8 L 5524.2 -4482.6 M 5524.2 -4482.6 L 5523.4 -4481.7 M 5523.4 -4481.7 L 5523.2 -4479.5 M 5523.2 -4479.5 L 5523.2 -4478.3 M 5523.2 -4478.3 L 5523.2 -4473.8 M 5523.2 -4473.8 L 5537.1 -4473.8 M 5537.1 -4473.8 L 5547.6 -4488.6 M 5547.6 -4488.6 L 5551.1 -4493.5 M 5551.1 -4493.5 L 5554.2 -4497.9 M 5554.2 -4497.9 L 5556.9 -4501.6 M 5556.9 -4501.6 L 5558.7 -4504.2 M 5558.7 -4504.2 L 5559.6 -4505.3 M 5559.6 -4505.3 L 5560.3 -4506 M 5560.3 -4506 L 5560.7 -4505.9 M 5560.7 -4505.9 L 5561 -4504.8 M 5561 -4504.8 L 5561.1 -4502.3 M 5561.1 -4502.3 L 5561.2 -4498.3 M 5561.2 -4498.3 L 5561.2 -4495.1 M 5561.2 -4495.1 L 5561.2 -4482.8 M 5561.2 -4482.8 L 5558.7 -4482.8 M 5558.7 -4482.8 L 5557.2 -4482.6 M 5557.2 -4482.6 L 5556.4 -4481.7 M 5556.4 -4481.7 L 5556.2 -4479.5 M 5556.2 -4479.5 L 5556.2 -4478.3 M 5556.2 -4478.3 L 5556.2 -4473.8 M 5556.2 -4473.8 L 5566.8 -4473.8 M 5566.8 -4473.8 L 5577.3 -4473.8 M 5577.3 -4473.8 L 5577 -4478.1"/><path stroke-width="5.9" fill="none" d="M 4738.1 -4256.6 L 4756.9 -4256.6 M 4734.4 -4267.8 L 4747.5 -4228.4 M 4747.5 -4228.4 L 4760.6 -4267.8 M 4786.9 -4247.2 L 4773.8 -4247.2 M 4773.8 -4267.8 L 4773.8 -4228.4 M 4773.8 -4228.4 L 4792.5 -4228.4 M 4820.6 -4247.2 L 4807.5 -4247.2 M 4807.5 -4267.8 L 4807.5 -4228.4 M 4807.5 -4228.4 L 4826.2 -4228.4 M 4861.9 -4267.8 L 4839.4 -4267.8 M 4850.6 -4267.8 L 4850.6 -4228.4 M 4850.6 -4228.4 L 4846.9 -4234.1 M 4846.9 -4234.1 L 4843.1 -4237.8 M 4843.1 -4237.8 L 4839.4 -4239.7 M 4636 -4217.8 L 4617.2 -4217.8 M 4617.2 -4217.8 L 4617.2 -4178.4 M 4643.5 -4178.4 L 4666 -4178.4 M 4654.7 -4217.8 L 4654.7 -4178.4 M 4679.1 -4217.8 L 4679.1 -4178.4 M 4679.1 -4178.4 L 4688.5 -4178.4 M 4688.5 -4178.4 L 4694.1 -4180.3 M 4694.1 -4180.3 L 4697.8 -4184.1 M 4697.8 -4184.1 L 4699.7 -4187.8 M 4699.7 -4187.8 L 4701.6 -4195.3 M 4701.6 -4195.3 L 4701.6 -4200.9 M 4701.6 -4200.9 L 4699.7 -4208.4 M 4699.7 -4208.4 L 4697.8 -4212.2 M 4697.8 -4212.2 L 4694.1 -4215.9 M 4694.1 -4215.9 L 4688.5 -4217.8 M 4688.5 -4217.8 L 4679.1 -4217.8 M 4718.4 -4202.8 L 4748.4 -4202.8 M 4765.3 -4182.2 L 4767.2 -4180.3 M 4767.2 -4180.3 L 4770.9 -4178.4 M 4770.9 -4178.4 L 4780.3 -4178.4 M 4780.3 -4178.4 L 4784.1 -4180.3 M 4784.1 -4180.3 L 4785.9 -4182.2 M 4785.9 -4182.2 L 4787.8 -4185.9 M 4787.8 -4185.9 L 4787.8 -4189.7 M 4787.8 -4189.7 L 4785.9 -4195.3 M 4785.9 -4195.3 L 4763.4 -4217.8 M 4763.4 -4217.8 L 4787.8 -4217.8 M 4821.6 -4178.4 L 4814.1 -4178.4 M 4814.1 -4178.4 L 4810.3 -4180.3 M 4810.3 -4180.3 L 4808.4 -4182.2 M 4808.4 -4182.2 L 4804.7 -4187.8 M 4804.7 -4187.8 L 4802.8 -4195.3 M 4802.8 -4195.3 L 4802.8 -4210.3 M 4802.8 -4210.3 L 4804.7 -4214.1 M 4804.7 -4214.1 L 4806.6 -4215.9 M 4806.6 -4215.9 L 4810.3 -4217.8 M 4810.3 -4217.8 L 4817.8 -4217.8 M 4817.8 -4217.8 L 4821.6 -4215.9 M 4821.6 -4215.9 L 4823.4 -4214.1 M 4823.4 -4214.1 L 4825.3 -4210.3 M 4825.3 -4210.3 L 4825.3 -4200.9 M 4825.3 -4200.9 L 4823.4 -4197.2 M 4823.4 -4197.2 L 4821.6 -4195.3 M 4821.6 -4195.3 L 4817.8 -4193.4 M 4817.8 -4193.4 L 4810.3 -4193.4 M 4810.3 -4193.4 L 4806.6 -4195.3 M 4806.6 -4195.3 L 4804.7 -4197.2 M 4804.7 -4197.2 L 4802.8 -4200.9 M 4849.7 -4178.4 L 4853.4 -4178.4 M 4853.4 -4178.4 L 4857.2 -4180.3 M 4857.2 -4180.3 L 4859.1 -4182.2 M 4859.1 -4182.2 L 4860.9 -4185.9 M 4860.9 -4185.9 L 4862.8 -4193.4 M 4862.8 -4193.4 L 4862.8 -4202.8 M 4862.8 -4202.8 L 4860.9 -4210.3 M 4860.9 -4210.3 L 4859.1 -4214.1 M 4859.1 -4214.1 L 4857.2 -4215.9 M 4857.2 -4215.9 L 4853.4 -4217.8 M 4853.4 -4217.8 L 4849.7 -4217.8 M 4849.7 -4217.8 L 4845.9 -4215.9 M 4845.9 -4215.9 L 4844.1 -4214.1 M 4844.1 -4214.1 L 4842.2 -4210.3 M 4842.2 -4210.3 L 4840.3 -4202.8 M 4840.3 -4202.8 L 4840.3 -4193.4 M 4840.3 -4193.4 L 4842.2 -4185.9 M 4842.2 -4185.9 L 4844.1 -4182.2 M 4844.1 -4182.2 L 4845.9 -4180.3 M 4845.9 -4180.3 L 4849.7 -4178.4 M 4900.3 -4217.8 L 4877.8 -4217.8 M 4889.1 -4217.8 L 4889.1 -4178.4 M 4889.1 -4178.4 L 4885.3 -4184.1 M 4885.3 -4184.1 L 4881.6 -4187.8 M 4881.6 -4187.8 L 4877.8 -4189.7 M 4913.4 -4178.4 L 4922.8 -4217.8 M 4922.8 -4217.8 L 4930.3 -4189.7 M 4930.3 -4189.7 L 4937.8 -4217.8 M 4937.8 -4217.8 L 4947.2 -4178.4 M 4984.7 -4214.1 L 4982.8 -4215.9 M 4982.8 -4215.9 L 4977.2 -4217.8 M 4977.2 -4217.8 L 4973.4 -4217.8 M 4973.4 -4217.8 L 4967.8 -4215.9 M 4967.8 -4215.9 L 4964 -4212.2 M 4964 -4212.2 L 4962.2 -4208.4 M 4962.2 -4208.4 L 4960.3 -4200.9 M 4960.3 -4200.9 L 4960.3 -4195.3 M 4960.3 -4195.3 L 4962.2 -4187.8 M 4962.2 -4187.8 L 4964 -4184.1 M 4964 -4184.1 L 4967.8 -4180.3 M 4967.8 -4180.3 L 4973.4 -4178.4 M 4973.4 -4178.4 L 4977.2 -4178.4 M 4977.2 -4178.4 L 4982.8 -4180.3 M 4982.8 -4180.3 L 4984.7 -4182.2 M 5388.1 -4256.6 L 5406.9 -4256.6 M 5384.4 -4267.8 L 5397.5 -4228.4 M 5397.5 -4228.4 L 5410.6 -4267.8 M 5436.9 -4247.2 L 5423.8 -4247.2 M 5423.8 -4267.8 L 5423.8 -4228.4 M 5423.8 -4228.4 L 5442.5 -4228.4 M 5470.6 -4247.2 L 5457.5 -4247.2 M 5457.5 -4267.8 L 5457.5 -4228.4 M 5457.5 -4228.4 L 5476.2 -4228.4 M 5489.4 -4232.2 L 5491.2 -4230.3 M 5491.2 -4230.3 L 5495 -4228.4 M 5495 -4228.4 L 5504.4 -4228.4 M 5504.4 -4228.4 L 5508.1 -4230.3 M 5508.1 -4230.3 L 5510 -4232.2 M 5510 -4232.2 L 5511.9 -4235.9 M 5511.9 -4235.9 L 5511.9 -4239.7 M 5511.9 -4239.7 L 5510 -4245.3 M 5510 -4245.3 L 5487.5 -4267.8 M 5487.5 -4267.8 L 5511.9 -4267.8 M 5286 -4217.8 L 5267.2 -4217.8 M 5267.2 -4217.8 L 5267.2 -4178.4 M 5293.5 -4178.4 L 5316 -4178.4 M 5304.7 -4217.8 L 5304.7 -4178.4 M 5329.1 -4217.8 L 5329.1 -4178.4 M 5329.1 -4178.4 L 5338.5 -4178.4 M 5338.5 -4178.4 L 5344.1 -4180.3 M 5344.1 -4180.3 L 5347.8 -4184.1 M 5347.8 -4184.1 L 5349.7 -4187.8 M 5349.7 -4187.8 L 5351.6 -4195.3 M 5351.6 -4195.3 L 5351.6 -4200.9 M 5351.6 -4200.9 L 5349.7 -4208.4 M 5349.7 -4208.4 L 5347.8 -4212.2 M 5347.8 -4212.2 L 5344.1 -4215.9 M 5344.1 -4215.9 L 5338.5 -4217.8 M 5338.5 -4217.8 L 5329.1 -4217.8 M 5368.4 -4202.8 L 5398.4 -4202.8 M 5415.3 -4182.2 L 5417.2 -4180.3 M 5417.2 -4180.3 L 5420.9 -4178.4 M 5420.9 -4178.4 L 5430.3 -4178.4 M 5430.3 -4178.4 L 5434.1 -4180.3 M 5434.1 -4180.3 L 5435.9 -4182.2 M 5435.9 -4182.2 L 5437.8 -4185.9 M 5437.8 -4185.9 L 5437.8 -4189.7 M 5437.8 -4189.7 L 5435.9 -4195.3 M 5435.9 -4195.3 L 5413.4 -4217.8 M 5413.4 -4217.8 L 5437.8 -4217.8 M 5471.6 -4178.4 L 5464.1 -4178.4 M 5464.1 -4178.4 L 5460.3 -4180.3 M 5460.3 -4180.3 L 5458.4 -4182.2 M 5458.4 -4182.2 L 5454.7 -4187.8 M 5454.7 -4187.8 L 5452.8 -4195.3 M 5452.8 -4195.3 L 5452.8 -4210.3 M 5452.8 -4210.3 L 5454.7 -4214.1 M 5454.7 -4214.1 L 5456.6 -4215.9 M 5456.6 -4215.9 L 5460.3 -4217.8 M 5460.3 -4217.8 L 5467.8 -4217.8 M 5467.8 -4217.8 L 5471.6 -4215.9 M 5471.6 -4215.9 L 5473.4 -4214.1 M 5473.4 -4214.1 L 5475.3 -4210.3 M 5475.3 -4210.3 L 5475.3 -4200.9 M 5475.3 -4200.9 L 5473.4 -4197.2 M 5473.4 -4197.2 L 5471.6 -4195.3 M 5471.6 -4195.3 L 5467.8 -4193.4 M 5467.8 -4193.4 L 5460.3 -4193.4 M 5460.3 -4193.4 L 5456.6 -4195.3 M 5456.6 -4195.3 L 5454.7 -4197.2 M 5454.7 -4197.2 L 5452.8 -4200.9 M 5499.7 -4178.4 L 5503.4 -4178.4 M 5503.4 -4178.4 L 5507.2 -4180.3 M 5507.2 -4180.3 L 5509.1 -4182.2 M 5509.1 -4182.2 L 5510.9 -4185.9 M 5510.9 -4185.9 L 5512.8 -4193.4 M 5512.8 -4193.4 L 5512.8 -4202.8 M 5512.8 -4202.8 L 5510.9 -4210.3 M 5510.9 -4210.3 L 5509.1 -4214.1 M 5509.1 -4214.1 L 5507.2 -4215.9 M 5507.2 -4215.9 L 5503.4 -4217.8 M 5503.4 -4217.8 L 5499.7 -4217.8 M 5499.7 -4217.8 L 5495.9 -4215.9 M 5495.9 -4215.9 L 5494.1 -4214.1 M 5494.1 -4214.1 L 5492.2 -4210.3 M 5492.2 -4210.3 L 5490.3 -4202.8 M 5490.3 -4202.8 L 5490.3 -4193.4 M 5490.3 -4193.4 L 5492.2 -4185.9 M 5492.2 -4185.9 L 5494.1 -4182.2 M 5494.1 -4182.2 L 5495.9 -4180.3 M 5495.9 -4180.3 L 5499.7 -4178.4 M 5550.3 -4217.8 L 5527.8 -4217.8 M 5539.1 -4217.8 L 5539.1 -4178.4 M 5539.1 -4178.4 L 5535.3 -4184.1 M 5535.3 -4184.1 L 5531.6 -4187.8 M 5531.6 -4187.8 L 5527.8 -4189.7 M 5563.4 -4178.4 L 5572.8 -4217.8 M 5572.8 -4217.8 L 5580.3 -4189.7 M 5580.3 -4189.7 L 5587.8 -4217.8 M 5587.8 -4217.8 L 5597.2 -4178.4 M 5634.7 -4214.1 L 5632.8 -4215.9 M 5632.8 -4215.9 L 5627.2 -4217.8 M 5627.2 -4217.8 L 5623.4 -4217.8 M 5623.4 -4217.8 L 5617.8 -4215.9 M 5617.8 -4215.9 L 5614 -4212.2 M 5614 -4212.2 L 5612.2 -4208.4 M 5612.2 -4208.4 L 5610.3 -4200.9 M 5610.3 -4200.9 L 5610.3 -4195.3 M 5610.3 -4195.3 L 5612.2 -4187.8 M 5612.2 -4187.8 L 5614 -4184.1 M 5614 -4184.1 L 5617.8 -4180.3 M 5617.8 -4180.3 L 5623.4 -4178.4 M 5623.4 -4178.4 L 5627.2 -4178.4 M 5627.2 -4178.4 L 5632.8 -4180.3 M 5632.8 -4180.3 L 5634.7 -4182.2 M 6038.1 -4256.6 L 6056.9 -4256.6 M 6034.4 -4267.8 L 6047.5 -4228.4 M 6047.5 -4228.4 L 6060.6 -4267.8 M 6086.9 -4247.2 L 6073.8 -4247.2 M 6073.8 -4267.8 L 6073.8 -4228.4 M 6073.8 -4228.4 L 6092.5 -4228.4 M 6120.6 -4247.2 L 6107.5 -4247.2 M 6107.5 -4267.8 L 6107.5 -4228.4 M 6107.5 -4228.4 L 6126.2 -4228.4 M 6137.5 -4228.4 L 6161.9 -4228.4 M 6161.9 -4228.4 L 6148.7 -4243.4 M 6148.7 -4243.4 L 6154.4 -4243.4 M 6154.4 -4243.4 L 6158.1 -4245.3 M 6158.1 -4245.3 L 6160 -4247.2 M 6160 -4247.2 L 6161.9 -4250.9 M 6161.9 -4250.9 L 6161.9 -4260.3 M 6161.9 -4260.3 L 6160 -4264.1 M 6160 -4264.1 L 6158.1 -4265.9 M 6158.1 -4265.9 L 6154.4 -4267.8 M 6154.4 -4267.8 L 6143.1 -4267.8 M 6143.1 -4267.8 L 6139.4 -4265.9 M 6139.4 -4265.9 L 6137.5 -4264.1 M 5936 -4217.8 L 5917.2 -4217.8 M 5917.2 -4217.8 L 5917.2 -4178.4 M 5943.5 -4178.4 L 5966 -4178.4 M 5954.7 -4217.8 L 5954.7 -4178.4 M 5979.1 -4217.8 L 5979.1 -4178.4 M 5979.1 -4178.4 L 5988.5 -4178.4 M 5988.5 -4178.4 L 5994.1 -4180.3 M 5994.1 -4180.3 L 5997.8 -4184.1 M 5997.8 -4184.1 L 5999.7 -4187.8 M 5999.7 -4187.8 L 6001.6 -4195.3 M 6001.6 -4195.3 L 6001.6 -4200.9 M 6001.6 -4200.9 L 5999.7 -4208.4 M 5999.7 -4208.4 L 5997.8 -4212.2 M 5997.8 -4212.2 L 5994.1 -4215.9 M 5994.1 -4215.9 L 5988.5 -4217.8 M 5988.5 -4217.8 L 5979.1 -4217.8 M 6018.4 -4202.8 L 6048.4 -4202.8 M 6065.3 -4182.2 L 6067.2 -4180.3 M 6067.2 -4180.3 L 6070.9 -4178.4 M 6070.9 -4178.4 L 6080.3 -4178.4 M 6080.3 -4178.4 L 6084.1 -4180.3 M 6084.1 -4180.3 L 6085.9 -4182.2 M 6085.9 -4182.2 L 6087.8 -4185.9 M 6087.8 -4185.9 L 6087.8 -4189.7 M 6087.8 -4189.7 L 6085.9 -4195.3 M 6085.9 -4195.3 L 6063.4 -4217.8 M 6063.4 -4217.8 L 6087.8 -4217.8 M 6121.6 -4178.4 L 6114.1 -4178.4 M 6114.1 -4178.4 L 6110.3 -4180.3 M 6110.3 -4180.3 L 6108.4 -4182.2 M 6108.4 -4182.2 L 6104.7 -4187.8 M 6104.7 -4187.8 L 6102.8 -4195.3 M 6102.8 -4195.3 L 6102.8 -4210.3 M 6102.8 -4210.3 L 6104.7 -4214.1 M 6104.7 -4214.1 L 6106.6 -4215.9 M 6106.6 -4215.9 L 6110.3 -4217.8 M 6110.3 -4217.8 L 6117.8 -4217.8 M 6117.8 -4217.8 L 6121.6 -4215.9 M 6121.6 -4215.9 L 6123.4 -4214.1 M 6123.4 -4214.1 L 6125.3 -4210.3 M 6125.3 -4210.3 L 6125.3 -4200.9 M 6125.3 -4200.9 L 6123.4 -4197.2 M 6123.4 -4197.2 L 6121.6 -4195.3 M 6121.6 -4195.3 L 6117.8 -4193.4 M 6117.8 -4193.4 L 6110.3 -4193.4 M 6110.3 -4193.4 L 6106.6 -4195.3 M 6106.6 -4195.3 L 6104.7 -4197.2 M 6104.7 -4197.2 L 6102.8 -4200.9 M 6149.7 -4178.4 L 6153.4 -4178.4 M 6153.4 -4178.4 L 6157.2 -4180.3 M 6157.2 -4180.3 L 6159.1 -4182.2 M 6159.1 -4182.2 L 6160.9 -4185.9 M 6160.9 -4185.9 L 6162.8 -4193.4 M 6162.8 -4193.4 L 6162.8 -4202.8 M 6162.8 -4202.8 L 6160.9 -4210.3 M 6160.9 -4210.3 L 6159.1 -4214.1 M 6159.1 -4214.1 L 6157.2 -4215.9 M 6157.2 -4215.9 L 6153.4 -4217.8 M 6153.4 -4217.8 L 6149.7 -4217.8 M 6149.7 -4217.8 L 6145.9 -4215.9 M 6145.9 -4215.9 L 6144.1 -4214.1 M 6144.1 -4214.1 L 6142.2 -4210.3 M 6142.2 -4210.3 L 6140.3 -4202.8 M 6140.3 -4202.8 L 6140.3 -4193.4 M 6140.3 -4193.4 L 6142.2 -4185.9 M 6142.2 -4185.9 L 6144.1 -4182.2 M 6144.1 -4182.2 L 6145.9 -4180.3 M 6145.9 -4180.3 L 6149.7 -4178.4 M 6200.3 -4217.8 L 6177.8 -4217.8 M 6189.1 -4217.8 L 6189.1 -4178.4 M 6189.1 -4178.4 L 6185.3 -4184.1 M 6185.3 -4184.1 L 6181.6 -4187.8 M 6181.6 -4187.8 L 6177.8 -4189.7 M 6213.4 -4178.4 L 6222.8 -4217.8 M 6222.8 -4217.8 L 6230.3 -4189.7 M 6230.3 -4189.7 L 6237.8 -4217.8 M 6237.8 -4217.8 L 6247.2 -4178.4 M 6284.7 -4214.1 L 6282.8 -4215.9 M 6282.8 -4215.9 L 6277.2 -4217.8 M 6277.2 -4217.8 L 6273.4 -4217.8 M 6273.4 -4217.8 L 6267.8 -4215.9 M 6267.8 -4215.9 L 6264 -4212.2 M 6264 -4212.2 L 6262.2 -4208.4 M 6262.2 -4208.4 L 6260.3 -4200.9 M 6260.3 -4200.9 L 6260.3 -4195.3 M 6260.3 -4195.3 L 6262.2 -4187.8 M 6262.2 -4187.8 L 6264 -4184.1 M 6264 -4184.1 L 6267.8 -4180.3 M 6267.8 -4180.3 L 6273.4 -4178.4 M 6273.4 -4178.4 L 6277.2 -4178.4 M 6277.2 -4178.4 L 6282.8 -4180.3 M 6282.8 -4180.3 L 6284.7 -4182.2"/></g></g><use class="pcb_board-cf" mask="url(#pcb_top-cu_finish-mask)" xlink:href="#pcb_top-sm"/></g></g></svg>